<svg width="33" height="32" viewBox="0 0 33 32" fill="none" xmlns="http://www.w3.org/2000/svg">
<path d="M6.77219 22.1382C5.51899 22.1389 4.50068 21.1192 4.50045 19.8663L4.5 12.9103C4.49955 11.6585 5.51763 10.639 6.76925 10.6388C7.37774 10.6383 7.94754 10.8744 8.37705 11.3034C8.80655 11.7325 9.04279 12.3032 9.04325 12.9099L9.04257 19.866C9.04414 20.1643 8.9863 20.4598 8.87242 20.7354C8.75854 21.011 8.59091 21.2612 8.37931 21.4713C8.16897 21.6834 7.91858 21.8516 7.64268 21.9661C7.36679 22.0806 7.07089 22.1391 6.77219 22.1382ZM6.77038 11.2491C5.85322 11.2486 5.10985 11.9938 5.10963 12.9103L5.11076 19.8656C5.1107 20.3063 5.28565 20.7291 5.59715 21.0409C5.90866 21.3527 6.33122 21.528 6.77196 21.5284C6.99022 21.5284 7.20633 21.4854 7.40796 21.4018C7.60958 21.3183 7.79275 21.1958 7.947 21.0414C8.10124 20.887 8.22353 20.7037 8.30688 20.5019C8.39022 20.3002 8.43298 20.0841 8.43271 19.8658V12.9094C8.43223 12.4689 8.25688 12.0465 7.94517 11.7352C7.63347 11.4239 7.21092 11.249 6.77038 11.2491Z" fill="#F4F4F4" style="fill:#F4F4F4;fill:color(display-p3 0.9569 0.9569 0.9569);fill-opacity:1;"/>
<path d="M24.5882 11.5934L23.9776 11.5932L9.01551 11.5952L8.40475 11.5955L8.4043 10.9847C8.40294 8.4774 9.76883 6.14547 12.0062 4.76781L11.1363 3.17992C11.03 2.99391 11.0033 2.75834 11.0653 2.54291C11.0967 2.43547 11.1492 2.33534 11.2196 2.24836C11.2901 2.16138 11.3772 2.08928 11.4757 2.03625C11.5976 1.96914 11.7347 1.93432 11.8738 1.9351C12.182 1.9351 12.4642 2.10232 12.6131 2.37252L13.5235 4.031C14.473 3.6835 15.4765 3.50691 16.4876 3.5094C17.5299 3.50895 18.5295 3.68523 19.4756 4.03236L20.3846 2.37116C20.457 2.23863 20.5638 2.12807 20.6937 2.05113C20.8237 1.97419 20.972 1.93371 21.123 1.93396C21.262 1.93353 21.3989 1.96758 21.5215 2.03308C21.6202 2.08609 21.7074 2.15836 21.7777 2.24562C21.8481 2.33288 21.9002 2.43335 21.9311 2.5411C21.9622 2.64736 21.9718 2.75874 21.9595 2.86876C21.9471 2.97878 21.913 3.08524 21.8591 3.18196L20.9897 4.76894C23.2234 6.14954 24.5877 8.47966 24.5875 10.9827L24.5882 11.5934ZM20.1651 5.00292L21.3244 2.88597C21.3409 2.85938 21.3519 2.82969 21.3566 2.79872C21.3613 2.76775 21.3596 2.73614 21.3517 2.70584C21.3438 2.67553 21.3298 2.64715 21.3106 2.62244C21.2913 2.59772 21.2672 2.57719 21.2398 2.56209C21.2123 2.54699 21.1821 2.53764 21.1509 2.53461C21.1197 2.53158 21.0883 2.53493 21.0584 2.54447C21.0286 2.554 21.001 2.56952 20.9774 2.59007C20.9537 2.61061 20.9345 2.63576 20.9209 2.66398L19.7496 4.80243C18.7644 4.36478 17.6612 4.1188 16.4951 4.11994C15.3315 4.1188 14.2304 4.36388 13.2481 4.79994L12.0756 2.66624C12.0613 2.63958 12.0419 2.61602 12.0184 2.59694C11.9949 2.57787 11.9678 2.56365 11.9388 2.55513C11.9098 2.5466 11.8793 2.54393 11.8492 2.54727C11.8192 2.55061 11.79 2.5599 11.7636 2.57459C11.6511 2.63479 11.6097 2.77622 11.6724 2.88665L12.8321 5.00202C10.5534 6.17737 9.0137 8.41539 9.01506 10.9849L23.977 10.9831C23.9776 8.41449 22.4407 6.18099 20.1651 5.00292ZM13.0921 8.27441C12.9257 8.27432 12.7662 8.20814 12.6486 8.09041C12.531 7.97269 12.465 7.81308 12.4651 7.64668C12.4652 7.48029 12.5314 7.32074 12.6491 7.20315C12.7668 7.08555 12.9264 7.01954 13.0928 7.01963C13.2592 7.01993 13.4188 7.08615 13.5364 7.2038C13.6541 7.32146 13.7204 7.48095 13.7208 7.64736C13.7205 7.81387 13.6542 7.97346 13.5363 8.09105C13.4184 8.20864 13.2586 8.27459 13.0921 8.27441ZM19.9051 8.27306C19.8227 8.2732 19.7411 8.25709 19.6649 8.22563C19.5888 8.19417 19.5196 8.148 19.4613 8.08974C19.403 8.03149 19.3568 7.96231 19.3253 7.88616C19.2938 7.81001 19.2777 7.7284 19.2778 7.646C19.2784 7.47966 19.3447 7.32028 19.4622 7.20255C19.5797 7.08481 19.739 7.01826 19.9053 7.01737C20.0714 7.01873 20.2303 7.08551 20.3475 7.20323C20.4647 7.32095 20.5308 7.48011 20.5315 7.64623C20.5315 7.72852 20.5153 7.81 20.4839 7.88604C20.4524 7.96207 20.4063 8.03116 20.3481 8.08937C20.2899 8.14757 20.2209 8.19375 20.1449 8.22527C20.0688 8.25679 19.9874 8.27303 19.9051 8.27306ZM13.7192 30.066C12.4671 30.0658 11.4481 29.0475 11.4479 27.7945L11.4475 24.7244L10.8505 24.7251C10.5374 24.7262 10.2272 24.6651 9.93787 24.5454C9.64855 24.4256 9.38588 24.2497 9.16509 24.0277C8.94276 23.8069 8.76658 23.5441 8.64681 23.2546C8.52703 22.9651 8.46606 22.6546 8.46743 22.3413L8.46517 11.5638V10.9526H9.07593L23.9258 10.9503L24.5368 10.9499V11.5606L24.5384 22.3395C24.5386 23.6541 23.4692 24.7237 22.1551 24.7235L21.5545 24.724L21.5552 27.7929C21.5552 29.0452 20.5364 30.0647 19.2848 30.0647C18.9864 30.0661 18.6906 30.008 18.4149 29.8939C18.1391 29.7798 17.8888 29.6119 17.6786 29.4C17.4666 29.1899 17.2984 28.9398 17.184 28.6641C17.0695 28.3884 17.0109 28.0928 17.0117 27.7943V24.724H15.9909V27.7936C15.9905 29.0461 14.9719 30.0662 13.7192 30.066Z" fill="#F4F4F4" style="fill:#F4F4F4;fill:color(display-p3 0.9569 0.9569 0.9569);fill-opacity:1;"/>
<path d="M9.07889 22.3408C9.07838 22.5737 9.12386 22.8044 9.21272 23.0197C9.30158 23.235 9.43207 23.4307 9.59671 23.5954C9.76134 23.7602 9.95689 23.8908 10.1721 23.9799C10.3874 24.0689 10.6181 24.1145 10.851 24.1142H12.0578L12.0591 27.7946C12.0589 28.7111 12.8034 29.4558 13.719 29.456C13.9372 29.4559 14.1533 29.4128 14.3548 29.3292C14.5564 29.2455 14.7395 29.123 14.8937 28.9686C15.0479 28.8142 15.1702 28.6309 15.2535 28.4293C15.3369 28.2276 15.3797 28.0115 15.3795 27.7933L15.3797 24.114L17.6221 24.1133L17.6218 27.7935C17.6227 28.7102 18.3681 29.4558 19.2835 29.454C20.2013 29.4547 20.9454 28.7091 20.9451 27.7921L20.944 24.1129L22.1553 24.1126C23.1327 24.1129 23.9277 23.3188 23.9277 22.3392L23.9256 11.5598L9.07617 11.5625L9.07889 22.3408ZM26.2297 22.1348C24.977 22.1351 23.958 21.117 23.9582 19.8638L23.9564 12.9081C23.9568 11.6551 24.9743 10.6359 26.2263 10.6359C27.48 10.6356 28.4996 11.6546 28.4994 12.9074L28.5001 19.8627C28.5003 21.115 27.4822 22.1351 26.2297 22.1348ZM26.2274 11.2466C25.3103 11.2457 24.5672 11.9904 24.5672 12.9081L24.5678 19.8636C24.5677 20.0818 24.6106 20.2978 24.6941 20.4994C24.7775 20.701 24.8999 20.8842 25.0542 21.0385C25.2085 21.1927 25.3917 21.3151 25.5934 21.3985C25.795 21.4819 26.0111 21.5247 26.2293 21.5245C26.4474 21.5245 26.6634 21.4815 26.865 21.398C27.0665 21.3145 27.2496 21.1921 27.4038 21.0378C27.558 20.8835 27.6803 20.7003 27.7637 20.4987C27.8471 20.2971 27.8899 20.081 27.8898 19.8629L27.888 12.9076C27.8881 12.6895 27.8453 12.4735 27.7619 12.2719C27.6785 12.0703 27.5562 11.8872 27.402 11.7329C27.2478 11.5787 27.0646 11.4563 26.8631 11.3729C26.6616 11.2894 26.4456 11.2465 26.2274 11.2466Z" fill="#F4F4F4" style="fill:#F4F4F4;fill:color(display-p3 0.9569 0.9569 0.9569);fill-opacity:1;"/>
<path d="M6.77061 11.249C5.85346 11.2486 5.11009 11.9938 5.10986 12.9102L5.11099 19.8655C5.11085 20.0838 5.15372 20.2999 5.23716 20.5015C5.3206 20.7032 5.44297 20.8864 5.59727 21.0407C5.75158 21.1951 5.93479 21.3175 6.13643 21.4009C6.33807 21.4844 6.55419 21.5273 6.77242 21.5272C6.99063 21.5274 7.20674 21.4846 7.40837 21.4012C7.61 21.3178 7.79319 21.1954 7.94744 21.041C8.1017 20.8867 8.22398 20.7034 8.30729 20.5018C8.3906 20.3001 8.43331 20.084 8.43295 19.8658V12.9093C8.43247 12.4688 8.25711 12.0465 7.94541 11.7351C7.6337 11.4238 7.21116 11.249 6.77061 11.249ZM20.1652 5.00296L21.3245 2.88601C21.3541 2.8323 21.3611 2.76908 21.3441 2.7102C21.3271 2.65132 21.2874 2.60159 21.2338 2.57191C21.1801 2.54286 21.117 2.53623 21.0584 2.55349C20.9998 2.57074 20.9504 2.61048 20.921 2.66401L19.75 4.80314C18.7647 4.36459 17.662 4.11884 16.4952 4.11997C15.3317 4.11884 14.2294 4.36391 13.2482 4.79998L12.0758 2.66628C12.0615 2.63964 12.042 2.61611 12.0185 2.59705C11.9951 2.57799 11.9681 2.56378 11.939 2.55523C11.91 2.54669 11.8796 2.54398 11.8496 2.54727C11.8195 2.55056 11.7904 2.55978 11.764 2.5744C11.7372 2.58869 11.7136 2.60815 11.6945 2.63167C11.6754 2.65518 11.6612 2.68227 11.6527 2.71135C11.6442 2.74043 11.6415 2.77091 11.6449 2.80102C11.6484 2.83112 11.6577 2.86025 11.6725 2.88668L12.8323 5.00228C10.5535 6.17741 9.01384 8.41543 9.01519 10.985L23.9771 10.9832C23.9778 8.41452 22.4408 6.18103 20.1652 5.00296ZM13.0923 8.27445C12.9259 8.27436 12.7663 8.20817 12.6487 8.09045C12.5312 7.97273 12.4651 7.81311 12.4652 7.64672C12.4653 7.48032 12.5315 7.32078 12.6492 7.20318C12.7669 7.08559 12.9266 7.01957 13.093 7.01966C13.2594 7.01996 13.4189 7.08619 13.5366 7.20384C13.6543 7.32149 13.7206 7.48098 13.7209 7.6474C13.7207 7.8139 13.6543 7.9735 13.5364 8.09108C13.4185 8.20867 13.2588 8.27463 13.0923 8.27445ZM19.9052 8.27309C19.8229 8.27315 19.7413 8.25697 19.6652 8.22548C19.589 8.194 19.5199 8.14781 19.4616 8.08958C19.4034 8.03134 19.3572 7.96219 19.3256 7.88609C19.2941 7.80998 19.2779 7.72841 19.2779 7.64604C19.2788 7.47978 19.3452 7.32057 19.4627 7.20291C19.5801 7.08524 19.7392 7.01859 19.9055 7.0174C20.0716 7.01877 20.2304 7.08555 20.3476 7.20327C20.4649 7.32098 20.531 7.48015 20.5316 7.64626C20.5317 7.72857 20.5156 7.81008 20.4841 7.88614C20.4527 7.9622 20.4065 8.03132 20.3484 8.08954C20.2902 8.14775 20.2211 8.19393 20.1451 8.22543C20.069 8.25692 19.9875 8.27312 19.9052 8.27309ZM9.07629 11.5629L9.07878 22.3423C9.07851 22.5751 9.12418 22.8057 9.21315 23.0208C9.30212 23.2359 9.43266 23.4314 9.5973 23.596C9.76193 23.7606 9.95741 23.8911 10.1726 23.9801C10.3877 24.069 10.6183 24.1147 10.8511 24.1144L12.0579 24.1148L12.0593 27.7952C12.059 28.7117 12.804 29.4567 13.7191 29.4567C14.6369 29.4567 15.3805 28.711 15.3808 27.7941L15.3799 24.1146L17.6222 24.1139L17.6231 27.7941C17.6231 28.7099 18.3683 29.4564 19.2836 29.4546C20.2014 29.4553 20.9455 28.7097 20.9453 27.7927L20.9441 24.1135L22.1552 24.1126C22.3881 24.1126 22.6186 24.0668 22.8337 23.9777C23.0489 23.8886 23.2443 23.758 23.409 23.5934C23.5737 23.4288 23.7043 23.2334 23.7934 23.0183C23.8825 22.8032 23.9284 22.5726 23.9285 22.3398L23.9264 11.5604L9.07629 11.5629ZM27.8888 12.9078C27.8888 12.6896 27.8459 12.4736 27.7624 12.2721C27.6789 12.0705 27.5565 11.8874 27.4023 11.7332C27.248 11.579 27.0648 11.4567 26.8633 11.3732C26.6617 11.2898 26.4457 11.2469 26.2276 11.247C25.3104 11.2461 24.5673 11.9908 24.5673 12.9084L24.5686 19.8642C24.5685 20.0823 24.6113 20.2983 24.6947 20.4999C24.7782 20.7014 24.9005 20.8846 25.0547 21.0388C25.209 21.1931 25.3921 21.3154 25.5937 21.3988C25.7952 21.4822 26.0112 21.5251 26.2294 21.5249C26.4475 21.525 26.6636 21.482 26.8651 21.3985C27.0667 21.315 27.2498 21.1926 27.404 21.0382C27.5582 20.8839 27.6805 20.7007 27.7639 20.4991C27.8473 20.2975 27.8901 20.0814 27.8899 19.8633L27.8888 12.9078Z" fill="#1F1F1F" style="fill:#1F1F1F;fill:color(display-p3 0.1216 0.1216 0.1216);fill-opacity:1;"/>
</svg>
