<svg width="41" height="40" viewBox="0 0 41 40" fill="none" xmlns="http://www.w3.org/2000/svg">
<path d="M16.1155 15.3257C17.2688 18.4772 17.7056 24.0988 21.078 24.0988C21.3345 24.0988 21.5943 24.0764 21.8546 24.0321C18.7892 23.3935 18.4257 17.833 16.5549 14.9531C16.4058 15.0749 16.2593 15.1991 16.1155 15.3257Z" fill="url(#paint0_linear_2097_19172)" style=""/>
<path d="M16.554 14.9547C18.4248 17.8344 18.7882 23.3949 21.8536 24.0337C22.0996 23.9922 22.3417 23.9338 22.5777 23.859C19.8259 22.6541 19.0655 17.2546 16.9409 14.6552C16.8124 14.7508 16.6832 14.8509 16.554 14.9547Z" fill="url(#paint1_linear_2097_19172)" style=""/>
<path d="M19.2492 13.2411C18.9934 13.2411 18.733 13.2635 18.4719 13.3078C17.7899 13.4229 17.0964 13.6853 16.3977 14.0827C16.5883 14.2511 16.7703 14.4436 16.9411 14.6539C17.6521 14.1268 18.3581 13.7374 19.0612 13.5031C19.318 13.4173 19.5826 13.3516 19.8521 13.3067C19.655 13.2626 19.4525 13.2405 19.2492 13.2411Z" fill="url(#paint2_linear_2097_19172)" style=""/>
<path d="M24.7256 22.7486C25.0187 22.5393 25.301 22.3182 25.5716 22.086C24.3997 18.9494 23.9801 13.2471 20.5842 13.2471C20.3414 13.2471 20.0964 13.2674 19.8521 13.3077C22.9454 13.9953 23.3417 20.0092 24.7256 22.7486Z" fill="url(#paint3_linear_2097_19172)" style=""/>
<path d="M19.8529 13.306C19.6556 13.2617 19.4529 13.2396 19.2495 13.2402L20.5848 13.2447C20.3422 13.2447 20.0973 13.2647 19.8529 13.306Z" fill="url(#paint4_linear_2097_19172)" style=""/>
<path d="M24.6667 23.4144C24.5316 23.2976 24.4038 23.1742 24.2839 23.0448C23.7126 23.4062 23.1434 23.6804 22.5781 23.8589C22.7794 23.9466 22.9901 24.0119 23.2142 24.0523C23.3876 24.084 23.5675 24.1003 23.756 24.1003C24.3907 24.1003 24.8926 24.0331 25.3192 23.8502C25.0842 23.7364 24.8685 23.5894 24.6667 23.4144Z" fill="url(#paint5_linear_2097_19172)" style=""/>
<path d="M19.0615 13.5038C21.8321 14.7987 22.0731 20.663 24.2839 23.0441C24.4322 22.9507 24.5789 22.8518 24.7254 22.7475C23.3416 20.0081 22.946 13.9935 19.8532 13.3066C19.5892 13.3507 19.3258 13.4161 19.0615 13.5038Z" fill="url(#paint6_linear_2097_19172)" style=""/>
<path d="M16.9409 14.6552C19.0655 17.2546 19.8259 22.6543 22.5777 23.8592C23.1432 23.6807 23.7124 23.4068 24.2835 23.0451C22.0727 20.6641 21.8317 14.8 19.0611 13.5049C18.3579 13.7387 17.6519 14.1281 16.9409 14.6552Z" fill="url(#paint7_linear_2097_19172)" style=""/>
<path d="M14.7555 15.2508C14.4226 15.9234 14.0824 16.8079 13.6714 17.9622C14.4889 16.9325 15.3041 16.0457 16.1145 15.3268C16.0123 15.0405 15.8918 14.7596 15.7537 14.4855C15.4056 14.7241 15.0724 14.9796 14.7555 15.2508Z" fill="url(#paint8_linear_2097_19172)" style=""/>
<path d="M16.0494 14.291C15.9518 14.3535 15.8534 14.4175 15.7544 14.4851C15.8836 14.7371 16.0032 15.0199 16.1147 15.3267C16.2588 15.2002 16.4054 15.076 16.5544 14.9541C16.4054 14.7218 16.2366 14.5001 16.0494 14.291Z" fill="url(#paint9_linear_2097_19172)" style=""/>
<path d="M16.3969 14.083C16.2808 14.1488 16.1651 14.2183 16.0479 14.2909C16.2293 14.4904 16.3959 14.7132 16.5534 14.9545C16.6826 14.8499 16.8116 14.7494 16.9403 14.6542C16.7695 14.4442 16.5878 14.2515 16.3969 14.083Z" fill="url(#paint10_linear_2097_19172)" style=""/>
<path d="M35.2958 13.0012C33.7289 18.4011 30.456 22.7386 27.7123 23.8319H27.7068L27.5588 23.8886L27.5408 23.8949L27.4987 23.9094L27.4799 23.9164L27.4112 23.9381L27.383 23.9469L27.3488 23.957L27.3159 23.9672L27.2867 23.9761L27.2282 23.992L27.2031 23.9978L27.1637 24.0074L27.1368 24.0139L27.0937 24.0239L27.0413 24.0342C27.1653 24.075 27.2945 24.0958 27.4337 24.0958C30.0356 24.0958 32.6592 19.9292 37.0001 13H35.2956L35.2958 13.0012Z" fill="url(#paint11_linear_2097_19172)" style=""/>
<path d="M13.106 13.4614L13.111 13.4577L13.117 13.4542H13.1204L13.1624 13.4397L13.1708 13.436L13.1817 13.432L13.2269 13.4176H13.2293L13.3293 13.3863L13.3441 13.3828L13.387 13.3714L13.4065 13.3658L13.4496 13.3543L13.4661 13.3504L13.6092 13.3172L13.6287 13.3133L13.6705 13.306L13.6909 13.3004L13.7329 13.2934H13.7429L13.8298 13.279H13.847L13.8872 13.2727L13.91 13.2692L13.9483 13.264L13.9695 13.2603L14.063 13.2528C13.9709 13.2448 13.8784 13.2406 13.7859 13.2402C10.8555 13.2402 6.81834 18.0984 5 24.3902H5.35066C5.89431 23.5218 6.42198 22.6454 6.93349 21.7616C8.20742 17.3051 10.8015 14.2659 13.106 13.4607" fill="url(#paint12_linear_2097_19172)" style=""/>
<path d="M14.7559 15.2516C15.0729 14.9805 15.4061 14.7249 15.7541 14.4861C15.6833 14.3453 15.6039 14.2081 15.5162 14.0752C15.2483 14.3659 15.0034 14.7495 14.7559 15.2516Z" fill="url(#paint13_linear_2097_19172)" style=""/>
<path d="M14.9961 13.4985C15.1875 13.6417 15.359 13.8391 15.5157 14.0755C15.565 14.0213 15.6151 13.9712 15.6671 13.9241C15.4567 13.7462 15.2181 13.597 14.959 13.4814L14.9903 13.4947L14.9961 13.4985Z" fill="url(#paint14_linear_2097_19172)" style=""/>
<path d="M6.93408 21.7607C9.60597 17.1598 10.8718 14.248 13.1066 13.4598C10.8024 14.2657 8.20775 17.3047 6.93408 21.7607Z" fill="url(#paint15_linear_2097_19172)" style=""/>
<path d="M15.6671 13.923C15.6151 13.9706 15.5655 14.0203 15.5156 14.0744C15.5997 14.1999 15.6778 14.3367 15.754 14.485C15.8527 14.4174 15.9514 14.3537 16.0488 14.2909C15.9313 14.1604 15.8038 14.0375 15.6671 13.923Z" fill="url(#paint16_linear_2097_19172)" style=""/>
<path d="M8.14648 24.3691L8.09791 24.3742H8.08878L8.04752 24.3779H8.04073L7.94256 24.3837H7.93237C10.6364 24.3161 11.8727 23.1063 12.486 21.3513C12.9521 20.0211 13.3352 18.9002 13.6707 17.96C12.538 19.3846 11.4001 21.0827 10.2562 22.9855C9.70476 23.9024 8.86582 24.2855 8.14648 24.3672" fill="url(#paint17_linear_2097_19172)" style=""/>
<path d="M8.14748 24.3675C8.86682 24.2856 9.70575 23.903 10.2572 22.9856C11.4011 21.0838 12.5395 19.3852 13.6712 17.9603C14.0829 16.8056 14.4226 15.9218 14.7558 15.2489C12.5001 17.1675 10.2358 20.3577 8.14722 24.3664" fill="url(#paint18_linear_2097_19172)" style=""/>
<path d="M6.93367 21.7627C6.42218 22.6466 5.89441 23.5229 5.35059 24.3913H6.36994C6.49867 23.5059 6.68684 22.6283 6.93341 21.7632" fill="url(#paint19_linear_2097_19172)" style=""/>
<path d="M13.9699 13.2622L13.9482 13.2659L13.9101 13.2708L13.8876 13.2743L13.8474 13.2806L13.8302 13.2843L13.7433 13.2979H13.7333L13.691 13.3053L13.6699 13.3105L13.6289 13.3177L13.6096 13.3219L13.4662 13.355L13.4498 13.3592L13.4064 13.3707L13.3868 13.3756L13.3443 13.387L13.3286 13.3907L13.2291 13.422L13.184 13.436L13.1652 13.443L13.1231 13.457L13.109 13.4631C10.8745 14.251 9.60865 17.1628 6.93676 21.7637C6.68966 22.6287 6.50149 23.5064 6.37329 24.3918H6.51612L7.49657 24.3881H7.94645L8.04437 24.3822H8.05063L8.09189 24.3785H8.10155L8.15011 24.3734C10.239 20.3645 12.5033 17.1745 14.7587 15.2559C15.0067 14.7538 15.2514 14.3702 15.5188 14.08C15.3621 13.8436 15.1908 13.6458 14.9997 13.5023L14.9942 13.4985L14.9624 13.4848L14.9308 13.4705L14.9002 13.4572L14.8639 13.4437L14.8357 13.4327L14.7764 13.4106L14.7511 13.4022L14.707 13.3863L14.6832 13.3793L14.6219 13.3604H14.6169L14.5459 13.3424L14.53 13.338L14.4702 13.3231L14.4563 13.3196C14.4072 13.3082 14.3577 13.2985 14.3078 13.2904L14.2924 13.2867L14.2279 13.2773L14.2151 13.2738L14.1388 13.2647H14.1255L14.0665 13.2589L13.973 13.2666" fill="url(#paint20_linear_2097_19172)" style=""/>
<path d="M29.1758 15.9906C28.6614 17.4622 28.2455 18.6761 27.8828 19.675C29.2936 17.9402 30.6832 15.7582 32.0062 13.2402C30.4623 13.6735 29.6393 14.6651 29.1758 15.9906Z" fill="url(#paint21_linear_2097_19172)" style=""/>
<path d="M27.9273 23.7402C27.8555 23.7728 27.7832 23.8039 27.7124 23.8321C30.4561 22.7385 33.7293 18.4011 35.2959 13.0011H34.9784C31.3783 18.748 30.2206 22.5952 27.9273 23.7402Z" fill="url(#paint22_linear_2097_19172)" style=""/>
<path d="M26.1358 23.2562C26.733 22.605 27.2189 21.4982 27.8829 19.6738C27.1171 20.6139 26.3463 21.4219 25.5747 22.0808L25.5708 22.0866C25.7392 22.5371 25.9238 22.935 26.1343 23.256" fill="url(#paint23_linear_2097_19172)" style=""/>
<path d="M26.1363 23.2588C25.9332 23.4804 25.7178 23.6491 25.4786 23.7742C25.4264 23.8015 25.3731 23.8272 25.3193 23.8505C25.5789 23.9762 25.8631 24.0563 26.1564 24.0864L26.2933 24.0971H26.3014L26.3672 24.1008H26.5904L26.6157 24.0971L26.6651 24.0934H26.6891L26.7426 24.0882H26.7471L26.7635 24.0847L26.8207 24.0768H26.8374L26.9016 24.0672H26.9121L27.0403 24.043C26.686 23.9273 26.3896 23.654 26.1345 23.2651" fill="url(#paint24_linear_2097_19172)" style=""/>
<path d="M21.0774 24.0987C21.3338 24.0987 21.5933 24.0763 21.8537 24.0315C22.0997 23.9905 22.3418 23.9322 22.5777 23.8573C22.779 23.945 22.99 24.0103 23.2135 24.0511C23.3869 24.0826 23.567 24.099 23.7558 24.099L21.0774 24.0987ZM23.7558 24.099C24.39 24.099 24.8924 24.0315 25.3188 23.8484C25.5784 23.9742 25.8625 24.0544 26.1559 24.0845L26.2927 24.095H26.3008L26.3666 24.0987H26.4455L23.7558 24.099Z" fill="url(#paint25_linear_2097_19172)" style=""/>
<path d="M26.4453 24.0981H26.5918L26.6171 24.0944L26.667 24.0907H26.691L26.7443 24.0855H26.7487L26.7649 24.0818L26.8221 24.0741L26.8396 24.0706L26.9041 24.0613H26.9143L27.0425 24.037C27.1665 24.0778 27.2957 24.0986 27.4349 24.0986L26.4458 24.1023L26.4453 24.0981Z" fill="url(#paint26_linear_2097_19172)" style=""/>
<path d="M25.572 22.0876V22.0839C25.3014 22.3161 25.0191 22.5372 24.726 22.7465C24.5818 22.8491 24.4344 22.948 24.2839 23.043C24.4082 23.1756 24.5343 23.2997 24.6672 23.4129C24.8688 23.5876 25.0842 23.7348 25.3195 23.8485C25.373 23.8249 25.4265 23.7992 25.4785 23.7722C25.7182 23.6471 25.9331 23.4782 26.1365 23.2568C25.926 22.9357 25.7414 22.5377 25.5733 22.0874" fill="url(#paint27_linear_2097_19172)" style=""/>
<path d="M33.9734 13.0011H32.3752L32.1219 13.0121L32.0042 13.2375C30.6809 15.7557 29.2918 17.9377 27.8811 19.6724C27.2179 21.4965 26.7312 22.6036 26.1343 23.2546C26.3894 23.6438 26.6863 23.9172 27.0393 24.0332L27.0669 24.0278H27.0727L27.0923 24.0241L27.1367 24.0143L27.163 24.0075L27.2025 23.9984L27.227 23.9921L27.286 23.9763L27.3153 23.9674L27.3482 23.9567L27.3821 23.9471L27.4098 23.9378L27.4787 23.9161L27.4978 23.9098L27.5401 23.8951L27.5578 23.8892L27.7061 23.8325H27.7114C27.7821 23.8048 27.8542 23.7733 27.9257 23.7406C30.2195 22.5955 31.3775 18.7485 34.9776 13.0018H33.9721L33.9734 13.0011Z" fill="url(#paint28_linear_2097_19172)" style=""/>
<path d="M14.063 13.2541L14.0794 13.2579L14.1212 13.2618H14.1353L14.2116 13.2707L14.2244 13.2744L14.2886 13.284L14.3048 13.2875L14.4528 13.3169L14.4664 13.3206L14.5259 13.3356L14.5424 13.34L14.6131 13.358L14.6186 13.3617L14.6805 13.3806L14.704 13.3874L14.7484 13.4035L14.7735 13.4114L14.8325 13.4333L14.8612 13.4443L14.8967 13.4581L14.928 13.4714L14.9591 13.4858C15.2147 13.5978 15.4497 13.7474 15.6675 13.9287C15.7479 13.8533 15.8315 13.7856 15.9187 13.7247C15.4427 13.4231 14.903 13.2511 14.2813 13.2511C14.2092 13.2511 14.1371 13.2548 14.064 13.2597" fill="url(#paint29_linear_2097_19172)" style=""/>
<path d="M15.6667 13.9227C15.8002 14.0335 15.9279 14.1572 16.0485 14.2906C16.1655 14.2181 16.2814 14.1481 16.3976 14.0827C16.2494 13.9494 16.0888 13.8276 15.9174 13.7188C15.8305 13.7794 15.7472 13.8475 15.6667 13.9227Z" fill="url(#paint30_linear_2097_19172)" style=""/>
<path d="M13.9944 13.2692L14.2118 13.2609C14.8339 13.2609 15.3731 13.4329 15.8489 13.7344C16.3511 13.3799 16.9586 13.2562 17.8022 13.2562H13.7175L13.9944 13.2692Z" fill="url(#paint31_linear_2097_19172)" style=""/>
<path d="M17.8029 13.2565C16.9593 13.2565 16.3531 13.3801 15.8496 13.7347C16.0157 13.8395 16.1765 13.962 16.3294 14.0986C17.0293 13.7017 17.7212 13.4379 18.404 13.3236C18.665 13.28 18.9246 13.2577 19.1803 13.2577L17.8029 13.2565Z" fill="url(#paint32_linear_2097_19172)" style=""/>
<path d="M27.8831 19.6754C28.2463 18.6758 28.6612 17.4623 29.1766 15.9903C29.6406 14.6641 30.4625 13.6725 32.0057 13.2399L32.1247 13.0145C29.6087 13.1492 28.4327 14.2929 27.8413 15.9866C26.8063 18.9434 26.1794 20.8602 25.5757 22.0816C26.3465 21.4229 27.1172 20.6145 27.8831 19.6754Z" fill="url(#paint33_linear_2097_19172)" style=""/>
<defs>
<linearGradient id="paint0_linear_2097_19172" x1="19.0336" y1="13.1824" x2="19.0336" y2="26.8079" gradientUnits="userSpaceOnUse">
<stop stop-color="#1F1F1F" style="stop-color:#1F1F1F;stop-color:color(display-p3 0.1216 0.1216 0.1216);stop-opacity:1;"/>
<stop offset="0.36" stop-color="#1F1F1F" style="stop-color:#1F1F1F;stop-color:color(display-p3 0.1216 0.1216 0.1216);stop-opacity:1;"/>
<stop offset="0.846" stop-color="#AFADAA" style="stop-color:#AFADAA;stop-color:color(display-p3 0.6863 0.6784 0.6667);stop-opacity:1;"/>
<stop offset="1" stop-color="#C2C2C2" style="stop-color:#C2C2C2;stop-color:color(display-p3 0.7608 0.7608 0.7608);stop-opacity:1;"/>
</linearGradient>
<linearGradient id="paint1_linear_2097_19172" x1="19.6168" y1="12.8393" x2="19.6168" y2="26.8117" gradientUnits="userSpaceOnUse">
<stop stop-color="#1F1F1F" style="stop-color:#1F1F1F;stop-color:color(display-p3 0.1216 0.1216 0.1216);stop-opacity:1;"/>
<stop offset="0.36" stop-color="#1F1F1F" style="stop-color:#1F1F1F;stop-color:color(display-p3 0.1216 0.1216 0.1216);stop-opacity:1;"/>
<stop offset="0.846" stop-color="#AFADAA" style="stop-color:#AFADAA;stop-color:color(display-p3 0.6863 0.6784 0.6667);stop-opacity:1;"/>
<stop offset="1" stop-color="#C2C2C2" style="stop-color:#C2C2C2;stop-color:color(display-p3 0.7608 0.7608 0.7608);stop-opacity:1;"/>
</linearGradient>
<linearGradient id="paint2_linear_2097_19172" x1="18.1542" y1="12.9676" x2="18.1542" y2="15.0723" gradientUnits="userSpaceOnUse">
<stop stop-color="#1F1F1F" style="stop-color:#1F1F1F;stop-color:color(display-p3 0.1216 0.1216 0.1216);stop-opacity:1;"/>
<stop offset="0.36" stop-color="#1F1F1F" style="stop-color:#1F1F1F;stop-color:color(display-p3 0.1216 0.1216 0.1216);stop-opacity:1;"/>
<stop offset="0.846" stop-color="#AFADAA" style="stop-color:#AFADAA;stop-color:color(display-p3 0.6863 0.6784 0.6667);stop-opacity:1;"/>
<stop offset="1" stop-color="#C2C2C2" style="stop-color:#C2C2C2;stop-color:color(display-p3 0.7608 0.7608 0.7608);stop-opacity:1;"/>
</linearGradient>
<linearGradient id="paint3_linear_2097_19172" x1="22.7602" y1="11.4074" x2="22.7602" y2="25.563" gradientUnits="userSpaceOnUse">
<stop stop-color="#1F1F1F" style="stop-color:#1F1F1F;stop-color:color(display-p3 0.1216 0.1216 0.1216);stop-opacity:1;"/>
<stop offset="0.36" stop-color="#1F1F1F" style="stop-color:#1F1F1F;stop-color:color(display-p3 0.1216 0.1216 0.1216);stop-opacity:1;"/>
<stop offset="0.846" stop-color="#AFADAA" style="stop-color:#AFADAA;stop-color:color(display-p3 0.6863 0.6784 0.6667);stop-opacity:1;"/>
<stop offset="1" stop-color="#C2C2C2" style="stop-color:#C2C2C2;stop-color:color(display-p3 0.7608 0.7608 0.7608);stop-opacity:1;"/>
</linearGradient>
<linearGradient id="paint4_linear_2097_19172" x1="19.9285" y1="13.2275" x2="19.9285" y2="13.3255" gradientUnits="userSpaceOnUse">
<stop stop-color="#1F1F1F" style="stop-color:#1F1F1F;stop-color:color(display-p3 0.1216 0.1216 0.1216);stop-opacity:1;"/>
<stop offset="0.36" stop-color="#1F1F1F" style="stop-color:#1F1F1F;stop-color:color(display-p3 0.1216 0.1216 0.1216);stop-opacity:1;"/>
<stop offset="0.846" stop-color="#AFADAA" style="stop-color:#AFADAA;stop-color:color(display-p3 0.6863 0.6784 0.6667);stop-opacity:1;"/>
<stop offset="1" stop-color="#C2C2C2" style="stop-color:#C2C2C2;stop-color:color(display-p3 0.7608 0.7608 0.7608);stop-opacity:1;"/>
</linearGradient>
<linearGradient id="paint5_linear_2097_19172" x1="23.9719" y1="22.8404" x2="23.9719" y2="24.413" gradientUnits="userSpaceOnUse">
<stop stop-color="#1F1F1F" style="stop-color:#1F1F1F;stop-color:color(display-p3 0.1216 0.1216 0.1216);stop-opacity:1;"/>
<stop offset="0.36" stop-color="#1F1F1F" style="stop-color:#1F1F1F;stop-color:color(display-p3 0.1216 0.1216 0.1216);stop-opacity:1;"/>
<stop offset="0.846" stop-color="#AFADAA" style="stop-color:#AFADAA;stop-color:color(display-p3 0.6863 0.6784 0.6667);stop-opacity:1;"/>
<stop offset="1" stop-color="#C2C2C2" style="stop-color:#C2C2C2;stop-color:color(display-p3 0.7608 0.7608 0.7608);stop-opacity:1;"/>
</linearGradient>
<linearGradient id="paint6_linear_2097_19172" x1="21.9414" y1="11.4213" x2="21.9414" y2="25.9283" gradientUnits="userSpaceOnUse">
<stop stop-color="#1F1F1F" style="stop-color:#1F1F1F;stop-color:color(display-p3 0.1216 0.1216 0.1216);stop-opacity:1;"/>
<stop offset="0.36" stop-color="#1F1F1F" style="stop-color:#1F1F1F;stop-color:color(display-p3 0.1216 0.1216 0.1216);stop-opacity:1;"/>
<stop offset="0.846" stop-color="#AFADAA" style="stop-color:#AFADAA;stop-color:color(display-p3 0.6863 0.6784 0.6667);stop-opacity:1;"/>
<stop offset="1" stop-color="#C2C2C2" style="stop-color:#C2C2C2;stop-color:color(display-p3 0.7608 0.7608 0.7608);stop-opacity:1;"/>
</linearGradient>
<linearGradient id="paint7_linear_2097_19172" x1="20.6744" y1="11.5001" x2="20.6744" y2="26.9262" gradientUnits="userSpaceOnUse">
<stop stop-color="#1F1F1F" style="stop-color:#1F1F1F;stop-color:color(display-p3 0.1216 0.1216 0.1216);stop-opacity:1;"/>
<stop offset="0.36" stop-color="#1F1F1F" style="stop-color:#1F1F1F;stop-color:color(display-p3 0.1216 0.1216 0.1216);stop-opacity:1;"/>
<stop offset="0.846" stop-color="#AFADAA" style="stop-color:#AFADAA;stop-color:color(display-p3 0.6863 0.6784 0.6667);stop-opacity:1;"/>
<stop offset="1" stop-color="#C2C2C2" style="stop-color:#C2C2C2;stop-color:color(display-p3 0.7608 0.7608 0.7608);stop-opacity:1;"/>
</linearGradient>
<linearGradient id="paint8_linear_2097_19172" x1="14.9137" y1="13.8123" x2="14.9137" y2="18.992" gradientUnits="userSpaceOnUse">
<stop stop-color="#1F1F1F" style="stop-color:#1F1F1F;stop-color:color(display-p3 0.1216 0.1216 0.1216);stop-opacity:1;"/>
<stop offset="0.36" stop-color="#1F1F1F" style="stop-color:#1F1F1F;stop-color:color(display-p3 0.1216 0.1216 0.1216);stop-opacity:1;"/>
<stop offset="0.846" stop-color="#AFADAA" style="stop-color:#AFADAA;stop-color:color(display-p3 0.6863 0.6784 0.6667);stop-opacity:1;"/>
<stop offset="1" stop-color="#C2C2C2" style="stop-color:#C2C2C2;stop-color:color(display-p3 0.7608 0.7608 0.7608);stop-opacity:1;"/>
</linearGradient>
<linearGradient id="paint9_linear_2097_19172" x1="16.1612" y1="14.0905" x2="16.1612" y2="15.6335" gradientUnits="userSpaceOnUse">
<stop stop-color="#1F1F1F" style="stop-color:#1F1F1F;stop-color:color(display-p3 0.1216 0.1216 0.1216);stop-opacity:1;"/>
<stop offset="0.36" stop-color="#1F1F1F" style="stop-color:#1F1F1F;stop-color:color(display-p3 0.1216 0.1216 0.1216);stop-opacity:1;"/>
<stop offset="0.846" stop-color="#AFADAA" style="stop-color:#AFADAA;stop-color:color(display-p3 0.6863 0.6784 0.6667);stop-opacity:1;"/>
<stop offset="1" stop-color="#C2C2C2" style="stop-color:#C2C2C2;stop-color:color(display-p3 0.7608 0.7608 0.7608);stop-opacity:1;"/>
</linearGradient>
<linearGradient id="paint10_linear_2097_19172" x1="16.5016" y1="13.9143" x2="16.5016" y2="15.2126" gradientUnits="userSpaceOnUse">
<stop stop-color="#1F1F1F" style="stop-color:#1F1F1F;stop-color:color(display-p3 0.1216 0.1216 0.1216);stop-opacity:1;"/>
<stop offset="0.36" stop-color="#1F1F1F" style="stop-color:#1F1F1F;stop-color:color(display-p3 0.1216 0.1216 0.1216);stop-opacity:1;"/>
<stop offset="0.846" stop-color="#AFADAA" style="stop-color:#AFADAA;stop-color:color(display-p3 0.6863 0.6784 0.6667);stop-opacity:1;"/>
<stop offset="1" stop-color="#C2C2C2" style="stop-color:#C2C2C2;stop-color:color(display-p3 0.7608 0.7608 0.7608);stop-opacity:1;"/>
</linearGradient>
<linearGradient id="paint11_linear_2097_19172" x1="32.105" y1="10.8517" x2="32.105" y2="27.3825" gradientUnits="userSpaceOnUse">
<stop stop-color="#1F1F1F" style="stop-color:#1F1F1F;stop-color:color(display-p3 0.1216 0.1216 0.1216);stop-opacity:1;"/>
<stop offset="0.36" stop-color="#1F1F1F" style="stop-color:#1F1F1F;stop-color:color(display-p3 0.1216 0.1216 0.1216);stop-opacity:1;"/>
<stop offset="0.846" stop-color="#AFADAA" style="stop-color:#AFADAA;stop-color:color(display-p3 0.6863 0.6784 0.6667);stop-opacity:1;"/>
<stop offset="1" stop-color="#C2C2C2" style="stop-color:#C2C2C2;stop-color:color(display-p3 0.7608 0.7608 0.7608);stop-opacity:1;"/>
</linearGradient>
<linearGradient id="paint12_linear_2097_19172" x1="9.60822" y1="11.0814" x2="9.60822" y2="27.6929" gradientUnits="userSpaceOnUse">
<stop stop-color="#1F1F1F" style="stop-color:#1F1F1F;stop-color:color(display-p3 0.1216 0.1216 0.1216);stop-opacity:1;"/>
<stop offset="0.36" stop-color="#1F1F1F" style="stop-color:#1F1F1F;stop-color:color(display-p3 0.1216 0.1216 0.1216);stop-opacity:1;"/>
<stop offset="0.846" stop-color="#AFADAA" style="stop-color:#AFADAA;stop-color:color(display-p3 0.6863 0.6784 0.6667);stop-opacity:1;"/>
<stop offset="1" stop-color="#C2C2C2" style="stop-color:#C2C2C2;stop-color:color(display-p3 0.7608 0.7608 0.7608);stop-opacity:1;"/>
</linearGradient>
<linearGradient id="paint13_linear_2097_19172" x1="15.2634" y1="13.8474" x2="15.2634" y2="15.6001" gradientUnits="userSpaceOnUse">
<stop stop-color="#1F1F1F" style="stop-color:#1F1F1F;stop-color:color(display-p3 0.1216 0.1216 0.1216);stop-opacity:1;"/>
<stop offset="0.36" stop-color="#1F1F1F" style="stop-color:#1F1F1F;stop-color:color(display-p3 0.1216 0.1216 0.1216);stop-opacity:1;"/>
<stop offset="0.846" stop-color="#AFADAA" style="stop-color:#AFADAA;stop-color:color(display-p3 0.6863 0.6784 0.6667);stop-opacity:1;"/>
<stop offset="1" stop-color="#C2C2C2" style="stop-color:#C2C2C2;stop-color:color(display-p3 0.7608 0.7608 0.7608);stop-opacity:1;"/>
</linearGradient>
<linearGradient id="paint14_linear_2097_19172" x1="15.319" y1="13.3664" x2="15.319" y2="14.2514" gradientUnits="userSpaceOnUse">
<stop stop-color="#1F1F1F" style="stop-color:#1F1F1F;stop-color:color(display-p3 0.1216 0.1216 0.1216);stop-opacity:1;"/>
<stop offset="0.36" stop-color="#1F1F1F" style="stop-color:#1F1F1F;stop-color:color(display-p3 0.1216 0.1216 0.1216);stop-opacity:1;"/>
<stop offset="0.846" stop-color="#AFADAA" style="stop-color:#AFADAA;stop-color:color(display-p3 0.6863 0.6784 0.6667);stop-opacity:1;"/>
<stop offset="1" stop-color="#C2C2C2" style="stop-color:#C2C2C2;stop-color:color(display-p3 0.7608 0.7608 0.7608);stop-opacity:1;"/>
</linearGradient>
<linearGradient id="paint15_linear_2097_19172" x1="10.0726" y1="11.8527" x2="10.0726" y2="24.2195" gradientUnits="userSpaceOnUse">
<stop stop-color="#1F1F1F" style="stop-color:#1F1F1F;stop-color:color(display-p3 0.1216 0.1216 0.1216);stop-opacity:1;"/>
<stop offset="0.36" stop-color="#1F1F1F" style="stop-color:#1F1F1F;stop-color:color(display-p3 0.1216 0.1216 0.1216);stop-opacity:1;"/>
<stop offset="0.846" stop-color="#AFADAA" style="stop-color:#AFADAA;stop-color:color(display-p3 0.6863 0.6784 0.6667);stop-opacity:1;"/>
<stop offset="1" stop-color="#C2C2C2" style="stop-color:#C2C2C2;stop-color:color(display-p3 0.7608 0.7608 0.7608);stop-opacity:1;"/>
</linearGradient>
<linearGradient id="paint16_linear_2097_19172" x1="15.7867" y1="13.8141" x2="15.7867" y2="14.6515" gradientUnits="userSpaceOnUse">
<stop stop-color="#1F1F1F" style="stop-color:#1F1F1F;stop-color:color(display-p3 0.1216 0.1216 0.1216);stop-opacity:1;"/>
<stop offset="0.36" stop-color="#1F1F1F" style="stop-color:#1F1F1F;stop-color:color(display-p3 0.1216 0.1216 0.1216);stop-opacity:1;"/>
<stop offset="0.846" stop-color="#AFADAA" style="stop-color:#AFADAA;stop-color:color(display-p3 0.6863 0.6784 0.6667);stop-opacity:1;"/>
<stop offset="1" stop-color="#C2C2C2" style="stop-color:#C2C2C2;stop-color:color(display-p3 0.7608 0.7608 0.7608);stop-opacity:1;"/>
</linearGradient>
<linearGradient id="paint17_linear_2097_19172" x1="10.8501" y1="16.7162" x2="10.8501" y2="26.2865" gradientUnits="userSpaceOnUse">
<stop stop-color="#1F1F1F" style="stop-color:#1F1F1F;stop-color:color(display-p3 0.1216 0.1216 0.1216);stop-opacity:1;"/>
<stop offset="0.36" stop-color="#1F1F1F" style="stop-color:#1F1F1F;stop-color:color(display-p3 0.1216 0.1216 0.1216);stop-opacity:1;"/>
<stop offset="0.846" stop-color="#AFADAA" style="stop-color:#AFADAA;stop-color:color(display-p3 0.6863 0.6784 0.6667);stop-opacity:1;"/>
<stop offset="1" stop-color="#C2C2C2" style="stop-color:#C2C2C2;stop-color:color(display-p3 0.7608 0.7608 0.7608);stop-opacity:1;"/>
</linearGradient>
<linearGradient id="paint18_linear_2097_19172" x1="11.5075" y1="13.4834" x2="11.5075" y2="27.0686" gradientUnits="userSpaceOnUse">
<stop stop-color="#1F1F1F" style="stop-color:#1F1F1F;stop-color:color(display-p3 0.1216 0.1216 0.1216);stop-opacity:1;"/>
<stop offset="0.36" stop-color="#1F1F1F" style="stop-color:#1F1F1F;stop-color:color(display-p3 0.1216 0.1216 0.1216);stop-opacity:1;"/>
<stop offset="0.846" stop-color="#AFADAA" style="stop-color:#AFADAA;stop-color:color(display-p3 0.6863 0.6784 0.6667);stop-opacity:1;"/>
<stop offset="1" stop-color="#C2C2C2" style="stop-color:#C2C2C2;stop-color:color(display-p3 0.7608 0.7608 0.7608);stop-opacity:1;"/>
</linearGradient>
<linearGradient id="paint19_linear_2097_19172" x1="6.15553" y1="21.2538" x2="6.15553" y2="25.1699" gradientUnits="userSpaceOnUse">
<stop stop-color="#1F1F1F" style="stop-color:#1F1F1F;stop-color:color(display-p3 0.1216 0.1216 0.1216);stop-opacity:1;"/>
<stop offset="0.36" stop-color="#1F1F1F" style="stop-color:#1F1F1F;stop-color:color(display-p3 0.1216 0.1216 0.1216);stop-opacity:1;"/>
<stop offset="0.846" stop-color="#AFADAA" style="stop-color:#AFADAA;stop-color:color(display-p3 0.6863 0.6784 0.6667);stop-opacity:1;"/>
<stop offset="1" stop-color="#C2C2C2" style="stop-color:#C2C2C2;stop-color:color(display-p3 0.7608 0.7608 0.7608);stop-opacity:1;"/>
</linearGradient>
<linearGradient id="paint20_linear_2097_19172" x1="11.0235" y1="11.1034" x2="11.0235" y2="27.6895" gradientUnits="userSpaceOnUse">
<stop stop-color="#1F1F1F" style="stop-color:#1F1F1F;stop-color:color(display-p3 0.1216 0.1216 0.1216);stop-opacity:1;"/>
<stop offset="0.36" stop-color="#1F1F1F" style="stop-color:#1F1F1F;stop-color:color(display-p3 0.1216 0.1216 0.1216);stop-opacity:1;"/>
<stop offset="0.846" stop-color="#AFADAA" style="stop-color:#AFADAA;stop-color:color(display-p3 0.6863 0.6784 0.6667);stop-opacity:1;"/>
<stop offset="1" stop-color="#C2C2C2" style="stop-color:#C2C2C2;stop-color:color(display-p3 0.7608 0.7608 0.7608);stop-opacity:1;"/>
</linearGradient>
<linearGradient id="paint21_linear_2097_19172" x1="29.9794" y1="11.9944" x2="29.9794" y2="21.581" gradientUnits="userSpaceOnUse">
<stop stop-color="#1F1F1F" style="stop-color:#1F1F1F;stop-color:color(display-p3 0.1216 0.1216 0.1216);stop-opacity:1;"/>
<stop offset="0.36" stop-color="#1F1F1F" style="stop-color:#1F1F1F;stop-color:color(display-p3 0.1216 0.1216 0.1216);stop-opacity:1;"/>
<stop offset="0.846" stop-color="#AFADAA" style="stop-color:#AFADAA;stop-color:color(display-p3 0.6863 0.6784 0.6667);stop-opacity:1;"/>
<stop offset="1" stop-color="#C2C2C2" style="stop-color:#C2C2C2;stop-color:color(display-p3 0.7608 0.7608 0.7608);stop-opacity:1;"/>
</linearGradient>
<linearGradient id="paint22_linear_2097_19172" x1="31.5684" y1="10.9041" x2="31.5684" y2="27.0403" gradientUnits="userSpaceOnUse">
<stop stop-color="#1F1F1F" style="stop-color:#1F1F1F;stop-color:color(display-p3 0.1216 0.1216 0.1216);stop-opacity:1;"/>
<stop offset="0.36" stop-color="#1F1F1F" style="stop-color:#1F1F1F;stop-color:color(display-p3 0.1216 0.1216 0.1216);stop-opacity:1;"/>
<stop offset="0.846" stop-color="#AFADAA" style="stop-color:#AFADAA;stop-color:color(display-p3 0.6863 0.6784 0.6667);stop-opacity:1;"/>
<stop offset="1" stop-color="#C2C2C2" style="stop-color:#C2C2C2;stop-color:color(display-p3 0.7608 0.7608 0.7608);stop-opacity:1;"/>
</linearGradient>
<linearGradient id="paint23_linear_2097_19172" x1="26.7464" y1="18.9802" x2="26.7464" y2="24.3174" gradientUnits="userSpaceOnUse">
<stop stop-color="#1F1F1F" style="stop-color:#1F1F1F;stop-color:color(display-p3 0.1216 0.1216 0.1216);stop-opacity:1;"/>
<stop offset="0.36" stop-color="#1F1F1F" style="stop-color:#1F1F1F;stop-color:color(display-p3 0.1216 0.1216 0.1216);stop-opacity:1;"/>
<stop offset="0.846" stop-color="#AFADAA" style="stop-color:#AFADAA;stop-color:color(display-p3 0.6863 0.6784 0.6667);stop-opacity:1;"/>
<stop offset="1" stop-color="#C2C2C2" style="stop-color:#C2C2C2;stop-color:color(display-p3 0.7608 0.7608 0.7608);stop-opacity:1;"/>
</linearGradient>
<linearGradient id="paint24_linear_2097_19172" x1="26.1944" y1="23.0958" x2="26.1944" y2="24.3503" gradientUnits="userSpaceOnUse">
<stop stop-color="#1F1F1F" style="stop-color:#1F1F1F;stop-color:color(display-p3 0.1216 0.1216 0.1216);stop-opacity:1;"/>
<stop offset="0.36" stop-color="#1F1F1F" style="stop-color:#1F1F1F;stop-color:color(display-p3 0.1216 0.1216 0.1216);stop-opacity:1;"/>
<stop offset="0.846" stop-color="#AFADAA" style="stop-color:#AFADAA;stop-color:color(display-p3 0.6863 0.6784 0.6667);stop-opacity:1;"/>
<stop offset="1" stop-color="#C2C2C2" style="stop-color:#C2C2C2;stop-color:color(display-p3 0.7608 0.7608 0.7608);stop-opacity:1;"/>
</linearGradient>
<linearGradient id="paint25_linear_2097_19172" x1="23.8069" y1="23.7999" x2="23.8069" y2="24.1732" gradientUnits="userSpaceOnUse">
<stop stop-color="#1F1F1F" style="stop-color:#1F1F1F;stop-color:color(display-p3 0.1216 0.1216 0.1216);stop-opacity:1;"/>
<stop offset="0.36" stop-color="#1F1F1F" style="stop-color:#1F1F1F;stop-color:color(display-p3 0.1216 0.1216 0.1216);stop-opacity:1;"/>
<stop offset="0.846" stop-color="#AFADAA" style="stop-color:#AFADAA;stop-color:color(display-p3 0.6863 0.6784 0.6667);stop-opacity:1;"/>
<stop offset="1" stop-color="#C2C2C2" style="stop-color:#C2C2C2;stop-color:color(display-p3 0.7608 0.7608 0.7608);stop-opacity:1;"/>
</linearGradient>
<linearGradient id="paint26_linear_2097_19172" x1="26.9485" y1="24.0243" x2="26.9485" y2="24.1217" gradientUnits="userSpaceOnUse">
<stop stop-color="#1F1F1F" style="stop-color:#1F1F1F;stop-color:color(display-p3 0.1216 0.1216 0.1216);stop-opacity:1;"/>
<stop offset="0.36" stop-color="#1F1F1F" style="stop-color:#1F1F1F;stop-color:color(display-p3 0.1216 0.1216 0.1216);stop-opacity:1;"/>
<stop offset="0.846" stop-color="#AFADAA" style="stop-color:#AFADAA;stop-color:color(display-p3 0.6863 0.6784 0.6667);stop-opacity:1;"/>
<stop offset="1" stop-color="#C2C2C2" style="stop-color:#C2C2C2;stop-color:color(display-p3 0.7608 0.7608 0.7608);stop-opacity:1;"/>
</linearGradient>
<linearGradient id="paint27_linear_2097_19172" x1="25.2259" y1="21.7422" x2="25.2259" y2="24.3712" gradientUnits="userSpaceOnUse">
<stop stop-color="#1F1F1F" style="stop-color:#1F1F1F;stop-color:color(display-p3 0.1216 0.1216 0.1216);stop-opacity:1;"/>
<stop offset="0.36" stop-color="#1F1F1F" style="stop-color:#1F1F1F;stop-color:color(display-p3 0.1216 0.1216 0.1216);stop-opacity:1;"/>
<stop offset="0.846" stop-color="#AFADAA" style="stop-color:#AFADAA;stop-color:color(display-p3 0.6863 0.6784 0.6667);stop-opacity:1;"/>
<stop offset="1" stop-color="#C2C2C2" style="stop-color:#C2C2C2;stop-color:color(display-p3 0.7608 0.7608 0.7608);stop-opacity:1;"/>
</linearGradient>
<linearGradient id="paint28_linear_2097_19172" x1="30.6308" y1="10.8651" x2="30.6308" y2="27.301" gradientUnits="userSpaceOnUse">
<stop stop-color="#1F1F1F" style="stop-color:#1F1F1F;stop-color:color(display-p3 0.1216 0.1216 0.1216);stop-opacity:1;"/>
<stop offset="0.36" stop-color="#1F1F1F" style="stop-color:#1F1F1F;stop-color:color(display-p3 0.1216 0.1216 0.1216);stop-opacity:1;"/>
<stop offset="0.846" stop-color="#AFADAA" style="stop-color:#AFADAA;stop-color:color(display-p3 0.6863 0.6784 0.6667);stop-opacity:1;"/>
<stop offset="1" stop-color="#C2C2C2" style="stop-color:#C2C2C2;stop-color:color(display-p3 0.7608 0.7608 0.7608);stop-opacity:1;"/>
</linearGradient>
<linearGradient id="paint29_linear_2097_19172" x1="15.0065" y1="13.1199" x2="15.0065" y2="14.1294" gradientUnits="userSpaceOnUse">
<stop stop-color="#1F1F1F" style="stop-color:#1F1F1F;stop-color:color(display-p3 0.1216 0.1216 0.1216);stop-opacity:1;"/>
<stop offset="0.36" stop-color="#1F1F1F" style="stop-color:#1F1F1F;stop-color:color(display-p3 0.1216 0.1216 0.1216);stop-opacity:1;"/>
<stop offset="0.846" stop-color="#AFADAA" style="stop-color:#AFADAA;stop-color:color(display-p3 0.6863 0.6784 0.6667);stop-opacity:1;"/>
<stop offset="1" stop-color="#C2C2C2" style="stop-color:#C2C2C2;stop-color:color(display-p3 0.7608 0.7608 0.7608);stop-opacity:1;"/>
</linearGradient>
<linearGradient id="paint30_linear_2097_19172" x1="16.0384" y1="13.608" x2="16.0384" y2="14.46" gradientUnits="userSpaceOnUse">
<stop stop-color="#1F1F1F" style="stop-color:#1F1F1F;stop-color:color(display-p3 0.1216 0.1216 0.1216);stop-opacity:1;"/>
<stop offset="0.36" stop-color="#1F1F1F" style="stop-color:#1F1F1F;stop-color:color(display-p3 0.1216 0.1216 0.1216);stop-opacity:1;"/>
<stop offset="0.846" stop-color="#AFADAA" style="stop-color:#AFADAA;stop-color:color(display-p3 0.6863 0.6784 0.6667);stop-opacity:1;"/>
<stop offset="1" stop-color="#C2C2C2" style="stop-color:#C2C2C2;stop-color:color(display-p3 0.7608 0.7608 0.7608);stop-opacity:1;"/>
</linearGradient>
<linearGradient id="paint31_linear_2097_19172" x1="15.7944" y1="13.827" x2="15.7944" y2="13.1146" gradientUnits="userSpaceOnUse">
<stop stop-color="#1F1F1F" style="stop-color:#1F1F1F;stop-color:color(display-p3 0.1216 0.1216 0.1216);stop-opacity:1;"/>
<stop offset="0.36" stop-color="#1F1F1F" style="stop-color:#1F1F1F;stop-color:color(display-p3 0.1216 0.1216 0.1216);stop-opacity:1;"/>
<stop offset="0.846" stop-color="#AFADAA" style="stop-color:#AFADAA;stop-color:color(display-p3 0.6863 0.6784 0.6667);stop-opacity:1;"/>
<stop offset="1" stop-color="#C2C2C2" style="stop-color:#C2C2C2;stop-color:color(display-p3 0.7608 0.7608 0.7608);stop-opacity:1;"/>
</linearGradient>
<linearGradient id="paint32_linear_2097_19172" x1="17.5432" y1="14.2617" x2="17.5432" y2="13.0071" gradientUnits="userSpaceOnUse">
<stop stop-color="#1F1F1F" style="stop-color:#1F1F1F;stop-color:color(display-p3 0.1216 0.1216 0.1216);stop-opacity:1;"/>
<stop offset="0.36" stop-color="#1F1F1F" style="stop-color:#1F1F1F;stop-color:color(display-p3 0.1216 0.1216 0.1216);stop-opacity:1;"/>
<stop offset="0.846" stop-color="#AFADAA" style="stop-color:#AFADAA;stop-color:color(display-p3 0.6863 0.6784 0.6667);stop-opacity:1;"/>
<stop offset="1" stop-color="#C2C2C2" style="stop-color:#C2C2C2;stop-color:color(display-p3 0.7608 0.7608 0.7608);stop-opacity:1;"/>
</linearGradient>
<linearGradient id="paint33_linear_2097_19172" x1="28.9057" y1="11.259" x2="28.9057" y2="24.7673" gradientUnits="userSpaceOnUse">
<stop stop-color="#1F1F1F" style="stop-color:#1F1F1F;stop-color:color(display-p3 0.1216 0.1216 0.1216);stop-opacity:1;"/>
<stop offset="0.36" stop-color="#1F1F1F" style="stop-color:#1F1F1F;stop-color:color(display-p3 0.1216 0.1216 0.1216);stop-opacity:1;"/>
<stop offset="0.846" stop-color="#AFADAA" style="stop-color:#AFADAA;stop-color:color(display-p3 0.6863 0.6784 0.6667);stop-opacity:1;"/>
<stop offset="1" stop-color="#C2C2C2" style="stop-color:#C2C2C2;stop-color:color(display-p3 0.7608 0.7608 0.7608);stop-opacity:1;"/>
</linearGradient>
</defs>
</svg>
