<svg width="32" height="32" viewBox="0 0 32 32" fill="none" xmlns="http://www.w3.org/2000/svg">
<path d="M4 24.084C4.043 24.614 4.23 25.147 4.718 25.862C5.298 26.711 6.294 27.177 7.021 26.429C7.511 25.924 12.815 16.653 15.371 13.139C15.4411 13.0386 15.5345 12.9565 15.6431 12.8999C15.7518 12.8432 15.8725 12.8136 15.995 12.8136C16.1175 12.8136 16.2382 12.8432 16.3469 12.8999C16.4555 12.9565 16.5489 13.0386 16.619 13.139C19.175 16.653 24.479 25.924 24.969 26.429C25.696 27.177 26.692 26.711 27.272 25.862C27.842 25.027 28 24.442 28 23.816C28 23.39 19.74 8.01804 18.908 6.73804C18.108 5.50804 17.864 5.24004 16.511 5.19604H15.479C14.126 5.24004 13.882 5.50704 13.081 6.73804C12.267 7.99104 4.33 22.758 4 23.77V24.084Z" fill="#1F1F1F" style="fill:#1F1F1F;fill:color(display-p3 0.1216 0.1216 0.1216);fill-opacity:1;"/>
</svg>
