<svg width="34" height="34" viewBox="0 0 34 34" fill="none" xmlns="http://www.w3.org/2000/svg">
<path d="M9.91793 4.7204C9.87956 4.73511 8.79555 5.35076 7.51008 6.08704C5.95232 6.98 5.15241 7.45001 5.10961 7.49415C5.07567 7.5324 5.03729 7.5986 5.02549 7.64052C4.99302 7.74865 4.9908 23.5901 5.02327 23.7041C5.03508 23.7483 5.07345 23.813 5.10813 23.8491C5.19226 23.9373 14.4916 29.2671 14.6045 29.2928C14.6569 29.3053 14.7159 29.3031 14.7742 29.287C14.9011 29.2553 24.1761 23.9373 24.2588 23.8505C24.2927 23.813 24.3311 23.7483 24.3436 23.7041C24.3599 23.6519 24.3658 22.8237 24.3658 21.0797V18.531L26.6268 17.2365C28.7586 16.0147 28.8893 15.9382 28.9439 15.8544L29 15.7639V13.0188C29 10.0303 29.0059 10.1988 28.887 10.0906C28.8553 10.0627 27.7691 9.43084 26.4711 8.68573L24.1134 7.3338H23.8514L21.5447 8.65411C20.2747 9.3823 19.1951 10.0046 19.1427 10.0384C19.0903 10.073 19.0276 10.137 19.0018 10.1833L18.9553 10.2635L18.945 12.8497L18.9354 15.4366L17.0308 16.5304C15.9829 17.1306 15.1107 17.6278 15.0923 17.6322C15.0583 17.6418 15.0561 17.3954 15.0561 12.6415V7.63831L15.0059 7.55226C14.9432 7.44781 15.2251 7.61478 12.3944 5.99289C10.0205 4.63213 10.0773 4.66082 9.91793 4.7204ZM12.1 6.70123C13.0932 7.26907 13.9057 7.73908 13.9057 7.74497C13.9057 7.75085 13.0349 8.2525 11.9708 8.86227L10.0345 9.97L8.1019 8.86227C7.04002 8.2525 6.17001 7.75085 6.17001 7.74497C6.17001 7.73908 7.03855 7.23744 8.10042 6.62914L10.0286 5.52361L10.1614 5.5957C10.236 5.63615 11.1089 6.13338 12.1 6.70123ZM25.9191 9.2499C26.9648 9.85011 27.8296 10.3459 27.8377 10.354C27.8599 10.3738 24.0249 12.5709 23.9725 12.5687C23.9201 12.5672 20.1323 10.39 20.1338 10.3635C20.136 10.3334 23.9466 8.14805 23.985 8.15393C24.0027 8.15835 24.8735 8.6519 25.9191 9.2499ZM7.8023 9.56692L9.64564 10.6246L9.65597 15.8617L9.66556 21.0996L9.71058 21.1702C9.73419 21.2077 9.77847 21.2585 9.81093 21.282C9.84119 21.3041 10.8669 21.8866 12.0896 22.5743L14.3108 23.8248V26.0402C14.3108 27.2561 14.3027 28.2535 14.2924 28.2535C14.2842 28.2535 12.3642 27.1583 10.0264 25.8174L5.7767 23.3812L5.77079 15.8919L5.7671 8.40476L5.86156 8.45698C5.91616 8.48567 6.78839 8.9851 7.8023 9.56692ZM14.3108 13.2535V18.0794L14.2363 18.128C14.1352 18.192 10.4441 20.3067 10.4315 20.3067C10.4256 20.3067 10.4212 18.128 10.4212 15.4645L10.4234 10.6246L12.3516 9.51911C13.412 8.91081 14.2865 8.41726 14.2968 8.42094C14.3042 8.42535 14.3108 10.6004 14.3108 13.2535ZM21.6672 12.1435L23.5998 13.2513V15.4469C23.5998 17.53 23.5976 17.6418 23.5659 17.63C23.5452 17.6219 22.6708 17.1225 21.6214 16.5201L19.7109 15.4263V13.2314C19.7109 12.0229 19.7168 11.0358 19.7228 11.0358C19.7309 11.0358 20.6053 11.5338 21.6672 12.1435ZM28.2546 13.2174C28.2546 14.4193 28.2465 15.4108 28.2384 15.4204C28.2244 15.4425 24.4019 17.6381 24.3776 17.6381C24.3717 17.6381 24.3658 16.651 24.3658 15.4425V13.2476L26.294 12.1413C27.3559 11.5338 28.2303 11.0358 28.2384 11.0358C28.2487 11.0358 28.2546 12.017 28.2546 13.2174ZM21.2908 17.2107C22.9165 18.1434 23.1969 18.3104 23.1689 18.3324C23.1504 18.3442 22.5342 18.6973 21.8007 19.1151C21.0673 19.5321 19.1671 20.6119 17.5769 21.5152L14.6871 23.1584L14.5949 23.1084C14.0429 22.8075 10.8403 20.9914 10.8403 20.9775C10.8389 20.9473 19.3139 16.0927 19.3479 16.1052C19.3641 16.1111 20.2386 16.6083 21.2908 17.2107ZM23.5961 21.182L23.5895 23.3812L19.342 25.8174C17.005 27.1583 15.0842 28.2535 15.0746 28.2535C15.0642 28.2535 15.0561 27.3583 15.0561 26.0402V23.8248L19.3139 21.4048C21.6532 20.0742 23.5755 18.9849 23.5858 18.9827C23.5939 18.9827 23.5976 19.972 23.5961 21.182Z" fill="#1F1F1F" style="fill:#1F1F1F;fill:color(display-p3 0.1216 0.1216 0.1216);fill-opacity:1;"/>
</svg>
