<svg width="29" height="18" viewBox="0 0 29 18" fill="none" xmlns="http://www.w3.org/2000/svg">
<path d="M7.10682 4.95965H12.3879V5.3794H7.59092V8.53854H12.1018V8.95828H7.59092V12.4267H12.4429V12.8465H7.10682V4.95965ZM12.861 4.95965H13.4221L15.9086 8.42808L18.4501 4.95965L21.907 0.553955L16.2276 8.79259L19.1542 12.8465H18.5711L15.9086 9.15711L13.235 12.8465H12.6629L15.6115 8.79259L12.861 4.95965ZM19.3633 5.3794V4.95965H25.3815V5.3794H22.6089V12.8465H22.1248V5.3794H19.3633ZM0.5 4.95965H1.10512L9.44939 17.446L6.0011 12.8465L1.0061 5.55613L0.984097 12.8465H0.5V4.95965ZM25.3327 12.3C25.2338 12.3 25.1596 12.2234 25.1596 12.1244C25.1596 12.0253 25.2338 11.9487 25.3327 11.9487C25.4328 11.9487 25.5058 12.0253 25.5058 12.1244C25.5058 12.2234 25.4328 12.3 25.3327 12.3ZM25.8084 11.8379H26.0674C26.071 11.9782 26.1734 12.0725 26.3241 12.0725C26.4925 12.0725 26.5878 11.9711 26.5878 11.7813V10.5787H26.8516V11.7825C26.8516 12.1244 26.6538 12.3213 26.3265 12.3213C26.0191 12.3213 25.8084 12.1303 25.8084 11.8379ZM27.1966 11.8226H27.458C27.4803 11.9841 27.6381 12.0866 27.8654 12.0866C28.0773 12.0866 28.2327 11.977 28.2327 11.8261C28.2327 11.6964 28.1338 11.6186 27.9089 11.5655L27.6899 11.5125C27.3826 11.4406 27.2425 11.292 27.2425 11.0421C27.2425 10.7391 27.4898 10.5375 27.8607 10.5375C28.2056 10.5375 28.4576 10.7391 28.4729 11.0256H28.2162C28.1915 10.8688 28.0549 10.7709 27.8571 10.7709C27.6487 10.7709 27.5098 10.8711 27.5098 11.0244C27.5098 11.1458 27.5993 11.2154 27.8206 11.2673L28.0078 11.3132C28.3564 11.3946 28.5 11.5361 28.5 11.7919C28.5 12.1173 28.248 12.3213 27.8453 12.3213C27.4686 12.3213 27.2154 12.1267 27.1966 11.8226Z" fill="#1F1F1F" style="fill:#1F1F1F;fill:color(display-p3 0.1216 0.1216 0.1216);fill-opacity:1;"/>
</svg>
