<svg width="30" height="30" viewBox="0 0 30 30" fill="none" xmlns="http://www.w3.org/2000/svg">
<g clip-path="url(#clip0_2097_19240)">
<path d="M15 30C14.5633 30 14.1557 29.8897 13.7772 29.6968L9.90489 27.5196C9.32259 27.2164 9.61374 27.1061 9.78843 27.051C10.5745 26.8029 10.7201 26.7478 11.5353 26.3068C11.6227 26.2517 11.7391 26.2792 11.8265 26.3344L14.7962 28.0156C14.9126 28.0707 15.0582 28.0707 15.1456 28.0156L26.7624 21.649C26.8789 21.5939 26.9371 21.4837 26.9371 21.3458V8.64033C26.9371 8.50252 26.8789 8.39228 26.7624 8.33716L15.1456 1.99816C15.0292 1.94304 14.8836 1.94304 14.7962 1.99816L3.17934 8.33716C3.06289 8.39228 3.00466 8.53009 3.00466 8.64033V21.3458C3.00466 21.4561 3.06289 21.5939 3.17934 21.649L6.35288 23.3854C8.07066 24.2123 9.1479 23.2476 9.1479 22.283V9.74278C9.1479 9.57741 9.29348 9.41203 9.49728 9.41203H10.9822C11.1568 9.41203 11.3316 9.54984 11.3316 9.74278V22.283C11.3316 24.4602 10.0796 25.7281 7.89596 25.7281C7.22632 25.7281 6.70225 25.7281 5.21739 25.039L2.16033 23.3854C1.40334 22.9719 0.9375 22.2003 0.9375 21.3734V8.66789C0.9375 7.84106 1.40334 7.06936 2.16033 6.65595L13.7772 0.289389C14.505 -0.0964631 15.495 -0.0964631 16.2228 0.289389L27.8397 6.65595C28.5967 7.06936 29.0625 7.84106 29.0625 8.66789V21.3734C29.0625 22.2003 28.5967 22.9719 27.8397 23.3854L16.2228 29.7519C15.8443 29.9173 15.4076 30 15 30ZM18.5812 21.2633C13.486 21.2633 12.4379 19.0583 12.4379 17.1842C12.4379 17.0188 12.5835 16.8534 12.7873 16.8534H14.3013C14.4759 16.8534 14.6215 16.9637 14.6215 17.1291C14.8544 18.5898 15.5241 19.3064 18.6102 19.3064C21.0559 19.3064 22.104 18.7827 22.104 17.5425C22.104 16.8259 21.8129 16.3023 17.9989 15.944C14.8253 15.6408 12.8455 14.9794 12.8455 12.5815C12.8455 10.3491 14.8253 9.02618 18.1444 9.02618C21.8711 9.02618 23.7053 10.2389 23.9383 12.8847C23.9383 12.9674 23.9092 13.0501 23.8509 13.1328C23.7927 13.1879 23.7053 13.243 23.618 13.243H22.104C21.9585 13.243 21.8129 13.1328 21.7838 12.995C21.4344 11.4791 20.5318 10.983 18.1444 10.983C15.4658 10.983 15.1456 11.8649 15.1456 12.5264C15.1456 13.3257 15.5241 13.5737 19.1343 14.0147C22.7154 14.4557 24.4042 15.0895 24.4042 17.4598C24.375 19.8851 22.2787 21.2633 18.5812 21.2633Z" fill="#1F1F1F" style="fill:#1F1F1F;fill:color(display-p3 0.1216 0.1216 0.1216);fill-opacity:1;"/>
</g>
<defs>
<clipPath id="clip0_2097_19240">
<rect width="30" height="30" fill="white" style="fill:white;fill-opacity:1;"/>
</clipPath>
</defs>
</svg>
