<svg width="40" height="40" viewBox="0 0 40 40" fill="none" xmlns="http://www.w3.org/2000/svg">
<g clip-path="url(#clip0_2745_3039)">
<path d="M21.9523 30.4393H33.848C34.2259 30.4393 34.5971 30.3429 34.9243 30.1596C35.2494 29.9784 35.5211 29.7148 35.712 29.3953C35.9004 29.0796 35.9999 28.7189 36 28.3513C35.9996 27.9837 35.8997 27.6231 35.7111 27.3076L27.7221 13.8856C27.5312 13.5662 27.2595 13.3027 26.9345 13.1216C26.6057 12.9379 26.2352 12.8415 25.8585 12.8417C25.4808 12.8417 25.1097 12.9383 24.7825 13.1215C24.4575 13.3027 24.1859 13.5662 23.9949 13.8856L21.9523 17.32L17.9584 10.6045C17.7673 10.2852 17.4955 10.0217 17.1704 9.84053C16.8415 9.65686 16.471 9.56055 16.0943 9.56079C15.7164 9.56079 15.3453 9.65719 15.018 9.84039C14.6929 10.0215 14.4211 10.285 14.23 10.6044L4.28907 27.3077C4.10041 27.6232 4.00053 27.9838 4 28.3513C3.99987 28.7179 4.0992 29.078 4.288 29.3953C4.47894 29.7148 4.75062 29.9784 5.07573 30.1596C5.40293 30.3429 5.77413 30.4393 6.152 30.4393H13.6191C16.5777 30.4393 18.7596 29.1788 20.2608 26.7195L23.9057 20.5965L25.858 17.32L31.7172 27.1627H23.9057L21.9523 30.4393ZM13.4973 27.1592L8.28627 27.158L16.0977 14.0352L19.9953 20.5965L17.3857 24.9821C16.3887 26.5777 15.2561 27.1592 13.4973 27.1592Z" fill="#1F1F1F" style="fill:#1F1F1F;fill:color(display-p3 0.1216 0.1216 0.1216);fill-opacity:1;"/>
</g>
<defs>
<clipPath id="clip0_2745_3039">
<rect width="32" height="32" fill="white" style="fill:white;fill-opacity:1;" transform="translate(4 4)"/>
</clipPath>
</defs>
</svg>
