<svg width="42" height="20" viewBox="0 0 42 20" fill="none" xmlns="http://www.w3.org/2000/svg">
<path fill-rule="evenodd" clip-rule="evenodd" d="M22.619 15.7883C22.5298 15.7883 22.4453 15.7473 22.3886 15.6764C22.3319 15.6055 22.3088 15.5125 22.3258 15.4223L23.5735 8.81551C23.6921 8.1872 23.663 7.73622 23.4912 7.54566C23.386 7.42918 23.0702 7.23381 22.1363 7.23381H19.876L18.3073 15.5395C18.28 15.6839 18.157 15.7883 18.014 15.7883H14.8777C14.7885 15.7883 14.704 15.7473 14.6472 15.6764C14.5904 15.6055 14.5675 15.5124 14.5844 15.4223L17.405 0.490345C17.4322 0.345993 17.5553 0.241699 17.6983 0.241699H20.8346C20.9238 0.241699 21.0083 0.28268 21.0651 0.353471C21.1219 0.424366 21.1448 0.517489 21.1279 0.607647L20.4472 4.21157H22.8788C24.7313 4.21157 25.9874 4.54761 26.7191 5.23893C27.4649 5.94419 27.6975 7.07184 27.4107 8.59094L26.0984 15.5395C26.0712 15.6839 25.9483 15.7883 25.8052 15.7883H22.619ZM7.25447 12.8174C8.47135 12.8174 9.3798 12.5894 9.9546 12.14C10.5232 11.6953 10.916 10.9248 11.1219 9.85001C11.3138 8.8454 11.2407 8.14394 10.9046 7.76538C10.561 7.37875 9.81803 7.18265 8.69646 7.18265H6.75179L5.6737 12.8174H7.25447ZM0.893928 19.7582C0.803659 19.7582 0.717927 19.7173 0.660538 19.6463C0.603045 19.5755 0.57975 19.4823 0.596995 19.3923L3.45417 4.46029C3.4818 4.31595 3.60635 4.21165 3.7512 4.21165H9.90911C11.8444 4.21165 13.2848 4.74541 14.1903 5.79827C15.1006 6.85667 15.3816 8.33612 15.0257 10.1955C14.8809 10.953 14.6318 11.6565 14.2853 12.2864C13.9385 12.9169 13.4801 13.5003 12.9227 14.0208C12.2553 14.6551 11.5001 15.1151 10.6799 15.3858C9.8727 15.6528 8.83605 15.7884 7.59881 15.7884H5.10534L4.39327 19.5095C4.36564 19.6539 4.24117 19.7582 4.09634 19.7582H0.893928ZM35.9877 12.14C35.3908 12.5894 34.4476 12.8174 33.1841 12.8174H31.5426L32.6621 7.18265H34.6813C35.8459 7.18265 36.6174 7.37875 36.9742 7.76538C37.3233 8.14394 37.3991 8.8454 37.1999 9.85001C36.9861 10.9249 36.5782 11.6954 35.9877 12.14ZM26.3372 19.6463C26.3968 19.7173 26.4857 19.7582 26.5795 19.7582H29.9046C30.0552 19.7582 30.1845 19.6539 30.2132 19.5095L30.9523 15.7884H33.5416C34.8262 15.7884 35.9027 15.6528 36.7408 15.3858C37.5925 15.1151 38.3767 14.6551 39.0696 14.0208C39.6484 13.5003 40.1244 12.9169 40.4846 12.2864C40.8444 11.6565 41.1029 10.953 41.2535 10.1955C41.623 8.33603 41.3313 6.85656 40.3861 5.79827C39.4458 4.74541 37.9502 4.21165 35.9405 4.21165H29.5464C29.3959 4.21165 29.2667 4.31595 29.2379 4.46029L26.2711 19.3923C26.2532 19.4823 26.2774 19.5755 26.3372 19.6463Z" fill="#1F1F1F" style="fill:#1F1F1F;fill:color(display-p3 0.1216 0.1216 0.1216);fill-opacity:1;"/>
</svg>
