<svg width="27" height="28" viewBox="0 0 27 28" fill="none" xmlns="http://www.w3.org/2000/svg">
<path d="M24.5868 2.08895C24.2118 2.98841 23.7265 3.83777 23.142 4.6175C21.8903 3.32324 20.3918 2.29314 18.7351 1.58813C17.0784 0.883128 15.2971 0.517536 13.4966 0.512983C11.6961 0.508429 9.91297 0.865007 8.2527 1.56162C6.59243 2.25824 5.08872 3.28075 3.83052 4.56866C2.57233 5.85658 1.5852 7.38375 0.927528 9.05983C0.269856 10.7359 -0.0450026 12.5269 0.00157754 14.3268C0.0481577 16.1266 0.45523 17.8989 1.19872 19.5387C1.9422 21.1786 3.007 22.6526 4.33013 23.8737L4.8303 24.3183C6.72835 25.9191 9.0324 26.9633 11.4873 27.3352C13.9422 27.7072 16.4522 27.3925 18.7392 26.4259C21.0263 25.4593 23.0012 23.8785 24.4452 21.8587C25.8893 19.8389 26.7461 17.4588 26.9208 14.982C27.3098 11.592 26.2818 7.25735 24.5868 2.08895ZM6.27535 23.9849C6.13248 24.1605 5.94078 24.2898 5.72446 24.3564C5.50815 24.423 5.27693 24.4241 5.06003 24.3593C4.84313 24.2946 4.65028 24.1671 4.50586 23.9928C4.36144 23.8185 4.27193 23.6053 4.24863 23.3801C4.22533 23.155 4.2693 22.928 4.37498 22.7278C4.48065 22.5277 4.6433 22.3633 4.84235 22.2555C5.0414 22.1478 5.26793 22.1014 5.49331 22.1224C5.71869 22.1433 5.9328 22.2306 6.10859 22.3732C6.33905 22.5684 6.4851 22.8451 6.51618 23.1455C6.54727 23.4459 6.46097 23.7467 6.27535 23.9849ZM24.5034 19.9558C21.1969 24.3739 14.0835 22.8734 9.55423 23.0957C9.55423 23.0957 8.74843 23.1513 7.94253 23.2624C7.94253 23.2624 8.24826 23.1235 8.63726 22.9846C11.8328 21.8731 13.3332 21.6508 15.2783 20.6504C18.9184 18.7887 22.5584 14.7042 23.2809 10.4805C21.8915 14.5374 17.668 18.0385 13.8333 19.4557C11.1936 20.4282 6.44212 21.373 6.44212 21.373L6.24756 21.2618C3.02427 19.6779 2.91321 12.6757 8.80391 10.4249C11.3882 9.42459 13.8333 9.98046 16.6398 9.31352C19.613 8.61879 23.0586 6.39585 24.448 3.4783C26.004 8.1742 27.8935 15.4544 24.5034 19.9558Z" fill="#1F1F1F" style="fill:#1F1F1F;fill:color(display-p3 0.1216 0.1216 0.1216);fill-opacity:1;"/>
</svg>
