<svg width="33" height="32" viewBox="0 0 33 32" fill="none" xmlns="http://www.w3.org/2000/svg">
<g clip-path="url(#clip0_2097_20177)">
<path d="M9.52182 1C8.63056 1.00198 7.75812 1.51892 7.30953 2.30745L0.331321 14.6926C-0.11044 15.4832 -0.11044 16.5167 0.331321 17.3073L7.30953 29.6926C7.75812 30.4811 8.63056 30.9982 9.52182 31H23.4782C24.3695 30.998 25.2419 30.4811 25.6905 29.6926L32.6687 17.3073C33.1105 16.5167 33.1104 15.4832 32.6687 14.6926L25.6905 2.30745C25.2419 1.51879 24.3695 1.00184 23.4782 1H9.52182ZM9.64853 8.24554C9.66774 8.24357 9.68785 8.24357 9.70706 8.24554H12.1142C12.1677 8.24732 12.2199 8.26288 12.2659 8.29079C12.312 8.3187 12.3503 8.35805 12.3775 8.40517L16.4611 15.8402C16.4817 15.8771 16.4949 15.9179 16.4998 15.9601C16.5049 15.9179 16.5181 15.8771 16.5387 15.8402L20.6125 8.40517C20.6406 8.35671 20.6805 8.31652 20.7283 8.28854C20.7762 8.26055 20.8303 8.24574 20.8854 8.24554H23.2927C23.5058 8.24739 23.6655 8.52173 23.5656 8.71455L19.5795 16L23.5656 23.2754C23.6749 23.4693 23.5115 23.7563 23.2927 23.7545H20.8854C20.8293 23.7532 20.7746 23.7369 20.7266 23.7071C20.6787 23.6773 20.6393 23.6351 20.6125 23.5848L16.5387 16.1496C16.5181 16.1129 16.5049 16.0719 16.4999 16.0299C16.4949 16.0721 16.4817 16.1128 16.4611 16.1497L12.3773 23.5848C12.3514 23.6337 12.3136 23.675 12.2675 23.7047C12.2215 23.7344 12.1688 23.7515 12.1144 23.7545H9.70693C9.48817 23.7564 9.32472 23.4693 9.43403 23.2754L13.4202 16L9.43403 8.71455C9.33851 8.53859 9.45517 8.28308 9.64853 8.24554Z" fill="#1F1F1F" style="fill:#1F1F1F;fill:color(display-p3 0.1216 0.1216 0.1216);fill-opacity:1;"/>
</g>
<defs>
<clipPath id="clip0_2097_20177">
<rect x="0.5" width="32" height="32" rx="2" fill="white" style="fill:white;fill-opacity:1;"/>
</clipPath>
</defs>
</svg>
