<svg width="44" height="45" viewBox="0 0 44 45" fill="none" xmlns="http://www.w3.org/2000/svg">
<path d="M8.00033 4.3335C3.9491 4.3335 0.666992 7.6156 0.666992 11.6668V29.0002C0.666992 33.0514 3.9491 36.3335 8.00033 36.3335H36.0003C40.0515 36.3335 43.3337 33.0514 43.3337 29.0002V11.6668C43.3337 7.6156 40.0515 4.3335 36.0003 4.3335H8.00033Z" fill="#99A7F1" fill-opacity="0.4"/>
<path d="M13.2254 36.334H17.4418L15.2309 42.9665C14.8816 44.0143 13.749 44.5807 12.7011 44.2313C11.6532 43.882 11.0869 42.7495 11.4362 41.7015L13.2254 36.334Z" fill="#99A7F1"/>
<path d="M26.5586 36.334H30.7749L32.5639 41.7015C32.9133 42.7495 32.3471 43.882 31.2991 44.2313C30.2511 44.5807 29.1186 44.0143 28.7693 42.9665L26.5586 36.334Z" fill="#99A7F1"/>
<path d="M24 2.66699C24 1.56242 23.1046 0.666992 22 0.666992C20.8954 0.666992 20 1.56242 20 2.66699V4.33366H24V2.66699Z" fill="#99A7F1"/>
<path fill-rule="evenodd" clip-rule="evenodd" d="M29.3335 16.3335C30.438 16.3335 31.3335 17.2289 31.3335 18.3335V26.3335C31.3335 27.438 30.438 28.3335 29.3335 28.3335C28.229 28.3335 27.3335 27.438 27.3335 26.3335V18.3335C27.3335 17.2289 28.229 16.3335 29.3335 16.3335Z" fill="#99A7F1"/>
<path fill-rule="evenodd" clip-rule="evenodd" d="M14.667 20.334C15.7716 20.334 16.667 21.2294 16.667 22.334V26.334C16.667 27.4385 15.7716 28.334 14.667 28.334C13.5624 28.334 12.667 27.4385 12.667 26.334V22.334C12.667 21.2294 13.5624 20.334 14.667 20.334Z" fill="#99A7F1"/>
<path fill-rule="evenodd" clip-rule="evenodd" d="M22 12.334C23.1046 12.334 24 13.2294 24 14.334V26.334C24 27.4385 23.1046 28.334 22 28.334C20.8954 28.334 20 27.4385 20 26.334V14.334C20 13.2294 20.8954 12.334 22 12.334Z" fill="#99A7F1"/>
</svg>
