<svg width="30" height="44" viewBox="0 0 30 44" fill="none" xmlns="http://www.w3.org/2000/svg">
<path fill-rule="evenodd" clip-rule="evenodd" d="M0.333008 28.6667C0.333008 20.5664 6.89938 14 14.9997 14C23.0999 14 29.6663 20.5664 29.6663 28.6667C29.6663 36.7669 23.0999 43.3333 14.9997 43.3333C6.89938 43.3333 0.333008 36.7669 0.333008 28.6667Z" fill="#99A7F1" fill-opacity="0.4"/>
<path fill-rule="evenodd" clip-rule="evenodd" d="M15 25.333C16.1046 25.333 17 26.2285 17 27.333V29.9997C17 31.1042 16.1046 31.9997 15 31.9997C13.8954 31.9997 13 31.1042 13 29.9997V27.333C13 26.2285 13.8954 25.333 15 25.333Z" fill="#99A7F1"/>
<path d="M9.66699 10.0003C9.66699 7.05422 12.0542 4.66699 15.0003 4.66699C17.9465 4.66699 20.3337 7.05422 20.3337 10.0003C20.3337 11.1049 21.2291 12.0003 22.3337 12.0003C23.4382 12.0003 24.3337 11.1049 24.3337 10.0003C24.3337 4.8451 20.1555 0.666992 15.0003 0.666992C9.8451 0.666992 5.66699 4.8451 5.66699 10.0003V17.3527C6.85715 16.3698 8.20505 15.571 9.66699 15.0001V10.0003Z" fill="#99A7F1"/>
</svg>
