<svg width="930" height="320" viewBox="0 0 930 320" fill="none" xmlns="http://www.w3.org/2000/svg">
<mask id="mask0" style="mask-type:alpha" maskUnits="userSpaceOnUse" x="0" y="0" width="930" height="320">
<rect width="930" height="320" fill="#C4C4C4"/>
</mask>
<g mask="url(#mask0)">
<path d="M957 -50.1399V389.58H956.245L955.489 -50.1399H957ZM941.388 -50.1399L945.165 389.58H944.41L939.878 -50.1399H941.388ZM925.777 -49.883L933.331 389.837H932.828L924.015 -49.883H925.777ZM909.914 -49.626L922.001 389.837H921.245L908.656 -49.626H909.914ZM894.052 -48.8549L910.419 390.608H909.663L892.541 -48.8549H894.052ZM877.937 -48.341L899.591 390.865H898.584L876.93 -48.341H877.937ZM861.57 -47.313L888.261 391.636H887.253L860.564 -47.313H861.57ZM845.456 -46.285L877.181 392.15H876.427L843.945 -46.285H845.456ZM829.09 -44.743L866.606 393.435H865.851L827.831 -44.4861L829.09 -44.743ZM812.22 -43.2011L856.031 394.206H855.779L810.709 -43.2011C811.212 -43.2011 811.716 -43.2011 812.22 -43.2011ZM795.098 -41.402L845.707 395.234H844.701L793.839 -41.402H795.098ZM778.228 -39.0893L835.888 396.776H835.384L776.969 -38.832L778.228 -39.0893ZM760.854 -36.5193L826.068 398.061H825.564L759.343 -36.5193H760.854ZM742.977 -33.6921L817.003 399.346L816.248 399.603L741.718 -33.4352L742.977 -33.6921ZM725.099 -30.0944L808.191 401.402L807.435 401.659L724.092 -29.8372L725.099 -30.0944ZM706.97 -26.2395L799.378 403.201H798.874L705.459 -25.9822L706.97 -26.2395ZM688.086 -21.8703L791.321 405L790.817 405.257L686.575 -21.3565L688.086 -21.8703ZM669.202 -16.7304L784.018 407.056L783.515 407.313L667.943 -16.2166L669.202 -16.7304ZM650.065 -11.0766L776.717 409.112L776.213 409.368L648.303 -10.5625L650.065 -11.0766ZM630.425 -4.65175L770.422 411.168L769.918 411.425L628.663 -4.13757L630.425 -4.65175ZM610.534 2.80119L765.134 413.223L764.63 413.481L609.527 3.31506L610.534 2.80119ZM590.138 11.2822L759.847 415.536L759.343 415.793L588.88 12.053L590.138 11.2822ZM569.744 20.7909L755.566 417.593H755.314L567.981 21.562C568.737 21.305 569.24 21.0479 569.744 20.7909ZM549.097 31.3277L752.796 419.134L547.334 32.0988C547.837 32.0988 548.593 31.5847 549.097 31.3277ZM528.449 43.4067L749.02 421.191L748.768 421.448L526.939 44.4344C527.443 43.9204 527.946 43.6637 528.449 43.4067ZM507.551 56.5134L746.502 422.476L506.04 57.5414C506.544 57.2844 507.048 57.0274 507.551 56.5134ZM487.659 70.9051L745.243 424.274L485.897 72.1901C486.4 71.9331 486.904 71.4191 487.659 70.9051ZM467.768 86.8387L742.473 425.559L742.221 425.816L466.509 87.8668L467.768 86.8387ZM449.135 103.543L740.71 427.101L740.459 427.358L447.372 105.086C448.128 104.315 448.631 104.057 449.135 103.543ZM431.258 121.019L738.696 428.9L738.444 429.157L429.999 122.047C430.503 121.79 431.006 121.533 431.258 121.019ZM414.892 139.009L736.43 431.727L736.178 432.241L413.884 140.294L414.892 139.009ZM400.035 156.742L733.66 435.068L733.409 435.582L399.281 158.027L400.035 156.742ZM386.691 173.96L729.632 439.694L730.135 439.437L385.683 175.502C385.935 174.988 386.439 174.474 386.691 173.96ZM374.605 190.922L726.106 445.348L725.855 445.605L373.597 192.464C374.101 191.693 374.353 191.179 374.605 190.922ZM364.03 206.599L721.322 452.544L720.819 453.058L363.274 207.627L364.03 206.599ZM354.713 220.991L715.531 461.282L715.28 461.796L353.958 222.276L354.713 220.991ZM346.152 234.354L708.985 471.562L708.481 472.59L345.9 235.382L346.152 234.354ZM339.102 245.662L701.431 483.383L700.927 484.155L338.598 246.433L339.102 245.662ZM332.807 255.428L692.618 497.004L692.114 497.775L332.052 256.456L332.807 255.428ZM327.52 263.909L683.05 512.167L682.295 513.195L327.016 264.423L327.52 263.909ZM322.987 270.334L671.971 528.101L670.964 529.386L322.735 270.591L322.987 270.334ZM318.959 275.731L319.211 275.474L659.381 545.319C659.13 545.833 658.626 546.347 658.374 546.604L318.959 275.731ZM315.937 279.586C444.554 390.286 516.664 452.352 645.281 563.052C645.029 563.566 644.526 564.08 644.274 564.337C644.274 564.337 442.998 389.999 315.685 279.586L315.937 279.586ZM313.419 282.413H313.742L629.67 581.042C629.167 581.556 628.915 581.813 628.411 582.327L313.419 282.413ZM311.657 284.469L612.8 599.032C612.296 599.546 611.793 600.06 611.541 600.317L311.405 284.469L311.657 284.469ZM306.972 289.095H306.621L554.636 648.118C554.133 648.632 553.629 648.889 552.874 649.403L306.972 289.095ZM304.606 290.123L533.989 662.253C533.486 662.51 532.982 663.024 532.478 663.281L304.103 290.38L304.606 290.123ZM299.319 293.207L491.94 686.41C491.436 686.667 490.933 686.924 490.429 687.181L299.067 293.207H299.319ZM295.542 295.005L471.041 696.69L469.53 697.461L295.038 295.52L295.542 295.005ZM290.758 297.061L370.576 501.373L450.394 705.685L448.883 706.199L290.506 297.318L290.758 297.061ZM285.722 298.86L430.25 713.138L428.992 713.652L285.219 299.118L285.722 298.86ZM307.88 287.81L575.283 632.698C574.779 633.212 574.276 633.469 573.521 633.983L308.132 287.81H307.88ZM279.931 300.916L410.359 720.077L408.848 720.591L279.679 301.173L279.931 300.916ZM309.139 286.525L594.419 616.25C593.916 616.764 593.412 617.278 592.908 617.792L309.391 286.525H309.139ZM273.385 302.973L390.468 726.245L388.957 726.758L273.132 303.229L273.385 302.973ZM266.334 304.771L371.331 731.128L369.82 731.384L265.831 304.771H266.334ZM258.78 306.57L352.195 735.753L351.188 736.01L258.025 306.827L258.78 306.57ZM250.471 308.369L333.815 739.865L332.304 740.122L249.968 308.626L250.471 308.369ZM241.658 310.168L315.434 743.463L314.175 743.72L241.155 310.425L241.658 310.168ZM232.846 311.453L297.808 746.29L296.801 746.547L232.09 311.71L232.846 311.453ZM223.278 312.995L279.931 748.86L278.924 749.117L222.522 313.252L223.278 312.995ZM213.206 314.28L262.809 751.173L261.298 751.43L212.45 314.537L213.206 314.28ZM203.134 315.308L245.687 752.972L244.428 753.229L202.631 315.565L203.134 315.308ZM193.062 316.336L228.565 754.514H227.558L192.056 316.336H193.062ZM182.235 317.107L212.199 755.799C211.695 755.799 211.192 755.799 210.436 755.799L181.984 317.107H182.235ZM171.409 317.878L195.58 756.827H194.321L170.905 317.878H171.409ZM160.329 318.392L179.466 757.598H178.207L159.826 318.392H160.329ZM149.251 318.649L163.099 758.112H161.337L148.747 318.649H149.251ZM137.92 319.163L147.488 758.883H146.23L137.417 319.163H137.92ZM126.338 319.163L131.373 758.883H130.114L125.582 319.163H126.338ZM115.007 319.42L115.762 759.14H114.755L114 319.42H115.007ZM301.585 291.665L301.935 291.376L513.342 674.845C512.587 675.102 512.083 675.616 511.328 675.873L301.585 291.665Z" fill="white" fill-opacity="0.25" stroke="url(#paint0_linear)" stroke-opacity="0.24" stroke-miterlimit="10"/>
</g>
<defs>
<linearGradient id="paint0_linear" x1="957.337" y1="354.448" x2="112.146" y2="354.448" gradientUnits="userSpaceOnUse">
<stop stop-color="white"/>
<stop offset="1" stop-color="white" stop-opacity="0"/>
</linearGradient>
</defs>
</svg>
