<svg width="570" height="294" viewBox="0 0 570 294" fill="none" xmlns="http://www.w3.org/2000/svg">
<mask id="mask0" mask-type="alpha" maskUnits="userSpaceOnUse" x="0" y="0" width="570" height="294">
<rect width="570" height="294" fill="#C4C4C4"/>
</mask>
<g mask="url(#mask0)">
<path d="M584.332 0.188477C625.72 52.551 663.274 106.108 646.54 160.272C637.515 189.498 618.787 212.275 635.869 241.746C650.917 267.672 672.261 290.6 642.648 316.507C627.328 329.896 596.882 341.161 579.703 354.266C537.133 386.772 554.835 412.83 583.77 446" stroke="white" stroke-opacity="0.24" stroke-miterlimit="10"/>
<path d="M550.052 0.169434C595.45 51.9061 636.838 104.951 623.978 158.888C616.909 188.511 600.524 211.611 618.691 241.367C634.921 267.956 659.324 292.535 625.721 318.953C609.084 332.039 576.14 342.508 556.753 355.138C508.044 386.886 523.712 412.602 549.51 445.962" stroke="white" stroke-opacity="0.24" stroke-miterlimit="10"/>
<path d="M515.772 0.150635C565.178 51.2235 610.286 103.7 601.144 157.39C596.012 187.487 582.28 210.985 601.744 241.14C619.311 268.316 647.646 294.962 609.627 321.874C591.557 334.656 555.979 344.196 534.268 356.295C478.973 387.095 492.608 412.413 515.21 445.981" stroke="white" stroke-opacity="0.24" stroke-miterlimit="10"/>
<path d="M481.51 0.131836C534.829 50.4651 583.461 102.297 577.767 155.683C574.513 186.255 563.59 210.189 584.449 240.741C603.39 268.449 636.238 297.447 593.649 324.757C574.107 337.274 535.914 345.884 511.878 357.433C449.863 387.209 461.503 412.167 480.948 445.981" stroke="white" stroke-opacity="0.24" stroke-miterlimit="10"/>
<path d="M447.229 0.112793C504.247 49.5736 556.172 100.684 553.518 153.635C551.949 184.662 543.951 208.956 566.224 239.869C586.54 268.051 624.016 299.552 577.011 327.165C556.017 339.511 515.383 347.211 489.082 358.268C420.502 387.076 430.224 411.73 446.667 445.943" stroke="white" stroke-opacity="0.24" stroke-miterlimit="10"/>
<path d="M412.949 0.112793C473.124 48.3409 529.58 98.9586 528.089 151.169C527.198 182.538 522.86 207.116 546.45 238.257C568.122 266.856 609.879 300.766 558.981 328.701C536.592 340.991 493.828 347.932 465.454 358.59C390.773 386.64 398.694 411.142 412.387 445.905" stroke="white" stroke-opacity="0.24" stroke-miterlimit="10"/>
<path d="M378.688 0.09375C441.846 47.1081 501.033 96.7207 501.227 148.173C501.362 179.75 499.794 204.328 524.604 235.621C547.612 264.656 592.836 300.614 538.858 328.948C515.268 341.332 470.82 347.704 440.587 358.135C360.521 385.767 366.855 410.327 378.126 445.905" stroke="white" stroke-opacity="0.24" stroke-miterlimit="10"/>
<path d="M344.407 0.0749512C407.894 45.61 468.999 93.8571 471.904 143.982C473.744 175.559 474.751 200.611 499.716 231.866C523.363 261.47 569.942 298.547 515.403 327.469C491.329 340.232 445.738 346.775 414.382 357.396C332.225 385.198 335.265 409.568 343.845 445.905" stroke="white" stroke-opacity="0.24" stroke-miterlimit="10"/>
<path d="M310.125 0.0557861C369.409 43.3151 432.354 89.0777 442.173 136.415C448.623 167.574 450.385 195.017 471.941 226.005C493.304 256.729 536.416 294.147 485.131 324.017C461.948 337.52 416.589 345.58 385.562 357.035C308.13 385.653 304.644 409.36 309.563 445.867" stroke="white" stroke-opacity="0.24" stroke-miterlimit="10"/>
<path d="M275.845 0.0369873C332.611 41.3618 401.192 85.228 415.717 130.365C426.234 163.042 429.255 194.448 447.558 227.162C467.177 262.172 493.072 296.916 428.829 328.758C399.623 343.248 352.172 353.735 322.656 368.319C271.274 393.695 273.985 416.87 275.283 445.867" stroke="white" stroke-opacity="0.24" stroke-miterlimit="10"/>
<path d="M241.544 0.0179443C294.476 37.8532 367.879 77.8885 388.971 118.948C405.588 151.34 401.927 185.363 413.916 218.154C427.26 254.605 446.608 290.619 388.099 324.207C360.926 339.796 316.942 352.351 288.588 367.826C241.506 393.543 241.254 417.041 241.002 445.829" stroke="white" stroke-opacity="0.24" stroke-miterlimit="10"/>
<path d="M207.265 0.0179443C256.497 34.4585 334.703 70.018 361.586 106.924C385.059 139.146 372.044 175.862 377.467 208.804C383.703 246.583 395.634 284.38 343.477 319.712C274.896 366.176 209.085 391.722 206.722 445.829" stroke="white" stroke-opacity="0.24" stroke-miterlimit="10"/>
<path d="M172.984 -0.00109863C218.73 31.5567 300.52 62.0336 332.283 95.0328C363.096 127.065 338.848 166.891 337.996 199.947C336.989 238.996 341.463 278.785 295.891 315.881C238.447 362.63 175.734 393.656 172.442 445.791" stroke="white" stroke-opacity="0.24" stroke-miterlimit="10"/>
<path d="M138.703 -0.0198975C181.08 29.5656 264.225 54.3908 299.861 84.147C337.899 115.932 301.701 159.552 295.329 192.551C287.621 232.53 287.504 274.954 246.29 313.397C196.69 359.69 141.783 395.8 138.142 445.773" stroke="white" stroke-opacity="0.24" stroke-miterlimit="10"/>
<path d="M104.423 -0.0388184C143.061 28.6553 224.657 47.6583 263.043 75.0818C307.337 106.715 260.003 154.583 249.292 187.507C235.793 228.964 229.866 272.394 195.625 312.885C156.909 358.685 107.58 397.62 103.861 445.773" stroke="white" stroke-opacity="0.24" stroke-miterlimit="10"/>
<path d="M70.1426 -0.0574951C103.552 28.7884 180.906 42.557 220.59 68.6339C269.28 100.647 213.501 152.478 199.654 185.705C181.797 228.528 172.229 272.622 144.805 314.99C115.966 359.539 73.377 399.859 69.5809 445.773" stroke="white" stroke-opacity="0.24" stroke-miterlimit="10"/>
<path d="M35.8425 -0.0574951C61.001 29.6987 132.39 39.845 171.241 65.6374C221.558 99.0539 162.022 153.711 146.238 188.038C125.999 232.018 115.579 276.434 94.7781 320.319C74.7133 362.668 39.445 402.703 35.3003 445.754" stroke="white" stroke-opacity="0.24" stroke-miterlimit="10"/>
<path d="M1.56162 -0.0769043C14.4992 30.9878 78.7221 40.2807 113.777 66.9077C161.577 103.226 105.449 158.623 88.8514 195.434C68.6703 240.229 60.0905 284.645 46.4751 329.536C34.6415 368.547 6.17115 406.458 1 445.754" stroke="white" stroke-opacity="0.24" stroke-miterlimit="10"/>
</g>
</svg>
