<svg width="189" height="189" viewBox="0 0 189 189" fill="none" xmlns="http://www.w3.org/2000/svg">
<rect x="0.144043" y="0.985168" width="187.963" height="187.963" rx="36" fill="#DADFE8"/>
<path d="M128.084 51.2741H60.167C51.3379 51.2741 44.1804 58.4315 44.1804 67.2607V122.681C44.1804 131.51 51.3379 138.668 60.167 138.668H128.084C136.913 138.668 144.07 131.51 144.07 122.681V67.2607C144.07 58.4315 136.913 51.2741 128.084 51.2741Z" fill="black"/>
<path fill-rule="evenodd" clip-rule="evenodd" d="M59.3677 69.1503C60.2016 69.1503 61.0013 68.8191 61.591 68.2295C62.1806 67.6398 62.5117 66.8402 62.5117 66.0063C62.5117 65.1725 62.1806 64.3727 61.591 63.7831C61.0013 63.1934 60.2016 62.8622 59.3677 62.8622C58.6216 62.8594 57.8971 63.1135 57.3161 63.5817C56.9455 63.8685 56.645 64.2357 56.4372 64.6558C56.2295 65.0758 56.1202 65.5377 56.1172 66.0063C56.1241 66.4262 56.2137 66.8406 56.3808 67.2258C56.5479 67.6111 56.7893 67.9597 57.0911 68.2517C57.393 68.5436 57.7495 68.7733 58.1401 68.9274C58.5307 69.0816 58.9478 69.1574 59.3677 69.1503Z" fill="#FF4C6F"/>
<path d="M70.4239 69.1503C72.2191 69.1503 73.6746 67.7426 73.6746 66.0062C73.6746 64.2698 72.2191 62.8622 70.4239 62.8622C68.6286 62.8622 67.1733 64.2698 67.1733 66.0062C67.1733 67.7426 68.6286 69.1503 70.4239 69.1503Z" fill="#CCD2DC"/>
<path fill-rule="evenodd" clip-rule="evenodd" d="M81.5086 69.1507C82.1255 69.1298 82.7226 68.9277 83.2254 68.5698C83.7282 68.2118 84.1146 67.7138 84.3363 67.1378C84.558 66.5618 84.6052 65.9332 84.4721 65.3305C84.339 64.7279 84.0316 64.1776 83.5879 63.7485C83.1443 63.3194 82.5841 63.0304 81.9773 62.9174C81.3705 62.8045 80.7439 62.8727 80.1756 63.1135C79.6072 63.3543 79.1224 63.757 78.7814 64.2715C78.4404 64.7859 78.2584 65.3894 78.2581 66.0067C78.265 66.4266 78.3545 66.8409 78.5217 67.2262C78.6888 67.6114 78.9302 67.9601 79.232 68.252C79.5339 68.544 79.8903 68.7736 80.2809 68.9278C80.6716 69.082 81.0887 69.1577 81.5086 69.1507Z" fill="#CCD2DC"/>
<path fill-rule="evenodd" clip-rule="evenodd" d="M105.515 104.723C105.308 105.163 105.243 105.656 105.329 106.135C105.445 106.598 105.685 107.021 106.021 107.36C106.297 107.64 106.522 107.964 106.688 108.319C106.846 108.681 106.927 109.071 106.927 109.465C106.933 109.86 106.851 110.252 106.688 110.611C106.522 110.974 106.297 111.308 106.021 111.597C105.722 111.865 105.38 112.081 105.009 112.236C104.637 112.386 104.238 112.459 103.837 112.449C103.427 112.459 103.019 112.386 102.638 112.236C102.275 112.08 101.942 111.864 101.652 111.597C101.287 111.257 100.835 111.026 100.346 110.931C99.8412 110.848 99.3232 110.913 98.8541 111.117C98.4023 111.293 98.0129 111.599 97.735 111.996C97.4723 112.402 97.3248 112.872 97.3086 113.355V113.702C97.3087 114.093 97.2311 114.481 97.0801 114.842C96.9292 115.204 96.7081 115.531 96.4295 115.807C95.8342 116.355 95.0542 116.66 94.2446 116.66C93.4351 116.66 92.6551 116.355 92.0598 115.807C91.5019 115.247 91.1861 114.492 91.1805 113.702V113.568C91.1533 113.071 90.9872 112.591 90.7009 112.183C90.3927 111.782 89.9769 111.477 89.5018 111.304C89.0531 111.142 88.569 111.103 88.1004 111.192C87.6317 111.281 87.1955 111.495 86.8374 111.81C86.5459 112.095 86.2021 112.321 85.8249 112.476L85.2655 112.636H84.6526C84.244 112.63 83.8391 112.558 83.4535 112.423C83.0845 112.267 82.7496 112.041 82.4677 111.757C82.1775 111.49 81.95 111.163 81.8016 110.797L81.6417 110.371C81.6155 110.132 81.6155 109.891 81.6417 109.652C81.6416 109.257 81.7233 108.867 81.8816 108.506C82.0212 108.136 82.25 107.807 82.5477 107.547C82.913 107.208 83.1565 106.759 83.2405 106.268C83.321 105.783 83.2657 105.285 83.0806 104.829C82.8716 104.396 82.5493 104.028 82.148 103.763L81.6951 103.524C81.3861 103.419 81.0622 103.365 80.7359 103.364H80.4694C79.6628 103.363 78.8883 103.048 78.3112 102.484C78.0265 102.212 77.7997 101.886 77.6441 101.524C77.4884 101.162 77.4072 100.773 77.4054 100.38C77.3649 100.106 77.3649 99.8274 77.4054 99.5535C77.6077 98.9278 78.0026 98.3822 78.5338 97.9945C79.065 97.6069 79.7053 97.3972 80.3628 97.3953H80.8158C81.3217 97.3921 81.8145 97.234 82.228 96.9424C82.6308 96.6523 82.9444 96.2555 83.1338 95.7967C83.345 95.348 83.4012 94.8419 83.2937 94.3579C83.2098 93.8727 82.977 93.4258 82.6276 93.079L82.3078 92.7326C82.1658 92.5445 82.0493 92.3384 81.9614 92.1197C81.8031 91.7585 81.7216 91.3684 81.7217 90.974C81.7236 90.5803 81.8048 90.191 81.9605 89.8293C82.1161 89.4677 82.3429 89.1411 82.6276 88.8691C82.9144 88.5783 83.2595 88.3514 83.6401 88.203C84.3958 87.9188 85.229 87.9188 85.9848 88.203C86.362 88.3579 86.7057 88.584 86.9973 88.8691C87.369 89.2133 87.8311 89.4443 88.3295 89.5352C88.8233 89.6208 89.3312 89.5654 89.7949 89.3754C90.2485 89.1894 90.6378 88.8745 90.9141 88.4695C91.0644 88.2516 91.1728 88.0077 91.2338 87.7501C91.2723 87.5387 91.2723 87.322 91.2338 87.1106V86.8708C91.2531 86.2827 91.4489 85.7141 91.7958 85.2389C92.1427 84.7637 92.6246 84.4039 93.1788 84.2063C93.536 84.0689 93.915 83.9967 94.2978 83.9932C95.1125 83.9922 95.8958 84.3074 96.4827 84.8725C96.7613 85.1476 96.9825 85.4754 97.1335 85.8367C97.2844 86.1981 97.3621 86.5858 97.362 86.9774V87.1106C97.3781 87.5938 97.5254 88.0636 97.7882 88.4695L98.1879 88.9224C98.4016 89.1046 98.6449 89.2488 98.9074 89.3487C99.0491 89.4253 99.2019 89.4792 99.3603 89.5086C99.7033 89.5768 100.056 89.5768 100.399 89.5086C100.892 89.4249 101.348 89.1924 101.705 88.8424C101.998 88.5659 102.342 88.3487 102.718 88.203C102.918 88.1045 103.135 88.0414 103.357 88.0165H103.89C104.293 88.0164 104.692 88.098 105.062 88.2563C105.441 88.3953 105.786 88.6134 106.075 88.8958C106.358 89.1681 106.585 89.4941 106.741 89.8549V90.2013C106.781 90.4663 106.781 90.7357 106.741 91.0006C106.754 91.1602 106.754 91.3207 106.741 91.4803C106.72 91.7118 106.656 91.9375 106.554 92.1464C106.399 92.5154 106.173 92.8503 105.888 93.1322C105.539 93.4791 105.306 93.9261 105.222 94.4112C105.128 94.8959 105.183 95.3978 105.382 95.8499C105.587 96.2926 105.909 96.6704 106.314 96.9424C106.743 97.1954 107.229 97.3331 107.727 97.342H107.993H108.713C109.258 97.4669 109.757 97.7442 110.151 98.1414C110.438 98.4115 110.667 98.7376 110.823 99.0997C110.979 99.4618 111.058 99.852 111.057 100.246C111.055 100.64 110.974 101.029 110.818 101.391C110.663 101.753 110.436 102.079 110.151 102.351C109.571 102.907 108.796 103.214 107.993 103.204H107.833C107.341 103.215 106.861 103.363 106.448 103.63C106.029 103.886 105.702 104.269 105.515 104.723ZM98.8469 103.278C99.4355 102.335 99.7291 101.238 99.6898 100.127C99.6611 98.6743 99.0578 97.2923 98.0122 96.2836C96.9666 95.2749 95.5638 94.7217 94.1111 94.7451C92.9995 94.7458 91.9135 95.0786 90.9923 95.7007C90.0712 96.3228 89.3569 97.206 88.9411 98.2369C88.5253 99.2678 88.4269 100.399 88.6586 101.487C88.8903 102.574 89.4414 103.567 90.2414 104.339C91.0414 105.11 92.0537 105.626 93.1485 105.818C94.2433 106.011 95.3707 105.872 96.386 105.419C97.4013 104.966 98.2582 104.221 98.8469 103.278Z" fill="url(#paint0_linear_708_700)"/>
<path d="M67.4653 109.905C66.7663 109.902 66.0966 109.625 65.6003 109.132L58.6727 102.205C58.1764 101.706 57.8979 101.03 57.8979 100.326C57.8979 99.6224 58.1764 98.9471 58.6727 98.4479L65.6003 91.5203C66.0995 91.0241 66.7747 90.7455 67.4786 90.7455C68.1825 90.7455 68.8579 91.0241 69.3571 91.5203C69.8534 92.0195 70.1319 92.6948 70.1319 93.3987C70.1319 94.1026 69.8534 94.778 69.3571 95.2772L64.3746 100.313L69.4105 105.349C69.6602 105.596 69.8584 105.891 69.9936 106.216C70.1289 106.54 70.1985 106.889 70.1985 107.24C70.1985 107.592 70.1289 107.941 69.9936 108.265C69.8584 108.59 69.6602 108.885 69.4105 109.132C69.1552 109.386 68.8513 109.585 68.517 109.718C68.1827 109.85 67.8249 109.914 67.4653 109.905Z" fill="#CCD2DC"/>
<path d="M120.783 109.905C120.253 109.908 119.735 109.753 119.294 109.461C118.853 109.168 118.509 108.751 118.306 108.262C118.103 107.773 118.051 107.235 118.155 106.716C118.259 106.198 118.515 105.721 118.891 105.349L123.927 100.313L118.891 95.2772C118.395 94.778 118.116 94.1026 118.116 93.3987C118.116 92.6948 118.395 92.0195 118.891 91.5203C119.39 91.0241 120.065 90.7455 120.769 90.7455C121.473 90.7455 122.149 91.0241 122.648 91.5203L129.575 98.4479C130.072 98.9471 130.35 99.6224 130.35 100.326C130.35 101.03 130.072 101.706 129.575 102.205L122.648 109.132C122.152 109.625 121.482 109.902 120.783 109.905Z" fill="#CCD2DC"/>
<defs>
<linearGradient id="paint0_linear_708_700" x1="77.3798" y1="100.326" x2="111.061" y2="100.326" gradientUnits="userSpaceOnUse">
<stop stop-color="#635DFF"/>
<stop offset="1" stop-color="#3885FF"/>
</linearGradient>
</defs>
</svg>
