<svg width="189" height="189" viewBox="0 0 189 189" fill="none" xmlns="http://www.w3.org/2000/svg">
<rect x="0.773438" y="0.985168" width="187.963" height="187.963" rx="36" fill="#DADFE8"/>
<path fill-rule="evenodd" clip-rule="evenodd" d="M113.153 45.9727V47.0119C113.146 47.8224 112.821 48.5977 112.248 49.1708C111.675 49.7439 110.899 50.069 110.089 50.076H79.3679C78.5574 50.069 77.782 49.7439 77.2089 49.1708C76.6357 48.5977 76.3107 47.8224 76.3037 47.0119V45.9994C76.3046 45.8744 76.2789 45.7506 76.2282 45.6363C76.1776 45.522 76.1031 45.4199 76.0098 45.3367C75.9165 45.2535 75.8065 45.1911 75.6872 45.1537C75.5679 45.1164 75.442 45.1049 75.3179 45.1201C71.5329 45.6878 68.0772 47.5946 65.5788 50.494C63.0803 53.3934 61.7049 57.0928 61.7026 60.9202V128.837C61.7026 133.077 63.387 137.143 66.3851 140.141C69.3832 143.139 73.4493 144.823 77.6893 144.823H111.821C116.061 144.823 120.127 143.139 123.125 140.141C126.123 137.143 127.807 133.077 127.807 128.837V60.9202C127.803 57.0849 126.42 53.3791 123.911 50.4785C121.402 47.578 117.933 45.6762 114.139 45.1201C114.016 45.1007 113.891 45.1083 113.772 45.1423C113.652 45.1764 113.542 45.2361 113.448 45.3173C113.354 45.3985 113.279 45.4992 113.228 45.6124C113.177 45.7256 113.151 45.8486 113.153 45.9727V45.9727Z" fill="black"/>
<path d="M80.6472 64.4924H77.9827C75.7754 64.4924 73.9861 66.2817 73.9861 68.489V71.1535C73.9861 73.3608 75.7754 75.1501 77.9827 75.1501H80.6472C82.8545 75.1501 84.6438 73.3608 84.6438 71.1535V68.489C84.6438 66.2817 82.8545 64.4924 80.6472 64.4924Z" fill="#546BFF"/>
<path d="M96.1008 64.4924H93.4364C91.2291 64.4924 89.4397 66.2817 89.4397 68.489V71.1535C89.4397 73.3608 91.2291 75.1501 93.4364 75.1501H96.1008C98.3081 75.1501 100.097 73.3608 100.097 71.1535V68.489C100.097 66.2817 98.3081 64.4924 96.1008 64.4924Z" fill="#CCD2DC"/>
<path d="M111.554 64.4924H108.89C106.683 64.4924 104.893 66.2817 104.893 68.489V71.1535C104.893 73.3608 106.683 75.1501 108.89 75.1501H111.554C113.762 75.1501 115.551 73.3608 115.551 71.1535V68.489C115.551 66.2817 113.762 64.4924 111.554 64.4924Z" fill="#FF4D65"/>
<path d="M80.6472 80.5581H77.9827C75.7754 80.5581 73.9861 82.3474 73.9861 84.5547V87.2192C73.9861 89.4264 75.7754 91.2158 77.9827 91.2158H80.6472C82.8545 91.2158 84.6438 89.4264 84.6438 87.2192V84.5547C84.6438 82.3474 82.8545 80.5581 80.6472 80.5581Z" fill="#CCD2DC"/>
<path d="M96.1008 80.5581H93.4364C91.2291 80.5581 89.4397 82.3474 89.4397 84.5547V87.2192C89.4397 89.4264 91.2291 91.2158 93.4364 91.2158H96.1008C98.3081 91.2158 100.097 89.4264 100.097 87.2192V84.5547C100.097 82.3474 98.3081 80.5581 96.1008 80.5581Z" fill="#FF4D65"/>
<path d="M111.554 80.5581H108.89C106.683 80.5581 104.893 82.3474 104.893 84.5547V87.2192C104.893 89.4264 106.683 91.2158 108.89 91.2158H111.554C113.762 91.2158 115.551 89.4264 115.551 87.2192V84.5547C115.551 82.3474 113.762 80.5581 111.554 80.5581Z" fill="#546BFF"/>
<path d="M80.6472 96.6521H77.9827C75.7754 96.6521 73.9861 98.4415 73.9861 100.649V103.313C73.9861 105.52 75.7754 107.31 77.9827 107.31H80.6472C82.8545 107.31 84.6438 105.52 84.6438 103.313V100.649C84.6438 98.4415 82.8545 96.6521 80.6472 96.6521Z" fill="#546BFF"/>
<path d="M96.1008 96.6521H93.4364C91.2291 96.6521 89.4397 98.4415 89.4397 100.649V103.313C89.4397 105.52 91.2291 107.31 93.4364 107.31H96.1008C98.3081 107.31 100.097 105.52 100.097 103.313V100.649C100.097 98.4415 98.3081 96.6521 96.1008 96.6521Z" fill="#CCD2DC"/>
</svg>
