<svg width="189" height="189" viewBox="0 0 189 189" fill="none" xmlns="http://www.w3.org/2000/svg">
<rect x="0.773438" y="0.579544" width="187.963" height="187.963" rx="36" fill="#DADFE8"/>
<path d="M128.595 51.0188H60.9156C52.1173 51.0188 44.9849 58.1513 44.9849 66.9495V122.176C44.9849 130.974 52.1173 138.107 60.9156 138.107H128.595C137.393 138.107 144.525 130.974 144.525 122.176V66.9495C144.525 58.1513 137.393 51.0188 128.595 51.0188Z" fill="black"/>
<path fill-rule="evenodd" clip-rule="evenodd" d="M59.9588 68.836C60.7897 68.836 61.5866 68.5059 62.1742 67.9183C62.7617 67.3308 63.0918 66.5339 63.0918 65.7029C63.0918 64.872 62.7617 64.075 62.1742 63.4875C61.5866 62.8999 60.7897 62.5698 59.9588 62.5698C59.2152 62.5671 58.4933 62.8203 57.9143 63.2868C57.5405 63.5684 57.2378 63.9336 57.0303 64.3531C56.8229 64.7726 56.7164 65.2349 56.7195 65.7029C56.7265 66.1214 56.8157 66.5343 56.9823 66.9182C57.1488 67.3021 57.3894 67.6495 57.6902 67.9404C57.991 68.2314 58.3461 68.4602 58.7354 68.6139C59.1247 68.7675 59.5404 68.843 59.9588 68.836Z" fill="#FF4C6F"/>
<path d="M70.9783 68.8359C72.7672 68.8359 74.2175 67.4332 74.2175 65.7029C74.2175 63.9725 72.7672 62.5698 70.9783 62.5698C69.1893 62.5698 67.739 63.9725 67.739 65.7029C67.739 67.4332 69.1893 68.8359 70.9783 68.8359Z" fill="#CCD2DC"/>
<path fill-rule="evenodd" clip-rule="evenodd" d="M81.9963 68.8363C82.611 68.8155 83.206 68.6142 83.7071 68.2575C84.2081 67.9008 84.5931 67.4045 84.814 66.8305C85.035 66.2565 85.0821 65.6301 84.9495 65.0296C84.8168 64.429 84.5104 63.8807 84.0683 63.4531C83.6262 63.0255 83.068 62.7374 82.4633 62.6249C81.8587 62.5124 81.2342 62.5803 80.6679 62.8203C80.1016 63.0602 79.6184 63.4615 79.2786 63.9742C78.9388 64.4868 78.7574 65.0882 78.7571 65.7033C78.764 66.1217 78.8533 66.5346 79.0198 66.9186C79.1864 67.3025 79.4269 67.6499 79.7277 67.9408C80.0285 68.2317 80.3837 68.4606 80.7729 68.6142C81.1622 68.7679 81.5779 68.8434 81.9963 68.8363Z" fill="#CCD2DC"/>
<path d="M91.6338 126.559H127.478C130.411 126.559 132.788 124.182 132.788 121.249V105.425C132.788 102.492 130.411 100.114 127.478 100.114H91.6338C88.701 100.114 86.3235 102.492 86.3235 105.425V121.249C86.3235 124.182 88.701 126.559 91.6338 126.559Z" fill="url(#paint0_linear_708_697)"/>
<path d="M62.0291 126.559H75.5967C78.5295 126.559 80.907 124.182 80.907 121.249V105.425C80.907 102.492 78.5295 100.114 75.5967 100.114H62.0291C59.0963 100.114 56.7189 102.492 56.7189 105.425V121.249C56.7189 124.182 59.0963 126.559 62.0291 126.559Z" fill="#4C73FF"/>
<path d="M127.478 78.3689H62.0297C59.097 78.3689 56.7195 80.7464 56.7195 83.6792V89.4142C56.7195 92.347 59.097 94.7245 62.0297 94.7245H127.478C130.411 94.7245 132.789 92.347 132.789 89.4142V83.6792C132.789 80.7464 130.411 78.3689 127.478 78.3689Z" fill="#CCD2DC"/>
<defs>
<linearGradient id="paint0_linear_708_697" x1="132.788" y1="128.793" x2="86.3234" y2="98.689" gradientUnits="userSpaceOnUse">
<stop stop-color="#635DFF"/>
<stop offset="1" stop-color="#3885FF"/>
</linearGradient>
</defs>
</svg>
