<svg width="33" height="32" viewBox="0 0 33 32" fill="none" xmlns="http://www.w3.org/2000/svg">
<path d="M12.5847 24.1537C12.5847 24.1537 11.4455 24.8166 13.3964 25.0403C15.7603 25.3103 16.9683 25.2716 19.5726 24.7793C19.5726 24.7793 20.2587 25.2083 21.2151 25.5801C15.3749 28.0821 7.9981 25.4351 12.5847 24.1537ZM11.8706 20.8882C11.8706 20.8882 10.5926 21.8343 12.5452 22.0364C15.0704 22.2972 17.0642 22.3184 20.5158 21.6541C20.5158 21.6541 20.9921 22.138 21.7422 22.4023C14.6826 24.467 6.8195 22.5648 11.8706 20.8882Z" fill="#EEEEEE" style="fill:#EEEEEE;fill:color(display-p3 0.9333 0.9333 0.9333);fill-opacity:1;"/>
<path d="M17.8863 15.3479C19.3261 17.0052 17.5087 18.4951 17.5087 18.4951C17.5087 18.4951 21.1624 16.6094 19.4848 14.247C17.9174 12.0449 16.7158 10.9511 23.2211 7.17822C23.2211 7.17846 13.0096 9.72804 17.8863 15.3479Z" fill="#EEEEEE" style="fill:#EEEEEE;fill:color(display-p3 0.9333 0.9333 0.9333);fill-opacity:1;"/>
<path d="M25.6102 26.5699C25.6102 26.5699 26.4536 27.2653 24.6811 27.8028C21.3112 28.8236 10.6521 29.1314 7.69176 27.8436C6.6281 27.3805 8.6235 26.7384 9.25128 26.6029C9.90582 26.4612 10.2796 26.487 10.2796 26.487C9.09595 25.6537 2.62941 28.1239 6.9954 28.8325C18.9011 30.7624 28.698 27.9633 25.6102 26.5699ZM13.1334 17.5046C13.1334 17.5046 7.71207 18.7924 11.2137 19.2605C12.6925 19.4584 15.639 19.413 18.3854 19.1826C20.6294 18.9941 22.8812 18.5914 22.8812 18.5914C22.8812 18.5914 22.0907 18.9305 21.5181 19.321C16.0118 20.7694 5.37709 20.0948 8.43902 18.6141C11.0275 17.3621 13.1334 17.5046 13.1334 17.5046ZM22.8587 22.9404C28.4557 20.0329 25.8676 17.2386 24.0612 17.615C23.6196 17.707 23.4215 17.787 23.4215 17.787C23.4215 17.787 23.5859 17.5292 23.8994 17.4183C27.4728 16.1625 30.2204 21.1231 22.7469 23.0879C22.7469 23.0874 22.8327 23.0097 22.8587 22.9404Z" fill="#EEEEEE" style="fill:#EEEEEE;fill:color(display-p3 0.9333 0.9333 0.9333);fill-opacity:1;"/>
<path d="M19.4852 1.08545C19.4852 1.08545 22.5842 4.18633 16.5451 8.95307C11.7022 12.778 15.4409 14.9584 16.5435 17.4506C13.7162 14.9001 11.6424 12.6545 13.0335 10.5647C15.0762 7.49774 20.7352 6.01015 19.4852 1.08545Z" fill="#EEEEEE" style="fill:#EEEEEE;fill:color(display-p3 0.9333 0.9333 0.9333);fill-opacity:1;"/>
<path d="M13.6834 30.8212C19.0545 31.1646 27.3047 30.6301 27.5 28.0884C27.5 28.0884 27.1245 29.0519 23.0606 29.8164C18.4757 30.6795 12.8198 30.5789 9.46631 30.0252C9.46631 30.0255 10.1533 30.5942 13.6834 30.8212Z" fill="#EEEEEE" style="fill:#EEEEEE;fill:color(display-p3 0.9333 0.9333 0.9333);fill-opacity:1;"/>
</svg>
