<svg width="30" height="30" viewBox="0 0 30 30" fill="none" xmlns="http://www.w3.org/2000/svg">
<rect width="30" height="30" rx="2" fill="#EEEEEE" style="fill:#EEEEEE;fill:color(display-p3 0.9333 0.9333 0.9333);fill-opacity:1;"/>
<path d="M25.7406 21.4548C25.587 20.4982 24.9633 19.6948 23.1156 18.9456C22.4738 18.6506 21.7583 18.4394 21.5451 17.953C21.4694 17.6699 21.4593 17.5105 21.5072 17.3391C21.6447 16.7831 22.3085 16.6097 22.8346 16.7692C23.1734 16.8827 23.4942 17.1438 23.6876 17.5604C24.5924 16.9745 24.5906 16.9784 25.2224 16.5757C24.9911 16.2171 24.8676 16.0516 24.7162 15.8982C24.172 15.2904 23.4305 14.9773 22.2447 15.0013L21.627 15.0812C21.0351 15.2307 20.4709 15.5414 20.1401 15.958C19.1476 17.0842 19.4306 19.0553 20.6384 19.8664C21.8283 20.7595 23.5762 20.9627 23.7995 21.7978C24.0168 22.8202 23.0481 23.1511 22.0854 23.0336C21.3759 22.886 20.9813 22.5254 20.5547 21.8696C19.7695 22.3241 19.7695 22.3241 18.9622 22.7883C19.1536 23.2069 19.3548 23.3963 19.6757 23.759C21.1945 25.2996 24.9952 25.2239 25.6769 22.892C25.7046 22.812 25.8882 22.278 25.7406 21.4548ZM17.8877 15.1247H15.9265L15.9185 20.1951C15.9185 21.2734 15.9743 22.2619 15.7989 22.5649C15.512 23.1608 14.7685 23.087 14.4296 22.9714C14.0848 22.8019 13.9094 22.5609 13.7062 22.2202C13.6505 22.1224 13.6086 22.0467 13.5945 22.0408L12 23.0173C12.2651 23.5615 12.6557 24.0338 13.156 24.3407C13.9034 24.7892 14.9078 24.9267 15.9584 24.6855C16.6421 24.4864 17.232 24.0738 17.5408 23.4459C17.9874 22.6227 17.8916 21.6263 17.8875 20.5242C17.8976 18.7261 17.8877 16.9284 17.8877 15.1247Z" fill="#191919" style="fill:#191919;fill:color(display-p3 0.0980 0.0980 0.0980);fill-opacity:1;"/>
</svg>
