<svg width="33" height="32" viewBox="0 0 33 32" fill="none" xmlns="http://www.w3.org/2000/svg">
<g clip-path="url(#clip0_2097_15262)">
<path d="M24.5 4C24.5 1.79086 20.9183 0 16.5 0C12.0817 0 8.5 1.79086 8.5 4V28C8.5 30.2091 12.0817 32 16.5 32C20.9183 32 24.5 30.2091 24.5 28V4Z" fill="#EEEEEE" style="fill:#EEEEEE;fill:color(display-p3 0.9333 0.9333 0.9333);fill-opacity:1;"/>
<path d="M28.5 8H4.5C2.29086 8 0.5 11.5817 0.5 16C0.5 20.4183 2.29086 24 4.5 24H28.5C30.7091 24 32.5 20.4183 32.5 16C32.5 11.5817 30.7091 8 28.5 8Z" fill="#EEEEEE" style="fill:#EEEEEE;fill:color(display-p3 0.9333 0.9333 0.9333);fill-opacity:1;"/>
<path d="M12.0999 5.48051C12.9173 5.48051 13.5799 4.81789 13.5799 4.00051C13.5799 3.18313 12.9173 2.52051 12.0999 2.52051C11.2825 2.52051 10.6199 3.18313 10.6199 4.00051C10.6199 4.81789 11.2825 5.48051 12.0999 5.48051Z" fill="#191919" style="fill:#191919;fill:color(display-p3 0.0980 0.0980 0.0980);fill-opacity:1;"/>
<path d="M20.8999 29.4805C21.7173 29.4805 22.3799 28.8179 22.3799 28.0005C22.3799 27.1831 21.7173 26.5205 20.8999 26.5205C20.0825 26.5205 19.4199 27.1831 19.4199 28.0005C19.4199 28.8179 20.0825 29.4805 20.8999 29.4805Z" fill="#191919" style="fill:#191919;fill:color(display-p3 0.0980 0.0980 0.0980);fill-opacity:1;"/>
<path d="M8.5 7.59961H16.5" stroke="#191919" style="stroke:#191919;stroke:color(display-p3 0.0980 0.0980 0.0980);stroke-opacity:1;"/>
<path d="M16.5 24.4004H24.5" stroke="#191919" style="stroke:#191919;stroke:color(display-p3 0.0980 0.0980 0.0980);stroke-opacity:1;"/>
<path d="M8.1001 24C8.1001 16 10.1001 16 16.1001 16C22.9001 16 24.9001 16 24.9001 8" stroke="#191919" style="stroke:#191919;stroke:color(display-p3 0.0980 0.0980 0.0980);stroke-opacity:1;"/>
</g>
<defs>
<clipPath id="clip0_2097_15262">
<rect width="32" height="32" fill="white" style="fill:white;fill-opacity:1;" transform="translate(0.5)"/>
</clipPath>
</defs>
</svg>
