<svg width="44" height="44" viewBox="0 0 44 44" fill="none" xmlns="http://www.w3.org/2000/svg">
<path fill-rule="evenodd" clip-rule="evenodd" d="M0.666992 22.0003C0.666992 10.2181 10.2184 0.666992 22.0003 0.666992C33.7822 0.666992 43.3337 10.2181 43.3337 22.0003C43.3337 33.7825 33.7822 43.3337 22.0003 43.3337C10.2184 43.3337 0.666992 33.7825 0.666992 22.0003Z" fill="#99A7F1" fill-opacity="0.4"/>
<path d="M34.9173 18.1466C34.3999 17.2346 33.4213 16.6666 32.3733 16.6666H24.3173L26.2559 3.57864C26.4399 2.37064 25.7653 1.23997 24.616 0.829303C23.464 0.415964 22.224 0.86397 21.6 1.91464L9.11196 22.9146C8.57596 23.816 8.56529 24.944 9.08262 25.856C9.59996 26.768 10.5786 27.336 11.6266 27.336H19.6826L17.744 40.424C17.56 41.632 18.2346 42.7627 19.384 43.1733C19.6693 43.2773 19.9653 43.3253 20.2506 43.3253C21.1146 43.3253 21.9306 42.8773 22.4 42.088L34.8879 21.088C35.4239 20.1866 35.4346 19.0586 34.9173 18.1466Z" fill="#99A7F1"/>
</svg>
