<svg width="46" height="45" viewBox="0 0 46 45" fill="none" xmlns="http://www.w3.org/2000/svg">
<path opacity="0.4" d="M21.5848 18.0609C21.9597 18.4359 22.4688 18.6469 22.9989 18.6469C23.529 18.6469 24.0378 18.4359 24.413 18.0609L31.7464 10.7276C32.5277 9.94627 32.5277 8.68072 31.7464 7.89965L24.413 0.566306C23.6631 -0.18356 22.3349 -0.18356 21.585 0.566306L14.253 7.89965C13.4717 8.68099 13.4717 9.94653 14.253 10.7276L21.5848 18.0609Z" fill="#99A7F1"/>
<path opacity="0.4" d="M19.0601 20.5842L11.7281 13.2509C11.3531 12.876 10.8441 12.665 10.3139 12.665C9.78381 12.665 9.27501 12.876 8.89981 13.2509L1.56647 20.5842C0.785135 21.3656 0.785135 22.6311 1.56647 23.4122L8.89981 30.7455C9.27474 31.1205 9.78381 31.3314 10.3139 31.3314C10.8441 31.3314 11.3529 31.1205 11.7281 30.7455L19.0601 23.4122C19.8414 22.6309 19.8414 21.3653 19.0601 20.5842Z" fill="#99A7F1"/>
<path opacity="0.4" d="M24.4153 25.939C23.634 25.1577 22.3684 25.1577 21.5873 25.939L14.254 33.2724C13.4726 34.0537 13.4726 35.3193 14.254 36.1004L21.5873 43.4337C21.978 43.8244 22.4897 44.0196 23.0014 44.0196C23.5132 44.0196 24.0249 43.8244 24.4156 43.4337L31.7489 36.1004C32.5303 35.319 32.5303 34.0534 31.7489 33.2724L24.4153 25.939Z" fill="#99A7F1"/>
<path d="M44.4337 20.5868L37.1004 13.2535C36.319 12.4721 35.0534 12.4721 34.2724 13.2535L26.939 20.5868C26.1577 21.3681 26.1577 22.6337 26.939 23.4148L34.2724 30.7481C34.663 31.1388 35.1748 31.334 35.6865 31.334C36.1982 31.334 36.71 31.1388 37.1006 30.7481L44.434 23.4148C45.2153 22.6334 45.215 21.3679 44.4337 20.5868Z" fill="#99A7F1"/>
</svg>
