<svg width="233" height="122" viewBox="0 0 233 122" fill="none" xmlns="http://www.w3.org/2000/svg">
<path d="M0 16C0 7.16345 7.16344 0 16 0H217C225.837 0 233 7.16344 233 16V106C233 114.837 225.837 122 217 122H16C7.16345 122 0 114.837 0 106V16Z" fill="#14151A"/>
<path fill-rule="evenodd" clip-rule="evenodd" d="M108.5 53.4446C108.5 51.7269 109.893 50.3335 111.611 50.3335H121.389C123.107 50.3335 124.5 51.7269 124.5 53.4446V73.8891C124.5 75.6067 123.107 77.0002 121.389 77.0002H111.611C109.893 77.0002 108.5 75.6067 108.5 73.8891V53.4446Z" fill="white" fill-opacity="0.32"/>
<path d="M114.278 67.2223C115.014 67.2223 115.611 66.625 115.611 65.889C115.611 65.153 115.014 64.5557 114.278 64.5557C113.542 64.5557 112.944 65.153 112.944 65.889C112.944 66.625 113.542 67.2223 114.278 67.2223Z" fill="white"/>
<path d="M118.722 67.2223C119.458 67.2223 120.055 66.625 120.055 65.889C120.055 65.153 119.458 64.5557 118.722 64.5557C117.986 64.5557 117.389 65.153 117.389 65.889C117.389 66.625 117.986 67.2223 118.722 67.2223Z" fill="white"/>
<path d="M114.278 71.6667C115.014 71.6667 115.611 71.0693 115.611 70.3333C115.611 69.5973 115.014 69 114.278 69C113.542 69 112.944 69.5973 112.944 70.3333C112.944 71.0693 113.542 71.6667 114.278 71.6667Z" fill="white"/>
<path d="M118.722 71.6667C119.458 71.6667 120.055 71.0693 120.055 70.3333C120.055 69.5973 119.458 69 118.722 69C117.986 69 117.389 69.5973 117.389 70.3333C117.389 71.0693 117.986 71.6667 118.722 71.6667Z" fill="white"/>
<path fill-rule="evenodd" clip-rule="evenodd" d="M111.167 56.9998C111.167 56.2635 111.763 55.6665 112.5 55.6665H120.5C121.236 55.6665 121.833 56.2635 121.833 56.9998V60.5554C121.833 61.2918 121.236 61.8887 120.5 61.8887H112.5C111.763 61.8887 111.167 61.2918 111.167 60.5554V56.9998Z" fill="white"/>
<path d="M120.944 46.3333C120.944 45.597 120.348 45 119.611 45C118.875 45 118.278 45.597 118.278 46.3333V50.3333H120.944V46.3333Z" fill="white"/>
</svg>
