<svg width="233" height="122" viewBox="0 0 233 122" fill="none" xmlns="http://www.w3.org/2000/svg">
<path d="M0 16C0 7.16345 7.16344 0 16 0H217C225.837 0 233 7.16344 233 16V106C233 114.837 225.837 122 217 122H16C7.16345 122 0 114.837 0 106V16Z" fill="#14151A"/>
<path d="M107.167 48.5557C104.464 48.5557 102.278 50.7548 102.278 53.4446V68.5557C102.278 71.2454 104.464 73.4446 107.167 73.4446H125.833C128.536 73.4446 130.722 71.2454 130.722 68.5557V53.4446C130.722 50.7548 128.536 48.5557 125.833 48.5557H107.167Z" fill="white" fill-opacity="0.32"/>
<path fill-rule="evenodd" clip-rule="evenodd" d="M118.668 57.8349C119.189 57.3142 120.033 57.3142 120.554 57.8349L124.554 61.8349C125.075 62.3556 125.075 63.1997 124.554 63.7204L120.554 67.7204C120.033 68.2411 119.189 68.2411 118.668 67.7204C118.148 67.1997 118.148 66.3556 118.668 65.8349L121.725 62.7777L118.668 59.7205C118.148 59.1998 118.148 58.3555 118.668 57.8349Z" fill="white"/>
<path fill-rule="evenodd" clip-rule="evenodd" d="M114.332 57.8349C114.852 58.3555 114.852 59.1998 114.332 59.7205L111.275 62.7777L114.332 65.8349C114.852 66.3556 114.852 67.1997 114.332 67.7204C113.811 68.2411 112.967 68.2411 112.446 67.7204L108.446 63.7204C107.925 63.1997 107.925 62.3556 108.446 61.8349L112.446 57.8349C112.967 57.3142 113.811 57.3142 114.332 57.8349Z" fill="white"/>
<path d="M107.167 54.7775C107.903 54.7775 108.5 54.1731 108.5 53.4442C108.5 52.7153 107.903 52.1108 107.167 52.1108C106.43 52.1108 105.833 52.7153 105.833 53.4442C105.833 54.1731 106.43 54.7775 107.167 54.7775Z" fill="white"/>
<path d="M111.611 54.7775C112.348 54.7775 112.944 54.1731 112.944 53.4442C112.944 52.7153 112.348 52.1108 111.611 52.1108C110.875 52.1108 110.278 52.7153 110.278 53.4442C110.278 54.1731 110.875 54.7775 111.611 54.7775Z" fill="white"/>
</svg>
