<svg width="233" height="122" viewBox="0 0 233 122" fill="none" xmlns="http://www.w3.org/2000/svg">
<path d="M0 16C0 7.16345 7.16344 0 16 0H217C225.837 0 233 7.16344 233 16V106C233 114.837 225.837 122 217 122H16C7.16345 122 0 114.837 0 106V16Z" fill="#14151A"/>
<g clip-path="url(#clip0_8018_4672)">
<path d="M127.167 75.6665C126.826 75.6665 126.485 75.5364 126.224 75.2759C125.703 74.755 125.703 73.9113 126.224 73.3906L129.281 70.3334L126.224 67.2761C125.703 66.7552 125.703 65.9113 126.224 65.3906C126.745 64.8699 127.589 64.8697 128.109 65.3906L132.109 69.3906C132.63 69.9115 132.63 70.7554 132.109 71.2761L128.109 75.2761C127.849 75.5366 127.508 75.6665 127.167 75.6665Z" fill="white"/>
<path opacity="0.4" d="M115.005 73.1613C114.249 72.4061 113.833 71.401 113.833 70.3332C113.833 69.2655 114.249 68.2603 115.005 67.5051L119.005 63.5051C119.76 62.7499 120.765 62.3332 121.833 62.3332C122.831 62.3332 123.765 62.709 124.5 63.3723C125.235 62.7092 126.169 62.3332 127.167 62.3332C128.235 62.3332 129.24 62.7499 129.995 63.5051L130.722 64.2326V57.4443H102.278V68.5554C102.278 71.2552 104.467 73.4443 107.167 73.4443H115.288L115.005 73.1613Z" fill="white"/>
<path d="M121.833 75.6664C121.492 75.6664 121.151 75.5363 120.891 75.2758L116.891 71.2758C116.37 70.7549 116.37 69.9114 116.891 69.3907L120.891 65.3907C121.412 64.8698 122.255 64.8698 122.776 65.3907C123.297 65.9116 123.297 66.7551 122.776 67.2758L119.719 70.3331L122.776 73.3903C123.297 73.9112 123.297 74.7549 122.776 75.2756C122.516 75.5361 122.175 75.6664 121.833 75.6664Z" fill="white"/>
<path d="M125.833 48.5557H107.167C104.471 48.5557 102.278 50.7484 102.278 53.4446V57.4446H130.722V53.4446C130.722 50.7484 128.53 48.5557 125.833 48.5557ZM106.722 54.7779C105.74 54.7779 104.944 53.9818 104.944 53.0001C104.944 52.0184 105.74 51.2223 106.722 51.2223C107.704 51.2223 108.5 52.0184 108.5 53.0001C108.5 53.9818 107.704 54.7779 106.722 54.7779ZM112.056 54.7779C111.074 54.7779 110.278 53.9818 110.278 53.0001C110.278 52.0184 111.074 51.2223 112.056 51.2223C113.037 51.2223 113.833 52.0184 113.833 53.0001C113.833 53.9818 113.037 54.7779 112.056 54.7779Z" fill="white"/>
</g>
<defs>
<clipPath id="clip0_8018_4672">
<rect width="32" height="32" fill="white" transform="translate(100.5 45)"/>
</clipPath>
</defs>
</svg>
