<svg width="38" height="44" viewBox="0 0 38 44" fill="none" xmlns="http://www.w3.org/2000/svg">
<path fill-rule="evenodd" clip-rule="evenodd" d="M16.7858 1.27233C17.2234 1.11817 18.121 0.801926 19.0009 0.802246C19.4788 0.802433 19.9624 0.87758 20.423 1.02339L34.4231 5.50339C36.3524 6.12323 37.6668 7.91873 37.6668 9.94691V27.3336C37.6668 32.3269 33.9402 35.9506 30.3999 38.305C27.409 40.2941 24.0834 41.7554 20.6882 42.9013C20.546 42.9493 20.3163 43.0266 20.0865 43.0824C19.2459 43.2853 18.3817 43.2493 17.5605 42.9824C15.8216 42.4194 11.6692 40.9394 7.91195 38.5093C4.26526 36.1506 0.333496 32.464 0.333496 27.3336V9.94691C0.333496 7.91843 1.64387 6.12041 3.57816 5.50313C7.97515 4.09609 12.4318 2.80643 16.7858 1.27233Z" fill="#99A7F1" fill-opacity="0.4"/>
<path fill-rule="evenodd" clip-rule="evenodd" d="M26.8796 14.4044C27.7612 15.0698 27.9364 16.324 27.2708 17.2056L18.2121 29.2057C17.8708 29.6577 17.3538 29.9438 16.7895 29.9931C16.2251 30.0422 15.6664 29.8497 15.2521 29.4635L10.9614 25.4635C10.1535 24.7102 10.1091 23.4447 10.8623 22.6368C11.6155 21.8289 12.8811 21.7845 13.689 22.5377L16.3566 25.0246L24.0782 14.7956C24.7438 13.914 25.998 13.7389 26.8796 14.4044Z" fill="#99A7F1"/>
</svg>
