<svg width="46" height="46" viewBox="0 0 46 46" fill="none" xmlns="http://www.w3.org/2000/svg">
<path fill-rule="evenodd" clip-rule="evenodd" d="M22.9998 1.6665C11.2179 1.6665 1.6665 11.2177 1.6665 22.9998C1.6665 34.782 11.2179 44.3332 22.9998 44.3332C34.7817 44.3332 44.3332 34.782 44.3332 22.9998C44.3332 11.2177 34.7817 1.6665 22.9998 1.6665ZM22.9998 14.9998C18.5816 14.9998 14.9998 18.5815 14.9998 22.9998C14.9998 27.4182 18.5816 30.9998 22.9998 30.9998C27.418 30.9998 30.9998 27.4182 30.9998 22.9998C30.9998 18.5815 27.418 14.9998 22.9998 14.9998Z" fill="#99A7F1" fill-opacity="0.4"/>
<path fill-rule="evenodd" clip-rule="evenodd" d="M15.0688 1.76085C17.5399 0.83857 20.2112 0.335938 22.9975 0.335938C25.7836 0.335938 28.4551 0.83857 30.926 1.76085C31.9609 2.14706 32.4868 3.29901 32.1007 4.33384L28.37 14.3311C28.194 14.8026 27.8468 15.1903 27.3977 15.4172L27.3924 15.4199C26.8935 15.6718 26.3119 15.7035 25.7887 15.5073C24.9204 15.1817 23.982 15.0026 22.9948 15.0026C22.0053 15.0026 21.0692 15.1798 20.1996 15.5051C19.7025 15.6911 19.1519 15.6718 18.6691 15.4516C18.1862 15.2315 17.8106 14.8284 17.6251 14.3311L13.8943 4.33384C13.5082 3.29901 14.034 2.14706 15.0688 1.76085Z" fill="#99A7F1"/>
<path fill-rule="evenodd" clip-rule="evenodd" d="M41.666 13.8963C42.7007 13.5101 43.8527 14.0359 44.2391 15.0707C45.1612 17.5419 45.6639 20.2132 45.6639 22.9994C45.6639 25.7831 45.1612 28.4543 44.2391 30.9255C43.8527 31.9602 42.7007 32.486 41.666 32.0999L31.6687 28.3692C31.4002 28.269 31.1564 28.1122 30.9538 27.9098L30.9511 27.9071C30.3964 27.3524 30.2172 26.525 30.4927 25.7906C30.818 24.9224 30.9972 23.984 30.9972 22.9967C30.9972 22.0073 30.8199 21.0712 30.4946 20.2015C30.3087 19.7044 30.3279 19.1538 30.5482 18.671C30.7684 18.1881 31.1714 17.8125 31.6687 17.627L41.666 13.8963Z" fill="#99A7F1"/>
<path fill-rule="evenodd" clip-rule="evenodd" d="M18.619 30.5749C19.1156 30.328 19.6925 30.2984 20.2118 30.493C21.0798 30.8186 22.0182 30.9976 23.0055 30.9976C23.9949 30.9976 24.931 30.8205 25.8007 30.4952C26.2977 30.309 26.8484 30.3285 27.3313 30.5485C27.8143 30.7688 28.1897 31.172 28.3753 31.669L32.106 41.6664C32.4921 42.7013 31.9663 43.853 30.9316 44.2394C28.4604 45.1616 25.7889 45.6642 23.0028 45.6642C20.2166 45.6642 17.5453 45.1616 15.0742 44.2394C14.0394 43.853 13.5135 42.7013 13.8997 41.6664L17.6303 31.669C17.8078 31.1936 18.1593 30.8034 18.6136 30.5776L18.619 30.5749Z" fill="#99A7F1"/>
<path fill-rule="evenodd" clip-rule="evenodd" d="M1.76084 15.0732C2.14705 14.0384 3.29903 13.5126 4.33386 13.8987L14.3312 17.6294C14.5965 17.7284 14.8378 17.8827 15.0391 18.082L15.0417 18.0846C15.6016 18.639 15.7839 19.4704 15.5073 20.2081C15.1817 21.0762 15.0026 22.0146 15.0026 23.0019C15.0026 23.9913 15.1798 24.9275 15.5051 25.797C15.6911 26.2941 15.6718 26.8448 15.4516 27.3277C15.2315 27.8107 14.8284 28.1861 14.3311 28.3717L4.33383 32.1024C3.299 32.4885 2.14705 31.9627 1.76084 30.928C0.838572 28.4568 0.335938 25.7853 0.335938 22.9992C0.335938 20.2155 0.838617 17.5442 1.76084 15.0732Z" fill="#99A7F1"/>
</svg>
