<svg width="45" height="41" viewBox="0 0 45 41" fill="none" xmlns="http://www.w3.org/2000/svg">
<path d="M23.6105 20.3466C21.251 19.0624 18.5456 18.332 15.6669 18.332C9.16272 18.332 3.54213 22.0581 0.799464 27.4827C-0.852091 30.7491 0.941624 34.5915 4.23752 35.736C7.15256 36.7483 11.0482 37.668 15.6669 37.668C18.0617 37.668 20.2622 37.4205 22.2326 37.0413C22.1772 36.4653 22.2051 35.8827 22.3159 35.3131C20.7172 34.2352 19.6656 32.4077 19.6656 30.3347C19.6656 28.2619 20.7171 26.4341 22.3158 25.3563C21.9789 23.6245 22.4101 21.772 23.6105 20.3466Z" fill="#3F59E4" fill-opacity="0.4"/>
<path d="M43 28.3346H41.3544C41.1981 27.788 40.9824 27.2717 40.7104 26.785L41.8746 25.6197C42.656 24.8384 42.656 23.5714 41.8746 22.7917C41.0909 22.009 39.825 22.0117 39.0466 22.7917L37.8821 23.957C37.3957 23.6853 36.8794 23.4696 36.333 23.3136V21.668C36.333 20.5637 35.4373 19.668 34.333 19.668C33.2288 19.668 32.333 20.5637 32.333 21.668V23.3136C31.7866 23.4696 31.2706 23.6853 30.784 23.957L29.6194 22.7917C28.8408 22.0117 27.5752 22.009 26.7914 22.7917C26.0101 23.5717 26.0101 24.8386 26.7914 25.6197L27.9557 26.785C27.6837 27.2717 27.468 27.788 27.3117 28.3346H25.6661C24.5618 28.3346 23.666 29.2304 23.666 30.3346C23.666 31.4389 24.5618 32.3346 25.6661 32.3346H27.3117C27.468 32.8813 27.6837 33.3976 27.9557 33.8842L26.7914 35.0496C26.0101 35.8309 26.0101 37.0978 26.7914 37.8776C27.1821 38.2682 27.6952 38.4634 28.2056 38.4634C28.7186 38.4634 29.229 38.2682 29.6197 37.8776L30.7842 36.7122C31.2706 36.984 31.7869 37.1997 32.3333 37.3557V39.0013C32.3333 40.1056 33.229 41.0013 34.3333 41.0013C35.4376 41.0013 36.3333 40.1056 36.3333 39.0013V37.3557C36.8797 37.1997 37.3957 36.984 37.8824 36.7122L39.0469 37.8776C39.4376 38.2682 39.948 38.4634 40.461 38.4634C40.9714 38.4634 41.4845 38.2682 41.8752 37.8776C42.6565 37.0976 42.6565 35.8306 41.8752 35.0496L40.7109 33.8842C40.9829 33.3976 41.1986 32.8813 41.3549 32.3346H43.0005C44.1048 32.3346 45.0005 31.4389 45.0005 30.3346C45.0005 29.2304 44.1042 28.3346 43 28.3346ZM34.3333 33.668C32.4946 33.668 31 32.1733 31 30.3346C31 28.496 32.4946 27.0013 34.3333 27.0013C36.172 27.0013 37.6666 28.496 37.6666 30.3346C37.6666 32.1733 36.172 33.668 34.3333 33.668Z" fill="#3F59E4"/>
<path fill-rule="evenodd" clip-rule="evenodd" d="M8.3335 7.66829C8.3335 3.61712 11.617 0.334961 15.6668 0.334961C19.7166 0.334961 23.0002 3.61712 23.0002 7.66829C23.0002 11.7195 19.7166 15.0016 15.6668 15.0016C11.617 15.0016 8.3335 11.7195 8.3335 7.66829Z" fill="#3F59E4" fill-opacity="0.4"/>
<path fill-rule="evenodd" clip-rule="evenodd" d="M25.1345 13.9012C26.2569 14.5988 27.5817 15.0016 29.0004 15.0016C33.0503 15.0016 36.3337 11.7195 36.3337 7.66829C36.3337 3.61712 33.0503 0.334961 29.0004 0.334961C27.5817 0.334961 26.2569 0.737788 25.1345 1.43539C26.314 3.22341 27.0004 5.36544 27.0004 7.66829C27.0004 9.97112 26.314 12.1132 25.1345 13.9012Z" fill="#3F59E4" fill-opacity="0.4"/>
</svg>
