<svg width="139" height="139" viewBox="0 0 139 139" fill="none" xmlns="http://www.w3.org/2000/svg">
<g filter="url(#filter0_d_464_723)">
<rect x="8" y="2" width="123" height="123" rx="10" fill="white"/>
</g>
<g clip-path="url(#clip0_464_723)">
<rect x="29.0862" y="23.0857" width="84.3429" height="84.3429" rx="10" fill="white"/>
<g clip-path="url(#clip1_464_723)">
<path d="M71.2577 23.0857C47.9228 23.0857 29.0862 41.9223 29.0862 65.2572C29.0862 88.592 47.9228 107.429 71.2577 107.429C94.5925 107.429 113.429 88.592 113.429 65.2572C113.429 41.9223 94.5925 23.0857 71.2577 23.0857ZM71.2577 96.1829C54.108 96.1829 40.332 82.4069 40.332 65.2572C40.332 48.1075 54.108 34.3315 71.2577 34.3315C88.4074 34.3315 102.183 48.1075 102.183 65.2572C102.183 82.4069 88.4074 96.1829 71.2577 96.1829ZM90.3754 54.8549C90.3754 59.6343 86.4394 63.5703 81.66 63.5703C76.8805 63.5703 72.9445 59.6343 72.9445 54.8549C72.9445 50.0755 76.8805 46.1395 81.66 46.1395C86.4394 46.1395 90.3754 50.0755 90.3754 54.8549ZM90.3754 75.6595C90.3754 80.4389 86.4394 84.3749 81.66 84.3749C76.8805 84.3749 72.9445 80.4389 72.9445 75.6595C72.9445 70.88 76.8805 66.944 81.66 66.944C86.4394 66.944 90.3754 70.88 90.3754 75.6595ZM69.5708 75.6595C69.5708 80.4389 65.6348 84.3749 60.8554 84.3749C56.076 84.3749 52.14 80.4389 52.14 75.6595C52.14 70.88 56.076 66.944 60.8554 66.944C65.6348 66.944 69.5708 70.88 69.5708 75.6595ZM69.5708 54.8549C69.5708 59.6343 65.6348 63.5703 60.8554 63.5703C56.076 63.5703 52.14 59.6343 52.14 54.8549C52.14 50.0755 56.076 46.1395 60.8554 46.1395C65.6348 46.1395 69.5708 50.0755 69.5708 54.8549Z" fill="#F22F46"/>
</g>
</g>
<defs>
<filter id="filter0_d_464_723" x="0" y="0" width="139" height="139" filterUnits="userSpaceOnUse" color-interpolation-filters="sRGB">
<feFlood flood-opacity="0" result="BackgroundImageFix"/>
<feColorMatrix in="SourceAlpha" type="matrix" values="0 0 0 0 0 0 0 0 0 0 0 0 0 0 0 0 0 0 127 0" result="hardAlpha"/>
<feOffset dy="6"/>
<feGaussianBlur stdDeviation="4"/>
<feColorMatrix type="matrix" values="0 0 0 0 0 0 0 0 0 0 0 0 0 0 0 0 0 0 0.1 0"/>
<feBlend mode="normal" in2="BackgroundImageFix" result="effect1_dropShadow_464_723"/>
<feBlend mode="normal" in="SourceGraphic" in2="effect1_dropShadow_464_723" result="shape"/>
</filter>
<clipPath id="clip0_464_723">
<rect x="29.0862" y="23.0857" width="84.3429" height="84.3429" rx="10" fill="white"/>
</clipPath>
<clipPath id="clip1_464_723">
<rect width="84.3429" height="84.3429" fill="white" transform="translate(29.0862 23.0857)"/>
</clipPath>
</defs>
</svg>
