<svg width="33" height="32" viewBox="0 0 33 32" fill="none" xmlns="http://www.w3.org/2000/svg">
<path d="M6.77219 22.1381C5.51899 22.1388 4.50068 21.1191 4.50045 19.8661L4.5 12.9102C4.49955 11.6583 5.51763 10.6389 6.76925 10.6387C7.37774 10.6382 7.94754 10.8742 8.37705 11.3033C8.80655 11.7323 9.04279 12.303 9.04325 12.9097L9.04257 19.8659C9.04414 20.1641 8.9863 20.4597 8.87242 20.7353C8.75854 21.0109 8.59091 21.2611 8.37931 21.4712C8.16897 21.6833 7.91858 21.8515 7.64268 21.966C7.36679 22.0805 7.07089 22.139 6.77219 22.1381ZM6.77038 11.249C5.85322 11.2485 5.10985 11.9937 5.10963 12.9102L5.11076 19.8655C5.1107 20.3062 5.28565 20.7289 5.59715 21.0407C5.90866 21.3525 6.33122 21.5279 6.77196 21.5283C6.99022 21.5283 7.20633 21.4853 7.40796 21.4017C7.60958 21.3182 7.79275 21.1957 7.947 21.0413C8.10124 20.8868 8.22353 20.7035 8.30688 20.5018C8.39022 20.3001 8.43298 20.0839 8.43271 19.8657V12.9093C8.43223 12.4687 8.25688 12.0464 7.94517 11.7351C7.63347 11.4238 7.21092 11.2489 6.77038 11.249Z" fill="#191919" style="fill:#191919;fill:color(display-p3 0.0980 0.0980 0.0980);fill-opacity:1;"/>
<path d="M24.5882 11.5935L23.9776 11.5933L9.01551 11.5954L8.40475 11.5956L8.4043 10.9848C8.40294 8.47752 9.76883 6.14559 12.0062 4.76793L11.1363 3.18004C11.03 2.99403 11.0033 2.75846 11.0653 2.54304C11.0967 2.43559 11.1492 2.33547 11.2196 2.24849C11.2901 2.1615 11.3772 2.0894 11.4757 2.03637C11.5976 1.96926 11.7347 1.93444 11.8738 1.93522C12.182 1.93522 12.4642 2.10245 12.6131 2.37264L13.5235 4.03113C14.473 3.68362 15.4765 3.50703 16.4876 3.50952C17.5299 3.50907 18.5295 3.68535 19.4756 4.03248L20.3846 2.37128C20.457 2.23875 20.5638 2.12819 20.6937 2.05125C20.8237 1.97431 20.972 1.93383 21.123 1.93409C21.262 1.93365 21.3989 1.9677 21.5215 2.0332C21.6202 2.08621 21.7074 2.15848 21.7777 2.24574C21.8481 2.333 21.9002 2.43347 21.9311 2.54123C21.9622 2.64748 21.9718 2.75886 21.9595 2.86888C21.9471 2.9789 21.913 3.08537 21.8591 3.18208L20.9897 4.76906C23.2234 6.14966 24.5877 8.47978 24.5875 10.9828L24.5882 11.5935ZM20.1651 5.00305L21.3244 2.88609C21.3409 2.8595 21.3519 2.82981 21.3566 2.79884C21.3613 2.76787 21.3596 2.73627 21.3517 2.70596C21.3438 2.67565 21.3298 2.64727 21.3106 2.62256C21.2913 2.59784 21.2672 2.57731 21.2398 2.56221C21.2123 2.54711 21.1821 2.53776 21.1509 2.53473C21.1197 2.5317 21.0883 2.53506 21.0584 2.54459C21.0286 2.55413 21.001 2.56964 20.9774 2.59019C20.9537 2.61073 20.9345 2.63588 20.9209 2.6641L19.7496 4.80255C18.7644 4.3649 17.6612 4.11893 16.4951 4.12006C15.3315 4.11893 14.2304 4.364 13.2481 4.80006L12.0756 2.66636C12.0613 2.6397 12.0419 2.61614 12.0184 2.59707C11.9949 2.57799 11.9678 2.56378 11.9388 2.55525C11.9098 2.54672 11.8793 2.54405 11.8492 2.54739C11.8192 2.55073 11.79 2.56002 11.7636 2.57472C11.6511 2.63491 11.6097 2.77634 11.6724 2.88677L12.8321 5.00214C10.5534 6.1775 9.0137 8.41551 9.01506 10.985L23.977 10.9832C23.9776 8.41461 22.4407 6.18112 20.1651 5.00305ZM13.0921 8.27454C12.9257 8.27445 12.7662 8.20826 12.6486 8.09054C12.531 7.97281 12.465 7.8132 12.4651 7.6468C12.4652 7.48041 12.5314 7.32087 12.6491 7.20327C12.7668 7.08568 12.9264 7.01966 13.0928 7.01975C13.2592 7.02005 13.4188 7.08628 13.5364 7.20393C13.6541 7.32158 13.7204 7.48107 13.7208 7.64748C13.7205 7.81399 13.6542 7.97358 13.5363 8.09117C13.4184 8.20876 13.2586 8.27472 13.0921 8.27454ZM19.9051 8.27318C19.8227 8.27333 19.7411 8.25721 19.6649 8.22575C19.5888 8.1943 19.5196 8.14812 19.4613 8.08986C19.403 8.03161 19.3568 7.96243 19.3253 7.88628C19.2938 7.81013 19.2777 7.72852 19.2778 7.64612C19.2784 7.47978 19.3447 7.3204 19.4622 7.20267C19.5797 7.08494 19.739 7.01838 19.9053 7.01749C20.0714 7.01886 20.2303 7.08564 20.3475 7.20335C20.4647 7.32107 20.5308 7.48024 20.5315 7.64635C20.5315 7.72864 20.5153 7.81012 20.4839 7.88616C20.4524 7.96219 20.4063 8.03128 20.3481 8.08949C20.2899 8.1477 20.2209 8.19388 20.1449 8.22539C20.0688 8.25691 19.9874 8.27315 19.9051 8.27318ZM13.7192 30.0661C12.4671 30.0659 11.4481 29.0476 11.4479 27.7946L11.4475 24.7245L10.8505 24.7252C10.5374 24.7263 10.2272 24.6652 9.93787 24.5455C9.64855 24.4258 9.38588 24.2498 9.16509 24.0278C8.94276 23.807 8.76658 23.5442 8.64681 23.2547C8.52703 22.9652 8.46606 22.6548 8.46743 22.3415L8.46517 11.5639V10.9527H9.07593L23.9258 10.9504L24.5368 10.95V11.5607L24.5384 22.3397C24.5386 23.6542 23.4692 24.7239 22.1551 24.7236L21.5545 24.7241L21.5552 27.793C21.5552 29.0453 20.5364 30.0648 19.2848 30.0648C18.9864 30.0662 18.6906 30.0081 18.4149 29.894C18.1391 29.7799 17.8888 29.612 17.6786 29.4002C17.4666 29.1901 17.2984 28.9399 17.184 28.6642C17.0695 28.3886 17.0109 28.0929 17.0117 27.7944V24.7241H15.9909V27.7937C15.9905 29.0462 14.9719 30.0664 13.7192 30.0661Z" fill="#191919" style="fill:#191919;fill:color(display-p3 0.0980 0.0980 0.0980);fill-opacity:1;"/>
<path d="M9.07889 22.3406C9.07838 22.5736 9.12386 22.8043 9.21272 23.0196C9.30158 23.2349 9.43207 23.4305 9.59671 23.5953C9.76134 23.7601 9.95689 23.8907 10.1721 23.9797C10.3874 24.0688 10.6181 24.1144 10.851 24.1141H12.0578L12.0591 27.7945C12.0589 28.711 12.8034 29.4557 13.719 29.4559C13.9372 29.4558 14.1533 29.4127 14.3548 29.3291C14.5564 29.2454 14.7395 29.1229 14.8937 28.9685C15.0479 28.8141 15.1702 28.6308 15.2535 28.4291C15.3369 28.2275 15.3797 28.0114 15.3795 27.7931L15.3797 24.1139L17.6221 24.1132L17.6218 27.7934C17.6227 28.7101 18.3681 29.4557 19.2835 29.4539C20.2013 29.4546 20.9454 28.7089 20.9451 27.792L20.944 24.1127L22.1553 24.1125C23.1327 24.1127 23.9277 23.3187 23.9277 22.3391L23.9256 11.5597L9.07617 11.5624L9.07889 22.3406ZM26.2297 22.1347C24.977 22.1349 23.958 21.1169 23.9582 19.8637L23.9564 12.9079C23.9568 11.655 24.9743 10.6357 26.2263 10.6357C27.48 10.6355 28.4996 11.6545 28.4994 12.9073L28.5001 19.8625C28.5003 21.1148 27.4822 22.1349 26.2297 22.1347ZM26.2274 11.2465C25.3103 11.2456 24.5672 11.9903 24.5672 12.9079L24.5678 19.8634C24.5677 20.0816 24.6106 20.2977 24.6941 20.4993C24.7775 20.7009 24.8999 20.8841 25.0542 21.0384C25.2085 21.1926 25.3917 21.3149 25.5934 21.3984C25.795 21.4818 26.0111 21.5246 26.2293 21.5244C26.4474 21.5244 26.6634 21.4814 26.865 21.3979C27.0665 21.3144 27.2496 21.192 27.4038 21.0377C27.558 20.8833 27.6803 20.7002 27.7637 20.4986C27.8471 20.297 27.8899 20.0809 27.8898 19.8628L27.888 12.9075C27.8881 12.6894 27.8453 12.4733 27.7619 12.2718C27.6785 12.0702 27.5562 11.8871 27.402 11.7328C27.2478 11.5786 27.0646 11.4562 26.8631 11.3728C26.6616 11.2893 26.4456 11.2464 26.2274 11.2465Z" fill="#191919" style="fill:#191919;fill:color(display-p3 0.0980 0.0980 0.0980);fill-opacity:1;"/>
<path d="M6.77061 11.2489C5.85346 11.2485 5.11009 11.9936 5.10986 12.9101L5.11099 19.8654C5.11085 20.0836 5.15372 20.2998 5.23716 20.5014C5.3206 20.7031 5.44297 20.8863 5.59727 21.0406C5.75158 21.195 5.93479 21.3173 6.13643 21.4008C6.33807 21.4843 6.55419 21.5272 6.77242 21.5271C6.99063 21.5273 7.20674 21.4845 7.40837 21.4011C7.61 21.3176 7.79319 21.1953 7.94744 21.0409C8.1017 20.8866 8.22398 20.7033 8.30729 20.5016C8.3906 20.3 8.43331 20.0838 8.43295 19.8656V12.9092C8.43247 12.4687 8.25711 12.0463 7.94541 11.735C7.6337 11.4237 7.21116 11.2489 6.77061 11.2489ZM20.1652 5.00284L21.3245 2.88588C21.3541 2.83218 21.3611 2.76896 21.3441 2.71008C21.3271 2.6512 21.2874 2.60147 21.2338 2.57179C21.1801 2.54273 21.117 2.53611 21.0584 2.55337C20.9998 2.57062 20.9504 2.61035 20.921 2.66389L19.75 4.80302C18.7647 4.36447 17.662 4.11872 16.4952 4.11985C15.3317 4.11872 14.2294 4.36379 13.2482 4.79985L12.0758 2.66616C12.0615 2.63952 12.042 2.61599 12.0185 2.59693C11.9951 2.57787 11.9681 2.56365 11.939 2.55511C11.91 2.54656 11.8796 2.54386 11.8496 2.54715C11.8195 2.55044 11.7904 2.55966 11.764 2.57428C11.7372 2.58856 11.7136 2.60803 11.6945 2.63155C11.6754 2.65506 11.6612 2.68215 11.6527 2.71123C11.6442 2.7403 11.6415 2.77079 11.6449 2.80089C11.6484 2.831 11.6577 2.86012 11.6725 2.88656L12.8323 5.00216C10.5535 6.17729 9.01384 8.41531 9.01519 10.9848L23.9771 10.983C23.9778 8.4144 22.4408 6.18091 20.1652 5.00284ZM13.0923 8.27433C12.9259 8.27424 12.7663 8.20805 12.6487 8.09033C12.5312 7.97261 12.4651 7.81299 12.4652 7.6466C12.4653 7.4802 12.5315 7.32066 12.6492 7.20306C12.7669 7.08547 12.9266 7.01945 13.093 7.01954C13.2594 7.01984 13.4189 7.08607 13.5366 7.20372C13.6543 7.32137 13.7206 7.48086 13.7209 7.64727C13.7207 7.81378 13.6543 7.97337 13.5364 8.09096C13.4185 8.20855 13.2588 8.27451 13.0923 8.27433ZM19.9052 8.27297C19.8229 8.27303 19.7413 8.25685 19.6652 8.22536C19.589 8.19387 19.5199 8.14769 19.4616 8.08946C19.4034 8.03122 19.3572 7.96207 19.3256 7.88597C19.2941 7.80986 19.2779 7.72829 19.2779 7.64592C19.2788 7.47966 19.3452 7.32045 19.4627 7.20278C19.5801 7.08512 19.7392 7.01847 19.9055 7.01728C20.0716 7.01865 20.2304 7.08543 20.3476 7.20314C20.4649 7.32086 20.531 7.48003 20.5316 7.64614C20.5317 7.72845 20.5156 7.80996 20.4841 7.88602C20.4527 7.96208 20.4065 8.0312 20.3484 8.08941C20.2902 8.14763 20.2211 8.19381 20.1451 8.22531C20.069 8.2568 19.9875 8.273 19.9052 8.27297ZM9.07629 11.5628L9.07878 22.3422C9.07851 22.575 9.12418 22.8055 9.21315 23.0207C9.30212 23.2358 9.43266 23.4313 9.5973 23.5959C9.76193 23.7605 9.95741 23.891 10.1726 23.98C10.3877 24.0689 10.6183 24.1145 10.8511 24.1142L12.0579 24.1147L12.0593 27.7951C12.059 28.7116 12.804 29.4565 13.7191 29.4565C14.6369 29.4565 15.3805 28.7109 15.3808 27.794L15.3799 24.1145L17.6222 24.1138L17.6231 27.794C17.6231 28.7098 18.3683 29.4563 19.2836 29.4545C20.2014 29.4552 20.9455 28.7095 20.9453 27.7926L20.9441 24.1133L22.1552 24.1124C22.3881 24.1125 22.6186 24.0666 22.8337 23.9776C23.0489 23.8885 23.2443 23.7579 23.409 23.5933C23.5737 23.4287 23.7043 23.2332 23.7934 23.0182C23.8825 22.8031 23.9284 22.5725 23.9285 22.3397L23.9264 11.5603L9.07629 11.5628ZM27.8888 12.9076C27.8888 12.6895 27.8459 12.4735 27.7624 12.272C27.6789 12.0704 27.5565 11.8873 27.4023 11.7331C27.248 11.5789 27.0648 11.4565 26.8633 11.3731C26.6617 11.2897 26.4457 11.2468 26.2276 11.2469C25.3104 11.246 24.5673 11.9907 24.5673 12.9083L24.5686 19.864C24.5685 20.0822 24.6113 20.2982 24.6947 20.4998C24.7782 20.7013 24.9005 20.8845 25.0547 21.0387C25.209 21.193 25.3921 21.3153 25.5937 21.3987C25.7952 21.4821 26.0112 21.525 26.2294 21.5248C26.4475 21.5248 26.6636 21.4819 26.8651 21.3984C27.0667 21.3148 27.2498 21.1924 27.404 21.0381C27.5582 20.8838 27.6805 20.7006 27.7639 20.499C27.8473 20.2974 27.8901 20.0813 27.8899 19.8631L27.8888 12.9076Z" fill="#EEEEEE" style="fill:#EEEEEE;fill:color(display-p3 0.9333 0.9333 0.9333);fill-opacity:1;"/>
</svg>
