<svg xmlns="http://www.w3.org/2000/svg" width="33" height="31" viewBox="0 0 33 31" fill="none">
<path fill-rule="evenodd" clip-rule="evenodd" d="M30.3803 0.321757C29.6761 0.441049 28.3549 1.03671 26.6835 1.99224L26.6836 1.993C26.5905 2.04623 26.4969 2.10057 26.402 2.1557L26.3338 2.19529C25.8884 2.45618 25.42 2.74104 24.9345 3.04719C24.3874 3.39237 23.8173 3.76651 23.2315 4.16347C22.6908 4.53095 22.1359 4.91985 21.5741 5.32695C21.0959 5.67365 20.6107 6.03355 20.1235 6.40658L20.0693 6.44792L20.0693 6.44739C20.051 6.46129 20.033 6.47527 20.015 6.48925C19.997 6.50322 19.979 6.5172 19.9608 6.5311C19.4455 6.92817 18.9265 7.33771 18.4092 7.76083C17.8864 8.18783 17.3658 8.62755 16.8491 9.07772C16.4129 9.45737 15.9812 9.84367 15.5548 10.237C15.4685 10.3172 15.3837 10.3961 15.2986 10.4758C14.7679 10.9732 14.2745 11.4611 13.8149 11.9361C13.2943 12.4742 12.8177 12.9963 12.3836 13.4979C12.0977 13.8277 11.8297 14.1494 11.5778 14.4604C11.3665 14.7273 11.1593 14.9967 10.9579 15.2664C10.4816 15.9019 10.0346 16.5466 9.61979 17.2006L9.62017 17.2042C9.61243 17.2165 9.6043 17.2288 9.59607 17.2412L9.59604 17.2413C9.58559 17.2571 9.57498 17.2731 9.5648 17.2897C9.06263 18.0891 8.6112 18.9039 8.22242 19.7367C8.21576 19.7515 8.20875 19.766 8.20173 19.7804L8.20173 19.7804C8.19471 19.7949 8.1877 19.8093 8.18104 19.8242C8.01541 18.9762 7.12671 17.8707 7.12699 17.8778C7.49227 19.3782 7.66326 20.7944 7.31383 21.9869C6.84082 21.9095 6.28987 21.5499 5.69333 21.0289C6.163 21.9703 6.63622 22.3617 6.82882 22.4919C6.14815 22.2795 5.28109 22.4716 4.38233 22.7311C5.56144 22.7049 6.44862 22.8552 6.98785 23.2142C5.03894 25.5069 2.98211 28.0743 0.856377 30.8219C1.17659 30.8469 1.42206 30.7192 1.61829 30.4942C2.00053 29.9957 4.5211 26.7295 8.11441 22.5432C8.17943 22.4674 8.24493 22.3915 8.31069 22.3152L8.3114 22.3143L8.42334 22.1845C8.44094 22.1638 8.45887 22.1433 8.47664 22.123L8.47676 22.1229L8.51019 22.0845C8.88836 21.646 9.27743 21.1997 9.67655 20.7453L9.67692 20.7449C9.76791 20.6418 9.85889 20.5387 9.95021 20.4347L9.95022 20.4347C9.95207 20.4324 9.95393 20.4302 9.95546 20.4288L9.72493 18.2091L9.95615 20.4272C10.3221 20.0128 10.6947 19.5939 11.0752 19.1702C11.1807 19.0526 11.2878 18.9336 11.3945 18.8154C11.868 18.2911 12.3511 17.7626 12.8426 17.2303C13.3134 16.7208 13.7925 16.2106 14.2781 15.6989C14.7637 15.1871 15.2557 14.6769 15.7532 14.1677C16.259 13.6498 16.7706 13.1351 17.2852 12.6255C17.7945 12.1219 18.308 11.6228 18.8236 11.1315C19.0095 10.9542 19.196 10.7782 19.3821 10.603C19.7045 10.3 20.0273 10.0012 20.3505 9.70657C20.3632 9.69448 20.3762 9.68304 20.3895 9.67142L20.3895 9.67137L20.4029 9.65963L20.4029 9.6601C20.9144 9.19502 21.4264 8.73907 21.9378 8.29484C22.4831 7.82182 23.0278 7.36347 23.5699 6.92204C24.1325 6.46357 24.6928 6.0241 25.2486 5.60676L25.2752 5.58666C25.2989 5.56867 25.3231 5.55042 25.3467 5.532C25.8949 5.12167 26.4386 4.73346 26.9762 4.36878L26.9761 4.36795C28.1126 3.59771 29.22 2.93748 30.2816 2.41764C29.9354 2.59325 28.8665 3.17311 27.0965 4.45947C28.1909 4.81611 29.925 5.22746 31.3591 5.51129C32.6167 3.42124 32.2161 2.09112 32.2161 2.09112C32.2161 2.09112 31.8315 0.0747543 30.3803 0.321757ZM30.2816 2.41764C30.3642 2.37569 30.4061 2.35695 30.4061 2.35695C30.3854 2.36692 30.3646 2.3771 30.3438 2.38729C30.3231 2.39748 30.3023 2.40767 30.2816 2.41764ZM8.81484 22.3948C9.19393 21.9486 9.56784 21.5134 9.93757 21.0866C10.0071 21.0059 10.0764 20.9261 10.1465 20.8466L10.1467 20.8466C10.157 20.835 10.1676 20.8225 10.1782 20.81C10.6536 20.2626 11.1213 19.7302 11.581 19.2135C11.6026 19.188 11.6251 19.1629 11.6477 19.1377C12.1107 18.6174 12.5646 18.1134 13.011 17.6234C13.5117 17.0748 14.0017 16.5439 14.4814 16.0319C14.9867 15.4919 15.4803 14.9723 15.9625 14.4722C16.468 13.9473 16.9612 13.4444 17.4405 12.9621C17.8307 12.5699 18.2119 12.1911 18.5848 11.826L18.6956 11.7178L18.6957 11.7178C18.7827 11.6327 18.8688 11.5485 18.9552 11.4649C19.1987 11.2282 19.4377 10.9977 19.6736 10.773C19.892 10.5654 20.1063 10.3632 20.3173 10.1647L20.4258 10.0632L20.5276 9.96796C20.5395 9.95761 20.5502 9.9478 20.5609 9.93798L24.1667 10.8809C24.1595 10.8808 24.1528 10.8813 24.1458 10.8819L24.1352 10.8828C24.1609 10.888 24.1864 10.8933 24.2119 10.8987C24.2414 10.9049 24.2708 10.9111 24.3 10.9169C24.3042 10.9175 24.3084 10.9184 24.3125 10.9192C24.3167 10.9201 24.3208 10.9209 24.325 10.9215C24.8742 11.0231 25.5873 11.0652 26.043 10.985C26.109 10.9735 26.1692 10.9588 26.2234 10.9418C26.1761 11.024 26.1049 11.1349 26.0054 11.2706C25.9389 11.3614 25.8593 11.4631 25.7663 11.5766C25.735 11.6143 25.7022 11.6534 25.6681 11.693C25.583 11.7936 25.4877 11.9002 25.3814 12.0145C25.1688 12.2432 24.9143 12.4986 24.6109 12.778C24.5436 12.8397 24.4751 12.9019 24.4042 12.9652C24.3513 13.0075 24.299 13.0482 24.2462 13.0876C24.0735 13.2173 23.8992 13.3304 23.7213 13.4293C23.6455 13.4718 23.5689 13.5111 23.4912 13.548C23.3698 13.6059 23.2465 13.6581 23.1197 13.704C23.0364 13.7348 22.9515 13.7619 22.8656 13.7867C22.4635 13.9032 22.0276 13.9651 21.533 13.9807C21.5326 13.9815 21.5318 13.9812 21.5318 13.9812C21.5313 13.981 21.531 13.9812 21.5307 13.9813C21.5304 13.9814 21.5301 13.9816 21.5297 13.9814C21.5493 13.9863 21.5691 13.9906 21.5895 13.995L21.5897 13.995L21.5992 13.997C21.6926 14.0178 21.7858 14.0366 21.8788 14.0503C22.5611 14.1521 23.1966 14.0642 23.604 13.9676C22.6137 14.8695 21.4901 15.486 20.0814 15.489C20.081 15.4889 20.0805 15.4889 20.08 15.489C20.0795 15.489 20.0789 15.4891 20.0785 15.4889C20.1532 15.5065 20.2277 15.5221 20.3017 15.5365C20.3757 15.5508 20.4495 15.5631 20.5215 15.5748C20.9349 15.6394 21.3263 15.6548 21.6897 15.611C21.177 16.2454 20.6773 16.8203 20.1866 17.34C19.6255 17.9351 19.0757 18.4561 18.5299 18.907C17.7968 19.5129 17.0712 19.9925 16.3354 20.353C14.7391 21.1356 12.6121 21.4511 11.2321 21.1115C11.2421 21.1178 11.2525 21.1237 11.2629 21.1297C11.2723 21.1351 11.2818 21.1406 11.291 21.1463L11.2941 21.1471C12.6612 21.9754 14.1902 22.1565 15.8664 21.3806C15.6149 21.6073 15.3774 21.8076 15.1439 21.9845C14.1592 22.7316 13.2425 23.0588 11.6307 23.149C12.5456 23.5593 13.1247 23.5332 13.7193 23.1784C13.5989 23.2983 13.4753 23.406 13.3471 23.505C11.9129 24.6147 10.0169 24.4633 8.07231 23.6179C8.35961 24.1995 8.39112 24.8214 8.20691 25.3996C8.11082 24.7361 7.97256 24.131 7.64115 23.7948L7.81724 23.5835L7.81737 23.5833C8.21221 23.1095 8.4139 22.8675 8.63783 22.6033C8.66474 22.5718 8.69143 22.5403 8.71813 22.5088C8.74482 22.4773 8.77152 22.4458 8.79843 22.4143L8.80664 22.4046L8.81484 22.3948ZM25.4739 5.69283C26.0675 5.22337 26.6088 4.81538 27.097 4.4606C28.1911 4.81811 29.9255 5.22859 31.361 5.51395C31.2397 5.71693 31.1032 5.92599 30.9482 6.1419C30.7722 6.38655 30.5497 6.65709 30.293 6.94143C29.8889 7.38796 29.4015 7.86818 28.8765 8.34001C28.3323 8.82835 27.7504 9.30623 27.183 9.72514C26.9977 9.8619 26.8138 9.99226 26.6337 10.1152C25.9642 10.5546 25.3531 10.8019 24.168 10.8803L20.5621 9.93743C21.0992 9.43646 21.6156 8.9663 22.1095 8.52631C22.6762 8.02074 23.2139 7.55474 23.7241 7.12397C24.3143 6.62441 24.8669 6.17403 25.38 5.76717C25.3904 5.7589 25.4009 5.75053 25.4114 5.74216C25.4323 5.72546 25.4533 5.70876 25.4739 5.69283Z" fill="#fff"/>
</svg>