<svg width="32" height="32" viewBox="0 0 32 32" fill="none" xmlns="http://www.w3.org/2000/svg">
<path d="M16.1866 9.73423C15.0228 9.73423 13.2219 8.41085 11.3252 8.4575C8.82088 8.49065 6.52523 9.90978 5.235 12.1575C2.63613 16.6691 4.56472 23.3326 7.09976 26.9995C8.34334 28.7844 9.81034 30.7928 11.7549 30.7302C13.6209 30.6504 14.3206 29.5186 16.5856 29.5186C18.8334 29.5186 19.4705 30.7302 21.447 30.6823C23.4566 30.6504 24.7321 28.8655 25.9597 27.0633C27.3788 24.9911 27.9681 22.9815 28 22.871C27.9521 22.855 24.0937 21.3721 24.0471 16.9084C24.0151 13.1765 27.0916 11.3915 27.2352 11.3117C25.4809 8.74599 22.7875 8.45873 21.8459 8.39489C19.3907 8.20338 17.3344 9.73423 16.1866 9.73423ZM20.3335 5.97034C21.3684 4.72799 22.0522 2.99091 21.8619 1.26855C20.3802 1.33239 18.594 2.25679 17.5259 3.50037C16.5684 4.60032 15.741 6.37055 15.9632 8.05975C17.6057 8.18742 19.2962 7.21515 20.3323 5.97157" fill="#EEEEEE" style="fill:#EEEEEE;fill:color(display-p3 0.9333 0.9333 0.9333);fill-opacity:1;"/>
</svg>
