<svg width="32" height="32" viewBox="0 0 32 32" fill="none" xmlns="http://www.w3.org/2000/svg">
<path d="M4 24.0843C4.043 24.6143 4.23 25.1473 4.718 25.8623C5.298 26.7113 6.294 27.1773 7.021 26.4293C7.511 25.9243 12.815 16.6533 15.371 13.1393C15.4411 13.0388 15.5345 12.9568 15.6431 12.9001C15.7518 12.8435 15.8725 12.8139 15.995 12.8139C16.1175 12.8139 16.2382 12.8435 16.3469 12.9001C16.4555 12.9568 16.5489 13.0388 16.619 13.1393C19.175 16.6533 24.479 25.9243 24.969 26.4293C25.696 27.1773 26.692 26.7113 27.272 25.8623C27.842 25.0273 28 24.4423 28 23.8163C28 23.3903 19.74 8.01829 18.908 6.73829C18.108 5.50829 17.864 5.24029 16.511 5.19629H15.479C14.126 5.24029 13.882 5.50729 13.081 6.73829C12.267 7.99129 4.33 22.7583 4 23.7703V24.0843Z" fill="#EEEEEE" style="fill:#EEEEEE;fill:color(display-p3 0.9333 0.9333 0.9333);fill-opacity:1;"/>
</svg>
