<svg width="44" height="17" viewBox="0 0 44 17" fill="none" xmlns="http://www.w3.org/2000/svg">
<path fill-rule="evenodd" clip-rule="evenodd" d="M27.2133 4.54281C26.4704 4.73147 25.8587 4.89389 25.2359 5.05927C24.7393 5.19114 24.2356 5.32491 23.6526 5.47535L23.6176 5.48473C23.3328 5.56125 23.303 5.56922 23.0379 5.2634C22.7201 4.90311 22.487 4.66997 22.0418 4.45803C20.7066 3.80101 19.4138 3.99177 18.2057 4.77594C16.7645 5.70848 16.0227 7.0861 16.044 8.80282C16.0651 10.4983 17.2308 11.8972 18.9051 12.1303C20.3464 12.3211 21.5544 11.8124 22.5081 10.7315C22.6496 10.5586 22.7794 10.374 22.9235 10.1691C22.9736 10.098 23.0257 10.0237 23.0803 9.94731H18.9899C18.5448 9.94731 18.4388 9.67177 18.5872 9.31148C18.8627 8.65447 19.3714 7.55237 19.6681 7.00132C19.7318 6.87417 19.8801 6.66222 20.1979 6.66222H27.0185C27.3248 5.69173 27.8217 4.77469 28.4848 3.90699C30.0319 1.87235 31.8971 0.812653 34.4191 0.367578C36.581 -0.0139165 38.6155 0.198025 40.4594 1.44848C42.1338 2.59296 43.1723 4.14012 43.4478 6.17476C43.8081 9.03595 42.9816 11.3673 41.0105 13.3596C39.6117 14.7796 37.8949 15.6697 35.9239 16.0724C35.5479 16.142 35.1719 16.1751 34.8019 16.2075C34.6088 16.2245 34.4174 16.2413 34.2284 16.2631C32.2997 16.2207 30.5406 15.6697 29.057 14.3981C28.0136 13.4961 27.2948 12.3876 26.9377 11.0972C26.6898 11.5977 26.3935 12.077 26.0476 12.533C24.5216 14.5465 22.5294 15.7969 20.0072 16.1359C17.9302 16.4115 16.0016 16.0089 14.306 14.7372C12.7377 13.5503 11.8475 11.982 11.6144 10.0321C11.3388 7.72193 12.0171 5.6449 13.4158 3.82221C14.9207 1.85116 16.9129 0.60071 19.3502 0.155634C21.3425 -0.204666 23.2499 0.0284693 24.9666 1.19414C26.09 1.93594 26.8953 2.95325 27.4252 4.18251C27.5524 4.37325 27.4676 4.47923 27.2133 4.54281ZM3.28519 4.92427C3.20041 4.92427 3.17921 4.88188 3.2216 4.81831L3.66667 4.24606C3.70906 4.18248 3.81504 4.1401 3.89981 4.1401H11.4661C11.5509 4.1401 11.5721 4.20367 11.5297 4.26725L11.1694 4.81831C11.127 4.88188 11.021 4.94547 10.9574 4.94547L3.28519 4.92427ZM0.0847763 6.87416C3.6351e-08 6.87416 -0.0211943 6.83178 0.0211944 6.7682L0.46627 6.19596C0.508658 6.13237 0.614628 6.08998 0.699405 6.08998H10.3639C10.4487 6.08998 10.4911 6.15357 10.4699 6.21714L10.3003 6.72581C10.2791 6.81059 10.1944 6.85296 10.1096 6.85296L0.0847763 6.87416ZM5.15013 8.69689C5.10774 8.76047 5.12893 8.82406 5.21371 8.82406L9.83402 8.84525C9.89761 8.84525 9.98238 8.78167 9.98238 8.69689L10.0248 8.18823C10.0248 8.10346 9.98238 8.03987 9.89761 8.03987H5.65878C5.57401 8.03987 5.48924 8.10346 5.44685 8.16704L5.15013 8.69689ZM39.2579 7.4741C39.2619 7.54529 39.2663 7.62029 39.2725 7.70073C39.1666 9.52342 38.2552 10.8798 36.581 11.7488C35.4576 12.3211 34.2919 12.3846 33.1263 11.8759C31.6003 11.1978 30.7949 9.52342 31.1764 7.87028C31.6427 5.87804 32.9143 4.62759 34.8854 4.18251C36.8988 3.71625 38.8275 4.90311 39.209 7.00133C39.2389 7.15139 39.2478 7.30147 39.2579 7.4741Z" fill="#EEEEEE" style="fill:#EEEEEE;fill:color(display-p3 0.9333 0.9333 0.9333);fill-opacity:1;"/>
</svg>
