<svg width="34" height="34" viewBox="0 0 34 34" fill="none" xmlns="http://www.w3.org/2000/svg">
<path d="M9.91793 4.72052C9.87956 4.73523 8.79555 5.35088 7.51008 6.08717C5.95232 6.98012 5.15241 7.45014 5.10961 7.49427C5.07567 7.53252 5.03729 7.59872 5.02549 7.64064C4.99302 7.74877 4.9908 23.5903 5.02327 23.7043C5.03508 23.7484 5.07345 23.8131 5.10813 23.8492C5.19226 23.9374 14.4916 29.2672 14.6045 29.293C14.6569 29.3055 14.7159 29.3033 14.7742 29.2871C14.9011 29.2554 24.1761 23.9374 24.2588 23.8506C24.2927 23.8131 24.3311 23.7484 24.3436 23.7043C24.3599 23.652 24.3658 22.8238 24.3658 21.0798V18.5312L26.6268 17.2366C28.7586 16.0149 28.8893 15.9384 28.9439 15.8545L29 15.764V13.019C29 10.0304 29.0059 10.1989 28.887 10.0908C28.8553 10.0628 27.7691 9.43097 26.4711 8.68586L24.1134 7.33392H23.8514L21.5447 8.65423C20.2747 9.38242 19.1951 10.0047 19.1427 10.0385C19.0903 10.0731 19.0276 10.1371 19.0018 10.1834L18.9553 10.2636L18.945 12.8498L18.9354 15.4367L17.0308 16.5305C15.9829 17.1307 15.1107 17.6279 15.0923 17.6323C15.0583 17.6419 15.0561 17.3955 15.0561 12.6416V7.63844L15.0059 7.55238C14.9432 7.44793 15.2251 7.6149 12.3944 5.99302C10.0205 4.63225 10.0773 4.66094 9.91793 4.72052ZM12.1 6.70135C13.0932 7.26919 13.9057 7.73921 13.9057 7.74509C13.9057 7.75098 13.0349 8.25262 11.9708 8.86239L10.0345 9.97012L8.1019 8.86239C7.04002 8.25262 6.17001 7.75098 6.17001 7.74509C6.17001 7.73921 7.03855 7.23756 8.10042 6.62927L10.0286 5.52374L10.1614 5.59582C10.236 5.63628 11.1089 6.13351 12.1 6.70135ZM25.9191 9.25002C26.9648 9.85023 27.8296 10.346 27.8377 10.3541C27.8599 10.3739 24.0249 12.571 23.9725 12.5688C23.9201 12.5673 20.1323 10.3901 20.1338 10.3636C20.136 10.3335 23.9466 8.14817 23.985 8.15406C24.0027 8.15847 24.8735 8.65202 25.9191 9.25002ZM7.8023 9.56704L9.64564 10.6248L9.65597 15.8619L9.66556 21.0997L9.71058 21.1703C9.73419 21.2078 9.77847 21.2586 9.81093 21.2821C9.84119 21.3042 10.8669 21.8867 12.0896 22.5745L14.3108 23.8249V26.0404C14.3108 27.2562 14.3027 28.2536 14.2924 28.2536C14.2842 28.2536 12.3642 27.1584 10.0264 25.8175L5.7767 23.3814L5.77079 15.892L5.7671 8.40488L5.86156 8.4571C5.91616 8.48579 6.78839 8.98522 7.8023 9.56704ZM14.3108 13.2536V18.0795L14.2363 18.1281C14.1352 18.1921 10.4441 20.3068 10.4315 20.3068C10.4256 20.3068 10.4212 18.1281 10.4212 15.4647L10.4234 10.6248L12.3516 9.51923C13.412 8.91093 14.2865 8.41738 14.2968 8.42106C14.3042 8.42547 14.3108 10.6005 14.3108 13.2536ZM21.6672 12.1437L23.5998 13.2514V15.447C23.5998 17.5301 23.5976 17.6419 23.5659 17.6301C23.5452 17.622 22.6708 17.1226 21.6214 16.5202L19.7109 15.4264V13.2315C19.7109 12.023 19.7168 11.0359 19.7228 11.0359C19.7309 11.0359 20.6053 11.5339 21.6672 12.1437ZM28.2546 13.2176C28.2546 14.4195 28.2465 15.411 28.2384 15.4205C28.2244 15.4426 24.4019 17.6382 24.3776 17.6382C24.3717 17.6382 24.3658 16.6511 24.3658 15.4426V13.2477L26.294 12.1415C27.3559 11.5339 28.2303 11.0359 28.2384 11.0359C28.2487 11.0359 28.2546 12.0172 28.2546 13.2176ZM21.2908 17.2109C22.9165 18.1435 23.1969 18.3105 23.1689 18.3326C23.1504 18.3443 22.5342 18.6974 21.8007 19.1152C21.0673 19.5322 19.1671 20.612 17.5769 21.5153L14.6871 23.1585L14.5949 23.1085C14.0429 22.8076 10.8403 20.9916 10.8403 20.9776C10.8389 20.9474 19.3139 16.0928 19.3479 16.1053C19.3641 16.1112 20.2386 16.6084 21.2908 17.2109ZM23.5961 21.1821L23.5895 23.3814L19.342 25.8175C17.005 27.1584 15.0842 28.2536 15.0746 28.2536C15.0642 28.2536 15.0561 27.3585 15.0561 26.0404V23.8249L19.3139 21.4049C21.6532 20.0743 23.5755 18.985 23.5858 18.9828C23.5939 18.9828 23.5976 19.9721 23.5961 21.1821Z" fill="#EEEEEE" style="fill:#EEEEEE;fill:color(display-p3 0.9333 0.9333 0.9333);fill-opacity:1;"/>
</svg>
