<svg width="29" height="18" viewBox="0 0 29 18" fill="none" xmlns="http://www.w3.org/2000/svg">
<path d="M7.10682 4.95941H12.3879V5.37915H7.59092V8.53829H12.1018V8.95804H7.59092V12.4265H12.4429V12.8462H7.10682V4.95941ZM12.861 4.95941H13.4221L15.9086 8.42783L18.4501 4.95941L21.907 0.553711L16.2276 8.79235L19.1542 12.8462H18.5711L15.9086 9.15686L13.235 12.8462H12.6629L15.6115 8.79235L12.861 4.95941ZM19.3633 5.37915V4.95941H25.3815V5.37915H22.6089V12.8462H22.1248V5.37915H19.3633ZM0.5 4.95941H1.10512L9.44939 17.4458L6.0011 12.8462L1.0061 5.55589L0.984097 12.8462H0.5V4.95941ZM25.3327 12.2998C25.2338 12.2998 25.1596 12.2232 25.1596 12.1241C25.1596 12.0251 25.2338 11.9485 25.3327 11.9485C25.4328 11.9485 25.5058 12.0251 25.5058 12.1241C25.5058 12.2232 25.4328 12.2998 25.3327 12.2998ZM25.8084 11.8376H26.0674C26.071 11.9779 26.1734 12.0723 26.3241 12.0723C26.4925 12.0723 26.5878 11.9709 26.5878 11.781V10.5785H26.8516V11.7822C26.8516 12.1241 26.6538 12.321 26.3265 12.321C26.0191 12.321 25.8084 12.13 25.8084 11.8376ZM27.1966 11.8223H27.458C27.4803 11.9838 27.6381 12.0864 27.8654 12.0864C28.0773 12.0864 28.2327 11.9768 28.2327 11.8258C28.2327 11.6962 28.1338 11.6183 27.9089 11.5653L27.6899 11.5122C27.3826 11.4403 27.2425 11.2918 27.2425 11.0418C27.2425 10.7388 27.4898 10.5372 27.8607 10.5372C28.2056 10.5372 28.4576 10.7388 28.4729 11.0253H28.2162C28.1915 10.8685 28.0549 10.7707 27.8571 10.7707C27.6487 10.7707 27.5098 10.8709 27.5098 11.0241C27.5098 11.1456 27.5993 11.2151 27.8206 11.267L28.0078 11.313C28.3564 11.3943 28.5 11.5358 28.5 11.7917C28.5 12.1171 28.248 12.321 27.8453 12.321C27.4686 12.321 27.2154 12.1265 27.1966 11.8223Z" fill="#EEEEEE" style="fill:#EEEEEE;fill:color(display-p3 0.9333 0.9333 0.9333);fill-opacity:1;"/>
</svg>
