<svg xmlns="http://www.w3.org/2000/svg" width="64" height="74" viewBox="0 0 64 74" fill="none">
<g clip-path="url(#clip0)">
<path d="M0.503127 54.721C0.828548 55.2875 1.30055 55.7559 1.86954 56.077L29.8223 72.2155L29.8232 72.2147C30.3864 72.5455 31.0277 72.7199 31.6808 72.7199C32.334 72.7199 32.9753 72.5455 33.5385 72.2147L61.4922 56.0761C62.06 55.7539 62.5315 55.286 62.858 54.7205C63.1844 54.1551 63.3539 53.5128 63.3489 52.8599V20.5828L63.3481 20.5819C63.353 19.9288 63.1834 19.2863 62.8568 18.7207C62.5302 18.1551 62.0585 17.6871 61.4904 17.3648L33.5367 1.22628V1.22541C32.974 0.89463 32.3331 0.720215 31.6804 0.720215C31.0277 0.720215 30.3868 0.89463 29.8241 1.22541V1.22628L1.87128 17.3648C1.30293 17.6868 0.830954 18.1548 0.504196 18.7204C0.177439 19.2861 0.00777231 19.9287 0.0127571 20.5819L0.0118871 20.5828V52.8599C0.00561028 53.513 0.174974 54.1558 0.502257 54.721" fill="#fff"/>
<path d="M22.7298 49.0081C22.7298 49.9615 22.3511 50.8759 21.6769 51.55C21.0027 52.2242 20.0883 52.603 19.1349 52.603C18.1815 52.603 17.2671 52.2242 16.593 51.55C15.9188 50.8759 15.54 49.9615 15.54 49.0081L15.5409 49.009L15.5444 24.3317C15.5444 22.42 17.2336 20.8389 19.6262 20.8389C20.5529 20.827 21.4712 21.0169 22.3174 21.3952C23.1635 21.7735 23.9172 22.3313 24.5264 23.0299L25.6126 24.33L40.6309 42.3026V24.4321H40.6292C40.6307 23.4797 41.0102 22.5669 41.6842 21.894C42.3582 21.2211 43.2716 20.8432 44.224 20.8432C45.1764 20.8432 46.0899 21.2211 46.7639 21.894C47.4379 22.5669 47.8173 23.4797 47.8189 24.4321H47.818L47.8145 49.1076C47.8145 51.0194 46.1244 52.6004 43.7328 52.6004C42.806 52.6125 41.8876 52.4228 41.0414 52.0445C40.1952 51.6662 39.4415 51.1082 38.8326 50.4094L22.728 31.1367V49.009L22.7298 49.0081Z" fill="#000000"/>
</g>
<defs>
<clipPath id="clip0">
<rect width="63.36" height="73.44" fill="#fff"/>
</clipPath>
</defs>
</svg>