<svg width="42" height="20" viewBox="0 0 42 20" fill="none" xmlns="http://www.w3.org/2000/svg">
<path fill-rule="evenodd" clip-rule="evenodd" d="M22.6191 15.7887C22.5299 15.7887 22.4454 15.7478 22.3888 15.6769C22.332 15.606 22.3089 15.513 22.326 15.4228L23.5737 8.816C23.6923 8.18769 23.6631 7.73671 23.4913 7.54615C23.3861 7.42967 23.0703 7.2343 22.1364 7.2343H19.8761L18.3074 15.54C18.2801 15.6844 18.1571 15.7887 18.0141 15.7887H14.8778C14.7886 15.7887 14.7041 15.7478 14.6473 15.6769C14.5905 15.606 14.5676 15.5129 14.5845 15.4228L17.4051 0.490834C17.4324 0.346481 17.5554 0.242188 17.6984 0.242188H20.8347C20.9239 0.242188 21.0084 0.283168 21.0652 0.353959C21.122 0.424854 21.1449 0.517977 21.128 0.608135L20.4473 4.21206H22.8789C24.7314 4.21206 25.9875 4.5481 26.7192 5.23942C27.465 5.94468 27.6976 7.07233 27.4108 8.59143L26.0986 15.54C26.0713 15.6844 25.9484 15.7887 25.8053 15.7887H22.6191ZM7.25459 12.8179C8.47147 12.8179 9.37992 12.5899 9.95472 12.1405C10.5234 11.6957 10.9161 10.9253 11.122 9.8505C11.3139 8.84589 11.2408 8.14442 10.9047 7.76587C10.5611 7.37923 9.81815 7.18314 8.69658 7.18314H6.75191L5.67382 12.8179H7.25459ZM0.89405 19.7587C0.803782 19.7587 0.718049 19.7178 0.66066 19.6468C0.603167 19.576 0.579872 19.4828 0.597117 19.3928L3.45429 4.46078C3.48192 4.31643 3.60648 4.21213 3.75132 4.21213H9.90923C11.8445 4.21213 13.285 4.7459 14.1904 5.79876C15.1007 6.85716 15.3818 8.33661 15.0258 10.196C14.881 10.9535 14.6319 11.657 14.2855 12.2869C13.9386 12.9174 13.4802 13.5008 12.9228 14.0212C12.2554 14.6556 11.5002 15.1156 10.68 15.3863C9.87282 15.6533 8.83617 15.7889 7.59894 15.7889H5.10546L4.3934 19.51C4.36576 19.6544 4.24129 19.7587 4.09646 19.7587H0.89405ZM35.9878 12.1405C35.3909 12.5899 34.4477 12.8179 33.1842 12.8179H31.5427L32.6622 7.18314H34.6814C35.8461 7.18314 36.6175 7.37923 36.9743 7.76587C37.3234 8.14442 37.3993 8.84589 37.2 9.8505C36.9862 10.9254 36.5784 11.6959 35.9878 12.1405ZM26.3373 19.6468C26.3969 19.7178 26.4858 19.7587 26.5796 19.7587H29.9048C30.0553 19.7587 30.1846 19.6544 30.2133 19.51L30.9524 15.7889H33.5417C34.8263 15.7889 35.9028 15.6533 36.7409 15.3863C37.5927 15.1156 38.3768 14.6556 39.0698 14.0212C39.6485 13.5008 40.1245 12.9174 40.4847 12.2869C40.8445 11.657 41.1031 10.9535 41.2536 10.196C41.6231 8.33652 41.3314 6.85705 40.3862 5.79876C39.4459 4.7459 37.9503 4.21213 35.9407 4.21213H29.5465C29.396 4.21213 29.2668 4.31643 29.238 4.46078L26.2712 19.3928C26.2533 19.4828 26.2776 19.576 26.3373 19.6468Z" fill="#EEEEEE" style="fill:#EEEEEE;fill:color(display-p3 0.9333 0.9333 0.9333);fill-opacity:1;"/>
</svg>
