<svg width="27" height="28" viewBox="0 0 27 28" fill="none" xmlns="http://www.w3.org/2000/svg">
<path d="M24.5868 2.08919C24.2118 2.98865 23.7265 3.83802 23.142 4.61775C21.8903 3.32348 20.3918 2.29338 18.7351 1.58838C17.0784 0.883372 15.2971 0.51778 13.4966 0.513227C11.6961 0.508673 9.91297 0.865251 8.2527 1.56187C6.59243 2.25849 5.08872 3.28099 3.83052 4.56891C2.57233 5.85682 1.5852 7.38399 0.927528 9.06007C0.269856 10.7362 -0.0450026 12.5271 0.00157754 14.327C0.0481577 16.1269 0.45523 17.8992 1.19872 19.539C1.9422 21.1788 3.007 22.6529 4.33013 23.874L4.8303 24.3186C6.72835 25.9193 9.0324 26.9635 11.4873 27.3355C13.9422 27.7075 16.4522 27.3927 18.7392 26.4261C21.0263 25.4595 23.0012 23.8788 24.4452 21.8589C25.8893 19.8391 26.7461 17.459 26.9208 14.9822C27.3098 11.5923 26.2818 7.25759 24.5868 2.08919ZM6.27535 23.9852C6.13248 24.1607 5.94078 24.29 5.72446 24.3566C5.50815 24.4233 5.27693 24.4243 5.06003 24.3596C4.84313 24.2949 4.65028 24.1673 4.50586 23.993C4.36144 23.8187 4.27193 23.6055 4.24863 23.3804C4.22533 23.1552 4.2693 22.9282 4.37498 22.7281C4.48065 22.5279 4.6433 22.3636 4.84235 22.2558C5.0414 22.148 5.26793 22.1017 5.49331 22.1226C5.71869 22.1436 5.9328 22.2309 6.10859 22.3735C6.33905 22.5686 6.4851 22.8454 6.51618 23.1458C6.54727 23.4462 6.46097 23.7469 6.27535 23.9852ZM24.5034 19.9561C21.1969 24.3742 14.0835 22.8736 9.55423 23.096C9.55423 23.096 8.74843 23.1516 7.94253 23.2626C7.94253 23.2626 8.24826 23.1238 8.63726 22.9848C11.8328 21.8734 13.3332 21.651 15.2783 20.6507C18.9184 18.789 22.5584 14.7044 23.2809 10.4808C21.8915 14.5376 17.668 18.0388 13.8333 19.4559C11.1936 20.4285 6.44212 21.3732 6.44212 21.3732L6.24756 21.262C3.02427 19.6781 2.91321 12.6759 8.80391 10.4252C11.3882 9.42483 13.8333 9.98071 16.6398 9.31377C19.613 8.61904 23.0586 6.3961 24.448 3.47854C26.004 8.17445 27.8935 15.4546 24.5034 19.9561Z" fill="#EEEEEE" style="fill:#EEEEEE;fill:color(display-p3 0.9333 0.9333 0.9333);fill-opacity:1;"/>
</svg>
