<svg width="250" height="250" viewBox="0 0 250 250" fill="none" xmlns="http://www.w3.org/2000/svg">
<path d="M222.908 176.162H27V200.284H222.908V176.162Z" fill="url(#paint0_linear_17)" stroke="black" stroke-width="0.4" stroke-miterlimit="10" stroke-linejoin="round"/>
<path d="M222.908 176.162H27L54.8466 145.628H195.062L222.908 176.162Z" fill="#BDC4CF" stroke="black" stroke-width="0.4" stroke-miterlimit="10" stroke-linejoin="round"/>
<path d="M195.062 33H54.8466V145.627H195.062V33Z" fill="url(#paint1_linear_17)" stroke="black" stroke-width="0.4" stroke-miterlimit="10" stroke-linejoin="round"/>
<path d="M168.445 124.494H81.4519C72.2021 124.494 64.7116 116.993 64.7116 107.754V59.0873C64.7116 49.8375 72.2129 42.347 81.4519 42.347H168.445C177.695 42.347 185.186 49.8483 185.186 59.0873V107.754C185.197 117.004 177.695 124.494 168.445 124.494Z" fill="url(#paint2_linear_17)" stroke="black" stroke-width="0.4" stroke-miterlimit="10"/>
<path d="M165.24 133.982V136.399C165.24 139.162 167.474 141.396 170.237 141.396C173 141.396 175.234 139.162 175.234 136.399V133.982" fill="black"/>
<path d="M165.24 133.982V136.399C165.24 139.162 167.474 141.396 170.237 141.396C173 141.396 175.234 139.162 175.234 136.399V133.982" stroke="black" stroke-width="0.4" stroke-miterlimit="10"/>
<path d="M175.224 133.982C175.224 136.745 172.989 138.979 170.226 138.979C167.463 138.979 165.229 136.745 165.229 133.982C165.229 131.218 167.463 128.984 170.226 128.984C172.989 128.984 175.224 131.218 175.224 133.982Z" fill="url(#paint3_linear_17)" stroke="black" stroke-width="0.4" stroke-miterlimit="10"/>
<path d="M151.835 133.982V136.399C151.835 139.162 154.069 141.396 156.832 141.396C159.595 141.396 161.829 139.162 161.829 136.399V133.982" fill="black"/>
<path d="M151.835 133.982V136.399C151.835 139.162 154.069 141.396 156.832 141.396C159.595 141.396 161.829 139.162 161.829 136.399V133.982" stroke="black" stroke-width="0.4" stroke-miterlimit="10"/>
<path d="M161.818 133.982C161.818 136.745 159.584 138.979 156.821 138.979C154.058 138.979 151.824 136.745 151.824 133.982C151.824 131.218 154.058 128.984 156.821 128.984C159.584 128.984 161.818 131.218 161.818 133.982Z" fill="url(#paint4_linear_17)" stroke="black" stroke-width="0.4" stroke-miterlimit="10"/>
<path d="M156.821 136.216C158.055 136.216 159.055 135.215 159.055 133.982C159.055 132.748 158.055 131.747 156.821 131.747C155.587 131.747 154.587 132.748 154.587 133.982C154.587 135.215 155.587 136.216 156.821 136.216Z" fill="white" stroke="black" stroke-width="0.4" stroke-miterlimit="10"/>
<path d="M178.645 133.982V136.399C178.645 139.162 180.879 141.396 183.642 141.396C186.405 141.396 188.64 139.162 188.64 136.399V133.982" fill="black"/>
<path d="M178.645 133.982V136.399C178.645 139.162 180.879 141.396 183.642 141.396C186.405 141.396 188.64 139.162 188.64 136.399V133.982" stroke="black" stroke-width="0.4" stroke-miterlimit="10"/>
<path d="M183.632 138.979C186.391 138.979 188.629 136.741 188.629 133.982C188.629 131.222 186.391 128.984 183.632 128.984C180.872 128.984 178.634 131.222 178.634 133.982C178.634 136.741 180.872 138.979 183.632 138.979Z" fill="url(#paint5_linear_17)" stroke="black" stroke-width="0.4" stroke-miterlimit="10" stroke-linejoin="round"/>
<path d="M55.4726 151.467L38.171 171.445H90.6801L99.1528 151.467H55.4726Z" stroke="black" stroke-width="0.4" stroke-miterlimit="10"/>
<path d="M97.2532 155.557H55.4726L42.0566 171.445" stroke="black" stroke-width="0.4" stroke-miterlimit="10"/>
<path d="M55.5049 160.846V164.365C55.5049 166.307 62.7148 167.883 71.6193 167.883C80.5237 167.883 87.7336 166.307 87.7336 164.365V160.846" fill="#BDC4CF"/>
<path d="M55.5049 160.846V164.365C55.5049 166.307 62.7148 167.883 71.6193 167.883C80.5237 167.883 87.7336 166.307 87.7336 164.365V160.846" stroke="black" stroke-width="0.4" stroke-miterlimit="10"/>
<path d="M71.6193 164.365C80.5189 164.365 87.7336 162.789 87.7336 160.846C87.7336 158.903 80.5189 157.327 71.6193 157.327C62.7196 157.327 55.5049 158.903 55.5049 160.846C55.5049 162.789 62.7196 164.365 71.6193 164.365Z" fill="black" stroke="black" stroke-width="0.4" stroke-miterlimit="10"/>
<path d="M59.1747 149.891V159.572C59.1747 161.191 64.744 162.508 71.6193 162.508C78.4946 162.508 84.0639 161.191 84.0639 159.572V149.891" fill="url(#paint6_linear_17)"/>
<path d="M59.1747 149.891V159.572C59.1747 161.191 64.744 162.508 71.6193 162.508C78.4946 162.508 84.0639 161.191 84.0639 159.572V149.891" stroke="black" stroke-width="0.4" stroke-miterlimit="10" stroke-linejoin="round"/>
<path d="M84.0639 149.891C84.0639 151.51 78.4946 152.827 71.6193 152.827C64.744 152.827 59.1747 151.51 59.1747 149.891C59.1747 148.272 64.744 146.955 71.6193 146.955C78.4946 146.955 84.0639 148.272 84.0639 149.891Z" fill="url(#paint7_linear_17)" stroke="black" stroke-width="0.4" stroke-miterlimit="10"/>
<path d="M113.465 155.946C113.465 156.95 110.95 157.759 107.863 157.759C104.765 157.759 102.261 156.95 102.261 155.946C102.261 154.942 104.776 154.133 107.863 154.133C110.95 154.143 113.465 154.953 113.465 155.946Z" fill="url(#paint8_linear_17)" stroke="black" stroke-width="0.4" stroke-miterlimit="10" stroke-linejoin="round"/>
<path d="M103.179 150.279V155.255C103.179 156.086 105.273 156.766 107.852 156.766C110.432 156.766 112.526 156.086 112.526 155.255V150.279" fill="url(#paint9_linear_17)"/>
<path d="M103.179 150.279V155.255C103.179 156.086 105.273 156.766 107.852 156.766C110.432 156.766 112.526 156.086 112.526 155.255V150.279" stroke="black" stroke-width="0.4" stroke-miterlimit="10" stroke-linejoin="round"/>
<path d="M112.536 150.279C112.536 151.11 110.443 151.79 107.863 151.79C105.283 151.79 103.189 151.11 103.189 150.279C103.189 149.448 105.283 148.768 107.863 148.768C110.443 148.768 112.536 149.437 112.536 150.279Z" fill="url(#paint10_linear_17)" stroke="black" stroke-width="0.4" stroke-miterlimit="10" stroke-linejoin="round"/>
<path d="M122.898 157.759C125.992 157.759 128.5 156.947 128.5 155.946C128.5 154.944 125.992 154.133 122.898 154.133C119.804 154.133 117.296 154.944 117.296 155.946C117.296 156.947 119.804 157.759 122.898 157.759Z" fill="url(#paint11_linear_17)" stroke="black" stroke-width="0.4" stroke-miterlimit="10" stroke-linejoin="round"/>
<path d="M118.224 150.279V155.255C118.224 156.086 120.318 156.766 122.898 156.766C125.478 156.766 127.571 156.086 127.571 155.255V150.279" fill="url(#paint12_linear_17)"/>
<path d="M118.224 150.279V155.255C118.224 156.086 120.318 156.766 122.898 156.766C125.478 156.766 127.571 156.086 127.571 155.255V150.279" stroke="black" stroke-width="0.4" stroke-miterlimit="10" stroke-linejoin="round"/>
<path d="M127.571 150.279C127.571 151.11 125.478 151.79 122.898 151.79C120.318 151.79 118.224 151.11 118.224 150.279C118.224 149.448 120.318 148.768 122.898 148.768C125.478 148.768 127.571 149.437 127.571 150.279Z" fill="url(#paint13_linear_17)" stroke="black" stroke-width="0.4" stroke-miterlimit="10" stroke-linejoin="round"/>
<path d="M114.652 165.8C114.652 167.009 111.608 167.991 107.863 167.991C104.118 167.991 101.074 167.009 101.074 165.8C101.074 164.591 104.118 163.609 107.863 163.609C111.608 163.609 114.652 164.591 114.652 165.8Z" fill="black" stroke="black" stroke-width="0.4" stroke-miterlimit="10"/>
<path d="M129.687 165.8C129.687 167.009 126.643 167.991 122.898 167.991C119.153 167.991 116.109 167.009 116.109 165.8C116.109 164.591 119.153 163.609 122.898 163.609C126.654 163.609 129.687 164.591 129.687 165.8Z" fill="black" stroke="black" stroke-width="0.4" stroke-miterlimit="10"/>
<path d="M118.224 160.123V165.098C118.224 165.93 120.318 166.61 122.898 166.61C125.478 166.61 127.571 165.93 127.571 165.098V160.123" fill="url(#paint14_linear_17)"/>
<path d="M118.224 160.123V165.098C118.224 165.93 120.318 166.61 122.898 166.61C125.478 166.61 127.571 165.93 127.571 165.098V160.123" stroke="black" stroke-width="0.4" stroke-miterlimit="10" stroke-linejoin="round"/>
<path d="M127.571 160.123C127.571 160.954 125.478 161.634 122.898 161.634C120.318 161.634 118.224 160.954 118.224 160.123C118.224 159.292 120.318 158.612 122.898 158.612C125.478 158.623 127.571 159.292 127.571 160.123Z" fill="url(#paint15_linear_17)" stroke="black" stroke-width="0.4" stroke-miterlimit="10" stroke-linejoin="round"/>
<path d="M103.179 160.123V165.098C103.179 165.93 105.273 166.61 107.852 166.61C110.432 166.61 112.526 165.93 112.526 165.098V160.123" fill="url(#paint16_linear_17)"/>
<path d="M103.179 160.123V165.098C103.179 165.93 105.273 166.61 107.852 166.61C110.432 166.61 112.526 165.93 112.526 165.098V160.123" stroke="black" stroke-width="0.4" stroke-miterlimit="10" stroke-linejoin="round"/>
<path d="M112.526 160.123C112.526 160.954 110.432 161.634 107.852 161.634C105.273 161.634 103.179 160.954 103.179 160.123C103.179 159.292 105.273 158.612 107.852 158.612C110.443 158.623 112.526 159.292 112.526 160.123Z" fill="url(#paint17_linear_17)" stroke="black" stroke-width="0.4" stroke-miterlimit="10" stroke-linejoin="round"/>
<path d="M133.432 151.78L136.767 171.445H207.808L191.521 151.467L133.432 151.78Z" fill="url(#paint18_linear_17)" stroke="black" stroke-width="0.4" stroke-miterlimit="10" stroke-linejoin="round"/>
<path d="M207.808 171.445L191.521 151.467" stroke="black" stroke-width="0.4" stroke-miterlimit="10"/>
<path d="M183.221 151.51L197.663 171.445" stroke="black" stroke-width="0.4" stroke-miterlimit="10"/>
<path d="M174.921 151.553L187.517 171.445" stroke="black" stroke-width="0.4" stroke-miterlimit="10"/>
<path d="M166.621 151.596L177.361 171.445" stroke="black" stroke-width="0.4" stroke-miterlimit="10"/>
<path d="M158.332 151.65L167.215 171.445" stroke="black" stroke-width="0.4" stroke-miterlimit="10"/>
<path d="M150.032 151.693L157.059 171.445" stroke="black" stroke-width="0.4" stroke-miterlimit="10"/>
<path d="M141.732 151.736L146.913 171.445" stroke="black" stroke-width="0.4" stroke-miterlimit="10"/>
<path d="M133.432 151.78L136.767 171.445" stroke="black" stroke-width="0.4" stroke-miterlimit="10"/>
<path d="M93.1734 129.869H62.9847V142.271H93.1734V129.869Z" fill="#BDC4CF" stroke="black" stroke-width="0.4" stroke-miterlimit="10"/>
<path d="M93.1734 129.179H62.9847V140.263H93.1734V129.179Z" fill="url(#paint19_linear_17)" stroke="black" stroke-width="0.4" stroke-miterlimit="10" stroke-linejoin="round"/>
<path d="M78.0844 129.179V140.274" stroke="black" stroke-width="0.4" stroke-miterlimit="10"/>
<path d="M73.562 134.748C73.562 136.496 72.1481 137.91 70.3996 137.91C68.6511 137.91 67.2372 136.496 67.2372 134.748C67.2372 132.999 68.6511 131.585 70.3996 131.585C72.1481 131.585 73.562 132.999 73.562 134.748Z" stroke="black" stroke-width="0.4" stroke-miterlimit="10"/>
<path d="M81.97 134.748H89.0611" stroke="black" stroke-width="0.4" stroke-miterlimit="10"/>
<path d="M53.3895 187.257C53.4542 187.678 53.4974 188.11 53.4974 188.541C53.4974 192.816 50.0328 196.291 45.7479 196.291C41.4737 196.291 37.9983 192.826 37.9983 188.541C37.9983 184.267 41.4629 180.792 45.7479 180.792C49.5903 180.803 52.7743 183.598 53.3895 187.257Z" fill="#BDC4CF" stroke="black" stroke-width="0.4" stroke-miterlimit="10"/>
<path d="M45.7479 216.464C53.1692 216.464 59.1854 214.946 59.1854 213.075C59.1854 211.203 53.1692 209.685 45.7479 209.685C38.3265 209.685 32.3103 211.203 32.3103 213.075C32.3103 214.946 38.3265 216.464 45.7479 216.464Z" fill="black" stroke="black" stroke-width="0.4" stroke-miterlimit="10"/>
<path d="M33.9185 214.726C36.185 213.657 40.6427 212.934 45.7694 212.934C50.702 212.934 55.2567 213.668 57.588 214.672" stroke="black" stroke-width="0.4" stroke-miterlimit="10"/>
<path d="M49.3204 187.516V216.366C49.3204 216.366 47.4424 216.485 45.5428 216.485C43.6432 216.485 42.1861 216.366 42.1861 216.366V187.516C42.1861 185.552 43.7835 183.954 45.7479 183.954C47.723 183.954 49.3204 185.552 49.3204 187.516Z" fill="url(#paint20_linear_17)" stroke="black" stroke-width="0.4" stroke-miterlimit="10"/>
<path d="M85.1324 187.257C85.1972 187.678 85.2403 188.11 85.2403 188.541C85.2403 192.816 81.7757 196.291 77.4908 196.291C73.2167 196.291 69.7412 192.826 69.7412 188.541C69.7412 184.267 73.2059 180.792 77.4908 180.792C81.3224 180.803 84.5172 183.598 85.1324 187.257Z" fill="#BDC4CF" stroke="black" stroke-width="0.4" stroke-miterlimit="10"/>
<path d="M77.4908 216.464C84.9122 216.464 90.9284 214.946 90.9284 213.075C90.9284 211.203 84.9122 209.685 77.4908 209.685C70.0694 209.685 64.0532 211.203 64.0532 213.075C64.0532 214.946 70.0694 216.464 77.4908 216.464Z" fill="black" stroke="black" stroke-width="0.4" stroke-miterlimit="10"/>
<path d="M65.6506 214.726C67.9172 213.657 72.3748 212.934 77.5016 212.934C82.4341 212.934 86.9888 213.668 89.3202 214.672" stroke="black" stroke-width="0.4" stroke-miterlimit="10"/>
<path d="M81.0526 187.516V216.366C81.0526 216.366 79.1745 216.485 77.2749 216.485C75.3753 216.485 73.9182 216.366 73.9182 216.366V187.516C73.9182 185.552 75.5156 183.954 77.48 183.954C79.4552 183.954 81.0526 185.552 81.0526 187.516Z" fill="url(#paint21_linear_17)" stroke="black" stroke-width="0.4" stroke-miterlimit="10"/>
<path d="M134.339 157.111H196.13" stroke="black" stroke-width="0.4" stroke-miterlimit="10"/>
<path d="M135.569 163.998H201.743" stroke="black" stroke-width="0.4" stroke-miterlimit="10"/>
<path d="M145.531 76.4536L140.664 61.0948H109.169L104.366 76.4536C101.581 85.3472 104.431 95.4281 112.234 101.224L124.959 110.571L137.652 101.192C145.391 95.3957 148.338 85.3472 145.521 76.4212L132.817 85.8545L137.641 101.224L124.949 91.7476L112.256 101.181L117.113 85.8545L104.355 76.4752L120.092 76.378L124.959 61.084L129.816 76.3457L145.531 76.4536Z" fill="url(#paint22_linear_17)" stroke="black" stroke-width="0.4" stroke-miterlimit="10" stroke-linejoin="round"/>
<path d="M144.895 183.49C144.895 185.508 143.265 187.138 141.246 187.138C139.228 187.138 137.598 185.508 137.598 183.49C137.598 181.472 139.228 179.842 141.246 179.842C143.265 179.842 144.895 181.483 144.895 183.49Z" fill="url(#paint23_linear_17)" stroke="black" stroke-width="0.4" stroke-miterlimit="10" stroke-linejoin="round"/>
<path d="M143.437 183.49C143.437 184.699 142.455 185.681 141.246 185.681C140.038 185.681 139.055 184.699 139.055 183.49C139.055 182.281 140.038 181.299 141.246 181.299C142.455 181.299 143.437 182.281 143.437 183.49Z" fill="url(#paint24_linear_17)" stroke="black" stroke-width="0.4" stroke-miterlimit="10"/>
<path d="M155.483 183.49C155.483 185.508 153.853 187.138 151.835 187.138C149.816 187.138 148.186 185.508 148.186 183.49C148.186 181.472 149.816 179.842 151.835 179.842C153.853 179.842 155.483 181.483 155.483 183.49Z" fill="url(#paint25_linear_17)" stroke="black" stroke-width="0.4" stroke-miterlimit="10" stroke-linejoin="round"/>
<path d="M166.071 183.49C166.071 185.508 164.441 187.138 162.423 187.138C160.404 187.138 158.775 185.508 158.775 183.49C158.775 181.472 160.404 179.842 162.423 179.842C164.43 179.842 166.071 181.483 166.071 183.49Z" fill="url(#paint26_linear_17)" stroke="black" stroke-width="0.4" stroke-miterlimit="10" stroke-linejoin="round"/>
<path d="M176.648 183.49C176.648 185.508 175.019 187.138 173 187.138C170.982 187.138 169.352 185.508 169.352 183.49C169.352 181.472 170.982 179.842 173 179.842C175.019 179.842 176.648 181.483 176.648 183.49Z" fill="url(#paint27_linear_17)" stroke="black" stroke-width="0.4" stroke-miterlimit="10" stroke-linejoin="round"/>
<path d="M187.236 183.49C187.236 185.508 185.607 187.138 183.588 187.138C181.57 187.138 179.94 185.508 179.94 183.49C179.94 181.472 181.57 179.842 183.588 179.842C185.596 179.842 187.236 181.483 187.236 183.49Z" fill="url(#paint28_linear_17)" stroke="black" stroke-width="0.4" stroke-miterlimit="10" stroke-linejoin="round"/>
<path d="M197.814 183.49C197.814 185.508 196.184 187.138 194.166 187.138C192.147 187.138 190.518 185.508 190.518 183.49C190.518 181.472 192.147 179.842 194.166 179.842C196.184 179.842 197.814 181.483 197.814 183.49Z" fill="url(#paint29_linear_17)" stroke="black" stroke-width="0.4" stroke-miterlimit="10" stroke-linejoin="round"/>
<path d="M208.402 183.49C208.402 185.508 206.772 187.138 204.754 187.138C202.736 187.138 201.106 185.508 201.106 183.49C201.106 181.472 202.736 179.842 204.754 179.842C206.772 179.842 208.402 181.483 208.402 183.49Z" fill="url(#paint30_linear_17)" stroke="black" stroke-width="0.4" stroke-miterlimit="10" stroke-linejoin="round"/>
<path d="M144.895 192.546C144.895 194.564 143.265 196.194 141.246 196.194C139.228 196.194 137.598 194.564 137.598 192.546C137.598 190.527 139.228 188.898 141.246 188.898C143.265 188.898 144.895 190.527 144.895 192.546Z" fill="url(#paint31_linear_17)" stroke="black" stroke-width="0.4" stroke-miterlimit="10" stroke-linejoin="round"/>
<path d="M155.483 192.546C155.483 194.564 153.853 196.194 151.835 196.194C149.816 196.194 148.186 194.564 148.186 192.546C148.186 190.527 149.816 188.898 151.835 188.898C153.853 188.898 155.483 190.527 155.483 192.546Z" fill="url(#paint32_linear_17)" stroke="black" stroke-width="0.4" stroke-miterlimit="10" stroke-linejoin="round"/>
<path d="M166.071 192.546C166.071 194.564 164.441 196.194 162.423 196.194C160.404 196.194 158.775 194.564 158.775 192.546C158.775 190.527 160.404 188.898 162.423 188.898C164.43 188.898 166.071 190.527 166.071 192.546Z" fill="url(#paint33_linear_17)" stroke="black" stroke-width="0.4" stroke-miterlimit="10" stroke-linejoin="round"/>
<path d="M176.648 192.546C176.648 194.564 175.019 196.194 173 196.194C170.982 196.194 169.352 194.564 169.352 192.546C169.352 190.527 170.982 188.898 173 188.898C175.019 188.898 176.648 190.527 176.648 192.546Z" fill="url(#paint34_linear_17)" stroke="black" stroke-width="0.4" stroke-miterlimit="10" stroke-linejoin="round"/>
<path d="M187.236 192.546C187.236 194.564 185.607 196.194 183.588 196.194C181.57 196.194 179.94 194.564 179.94 192.546C179.94 190.527 181.57 188.898 183.588 188.898C185.596 188.898 187.236 190.527 187.236 192.546Z" fill="url(#paint35_linear_17)" stroke="black" stroke-width="0.4" stroke-miterlimit="10" stroke-linejoin="round"/>
<path d="M197.814 192.546C197.814 194.564 196.184 196.194 194.166 196.194C192.147 196.194 190.518 194.564 190.518 192.546C190.518 190.527 192.147 188.898 194.166 188.898C196.184 188.898 197.814 190.527 197.814 192.546Z" fill="url(#paint36_linear_17)" stroke="black" stroke-width="0.4" stroke-miterlimit="10" stroke-linejoin="round"/>
<path d="M208.402 192.546C208.402 194.564 206.772 196.194 204.754 196.194C202.736 196.194 201.106 194.564 201.106 192.546C201.106 190.527 202.736 188.898 204.754 188.898C206.772 188.898 208.402 190.527 208.402 192.546Z" fill="url(#paint37_linear_17)" stroke="black" stroke-width="0.4" stroke-miterlimit="10" stroke-linejoin="round"/>
<path d="M205.822 97.1658H185.186V88.1535H205.822H196.281C191.316 88.1535 187.269 84.1276 187.236 79.1735V79.1087C187.269 74.2302 191.187 70.2691 196.033 70.1288C191.154 69.9992 187.236 65.9949 187.236 61.084C187.236 56.0975 191.295 52.0393 196.281 52.0393L205.812 52.0501H205.855L195.062 52.0285V43.0053L205.866 43.0269C210.83 43.0269 214.867 47.0636 214.867 52.0285C214.867 57.015 210.809 61.1164 205.822 61.1164H196.281C196.26 61.1164 196.26 61.1164 196.27 61.1164H205.822C210.787 61.1164 214.835 65.1315 214.867 70.0856V70.1611C214.824 75.0613 210.874 79.044 205.995 79.1303C210.884 79.2167 214.835 83.2102 214.867 88.1103V88.1751C214.835 93.1399 210.787 97.1658 205.822 97.1658Z" fill="url(#paint38_linear_17)" stroke="black" stroke-width="0.4" stroke-miterlimit="10"/>
<path d="M55.4726 151.467V155.557" stroke="black" stroke-width="0.4" stroke-miterlimit="10"/>
<path d="M196.033 70.1288H206.47" stroke="black" stroke-width="0.4" stroke-miterlimit="10" stroke-linejoin="bevel"/>
<path d="M196.033 79.1303H206.47" stroke="black" stroke-width="0.4" stroke-miterlimit="10" stroke-linejoin="bevel"/>
<path d="M191.284 99.4216H185.197V86.2107H190.701C190.701 86.2107 191.079 86.5021 191.284 86.6316C191.284 87.1281 191.284 99.4216 191.284 99.4216Z" fill="black" stroke="black" stroke-width="0.4" stroke-miterlimit="10"/>
<path d="M201.149 52.0393L195.062 52.0609V41.0302H201.149V52.0393Z" fill="black" stroke="black" stroke-width="0.4" stroke-miterlimit="10"/>
<path d="M154.026 183.49C154.026 184.699 153.043 185.681 151.835 185.681C150.626 185.681 149.644 184.699 149.644 183.49C149.644 182.281 150.626 181.299 151.835 181.299C153.043 181.299 154.026 182.281 154.026 183.49Z" fill="url(#paint39_linear_17)" stroke="black" stroke-width="0.4" stroke-miterlimit="10"/>
<path d="M164.614 183.49C164.614 184.699 163.632 185.681 162.423 185.681C161.214 185.681 160.232 184.699 160.232 183.49C160.232 182.281 161.214 181.299 162.423 181.299C163.632 181.299 164.614 182.281 164.614 183.49Z" fill="url(#paint40_linear_17)" stroke="black" stroke-width="0.4" stroke-miterlimit="10"/>
<path d="M175.191 183.49C175.191 184.699 174.209 185.681 173 185.681C171.791 185.681 170.809 184.699 170.809 183.49C170.809 182.281 171.791 181.299 173 181.299C174.209 181.299 175.191 182.281 175.191 183.49Z" fill="url(#paint41_linear_17)" stroke="black" stroke-width="0.4" stroke-miterlimit="10"/>
<path d="M185.779 183.49C185.779 184.699 184.797 185.681 183.588 185.681C182.379 185.681 181.397 184.699 181.397 183.49C181.397 182.281 182.379 181.299 183.588 181.299C184.797 181.299 185.779 182.281 185.779 183.49Z" fill="url(#paint42_linear_17)" stroke="black" stroke-width="0.4" stroke-miterlimit="10"/>
<path d="M194.166 185.681C195.376 185.681 196.357 184.7 196.357 183.49C196.357 182.28 195.376 181.299 194.166 181.299C192.956 181.299 191.975 182.28 191.975 183.49C191.975 184.7 192.956 185.681 194.166 185.681Z" fill="url(#paint43_linear_17)" stroke="black" stroke-width="0.4" stroke-miterlimit="10"/>
<path d="M206.945 183.49C206.945 184.699 205.963 185.681 204.754 185.681C203.545 185.681 202.563 184.699 202.563 183.49C202.563 182.281 203.545 181.299 204.754 181.299C205.963 181.299 206.945 182.281 206.945 183.49Z" fill="url(#paint44_linear_17)" stroke="black" stroke-width="0.4" stroke-miterlimit="10"/>
<path d="M143.437 192.546C143.437 193.755 142.455 194.737 141.246 194.737C140.038 194.737 139.055 193.755 139.055 192.546C139.055 191.337 140.038 190.355 141.246 190.355C142.455 190.355 143.437 191.337 143.437 192.546Z" fill="url(#paint45_linear_17)" stroke="black" stroke-width="0.4" stroke-miterlimit="10"/>
<path d="M154.026 192.546C154.026 193.755 153.043 194.737 151.835 194.737C150.626 194.737 149.644 193.755 149.644 192.546C149.644 191.337 150.626 190.355 151.835 190.355C153.043 190.355 154.026 191.337 154.026 192.546Z" fill="url(#paint46_linear_17)" stroke="black" stroke-width="0.4" stroke-miterlimit="10"/>
<path d="M164.614 192.546C164.614 193.755 163.632 194.737 162.423 194.737C161.214 194.737 160.232 193.755 160.232 192.546C160.232 191.337 161.214 190.355 162.423 190.355C163.632 190.355 164.614 191.337 164.614 192.546Z" fill="url(#paint47_linear_17)" stroke="black" stroke-width="0.4" stroke-miterlimit="10"/>
<path d="M175.191 192.546C175.191 193.755 174.209 194.737 173 194.737C171.791 194.737 170.809 193.755 170.809 192.546C170.809 191.337 171.791 190.355 173 190.355C174.209 190.355 175.191 191.337 175.191 192.546Z" fill="url(#paint48_linear_17)" stroke="black" stroke-width="0.4" stroke-miterlimit="10"/>
<path d="M185.779 192.546C185.779 193.755 184.797 194.737 183.588 194.737C182.379 194.737 181.397 193.755 181.397 192.546C181.397 191.337 182.379 190.355 183.588 190.355C184.797 190.355 185.779 191.337 185.779 192.546Z" fill="url(#paint49_linear_17)" stroke="black" stroke-width="0.4" stroke-miterlimit="10"/>
<path d="M196.357 192.546C196.357 193.755 195.375 194.737 194.166 194.737C192.957 194.737 191.975 193.755 191.975 192.546C191.975 191.337 192.957 190.355 194.166 190.355C195.375 190.355 196.357 191.337 196.357 192.546Z" fill="url(#paint50_linear_17)" stroke="black" stroke-width="0.4" stroke-miterlimit="10"/>
<path d="M206.945 192.546C206.945 193.755 205.963 194.737 204.754 194.737C203.545 194.737 202.563 193.755 202.563 192.546C202.563 191.337 203.545 190.355 204.754 190.355C205.963 190.355 206.945 191.337 206.945 192.546Z" fill="url(#paint51_linear_17)" stroke="black" stroke-width="0.4" stroke-miterlimit="10"/>
<defs>
<linearGradient id="paint0_linear_17" x1="27.0004" y1="188.226" x2="222.904" y2="188.226" gradientUnits="userSpaceOnUse">
<stop stop-color="#E9ECEE"/>
<stop offset="1" stop-color="white"/>
</linearGradient>
<linearGradient id="paint1_linear_17" x1="124.952" y1="-8.17751" x2="124.952" y2="156.821" gradientUnits="userSpaceOnUse">
<stop stop-color="#E9ECEE"/>
<stop offset="1" stop-color="white"/>
</linearGradient>
<linearGradient id="paint2_linear_17" x1="71.371" y1="117.127" x2="196.636" y2="38.3221" gradientUnits="userSpaceOnUse">
<stop stop-color="#3885FF"/>
<stop offset="1" stop-color="#635DFF"/>
</linearGradient>
<linearGradient id="paint3_linear_17" x1="165.006" y1="139.604" x2="175.401" y2="128.409" gradientUnits="userSpaceOnUse">
<stop stop-color="#3885FF"/>
<stop offset="1" stop-color="#635DFF"/>
</linearGradient>
<linearGradient id="paint4_linear_17" x1="151.832" y1="133.978" x2="161.82" y2="133.978" gradientUnits="userSpaceOnUse">
<stop offset="0.0438" stop-color="#FF4F40"/>
<stop offset="1" stop-color="#FC44DD"/>
</linearGradient>
<linearGradient id="paint5_linear_17" x1="178.641" y1="133.978" x2="188.629" y2="133.978" gradientUnits="userSpaceOnUse">
<stop stop-color="#1BC99F"/>
<stop offset="1" stop-color="#3EC6EB"/>
</linearGradient>
<linearGradient id="paint6_linear_17" x1="59.1712" y1="156.196" x2="84.0632" y2="156.196" gradientUnits="userSpaceOnUse">
<stop stop-color="#E9ECEE"/>
<stop offset="1" stop-color="white"/>
</linearGradient>
<linearGradient id="paint7_linear_17" x1="60.4796" y1="149.891" x2="83.0192" y2="149.891" gradientUnits="userSpaceOnUse">
<stop offset="0.0438" stop-color="#FF4F40"/>
<stop offset="1" stop-color="#FC44DD"/>
</linearGradient>
<linearGradient id="paint8_linear_17" x1="102.25" y1="155.95" x2="113.464" y2="155.95" gradientUnits="userSpaceOnUse">
<stop stop-color="#E9ECEE"/>
<stop offset="1" stop-color="white"/>
</linearGradient>
<linearGradient id="paint9_linear_17" x1="103.184" y1="153.518" x2="112.531" y2="153.518" gradientUnits="userSpaceOnUse">
<stop stop-color="#1BC99F"/>
<stop offset="1" stop-color="#3EC6EB"/>
</linearGradient>
<linearGradient id="paint10_linear_17" x1="103.184" y1="150.274" x2="112.531" y2="150.274" gradientUnits="userSpaceOnUse">
<stop stop-color="#1BC99F"/>
<stop offset="1" stop-color="#3EC6EB"/>
</linearGradient>
<linearGradient id="paint11_linear_17" x1="117.294" y1="155.95" x2="128.507" y2="155.95" gradientUnits="userSpaceOnUse">
<stop stop-color="#E9ECEE"/>
<stop offset="1" stop-color="white"/>
</linearGradient>
<linearGradient id="paint12_linear_17" x1="118.227" y1="153.518" x2="127.574" y2="153.518" gradientUnits="userSpaceOnUse">
<stop stop-color="#1BC99F"/>
<stop offset="1" stop-color="#3EC6EB"/>
</linearGradient>
<linearGradient id="paint13_linear_17" x1="118.227" y1="150.274" x2="127.574" y2="150.274" gradientUnits="userSpaceOnUse">
<stop stop-color="#1BC99F"/>
<stop offset="1" stop-color="#3EC6EB"/>
</linearGradient>
<linearGradient id="paint14_linear_17" x1="118.227" y1="163.371" x2="127.574" y2="163.371" gradientUnits="userSpaceOnUse">
<stop stop-color="#1BC99F"/>
<stop offset="1" stop-color="#3EC6EB"/>
</linearGradient>
<linearGradient id="paint15_linear_17" x1="118.227" y1="160.127" x2="127.574" y2="160.127" gradientUnits="userSpaceOnUse">
<stop stop-color="#1BC99F"/>
<stop offset="1" stop-color="#3EC6EB"/>
</linearGradient>
<linearGradient id="paint16_linear_17" x1="103.184" y1="163.371" x2="112.531" y2="163.371" gradientUnits="userSpaceOnUse">
<stop stop-color="#1BC99F"/>
<stop offset="1" stop-color="#3EC6EB"/>
</linearGradient>
<linearGradient id="paint17_linear_17" x1="103.184" y1="160.127" x2="112.531" y2="160.127" gradientUnits="userSpaceOnUse">
<stop stop-color="#1BC99F"/>
<stop offset="1" stop-color="#3EC6EB"/>
</linearGradient>
<linearGradient id="paint18_linear_17" x1="133.432" y1="161.453" x2="207.813" y2="161.453" gradientUnits="userSpaceOnUse">
<stop stop-color="#E9ECEE"/>
<stop offset="1" stop-color="white"/>
</linearGradient>
<linearGradient id="paint19_linear_17" x1="62.9854" y1="134.727" x2="93.174" y2="134.727" gradientUnits="userSpaceOnUse">
<stop stop-color="#E8EBED"/>
<stop offset="0.1897" stop-color="#ECEFF0"/>
<stop offset="1" stop-color="white"/>
</linearGradient>
<linearGradient id="paint20_linear_17" x1="45.7503" y1="215.486" x2="45.7503" y2="186.098" gradientUnits="userSpaceOnUse">
<stop stop-color="#FF44DD"/>
<stop offset="1" stop-color="#EBCA40"/>
</linearGradient>
<linearGradient id="paint21_linear_17" x1="77.4881" y1="220.584" x2="77.4881" y2="185.18" gradientUnits="userSpaceOnUse">
<stop stop-color="#FF44DD"/>
<stop offset="1" stop-color="#EBCA40"/>
</linearGradient>
<linearGradient id="paint22_linear_17" x1="103.33" y1="85.8326" x2="146.574" y2="85.8326" gradientUnits="userSpaceOnUse">
<stop stop-color="#E9ECEE"/>
<stop offset="1" stop-color="white"/>
</linearGradient>
<linearGradient id="paint23_linear_17" x1="133.575" y1="183.494" x2="219.153" y2="183.494" gradientUnits="userSpaceOnUse">
<stop stop-color="#E9ECEE"/>
<stop offset="1" stop-color="white"/>
</linearGradient>
<linearGradient id="paint24_linear_17" x1="133.575" y1="183.494" x2="219.153" y2="183.494" gradientUnits="userSpaceOnUse">
<stop stop-color="#3885FF"/>
<stop offset="1" stop-color="#635DFF"/>
</linearGradient>
<linearGradient id="paint25_linear_17" x1="133.582" y1="183.494" x2="219.16" y2="183.494" gradientUnits="userSpaceOnUse">
<stop stop-color="#E9ECEE"/>
<stop offset="1" stop-color="white"/>
</linearGradient>
<linearGradient id="paint26_linear_17" x1="133.576" y1="183.494" x2="219.153" y2="183.494" gradientUnits="userSpaceOnUse">
<stop stop-color="#E9ECEE"/>
<stop offset="1" stop-color="white"/>
</linearGradient>
<linearGradient id="paint27_linear_17" x1="133.576" y1="183.494" x2="219.153" y2="183.494" gradientUnits="userSpaceOnUse">
<stop stop-color="#E9ECEE"/>
<stop offset="1" stop-color="white"/>
</linearGradient>
<linearGradient id="paint28_linear_17" x1="133.576" y1="183.494" x2="219.153" y2="183.494" gradientUnits="userSpaceOnUse">
<stop stop-color="#E9ECEE"/>
<stop offset="1" stop-color="white"/>
</linearGradient>
<linearGradient id="paint29_linear_17" x1="133.576" y1="183.494" x2="219.153" y2="183.494" gradientUnits="userSpaceOnUse">
<stop stop-color="#E9ECEE"/>
<stop offset="1" stop-color="white"/>
</linearGradient>
<linearGradient id="paint30_linear_17" x1="133.576" y1="183.494" x2="219.153" y2="183.494" gradientUnits="userSpaceOnUse">
<stop stop-color="#E9ECEE"/>
<stop offset="1" stop-color="white"/>
</linearGradient>
<linearGradient id="paint31_linear_17" x1="133.575" y1="192.548" x2="219.153" y2="192.548" gradientUnits="userSpaceOnUse">
<stop stop-color="#E9ECEE"/>
<stop offset="1" stop-color="white"/>
</linearGradient>
<linearGradient id="paint32_linear_17" x1="133.582" y1="192.548" x2="219.16" y2="192.548" gradientUnits="userSpaceOnUse">
<stop stop-color="#E9ECEE"/>
<stop offset="1" stop-color="white"/>
</linearGradient>
<linearGradient id="paint33_linear_17" x1="133.576" y1="192.548" x2="219.153" y2="192.548" gradientUnits="userSpaceOnUse">
<stop stop-color="#E9ECEE"/>
<stop offset="1" stop-color="white"/>
</linearGradient>
<linearGradient id="paint34_linear_17" x1="133.576" y1="192.548" x2="219.153" y2="192.548" gradientUnits="userSpaceOnUse">
<stop stop-color="#E9ECEE"/>
<stop offset="1" stop-color="white"/>
</linearGradient>
<linearGradient id="paint35_linear_17" x1="133.576" y1="192.548" x2="219.153" y2="192.548" gradientUnits="userSpaceOnUse">
<stop stop-color="#E9ECEE"/>
<stop offset="1" stop-color="white"/>
</linearGradient>
<linearGradient id="paint36_linear_17" x1="133.576" y1="192.548" x2="219.153" y2="192.548" gradientUnits="userSpaceOnUse">
<stop stop-color="#E9ECEE"/>
<stop offset="1" stop-color="white"/>
</linearGradient>
<linearGradient id="paint37_linear_17" x1="133.576" y1="192.548" x2="219.153" y2="192.548" gradientUnits="userSpaceOnUse">
<stop stop-color="#E9ECEE"/>
<stop offset="1" stop-color="white"/>
</linearGradient>
<linearGradient id="paint38_linear_17" x1="185.192" y1="70.0882" x2="214.87" y2="70.0882" gradientUnits="userSpaceOnUse">
<stop offset="0.0438" stop-color="#FF4F40"/>
<stop offset="1" stop-color="#FC44DD"/>
</linearGradient>
<linearGradient id="paint39_linear_17" x1="133.575" y1="183.494" x2="219.153" y2="183.494" gradientUnits="userSpaceOnUse">
<stop stop-color="#3885FF"/>
<stop offset="1" stop-color="#635DFF"/>
</linearGradient>
<linearGradient id="paint40_linear_17" x1="133.575" y1="183.494" x2="219.153" y2="183.494" gradientUnits="userSpaceOnUse">
<stop stop-color="#3885FF"/>
<stop offset="1" stop-color="#635DFF"/>
</linearGradient>
<linearGradient id="paint41_linear_17" x1="133.576" y1="183.494" x2="219.153" y2="183.494" gradientUnits="userSpaceOnUse">
<stop stop-color="#3885FF"/>
<stop offset="1" stop-color="#635DFF"/>
</linearGradient>
<linearGradient id="paint42_linear_17" x1="133.576" y1="183.494" x2="219.153" y2="183.494" gradientUnits="userSpaceOnUse">
<stop stop-color="#3885FF"/>
<stop offset="1" stop-color="#635DFF"/>
</linearGradient>
<linearGradient id="paint43_linear_17" x1="133.577" y1="183.494" x2="219.153" y2="183.494" gradientUnits="userSpaceOnUse">
<stop stop-color="#3885FF"/>
<stop offset="1" stop-color="#635DFF"/>
</linearGradient>
<linearGradient id="paint44_linear_17" x1="133.575" y1="183.494" x2="219.153" y2="183.494" gradientUnits="userSpaceOnUse">
<stop stop-color="#3885FF"/>
<stop offset="1" stop-color="#635DFF"/>
</linearGradient>
<linearGradient id="paint45_linear_17" x1="133.575" y1="192.548" x2="219.153" y2="192.548" gradientUnits="userSpaceOnUse">
<stop stop-color="#3885FF"/>
<stop offset="1" stop-color="#635DFF"/>
</linearGradient>
<linearGradient id="paint46_linear_17" x1="133.575" y1="192.548" x2="219.153" y2="192.548" gradientUnits="userSpaceOnUse">
<stop stop-color="#3885FF"/>
<stop offset="1" stop-color="#635DFF"/>
</linearGradient>
<linearGradient id="paint47_linear_17" x1="133.575" y1="192.548" x2="219.153" y2="192.548" gradientUnits="userSpaceOnUse">
<stop stop-color="#3885FF"/>
<stop offset="1" stop-color="#635DFF"/>
</linearGradient>
<linearGradient id="paint48_linear_17" x1="133.576" y1="192.548" x2="219.153" y2="192.548" gradientUnits="userSpaceOnUse">
<stop stop-color="#3885FF"/>
<stop offset="1" stop-color="#635DFF"/>
</linearGradient>
<linearGradient id="paint49_linear_17" x1="133.576" y1="192.548" x2="219.153" y2="192.548" gradientUnits="userSpaceOnUse">
<stop stop-color="#3885FF"/>
<stop offset="1" stop-color="#635DFF"/>
</linearGradient>
<linearGradient id="paint50_linear_17" x1="133.577" y1="192.548" x2="219.153" y2="192.548" gradientUnits="userSpaceOnUse">
<stop stop-color="#3885FF"/>
<stop offset="1" stop-color="#635DFF"/>
</linearGradient>
<linearGradient id="paint51_linear_17" x1="133.575" y1="192.548" x2="219.153" y2="192.548" gradientUnits="userSpaceOnUse">
<stop stop-color="#3885FF"/>
<stop offset="1" stop-color="#635DFF"/>
</linearGradient>
</defs>
</svg>
