<svg width="189" height="189" viewBox="0 0 189 189" fill="none" xmlns="http://www.w3.org/2000/svg">
<rect x="0.144043" y="0.579544" width="187.963" height="187.963" rx="36" fill="#DADFE8"/>
<path d="M127.964 51.0188H60.2854C51.4872 51.0188 44.3547 58.1513 44.3547 66.9495V122.176C44.3547 130.974 51.4872 138.107 60.2854 138.107H127.964C136.763 138.107 143.895 130.974 143.895 122.176V66.9495C143.895 58.1513 136.763 51.0188 127.964 51.0188Z" fill="black"/>
<path fill-rule="evenodd" clip-rule="evenodd" d="M59.3284 68.836C60.1594 68.836 60.9562 68.5059 61.5438 67.9183C62.1314 67.3308 62.4614 66.5339 62.4614 65.7029C62.4614 64.872 62.1314 64.075 61.5438 63.4875C60.9562 62.8999 60.1594 62.5698 59.3284 62.5698C58.5849 62.5671 57.863 62.8203 57.284 63.2868C56.9102 63.5684 56.6074 63.9336 56.4 64.3531C56.1925 64.7726 56.0861 65.2349 56.0892 65.7029C56.0961 66.1214 56.1854 66.5343 56.3519 66.9182C56.5185 67.3021 56.759 67.6495 57.0598 67.9404C57.3606 68.2314 57.7158 68.4602 58.105 68.6139C58.4943 68.7675 58.91 68.843 59.3284 68.836Z" fill="#FF4C6F"/>
<path d="M70.3474 68.8359C72.1364 68.8359 73.5866 67.4332 73.5866 65.7029C73.5866 63.9725 72.1364 62.5698 70.3474 62.5698C68.5584 62.5698 67.1082 63.9725 67.1082 65.7029C67.1082 67.4332 68.5584 68.8359 70.3474 68.8359Z" fill="#CCD2DC"/>
<path fill-rule="evenodd" clip-rule="evenodd" d="M81.3667 68.8363C81.9814 68.8155 82.5764 68.6142 83.0774 68.2575C83.5785 67.9008 83.9635 67.4045 84.1844 66.8305C84.4053 66.2565 84.4524 65.6301 84.3198 65.0296C84.1872 64.429 83.8807 63.8807 83.4386 63.4531C82.9966 63.0255 82.4384 62.7374 81.8337 62.6249C81.229 62.5124 80.6046 62.5803 80.0382 62.8203C79.4719 63.0602 78.9888 63.4615 78.649 63.9742C78.3092 64.4868 78.1278 65.0882 78.1274 65.7033C78.1344 66.1217 78.2236 66.5346 78.3902 66.9186C78.5567 67.3025 78.7972 67.6499 79.098 67.9408C79.3988 68.2317 79.754 68.4606 80.1433 68.6142C80.5325 68.7679 80.9483 68.8434 81.3667 68.8363Z" fill="#CCD2DC"/>
<path d="M91.0058 126.559L126.85 126.559C129.783 126.559 132.16 124.182 132.16 121.249L132.16 105.425C132.16 102.492 129.783 100.114 126.85 100.114L91.0058 100.114C88.0731 100.114 85.6956 102.492 85.6956 105.425L85.6956 121.249C85.6956 124.182 88.0731 126.559 91.0058 126.559Z" fill="#CCD2DC"/>
<path d="M61.4012 126.559L74.9688 126.559C77.9016 126.559 80.2791 124.182 80.2791 121.249L80.2791 105.425C80.2791 102.492 77.9016 100.114 74.9688 100.114L61.4012 100.114C58.4684 100.114 56.0909 102.492 56.0909 105.425L56.0909 121.249C56.0909 124.182 58.4684 126.559 61.4012 126.559Z" fill="#CCD2DC"/>
<path d="M126.849 78.3689L61.4003 78.3689C58.4676 78.3689 56.0901 80.7464 56.0901 83.6792L56.0901 89.4142C56.0901 92.347 58.4676 94.7245 61.4003 94.7245L126.849 94.7245C129.782 94.7245 132.159 92.347 132.159 89.4142L132.159 83.6792C132.159 80.7464 129.782 78.3689 126.849 78.3689Z" fill="url(#paint0_linear_708_698)"/>
<defs>
<linearGradient id="paint0_linear_708_698" x1="56.0865" y1="86.5464" x2="132.155" y2="86.5464" gradientUnits="userSpaceOnUse">
<stop stop-color="#FF4F40"/>
<stop offset="1" stop-color="#FF44DD"/>
</linearGradient>
</defs>
</svg>
