<svg width="41" height="40" viewBox="0 0 41 40" fill="none" xmlns="http://www.w3.org/2000/svg">
<rect x="0.5" width="40" height="40" rx="2" fill="#1F1F1F" style="fill:#1F1F1F;fill:color(display-p3 0.1216 0.1216 0.1216);fill-opacity:1;"/>
<path d="M32.5 16.77H30.032V24.335H28.607V16.77H26.145V15.53H32.5V16.77ZM25.648 24.335H20.827V15.53H25.457V16.77H22.252V19.264H25.205V20.498H22.252V23.102H25.648V24.335ZM18.94 24.335H17.382L13.28 17.863C13.1774 17.7019 13.091 17.5311 13.022 17.353H12.986C13.018 17.542 13.034 17.945 13.034 18.563V24.335H11.657V15.53H13.316L17.281 21.85C17.448 22.111 17.556 22.292 17.604 22.39H17.628C17.588 22.157 17.568 21.761 17.568 21.205V15.529H18.94V24.335ZM10.237 23.642C10.237 23.7509 10.2145 23.8588 10.1708 23.9595C10.1271 24.0601 10.0631 24.1515 9.98242 24.2285C9.90171 24.3055 9.8059 24.3666 9.70048 24.4082C9.59505 24.4498 9.48207 24.4711 9.368 24.471C9.25393 24.471 9.14097 24.4495 9.03559 24.4078C8.93021 24.3661 8.83448 24.3049 8.75386 24.2278C8.67325 24.1507 8.60933 24.0592 8.56577 23.9585C8.52221 23.8578 8.49986 23.7499 8.5 23.641C8.50028 23.4213 8.59185 23.2107 8.7546 23.0554C8.91735 22.9002 9.13797 22.813 9.368 22.813C9.48207 22.8129 9.59505 22.8342 9.70048 22.8758C9.8059 22.9174 9.90171 22.9785 9.98242 23.0555C10.0631 23.1325 10.1271 23.2239 10.1708 23.3245C10.2145 23.4252 10.237 23.533 10.237 23.642Z" fill="#F4F4F4" style="fill:#F4F4F4;fill:color(display-p3 0.9569 0.9569 0.9569);fill-opacity:1;"/>
</svg>
