<svg width="32" height="32" viewBox="0 0 32 32" fill="none" xmlns="http://www.w3.org/2000/svg">
<rect x="2" y="2" width="28" height="28" rx="6" fill="#B2C5FB" stroke="#344AC5" stroke-width="1.77778"/>
<path d="M12.3715 11.3716C12.7186 11.0244 13.2821 11.0244 13.6293 11.3716C13.976 11.7187 13.9763 12.2824 13.6293 12.6294L10.2582 16.0005L13.6293 19.3716C13.976 19.7187 13.9763 20.2824 13.6293 20.6294C13.2823 20.9764 12.7186 20.9761 12.3715 20.6294L8.37146 16.6294C8.02433 16.2823 8.02433 15.7187 8.37146 15.3716L12.3715 11.3716ZM18.3715 11.3716C18.7186 11.0244 19.2821 11.0244 19.6293 11.3716L23.6293 15.3716C23.976 15.7187 23.9763 16.2824 23.6293 16.6294L19.6293 20.6294C19.2823 20.9764 18.7186 20.9761 18.3715 20.6294C18.0243 20.2823 18.0243 19.7187 18.3715 19.3716L21.7426 16.0005L18.3715 12.6294C18.0243 12.2823 18.0243 11.7187 18.3715 11.3716Z" fill="#344AC5"/>
</svg>
