<svg width="40" height="40" viewBox="0 0 40 40" fill="none" xmlns="http://www.w3.org/2000/svg">
<path d="M20.2488 11.6455C18.6971 11.6455 16.2959 9.88097 13.767 9.94317C10.4278 9.98737 7.36698 11.8795 5.64667 14.8766C2.18151 20.8919 4.75296 29.7766 8.13301 34.6658C9.79112 37.0458 11.7471 39.7236 14.3399 39.6401C16.8278 39.5337 17.7608 38.0246 20.7808 38.0246C23.7778 38.0246 24.6273 39.6401 27.2626 39.5763C29.9421 39.5337 31.6428 37.1538 33.2796 34.7509C35.1718 31.988 35.9574 29.3085 36 29.1612C35.9362 29.1399 30.7916 27.1626 30.7294 21.2111C30.6869 16.2351 34.7887 13.8552 34.9803 13.7488C32.6412 10.3278 29.05 9.94481 27.7946 9.85969C24.5209 9.60435 21.7792 11.6455 20.2488 11.6455ZM25.778 6.62696C27.1579 4.97049 28.0696 2.65438 27.8159 0.35791C25.8402 0.443025 23.4586 1.67556 22.0346 3.33366C20.7579 4.80026 19.6546 7.16057 19.9509 9.41284C22.141 9.58307 24.3949 8.2867 25.7764 6.6286" fill="#1F1F1F" style="fill:#1F1F1F;fill:color(display-p3 0.1216 0.1216 0.1216);fill-opacity:1;"/>
</svg>
