<svg width="41" height="40" viewBox="0 0 41 40" fill="none" xmlns="http://www.w3.org/2000/svg">
<g clip-path="url(#clip0_2097_19271)">
<path d="M15.161 31.1185C15.161 31.1185 13.6076 32.0225 16.268 32.3275C19.4915 32.6957 21.1387 32.6429 24.6901 31.9716C24.6901 31.9716 25.6256 32.5566 26.9297 33.0636C18.9658 36.4755 8.90661 32.8658 15.161 31.1185ZM14.1873 26.6655C14.1873 26.6655 12.4446 27.9556 15.1072 28.2313C18.5507 28.5868 21.2694 28.6159 25.9763 27.7099C25.9763 27.7099 26.6257 28.3698 27.6486 28.7302C18.0218 31.5457 7.29942 28.9518 14.1873 26.6655Z" fill="#1F1F1F" style="fill:#1F1F1F;fill:color(display-p3 0.1216 0.1216 0.1216);fill-opacity:1;"/>
<path d="M22.3905 19.1108C24.3539 21.3707 21.8756 23.4025 21.8756 23.4025C21.8756 23.4025 26.8578 20.8311 24.5703 17.6095C22.4329 14.6067 20.7944 13.1151 29.6652 7.97034C29.6652 7.97066 15.7405 11.4474 22.3905 19.1108Z" fill="#1F1F1F" style="fill:#1F1F1F;fill:color(display-p3 0.1216 0.1216 0.1216);fill-opacity:1;"/>
<path d="M32.923 34.4134C32.923 34.4134 34.073 35.3616 31.6561 36.0945C27.0607 37.4866 12.5256 37.9064 8.48876 36.1502C7.03832 35.5187 9.75932 34.6431 10.6154 34.4583C11.5079 34.2651 12.0176 34.3003 12.0176 34.3003C10.4036 33.164 1.58556 36.5325 7.53918 37.4987C23.7743 40.1304 37.1336 36.3135 32.923 34.4134ZM15.9091 22.0515C15.9091 22.0515 8.51646 23.8077 13.2914 24.446C15.3079 24.7158 19.3258 24.6539 23.0711 24.3398C26.131 24.0827 29.2016 23.5336 29.2016 23.5336C29.2016 23.5336 28.1236 23.996 27.3429 24.5285C19.8342 26.5036 5.3324 25.5836 9.50775 23.5646C13.0376 21.8573 15.9091 22.0515 15.9091 22.0515ZM29.171 29.4641C36.8032 25.4992 33.274 21.6889 30.8108 22.2021C30.2086 22.3276 29.9384 22.4367 29.9384 22.4367C29.9384 22.4367 30.1626 22.0851 30.5901 21.9339C35.4629 20.2215 39.2097 26.9858 29.0185 29.6651C29.0185 29.6645 29.1355 29.5586 29.171 29.4641Z" fill="#1F1F1F" style="fill:#1F1F1F;fill:color(display-p3 0.1216 0.1216 0.1216);fill-opacity:1;"/>
<path d="M24.5708 -0.338379C24.5708 -0.338379 28.7967 3.89009 20.5616 10.3902C13.9576 15.606 19.0558 18.5793 20.5594 21.9778C16.704 18.4998 13.8761 15.4376 15.773 12.5878C18.5585 8.40565 26.2754 6.37712 24.5708 -0.338379Z" fill="#1F1F1F" style="fill:#1F1F1F;fill:color(display-p3 0.1216 0.1216 0.1216);fill-opacity:1;"/>
<path d="M16.6593 40.2106C23.9835 40.6789 35.2338 39.9499 35.5 36.484C35.5 36.484 34.9881 37.7979 29.4464 38.8404C23.1943 40.0174 15.4816 39.8802 10.9087 39.1252C10.9087 39.1255 11.8456 39.9011 16.6593 40.2106Z" fill="#1F1F1F" style="fill:#1F1F1F;fill:color(display-p3 0.1216 0.1216 0.1216);fill-opacity:1;"/>
</g>
<defs>
<clipPath id="clip0_2097_19271">
<rect width="40" height="40" fill="white" style="fill:white;fill-opacity:1;" transform="translate(0.5)"/>
</clipPath>
</defs>
</svg>
