<svg width="22" height="40" viewBox="0 0 22 40" fill="none" xmlns="http://www.w3.org/2000/svg">
<path fill-rule="evenodd" clip-rule="evenodd" d="M7.44277 21.2178C7.44277 21.2178 6.41957 21.8277 8.17178 22.0335C10.2949 22.2817 11.3797 22.246 13.7187 21.7932C13.7187 21.7932 14.3348 22.1879 15.1939 22.5298C9.94893 24.8311 3.3235 22.3965 7.44277 21.2178Z" fill="white"/>
<path fill-rule="evenodd" clip-rule="evenodd" d="M6.80166 18.2144C6.80166 18.2144 5.65389 19.0846 7.4074 19.2702C9.67549 19.51 11.466 19.5297 14.566 18.9187C14.566 18.9187 14.9938 19.3637 15.6674 19.6069C9.32702 21.5062 2.26505 19.7563 6.80166 18.2144Z" fill="white"/>
<path fill-rule="evenodd" clip-rule="evenodd" d="M12.2043 13.1187C13.4974 14.643 11.8653 16.0136 11.8653 16.0136C11.8653 16.0136 15.1466 14.2792 13.64 12.1062C12.2323 10.0807 11.1531 9.07449 16.9957 5.60449C16.9957 5.60449 7.82432 7.94973 12.2043 13.1187Z" fill="white"/>
<path fill-rule="evenodd" clip-rule="evenodd" d="M19.141 23.4398C19.141 23.4398 19.8984 24.0793 18.3067 24.5738C15.28 25.5127 5.70694 25.7959 3.048 24.6114C2.09284 24.1853 3.88486 23.5948 4.4487 23.4701C5.0366 23.3398 5.37227 23.3636 5.37227 23.3636C4.30925 22.597 -1.49851 24.8692 2.42258 25.5209C13.1155 27.2959 21.9142 24.7214 19.141 23.4398Z" fill="white"/>
<path fill-rule="evenodd" clip-rule="evenodd" d="M7.93534 15.1017C7.93534 15.1017 3.0665 16.2863 6.21123 16.7169C7.53946 16.8989 10.1857 16.857 12.6523 16.6451C14.6677 16.4719 16.6902 16.1014 16.6902 16.1014C16.6902 16.1014 15.9801 16.4134 15.466 16.7727C10.5207 18.1047 0.96926 17.4843 3.71941 16.1225C6.04416 14.9707 7.93534 15.1017 7.93534 15.1017Z" fill="white"/>
<path fill-rule="evenodd" clip-rule="evenodd" d="M16.67 20.1016C21.6967 17.4273 19.3723 14.857 17.75 15.2032C17.3533 15.288 17.1753 15.3614 17.1753 15.3614C17.1753 15.3614 17.3231 15.1243 17.6046 15.0223C20.814 13.8673 23.2817 18.4299 16.5696 20.237C16.5696 20.237 16.6467 20.1653 16.67 20.1016Z" fill="white"/>
<path fill-rule="evenodd" clip-rule="evenodd" d="M13.6399 0C13.6399 0 16.4232 2.85196 10.9993 7.23624C6.64973 10.7545 10.0076 12.7598 10.9978 15.0522C8.45859 12.7062 6.59615 10.6408 7.84538 8.71873C9.67984 5.89778 14.7626 4.52964 13.6399 0Z" fill="white"/>
<path fill-rule="evenodd" clip-rule="evenodd" d="M8.42948 27.3505C13.2534 27.6664 20.6631 27.1747 20.8385 24.8369C20.8385 24.8369 20.5014 25.7232 16.8514 26.4263C12.7337 27.2203 7.65383 27.1278 4.64209 26.6186C4.64209 26.6186 5.25909 27.1415 8.42948 27.3505Z" fill="white"/>
<path fill-rule="evenodd" clip-rule="evenodd" d="M20.6157 31.5431H20.4688V31.459H20.8644V31.5431H20.7181V31.9636H20.6156V31.5431H20.6157ZM21.4057 31.5644H21.4038L21.2579 31.9635H21.1908L21.0459 31.5644H21.0444V31.9635H20.9473V31.459H21.0897L21.2238 31.8162L21.3584 31.459H21.4999V31.9635H21.4057L21.4057 31.5644Z" fill="white"/>
<path fill-rule="evenodd" clip-rule="evenodd" d="M7.63902 36.2832C7.18411 36.6871 6.70307 36.9142 6.27127 36.9142C5.65623 36.9142 5.32263 36.5357 5.32263 35.93C5.32263 35.2743 5.67981 34.7944 7.11021 34.7944H7.63902V36.2832ZM8.89477 37.734V33.2429C8.89477 32.0949 8.25549 31.3374 6.71492 31.3374C5.816 31.3374 5.02785 31.565 4.38714 31.8548L4.57151 32.6503C5.07615 32.4605 5.72871 32.2842 6.36941 32.2842C7.25707 32.2842 7.63902 32.6503 7.63902 33.4073V33.9752H7.19543C5.03923 33.9752 4.06641 34.8316 4.06641 36.1198C4.06641 37.2296 4.70758 37.8606 5.91456 37.8606C6.69021 37.8606 7.26993 37.5326 7.81107 37.0525L7.90962 37.734H8.89477Z" fill="white"/>
<path fill-rule="evenodd" clip-rule="evenodd" d="M13.0855 37.734H11.5195L9.63452 31.4521H11.0022L12.1722 35.3122L12.4324 36.472C13.023 34.7945 13.4418 33.0913 13.6513 31.4521H14.9814C14.6257 33.5206 13.984 35.7912 13.0855 37.734Z" fill="white"/>
<path fill-rule="evenodd" clip-rule="evenodd" d="M19.0943 36.2832C18.6379 36.6871 18.1568 36.9142 17.7262 36.9142C17.1109 36.9142 16.7773 36.5357 16.7773 35.93C16.7773 35.2743 17.1352 34.7944 18.5643 34.7944H19.0943V36.2832H19.0943ZM20.3505 37.734V33.2429C20.3505 32.0949 19.7094 31.3374 18.1702 31.3374C17.2701 31.3374 16.4822 31.565 15.8415 31.8548L16.0261 32.6503C16.531 32.4605 17.1844 32.2842 17.8251 32.2842C18.7117 32.2842 19.0943 32.6503 19.0943 33.4073V33.9752H18.6507C16.494 33.9752 15.5215 34.8316 15.5215 36.1198C15.5215 37.2296 16.1618 37.8606 17.3687 37.8606C18.145 37.8606 18.7236 37.5326 19.2662 37.0525L19.3654 37.734H20.3505Z" fill="white"/>
<path fill-rule="evenodd" clip-rule="evenodd" d="M2.68928 38.8012C2.3315 39.3366 1.7529 39.7607 1.12002 39.9998L0.5 39.2518C0.982114 38.9983 1.39507 38.5896 1.5872 38.209C1.7529 37.8698 1.82189 37.4338 1.82189 36.39V29.2173H3.15645V36.2911C3.15645 37.6871 3.04765 38.2515 2.68928 38.8012Z" fill="white"/>
</svg>
