<svg width="318" height="202" viewBox="0 0 318 202" fill="none" xmlns="http://www.w3.org/2000/svg">
<path d="M0.333252 16C0.333252 7.16344 7.4967 0 16.3333 0H301.667C310.503 0 317.667 7.16344 317.667 16V186C317.667 194.837 310.503 202 301.667 202H16.3333C7.49672 202 0.333252 194.837 0.333252 186V16Z" fill="#14151A"/>
<path d="M145.667 111.667V104.8C143.475 104.352 141.48 103.184 140.011 101.438C138.107 99.171 137.309 96.179 137.821 93.2243C138.512 89.2483 141.632 86.0297 145.584 85.2163C146.995 84.923 148.368 84.9417 149.699 85.219C151.517 81.9283 154.981 79.667 159 79.667C163.019 79.667 166.483 81.9283 168.301 85.2217C169.629 84.9443 171.005 84.9257 172.419 85.2163C176.373 86.0323 179.491 89.251 180.179 93.2297C180.691 96.1843 179.891 99.1737 177.987 101.438C176.517 103.184 174.525 104.355 172.333 104.8V111.667H159H145.667Z" fill="white" fill-opacity="0.32"/>
<path d="M172.333 111.667V117.667C172.333 120.243 170.243 122.333 167.667 122.333H150.333C147.757 122.333 145.667 120.243 145.667 117.667V111.667H172.333Z" fill="white"/>
<path d="M152.333 111.667H156.333V108.333C156.333 107.229 155.437 106.333 154.333 106.333C153.229 106.333 152.333 107.229 152.333 108.333V111.667Z" fill="white"/>
<path d="M161.667 108.333V111.667H165.667V108.333C165.667 107.229 164.771 106.333 163.667 106.333C162.563 106.333 161.667 107.229 161.667 108.333Z" fill="white"/>
</svg>
