<svg width="318" height="202" viewBox="0 0 318 202" fill="none" xmlns="http://www.w3.org/2000/svg">
<path d="M-0.00012207 16C-0.00012207 7.16344 7.16332 0 15.9999 0H301.333C310.17 0 317.333 7.16344 317.333 16V186C317.333 194.837 310.17 202 301.333 202H15.9999C7.16334 202 -0.00012207 194.837 -0.00012207 186V16Z" fill="#14151A"/>
<path d="M149.005 82.3716C144.769 82.3716 141.513 83.8302 139.615 84.9505C138.175 85.8003 137.336 87.3347 137.336 88.9662V113.188C137.336 116.389 140.55 118.768 143.652 117.547C145.07 116.988 146.871 116.529 148.975 116.526C152.275 116.522 154.832 117.636 156.35 118.512C157.059 118.919 157.855 119.137 158.666 119.137V85.1363C156.8 83.9988 153.409 82.3716 149.005 82.3716Z" fill="white"/>
<path d="M168.328 82.3716C172.564 82.3716 175.82 83.8302 177.718 84.9505C179.157 85.8003 179.997 87.3347 179.997 88.9662V113.188C179.997 116.389 176.783 118.768 173.681 117.547C172.263 116.988 170.462 116.529 168.358 116.526C165.059 116.522 162.497 117.638 160.98 118.514C160.271 118.921 159.478 119.137 158.667 119.137V85.1363C160.533 83.9988 163.924 82.3716 168.328 82.3716Z" fill="white" fill-opacity="0.32"/>
<path fill-rule="evenodd" clip-rule="evenodd" d="M165.221 93.5075C166.458 93.2211 167.836 93.0381 169.333 93.0381C170.83 93.0381 172.208 93.2208 173.445 93.5065C174.521 93.7551 175.192 94.829 174.943 95.9053C174.695 96.9815 173.621 97.6524 172.544 97.4038C171.579 97.1807 170.503 97.0381 169.333 97.0381C168.164 97.0381 167.088 97.1809 166.123 97.4044C165.047 97.6535 163.972 96.9831 163.723 95.907C163.474 94.8309 164.145 93.7566 165.221 93.5075Z" fill="white"/>
<path fill-rule="evenodd" clip-rule="evenodd" d="M165.221 102.84C166.458 102.554 167.836 102.371 169.333 102.371C170.83 102.371 172.208 102.554 173.445 102.839C174.521 103.088 175.192 104.162 174.943 105.238C174.695 106.315 173.621 106.985 172.544 106.737C171.579 106.514 170.503 106.371 169.333 106.371C168.164 106.371 167.088 106.514 166.123 106.737C165.047 106.987 163.972 106.316 163.723 105.24C163.474 104.164 164.145 103.09 165.221 102.84Z" fill="white"/>
</svg>
