<svg width="41" height="40" viewBox="0 0 41 40" fill="none" xmlns="http://www.w3.org/2000/svg">
<path d="M20.2499 40C19.6677 40 19.1242 39.853 18.6196 39.5957L13.4565 36.6927C12.6801 36.2885 13.0683 36.1415 13.3012 36.068C14.3493 35.7373 14.5434 35.6637 15.6303 35.0758C15.7468 35.0023 15.9021 35.039 16.0186 35.1125L19.9782 37.3541C20.1334 37.4276 20.3276 37.4276 20.4441 37.3541L35.9332 28.8654C36.0884 28.7919 36.1661 28.6449 36.1661 28.4611V11.5204C36.1661 11.3367 36.0884 11.1897 35.9332 11.1162L20.4441 2.66421C20.2888 2.59073 20.0947 2.59073 19.9782 2.66421L4.48906 11.1162C4.33379 11.1897 4.25615 11.3734 4.25615 11.5204V28.4611C4.25615 28.6081 4.33379 28.7919 4.48906 28.8654L8.72044 31.1805C11.0108 32.283 12.4471 30.9967 12.4471 29.7106V12.9904C12.4471 12.7699 12.6412 12.5494 12.913 12.5494H14.8928C15.1257 12.5494 15.3587 12.7331 15.3587 12.9904V29.7106C15.3587 32.6136 13.6894 34.3041 10.7779 34.3041C9.88503 34.3041 9.18628 34.3041 7.20646 33.3854L3.13038 31.1805C2.12106 30.6293 1.49994 29.6004 1.49994 28.4979V11.5572C1.49994 10.4548 2.12106 9.42581 3.13038 8.8746L18.6196 0.385852C19.5899 -0.128618 20.9099 -0.128618 21.8803 0.385852L37.3696 8.8746C38.3788 9.42581 38.9999 10.4548 38.9999 11.5572V28.4979C38.9999 29.6004 38.3788 30.6293 37.3696 31.1805L21.8803 39.6693C21.3757 39.8897 20.7934 40 20.2499 40ZM25.0248 28.351C18.2313 28.351 16.8338 25.4111 16.8338 22.9123C16.8338 22.6917 17.0279 22.4712 17.2997 22.4712H19.3183C19.5512 22.4712 19.7453 22.6182 19.7453 22.8387C20.0558 24.7864 20.9487 25.7419 25.0636 25.7419C28.3244 25.7419 29.7219 25.0436 29.7219 23.39C29.7219 22.4345 29.3338 21.7364 24.2484 21.2586C20.0171 20.8544 17.3773 19.9725 17.3773 16.7754C17.3773 13.7987 20.0171 12.0349 24.4424 12.0349C29.4114 12.0349 31.8571 13.6519 32.1677 17.1796C32.1677 17.2899 32.1288 17.4001 32.0512 17.5104C31.9736 17.5839 31.8571 17.6574 31.7406 17.6574H29.7219C29.5279 17.6574 29.3338 17.5104 29.2949 17.3266C28.8292 15.3055 27.6257 14.644 24.4424 14.644C20.8711 14.644 20.4441 15.8199 20.4441 16.7019C20.4441 17.7676 20.9487 18.0983 25.7623 18.6863C30.5372 19.2743 32.7888 20.1194 32.7888 23.2798C32.7499 26.5135 29.9549 28.351 25.0248 28.351Z" fill="#14151A"/>
</svg>
