<svg width="38" height="40" viewBox="0 0 38 40" fill="none" xmlns="http://www.w3.org/2000/svg">
<path d="M19.2499 40C18.6676 40 18.1241 39.853 17.6195 39.5957L12.4564 36.6927C11.68 36.2885 12.0682 36.1415 12.3011 36.068C13.3493 35.7373 13.5434 35.6637 14.6303 35.0758C14.7468 35.0023 14.902 35.039 15.0185 35.1125L18.9781 37.3541C19.1334 37.4276 19.3275 37.4276 19.444 37.3541L34.9331 28.8654C35.0884 28.7919 35.166 28.6449 35.166 28.4611V11.5204C35.166 11.3367 35.0884 11.1897 34.9331 11.1162L19.444 2.66421C19.2888 2.59073 19.0946 2.59073 18.9781 2.66421L3.489 11.1162C3.33373 11.1897 3.25609 11.3734 3.25609 11.5204V28.4611C3.25609 28.6081 3.33373 28.7919 3.489 28.8654L7.72038 31.1805C10.0108 32.283 11.4471 30.9967 11.4471 29.7106V12.9904C11.4471 12.7699 11.6412 12.5494 11.9129 12.5494H13.8928C14.1256 12.5494 14.3586 12.7331 14.3586 12.9904V29.7106C14.3586 32.6136 12.6893 34.3041 9.77783 34.3041C8.88496 34.3041 8.18622 34.3041 6.2064 33.3854L2.13032 31.1805C1.121 30.6293 0.499878 29.6004 0.499878 28.4979V11.5572C0.499878 10.4548 1.121 9.42581 2.13032 8.8746L17.6195 0.385852C18.5899 -0.128618 19.9099 -0.128618 20.8803 0.385852L36.3695 8.8746C37.3788 9.42581 37.9999 10.4548 37.9999 11.5572V28.4979C37.9999 29.6004 37.3788 30.6293 36.3695 31.1805L20.8803 39.6693C20.3756 39.8897 19.7934 40 19.2499 40ZM24.0248 28.351C17.2313 28.351 15.8338 25.4111 15.8338 22.9123C15.8338 22.6917 16.0279 22.4712 16.2996 22.4712H18.3183C18.5511 22.4712 18.7453 22.6182 18.7453 22.8387C19.0558 24.7864 19.9486 25.7419 24.0635 25.7419C27.3244 25.7419 28.7219 25.0436 28.7219 23.39C28.7219 22.4345 28.3338 21.7364 23.2484 21.2586C19.017 20.8544 16.3773 19.9725 16.3773 16.7754C16.3773 13.7987 19.017 12.0349 23.4424 12.0349C28.4114 12.0349 30.857 13.6519 31.1676 17.1796C31.1676 17.2899 31.1288 17.4001 31.0511 17.5104C30.9735 17.5839 30.857 17.6574 30.7405 17.6574H28.7219C28.5279 17.6574 28.3338 17.5104 28.2949 17.3266C27.8291 15.3055 26.6256 14.644 23.4424 14.644C19.871 14.644 19.444 15.8199 19.444 16.7019C19.444 17.7676 19.9486 18.0983 24.7623 18.6863C29.5371 19.2743 31.7888 20.1194 31.7888 23.2798C31.7499 26.5135 28.9549 28.351 24.0248 28.351Z" fill="white"/>
</svg>
