<svg width="41" height="40" viewBox="0 0 41 40" fill="none" xmlns="http://www.w3.org/2000/svg">
<g clip-path="url(#clip0_8004_1066)">
<path d="M30.4999 5C30.4999 2.23858 26.0228 0 20.4999 0C14.9771 0 10.4999 2.23858 10.4999 5V35C10.4999 37.7614 14.9771 40 20.4999 40C26.0228 40 30.4999 37.7614 30.4999 35V5Z" fill="#14151A"/>
<path d="M35.4999 10H5.49994C2.73852 10 0.499939 14.4772 0.499939 20C0.499939 25.5228 2.73852 30 5.49994 30H35.4999C38.2614 30 40.4999 25.5228 40.4999 20C40.4999 14.4772 38.2614 10 35.4999 10Z" fill="#14151A"/>
<path d="M14.9995 3.6499C15.745 3.6499 16.3499 4.25411 16.3501 4.99951C16.3501 5.7451 15.7451 6.3501 14.9995 6.3501C14.2541 6.34989 13.6499 5.74497 13.6499 4.99951C13.6501 4.25424 14.2543 3.65011 14.9995 3.6499Z" fill="white" stroke="white"/>
<path d="M25.9995 33.6499C26.745 33.6499 27.3499 34.2541 27.3501 34.9995C27.3501 35.7451 26.7451 36.3501 25.9995 36.3501C25.2541 36.3499 24.6499 35.745 24.6499 34.9995C24.6501 34.2542 25.2543 33.6501 25.9995 33.6499Z" fill="white" stroke="white"/>
<path d="M10.4999 9.5H20.4999" stroke="white"/>
<path d="M20.4999 30.5H30.4999" stroke="white"/>
<path d="M9.99994 30C9.99994 20 12.4999 20 19.9999 20C28.4999 20 30.9999 20 30.9999 10" stroke="white"/>
</g>
<defs>
<clipPath id="clip0_8004_1066">
<rect width="40" height="40" fill="white" transform="translate(0.499939)"/>
</clipPath>
</defs>
</svg>
