<svg width="41" height="26" viewBox="0 0 41 26" fill="none" xmlns="http://www.w3.org/2000/svg">
<path fill-rule="evenodd" clip-rule="evenodd" d="M29.0184 8.41469L29.089 7.30358C29.6534 7.33885 30.2354 7.4094 30.835 7.53286L30.7645 8.62633C30.1825 8.50287 29.6005 8.43233 29.0184 8.41469ZM22.7398 1.80093H22.5635C22.0519 1.80093 21.5405 1.81858 21.029 1.87148L20.6939 0.830918C21.2759 0.760371 21.8403 0.725098 22.3871 0.725098L22.7398 1.80093ZM23.8156 9.50817L23.4099 8.29124C23.8509 8.09724 24.3624 7.90322 24.9621 7.72686L25.3501 8.89088C24.8385 9.04961 24.3271 9.26125 23.8156 9.50817ZM14.6092 2.43586L15.4029 3.65279C14.9444 3.88206 14.5035 4.14661 14.0449 4.4288L13.2336 3.19424C13.7098 2.91205 14.1684 2.66513 14.6092 2.43586ZM19.865 12.8591L19.0184 11.5893C19.3359 11.1836 19.7063 10.778 20.1119 10.4076L20.9056 11.6069C20.5176 12.0126 20.1649 12.4182 19.865 12.8591ZM17.8897 18.397L16.4611 17.2683C16.6022 16.6334 16.761 15.9808 16.9903 15.3283L18.2601 16.3336C18.0837 17.0214 17.9603 17.7093 17.8897 18.397ZM7.48407 7.79741L8.73627 8.89088C8.31299 9.3318 7.90735 9.80799 7.53697 10.2842L6.17895 9.12015C6.5846 8.67924 7.02552 8.23832 7.48407 7.79741ZM1.38177 16.0337L3.41 16.7744C3.12781 17.427 2.75743 18.2913 2.52816 18.8909L0.499939 18.1501C0.676306 17.674 1.04668 16.7921 1.38177 16.0337ZM16.4082 23.9702C16.3201 23.4411 16.2318 22.6828 16.1966 21.748L18.1014 22.4358C18.2071 23.2648 18.3659 24.0408 18.5246 24.7287L16.4082 23.9702ZM15.6675 25.2754H1.7345C1.7345 25.2754 2.24597 20.0549 5.94968 13.8821C9.65337 7.70921 15.9674 3.03548 21.1172 2.57693C31.3289 1.554 40.4999 10.7074 40.4999 10.7074C40.4999 10.7074 40.2002 10.9191 39.8826 11.1836C30.2254 4.04268 24.1904 7.03117 22.0464 8.09286C21.9664 8.13248 21.8918 8.16941 21.8226 8.20304C13.0043 13.1236 15.6675 25.2754 15.6675 25.2754ZM30.835 2.38293L30.7645 3.56459C30.2002 3.33531 29.6357 3.12367 29.0537 2.92967L29.1243 1.76565C30.2354 2.08311 30.6763 2.29474 30.835 2.38293Z" fill="#14151A"/>
</svg>
