<svg width="41" height="26" viewBox="0 0 41 26" fill="none" xmlns="http://www.w3.org/2000/svg">
<path fill-rule="evenodd" clip-rule="evenodd" d="M29.0185 8.41469L29.0891 7.30358C29.6534 7.33885 30.2354 7.4094 30.8351 7.53286L30.7646 8.62633C30.1826 8.50287 29.6006 8.43233 29.0185 8.41469ZM22.7399 1.80093H22.5635C22.052 1.80093 21.5406 1.81858 21.0291 1.87148L20.694 0.830918C21.276 0.760371 21.8404 0.725098 22.3872 0.725098L22.7399 1.80093ZM23.8156 9.50817L23.41 8.29124C23.8509 8.09724 24.3625 7.90322 24.9621 7.72686L25.3501 8.89088C24.8386 9.04961 24.3272 9.26125 23.8156 9.50817ZM14.6093 2.43586L15.4029 3.65279C14.9445 3.88206 14.5035 4.14661 14.0449 4.4288L13.2336 3.19424C13.7099 2.91205 14.1685 2.66513 14.6093 2.43586ZM19.8651 12.8591L19.0185 11.5893C19.336 11.1836 19.7064 10.778 20.112 10.4076L20.9056 11.6069C20.5176 12.0126 20.1649 12.4182 19.8651 12.8591ZM17.8898 18.397L16.4612 17.2683C16.6022 16.6334 16.7611 15.9808 16.9904 15.3283L18.2601 16.3336C18.0838 17.0214 17.9604 17.7093 17.8898 18.397ZM7.48413 7.79741L8.73633 8.89088C8.31305 9.3318 7.90741 9.80799 7.53704 10.2842L6.17901 9.12015C6.58466 8.67924 7.02558 8.23832 7.48413 7.79741ZM1.38183 16.0337L3.41006 16.7744C3.12787 17.427 2.75749 18.2913 2.52822 18.8909L0.5 18.1501C0.676367 17.674 1.04674 16.7921 1.38183 16.0337ZM16.4082 23.9702C16.3201 23.4411 16.2319 22.6828 16.1967 21.748L18.1014 22.4358C18.2072 23.2648 18.366 24.0408 18.5247 24.7287L16.4082 23.9702ZM15.6675 25.2754H1.73456C1.73456 25.2754 2.24604 20.0549 5.94974 13.8821C9.65344 7.70921 15.9674 3.03548 21.1173 2.57693C31.3289 1.554 40.5 10.7074 40.5 10.7074C40.5 10.7074 40.2002 10.9191 39.8827 11.1836C30.2254 4.04268 24.1905 7.03117 22.0465 8.09286C21.9665 8.13248 21.8919 8.16941 21.8227 8.20304C13.0044 13.1236 15.6675 25.2754 15.6675 25.2754ZM30.8351 2.38293L30.7646 3.56459C30.2002 3.33531 29.6358 3.12367 29.0538 2.92967L29.1244 1.76565C30.2354 2.08311 30.6764 2.29474 30.8351 2.38293Z" fill="white"/>
</svg>
