<svg width="41" height="40" viewBox="0 0 41 40" fill="none" xmlns="http://www.w3.org/2000/svg">
<path d="M7.52958 28.1843C5.85865 28.1852 4.50091 26.8257 4.5006 25.155L4.5 15.8804C4.4994 14.2113 5.85684 12.852 7.52566 12.8517C8.33699 12.8511 9.09673 13.1658 9.66939 13.7379C10.2421 14.31 10.5571 15.0709 10.5577 15.8798L10.5568 25.1547C10.5589 25.5524 10.4817 25.9464 10.3299 26.3139C10.1781 26.6814 9.95455 27.015 9.67241 27.2952C9.39196 27.5779 9.0581 27.8022 8.69024 27.9548C8.32238 28.1075 7.92786 28.1855 7.52958 28.1843ZM7.52717 13.6655C6.30429 13.6649 5.31314 14.6585 5.31284 15.8804L5.31435 25.1541C5.31427 25.7418 5.54753 26.3054 5.96287 26.7212C6.37821 27.1369 6.94163 27.3707 7.52928 27.3712C7.82029 27.3712 8.10845 27.3139 8.37728 27.2025C8.64611 27.0911 8.89034 26.9277 9.096 26.7219C9.30166 26.516 9.46471 26.2716 9.57584 26.0026C9.68696 25.7337 9.74397 25.4454 9.74362 25.1544V15.8792C9.74298 15.2918 9.50917 14.7287 9.09356 14.3136C8.67796 13.8985 8.11456 13.6654 7.52717 13.6655Z" fill="#191919" style="fill:#191919;fill:color(display-p3 0.0980 0.0980 0.0980);fill-opacity:1;"/>
<path d="M31.2843 14.1246L30.4703 14.1243L10.5208 14.127L9.70642 14.1273L9.70581 13.313C9.704 9.96988 11.5252 6.86064 14.5083 5.02376L13.3485 2.90658C13.2067 2.65857 13.1711 2.34448 13.2538 2.05724C13.2957 1.91398 13.3656 1.78048 13.4596 1.6645C13.5535 1.54853 13.6696 1.45239 13.8011 1.38168C13.9636 1.2922 14.1463 1.24577 14.3318 1.24681C14.7427 1.24681 15.119 1.46979 15.3175 1.83004L16.5314 4.04136C17.7974 3.57802 19.1355 3.34256 20.4836 3.34589C21.8733 3.34529 23.206 3.58033 24.4675 4.04317L25.6795 1.82823C25.7761 1.65152 25.9185 1.50411 26.0917 1.40152C26.265 1.29894 26.4627 1.24497 26.6641 1.24531C26.8494 1.24472 27.0319 1.29013 27.1954 1.37746C27.3271 1.44814 27.4432 1.5445 27.537 1.66084C27.6308 1.77719 27.7004 1.91115 27.7415 2.05482C27.783 2.1965 27.7958 2.345 27.7794 2.4917C27.7629 2.63839 27.7174 2.78034 27.6456 2.9093L26.4863 5.02527C29.4646 6.86607 31.2837 9.9729 31.2834 13.3102L31.2843 14.1246ZM25.3869 5.33725L26.9326 2.51465C26.9547 2.47919 26.9693 2.4396 26.9755 2.39831C26.9818 2.35702 26.9796 2.31488 26.969 2.27447C26.9585 2.23406 26.9398 2.19622 26.9141 2.16327C26.8885 2.13032 26.8564 2.10294 26.8198 2.0828C26.7832 2.06267 26.7429 2.0502 26.7013 2.04616C26.6597 2.04213 26.6178 2.0466 26.578 2.05931C26.5382 2.07203 26.5014 2.09271 26.4699 2.12011C26.4384 2.1475 26.4128 2.18104 26.3946 2.21866L24.8329 5.06993C23.5192 4.4864 22.0483 4.15843 20.4936 4.15993C18.9421 4.15843 17.4739 4.48519 16.1642 5.06661L14.6009 2.22168C14.5819 2.18612 14.5559 2.15471 14.5246 2.12928C14.4933 2.10385 14.4572 2.08489 14.4185 2.07352C14.3798 2.06215 14.3392 2.05859 14.2991 2.06305C14.259 2.0675 14.2201 2.07989 14.1849 2.09948C14.0349 2.17974 13.9797 2.36831 14.0633 2.51555L15.6096 5.33604C12.5713 6.90318 10.5183 9.88721 10.5202 13.3133L30.4694 13.3108C30.4703 9.886 28.421 6.90801 25.3869 5.33725ZM15.9563 9.69924C15.7344 9.69912 15.5217 9.61087 15.3649 9.45391C15.2081 9.29694 15.1201 9.08412 15.1202 8.86226C15.1203 8.6404 15.2086 8.42768 15.3655 8.27088C15.5225 8.11409 15.7353 8.02607 15.9572 8.02619C16.1791 8.02659 16.3917 8.11489 16.5487 8.27176C16.7056 8.42863 16.794 8.64128 16.7945 8.86317C16.7941 9.08517 16.7057 9.29797 16.5485 9.45475C16.3913 9.61154 16.1783 9.69948 15.9563 9.69924ZM25.0402 9.69743C24.9303 9.69763 24.8215 9.67614 24.72 9.6342C24.6184 9.59225 24.5262 9.53068 24.4485 9.45301C24.3708 9.37534 24.3092 9.28309 24.2672 9.18156C24.2252 9.08004 24.2037 8.97122 24.2038 8.86136C24.2046 8.63956 24.293 8.42706 24.4497 8.27008C24.6064 8.11311 24.8187 8.02437 25.0405 8.02317C25.262 8.025 25.4738 8.11404 25.6301 8.27099C25.7864 8.42795 25.8745 8.64017 25.8754 8.86166C25.8754 8.97137 25.8538 9.08002 25.8119 9.1814C25.7699 9.28278 25.7084 9.3749 25.6309 9.45251C25.5533 9.53012 25.4612 9.59169 25.3599 9.63372C25.2585 9.67574 25.1499 9.69739 25.0402 9.69743ZM16.7923 38.7547C15.1229 38.7544 13.7643 37.3967 13.764 35.726L13.7634 31.6326L12.9674 31.6335C12.5499 31.6349 12.1363 31.5535 11.7506 31.3938C11.3648 31.2342 11.0146 30.9996 10.7202 30.7036C10.4238 30.4092 10.1889 30.0588 10.0292 29.6728C9.86946 29.2868 9.78816 28.8729 9.78999 28.4551L9.78697 14.0851V13.2701H10.6013L30.4012 13.2671L31.2158 13.2665V14.0808L31.2179 28.4527C31.2182 30.2054 29.7923 31.6317 28.0402 31.6314L27.2394 31.632L27.2404 35.7239C27.2404 37.3936 25.882 38.7529 24.2132 38.7529C23.8153 38.7548 23.4209 38.6774 23.0532 38.5252C22.6855 38.3731 22.3518 38.1492 22.0716 37.8667C21.7889 37.5866 21.5647 37.2531 21.412 36.8855C21.2594 36.5179 21.1813 36.1237 21.1824 35.7257V31.632H19.8213V35.7248C19.8207 37.3948 18.4627 38.755 16.7923 38.7547Z" fill="#191919" style="fill:#191919;fill:color(display-p3 0.0980 0.0980 0.0980);fill-opacity:1;"/>
<path d="M10.6052 28.4544C10.6045 28.7649 10.6651 29.0726 10.7836 29.3596C10.9021 29.6467 11.0761 29.9076 11.2956 30.1273C11.5151 30.3469 11.7758 30.5211 12.0628 30.6398C12.3498 30.7585 12.6574 30.8194 12.968 30.819H14.577L14.5789 35.7262C14.5786 36.9481 15.5712 37.9411 16.792 37.9414C17.0829 37.9412 17.371 37.8838 17.6398 37.7723C17.9085 37.6608 18.1527 37.4974 18.3583 37.2915C18.5639 37.0856 18.7269 36.8413 18.838 36.5724C18.9492 36.3035 19.0063 36.0153 19.006 35.7244L19.0063 30.8187L21.9961 30.8178L21.9958 35.7247C21.997 36.9469 22.9908 37.9411 24.2113 37.9387C25.4351 37.9396 26.4272 36.9454 26.4269 35.7228L26.4253 30.8172L28.0405 30.8169C29.3436 30.8172 30.4035 29.7584 30.4035 28.4523L30.4008 14.0798L10.6016 14.0834L10.6052 28.4544ZM33.473 28.1798C31.8026 28.1801 30.444 26.8227 30.4443 25.1517L30.4419 15.8774C30.4425 14.2068 31.799 12.8478 33.4684 12.8478C35.14 12.8475 36.4995 14.2062 36.4992 15.8765L36.5001 25.1502C36.5004 26.82 35.143 28.1801 33.473 28.1798ZM33.4699 13.6622C32.2471 13.661 31.2562 14.6539 31.2562 15.8774L31.2571 25.1514C31.257 25.4424 31.3141 25.7305 31.4254 25.9993C31.5367 26.2681 31.6999 26.5123 31.9056 26.718C32.1114 26.9237 32.3556 27.0868 32.6245 27.198C32.8933 27.3092 33.1814 27.3663 33.4723 27.3661C33.7632 27.3661 34.0513 27.3088 34.32 27.1974C34.5887 27.086 34.8328 26.9228 35.0384 26.7171C35.244 26.5113 35.4071 26.2671 35.5183 25.9983C35.6295 25.7295 35.6866 25.4414 35.6864 25.1505L35.684 15.8768C35.6842 15.586 35.627 15.298 35.5158 15.0292C35.4047 14.7605 35.2416 14.5163 35.036 14.3106C34.8303 14.1049 34.5862 13.9418 34.3175 13.8305C34.0488 13.7193 33.7608 13.6621 33.4699 13.6622Z" fill="#191919" style="fill:#191919;fill:color(display-p3 0.0980 0.0980 0.0980);fill-opacity:1;"/>
<path d="M7.52757 13.6654C6.30469 13.6648 5.31353 14.6584 5.31323 15.8804L5.31474 25.1541C5.31454 25.445 5.3717 25.7332 5.48296 26.0021C5.59421 26.2709 5.75737 26.5153 5.96311 26.721C6.16885 26.9268 6.41313 27.09 6.68199 27.2013C6.95084 27.3126 7.239 27.3698 7.52998 27.3696C7.82092 27.3699 8.10907 27.3128 8.37791 27.2016C8.64675 27.0904 8.891 26.9272 9.09667 26.7214C9.30234 26.5156 9.46539 26.2713 9.57647 26.0024C9.68755 25.7335 9.74449 25.4453 9.74401 25.1544V15.8791C9.74337 15.2918 9.50956 14.7286 9.09396 14.3135C8.67835 13.8985 8.11496 13.6653 7.52757 13.6654ZM25.3871 5.3373L26.9328 2.51469C26.9722 2.44309 26.9815 2.3588 26.9589 2.28029C26.9362 2.20179 26.8833 2.13548 26.8118 2.09591C26.7402 2.05716 26.6561 2.04833 26.578 2.07134C26.4999 2.09435 26.434 2.14732 26.3948 2.21871L24.8334 5.07088C23.5197 4.48614 22.0494 4.15847 20.4937 4.15998C18.9423 4.15847 17.4726 4.48524 16.1643 5.06665L14.6011 2.22172C14.582 2.18621 14.5561 2.15484 14.5248 2.12942C14.4935 2.10401 14.4575 2.08506 14.4188 2.07366C14.3801 2.06227 14.3396 2.05866 14.2995 2.06305C14.2594 2.06744 14.2206 2.07973 14.1854 2.09922C14.1497 2.11827 14.1182 2.14422 14.0928 2.17558C14.0673 2.20693 14.0483 2.24305 14.037 2.28182C14.0256 2.32059 14.0221 2.36123 14.0267 2.40138C14.0312 2.44152 14.0437 2.48035 14.0635 2.5156L15.6098 5.33639C12.5714 6.90323 10.5185 9.88726 10.5203 13.3133L30.4696 13.3109C30.4705 9.88605 28.4212 6.90806 25.3871 5.3373ZM15.9565 9.69928C15.7346 9.69916 15.5219 9.61092 15.3651 9.45395C15.2083 9.29699 15.1203 9.08417 15.1204 8.86231C15.1205 8.64045 15.2088 8.42773 15.3657 8.27093C15.5227 8.11414 15.7355 8.02612 15.9574 8.02624C16.1792 8.02664 16.3919 8.11494 16.5489 8.27181C16.7058 8.42867 16.7942 8.64133 16.7946 8.86322C16.7943 9.08522 16.7058 9.29801 16.5487 9.4548C16.3915 9.61158 16.1785 9.69953 15.9565 9.69928ZM25.0404 9.69747C24.9306 9.69755 24.8218 9.67598 24.7203 9.634C24.6188 9.59202 24.5266 9.53044 24.4489 9.45279C24.3712 9.37514 24.3096 9.28295 24.2676 9.18147C24.2256 9.08 24.204 8.97124 24.204 8.8614C24.2052 8.63973 24.2937 8.42745 24.4503 8.27056C24.6069 8.11367 24.819 8.02481 25.0407 8.02322C25.2622 8.02505 25.474 8.11409 25.6303 8.27104C25.7866 8.428 25.8747 8.64022 25.8755 8.86171C25.8757 8.97144 25.8541 9.08013 25.8122 9.18154C25.7703 9.28296 25.7088 9.37511 25.6312 9.45274C25.5537 9.53036 25.4616 9.59193 25.3602 9.63392C25.2588 9.67592 25.1501 9.69751 25.0404 9.69747ZM10.6018 14.0839L10.6051 28.4564C10.6048 28.7668 10.6656 29.0742 10.7843 29.3611C10.9029 29.6479 11.077 29.9086 11.2965 30.128C11.516 30.3475 11.7766 30.5215 12.0635 30.6401C12.3504 30.7587 12.6578 30.8196 12.9682 30.8192L14.5773 30.8198L14.5791 35.727C14.5788 36.949 15.5721 37.9422 16.7922 37.9422C18.016 37.9422 19.0075 36.948 19.0078 35.7255L19.0066 30.8195L21.9963 30.8186L21.9975 35.7255C21.9975 36.9465 22.9911 37.9419 24.2116 37.9395C25.4353 37.9404 26.4274 36.9462 26.4271 35.7237L26.4256 30.818L28.0404 30.8168C28.3508 30.8168 28.6583 30.7557 28.9451 30.6369C29.2319 30.5182 29.4925 30.3441 29.7121 30.1246C29.9316 29.9051 30.1058 29.6445 30.2246 29.3577C30.3435 29.0709 30.4046 28.7635 30.4047 28.4531L30.402 14.0806L10.6018 14.0839ZM35.6851 15.877C35.6852 15.5862 35.6279 15.2982 35.5166 15.0295C35.4053 14.7607 35.2421 14.5166 35.0364 14.311C34.8307 14.1053 34.5865 13.9422 34.3178 13.831C34.0491 13.7198 33.761 13.6626 33.4702 13.6627C32.2473 13.6615 31.2564 14.6545 31.2564 15.8779L31.2583 25.1522C31.2581 25.4431 31.3152 25.7311 31.4264 25.9999C31.5376 26.2686 31.7007 26.5128 31.9064 26.7185C32.112 26.9241 32.3562 27.0872 32.625 27.1984C32.8937 27.3096 33.1817 27.3668 33.4726 27.3666C33.7635 27.3666 34.0515 27.3093 34.3203 27.198C34.589 27.0866 34.8332 26.9234 35.0388 26.7177C35.2444 26.5119 35.4074 26.2676 35.5186 25.9988C35.6298 25.73 35.6869 25.4419 35.6866 25.151L35.6851 15.877Z" fill="#EEEEEE" style="fill:#EEEEEE;fill:color(display-p3 0.9333 0.9333 0.9333);fill-opacity:1;"/>
</svg>
