<svg width="255" height="80" viewBox="0 0 255 80" fill="none" xmlns="http://www.w3.org/2000/svg">
<path d="M231 0H24C10.7452 0 0 10.7452 0 24V56C0 69.2548 10.7452 80 24 80H231C244.255 80 255 69.2548 255 56V24C255 10.7452 244.255 0 231 0Z" fill="#111111"/>
<path d="M231 0.5H24C11.0213 0.5 0.5 11.0213 0.5 24V56C0.5 68.9787 11.0213 79.5 24 79.5H231C243.979 79.5 254.5 68.9787 254.5 56V24C254.5 11.0213 243.979 0.5 231 0.5Z" stroke="#555555"/>
<path fill-rule="evenodd" clip-rule="evenodd" d="M25.4698 25.4697C25.7628 25.1768 26.2367 25.1768 26.5297 25.4697L30.5297 29.4697C30.8227 29.7626 30.8227 30.2374 30.5297 30.5303L26.5297 34.5303C26.2367 34.8232 25.7628 34.8232 25.4698 34.5303C25.1768 34.2374 25.1768 33.7626 25.4698 33.4697L28.9387 30L25.4698 26.5303C25.1768 26.2374 25.1768 25.7626 25.4698 25.4697Z" fill="#8FC88A"/>
<path fill-rule="evenodd" clip-rule="evenodd" d="M25.4698 45.4697C25.7628 45.1768 26.2367 45.1768 26.5297 45.4697L30.5297 49.4697C30.8227 49.7626 30.8227 50.2374 30.5297 50.5303L26.5297 54.5303C26.2367 54.8232 25.7628 54.8232 25.4698 54.5303C25.1768 54.2374 25.1768 53.7626 25.4698 53.4697L28.9387 50L25.4698 46.5303C25.1768 46.2374 25.1768 45.7626 25.4698 45.4697Z" fill="#8FC88A"/>
<path d="M44.0499 35C43.9999 34.9043 43.9589 34.7858 43.9269 34.6445C43.8989 34.4987 43.8789 34.3483 43.8649 34.1934C43.7379 34.321 43.5939 34.4417 43.4349 34.5557C43.2799 34.6696 43.1089 34.7699 42.9219 34.8564C42.7299 34.943 42.5279 35.0114 42.3129 35.0615C42.0989 35.1117 41.8709 35.1367 41.6299 35.1367C41.2379 35.1367 40.8819 35.0798 40.5629 34.9658C40.2489 34.8519 39.9819 34.6969 39.7639 34.501C39.5399 34.3096 39.3669 34.0817 39.2439 33.8174C39.1259 33.5485 39.0659 33.2591 39.0659 32.9492C39.0659 32.5436 39.1459 32.1882 39.3059 31.8828C39.4699 31.5775 39.6999 31.3223 39.9959 31.1172C40.2919 30.9167 40.6479 30.7663 41.0619 30.666C41.4819 30.5658 41.9489 30.5156 42.4639 30.5156H43.8449V29.9346C43.8449 29.7113 43.8039 29.5107 43.7219 29.333C43.6399 29.1553 43.5229 29.0026 43.3729 28.875C43.2229 28.752 43.0379 28.6562 42.8189 28.5879C42.6049 28.5195 42.3639 28.4854 42.0949 28.4854C41.8439 28.4854 41.6179 28.5173 41.4179 28.5811C41.2219 28.6449 41.0559 28.7292 40.9189 28.834C40.7819 28.9388 40.6749 29.0641 40.5979 29.21C40.5249 29.3512 40.4879 29.4993 40.4879 29.6543H39.2169C39.2209 29.3854 39.2899 29.1211 39.4219 28.8613C39.5589 28.6016 39.7549 28.3669 40.0099 28.1572C40.2599 27.9521 40.5659 27.7858 40.9259 27.6582C41.2899 27.5306 41.7029 27.4668 42.1629 27.4668C42.5819 27.4668 42.9719 27.5192 43.3319 27.624C43.6919 27.7243 44.0039 27.877 44.2689 28.082C44.5279 28.2917 44.7329 28.5514 44.8839 28.8613C45.0339 29.1712 45.1089 29.5335 45.1089 29.9482V33.3867C45.1089 33.6328 45.1319 33.8949 45.1779 34.1729C45.2229 34.4463 45.2869 34.6855 45.3689 34.8906V35H44.0499ZM41.8139 34.0361C42.0609 34.0361 42.2909 34.0042 42.5049 33.9404C42.7189 33.8766 42.9149 33.7923 43.0929 33.6875C43.2659 33.5827 43.4159 33.4642 43.5439 33.332C43.6719 33.1953 43.7719 33.054 43.8449 32.9082V31.4111H42.6689C42.2309 31.4111 41.8489 31.4499 41.5209 31.5273C41.1969 31.6003 40.9389 31.7142 40.7479 31.8691C40.6109 31.9785 40.5069 32.1084 40.4339 32.2588C40.3649 32.4092 40.3309 32.5801 40.3309 32.7715C40.3309 32.9538 40.3609 33.1224 40.4199 33.2773C40.4839 33.4323 40.5769 33.5645 40.6999 33.6738C40.8229 33.7878 40.9779 33.8766 41.1649 33.9404C41.3519 34.0042 41.5679 34.0361 41.8139 34.0361ZM52.4719 35L52.3959 33.9814C52.1499 34.346 51.8429 34.6309 51.4739 34.8359C51.1039 35.0365 50.6779 35.1367 50.1949 35.1367C49.8079 35.1367 49.4569 35.0775 49.1429 34.959C48.8279 34.8359 48.5589 34.6468 48.3359 34.3916C48.1129 34.1364 47.9389 33.8128 47.8159 33.4209C47.6979 33.0244 47.6389 32.5505 47.6389 31.999V27.6035H48.9029V32.0127C48.9029 32.4137 48.9349 32.7464 48.9989 33.0107C49.0629 33.2751 49.1589 33.4847 49.2859 33.6396C49.4139 33.7992 49.5689 33.9108 49.7509 33.9746C49.9379 34.0384 50.1519 34.0703 50.3939 34.0703C50.6759 34.0703 50.9289 34.0384 51.1519 33.9746C51.3759 33.9062 51.5689 33.8128 51.7329 33.6943C51.8699 33.5986 51.9889 33.4847 52.0889 33.3525C52.1939 33.2158 52.2799 33.0677 52.3489 32.9082V27.6035H53.6199V35H52.4719ZM58.9999 25.8125V27.6035H61.8159V28.5811H58.9999V32.6006C58.9999 32.8877 59.0359 33.1247 59.1089 33.3115C59.1819 33.4984 59.2829 33.6465 59.4099 33.7559C59.5379 33.8698 59.6839 33.9495 59.8479 33.9951C60.0159 34.0407 60.1939 34.0635 60.3809 34.0635C60.5179 34.0635 60.6589 34.0566 60.8049 34.043C60.9509 34.0247 61.0939 34.0042 61.2349 33.9814C61.3719 33.9587 61.4999 33.9359 61.6179 33.9131C61.7409 33.8857 61.8409 33.863 61.9189 33.8447L62.0969 34.7402C61.9919 34.804 61.8639 34.861 61.7139 34.9111C61.5629 34.9567 61.3989 34.9954 61.2219 35.0273C61.0439 35.0638 60.8549 35.0911 60.6539 35.1094C60.4579 35.1276 60.2619 35.1367 60.0659 35.1367C59.7379 35.1367 59.4309 35.0911 59.1439 35C58.8609 34.9043 58.6149 34.7539 58.4049 34.5488C58.1959 34.3483 58.0289 34.0885 57.9059 33.7695C57.7879 33.446 57.7289 33.0563 57.7289 32.6006V28.5811H55.7869V27.6035H57.7289V25.8125H58.9999ZM65.6789 28.7041C65.7789 28.5537 65.8909 28.417 66.0139 28.2939C66.1369 28.1663 66.2669 28.0547 66.4029 27.959C66.6219 27.7995 66.8609 27.6787 67.1209 27.5967C67.3849 27.5146 67.6659 27.4714 67.9619 27.4668C68.3489 27.4668 68.6999 27.5238 69.0149 27.6377C69.3339 27.7471 69.6049 27.9202 69.8279 28.1572C70.0509 28.3942 70.2219 28.695 70.3409 29.0596C70.4639 29.4196 70.5249 29.848 70.5249 30.3447V35H69.2609V30.3311C69.2609 30.0394 69.2269 29.7842 69.1579 29.5654C69.0899 29.3421 68.9899 29.1576 68.8569 29.0117C68.7159 28.8522 68.5379 28.7337 68.3239 28.6562C68.1099 28.5742 67.8639 28.5355 67.5859 28.54C67.3579 28.54 67.1419 28.5719 66.9369 28.6357C66.7309 28.6995 66.5419 28.7907 66.3689 28.9092C66.2319 29.0003 66.1049 29.1074 65.9859 29.2305C65.8719 29.349 65.7699 29.4811 65.6789 29.627V35H64.4139V24.5H65.6789V28.7041ZM79.0699 31.1924C79.0699 31.8258 78.9969 32.3887 78.8519 32.8809C78.7059 33.3685 78.4959 33.7786 78.2229 34.1113C77.9489 34.4486 77.6139 34.7038 77.2179 34.877C76.8209 35.0501 76.3679 35.1367 75.8569 35.1367C75.3519 35.1367 74.8979 35.0524 74.4969 34.8838C74.0959 34.7106 73.7569 34.4531 73.4789 34.1113C73.2009 33.7786 72.9889 33.3685 72.8429 32.8809C72.6969 32.3887 72.6239 31.8258 72.6239 31.1924V28.8613C72.6239 28.2279 72.6969 27.6673 72.8429 27.1797C72.9889 26.6875 73.2009 26.2728 73.4789 25.9355C73.7519 25.5983 74.0869 25.3431 74.4829 25.1699C74.8839 24.9922 75.3379 24.9033 75.8439 24.9033C76.3539 24.9033 76.8079 24.9922 77.2039 25.1699C77.6049 25.3431 77.9449 25.5983 78.2229 25.9355C78.4959 26.2728 78.7059 26.6875 78.8519 27.1797C78.9969 27.6673 79.0699 28.2279 79.0699 28.8613V31.1924ZM73.8959 30.9395L77.7709 27.9658C77.7349 27.6377 77.6689 27.3483 77.5729 27.0977C77.4819 26.8424 77.3569 26.6305 77.1969 26.4619C77.0419 26.2887 76.8509 26.1589 76.6229 26.0723C76.3999 25.9857 76.1399 25.9424 75.8439 25.9424C75.5429 25.9424 75.2759 25.9902 75.0439 26.0859C74.8159 26.1771 74.6219 26.3115 74.4629 26.4893C74.2709 26.7126 74.1279 27.002 74.0319 27.3574C73.9409 27.7083 73.8959 28.1162 73.8959 28.5811V30.249C73.8959 30.363 73.8959 30.4769 73.8959 30.5908C73.8959 30.7048 73.8959 30.821 73.8959 30.9395ZM77.7989 31.459V30.0508C77.7989 29.9824 77.7989 29.8525 77.7989 29.6611C77.7989 29.4652 77.7989 29.3034 77.7989 29.1758L73.9299 32.1357C73.9709 32.4684 74.0439 32.7624 74.1479 33.0176C74.2529 33.2682 74.3899 33.4756 74.5589 33.6396C74.7139 33.7946 74.8999 33.9131 75.1189 33.9951C75.3379 34.0726 75.5839 34.1113 75.8569 34.1113C76.1449 34.1113 76.3999 34.068 76.6229 33.9814C76.8459 33.8949 77.0349 33.7695 77.1899 33.6055C77.3999 33.3822 77.5529 33.0905 77.6479 32.7305C77.7489 32.3704 77.7989 31.9466 77.7989 31.459ZM89.8369 24.5H93.6169V33.9062H96.0299V35H89.8369V33.9062H92.3529V25.6006H89.8369V24.5ZM97.6909 31.2334C97.6909 30.7002 97.7689 30.2057 97.9239 29.75C98.0789 29.2897 98.3019 28.891 98.5939 28.5537C98.8809 28.2165 99.2319 27.9521 99.6459 27.7607C100.061 27.5648 100.528 27.4668 101.048 27.4668C101.572 27.4668 102.041 27.5648 102.456 27.7607C102.875 27.9521 103.231 28.2165 103.522 28.5537C103.81 28.891 104.031 29.2897 104.186 29.75C104.34 30.2057 104.418 30.7002 104.418 31.2334V31.3838C104.418 31.917 104.34 32.4115 104.186 32.8672C104.031 33.3229 103.81 33.7194 103.522 34.0566C103.231 34.3939 102.878 34.6582 102.463 34.8496C102.048 35.041 101.581 35.1367 101.062 35.1367C100.537 35.1367 100.066 35.041 99.6459 34.8496C99.2319 34.6582 98.8809 34.3939 98.5939 34.0566C98.3019 33.7194 98.0789 33.3229 97.9239 32.8672C97.7689 32.4115 97.6909 31.917 97.6909 31.3838V31.2334ZM98.9559 31.3838C98.9559 31.7484 98.9989 32.097 99.0859 32.4297C99.1729 32.7578 99.3049 33.0472 99.4819 33.2979C99.6559 33.5485 99.8739 33.7467 100.139 33.8926C100.403 34.0384 100.711 34.1113 101.062 34.1113C101.408 34.1113 101.711 34.0384 101.971 33.8926C102.235 33.7467 102.456 33.5485 102.634 33.2979C102.807 33.0472 102.937 32.7578 103.023 32.4297C103.11 32.097 103.153 31.7484 103.153 31.3838V31.2334C103.153 30.8734 103.108 30.5293 103.017 30.2012C102.93 29.8685 102.8 29.5768 102.627 29.3262C102.449 29.0755 102.228 28.8773 101.964 28.7314C101.704 28.5811 101.399 28.5059 101.048 28.5059C100.697 28.5059 100.392 28.5811 100.132 28.7314C99.8719 28.8773 99.6559 29.0755 99.4819 29.3262C99.3049 29.5768 99.1729 29.8685 99.0859 30.2012C98.9989 30.5293 98.9559 30.8734 98.9559 31.2334V31.3838ZM106.223 31.2402C106.223 30.6888 106.289 30.1829 106.421 29.7227C106.558 29.2578 106.754 28.859 107.009 28.5264C107.264 28.1937 107.574 27.9339 107.938 27.7471C108.303 27.5602 108.715 27.4668 109.176 27.4668C109.472 27.4668 109.743 27.501 109.989 27.5693C110.24 27.6377 110.465 27.738 110.666 27.8701C110.775 27.9385 110.878 28.0182 110.974 28.1094C111.074 28.2005 111.167 28.3008 111.254 28.4102L111.315 27.6035H112.464V34.8428C112.464 35.3304 112.386 35.7633 112.231 36.1416C112.081 36.5199 111.869 36.8411 111.596 37.1055C111.318 37.3698 110.987 37.5703 110.604 37.707C110.222 37.8438 109.798 37.9121 109.333 37.9121C109.142 37.9121 108.923 37.8893 108.677 37.8438C108.431 37.8027 108.182 37.7321 107.932 37.6318C107.676 37.5361 107.43 37.4062 107.193 37.2422C106.961 37.0781 106.76 36.8753 106.592 36.6338L107.248 35.875C107.403 36.0618 107.562 36.2191 107.727 36.3467C107.891 36.4788 108.057 36.5837 108.226 36.6611C108.394 36.7386 108.563 36.7933 108.731 36.8252C108.9 36.8617 109.069 36.8799 109.237 36.8799C109.538 36.8799 109.809 36.8366 110.051 36.75C110.292 36.6634 110.5 36.5358 110.673 36.3672C110.841 36.2031 110.971 35.998 111.062 35.752C111.154 35.5059 111.199 35.2233 111.199 34.9043V34.2686C111.104 34.3779 111.001 34.4782 110.892 34.5693C110.787 34.6605 110.673 34.7402 110.55 34.8086C110.358 34.9134 110.146 34.9932 109.914 35.0479C109.682 35.1071 109.431 35.1367 109.162 35.1367C108.711 35.1367 108.303 35.041 107.938 34.8496C107.574 34.6582 107.266 34.3939 107.016 34.0566C106.76 33.7194 106.564 33.3229 106.428 32.8672C106.291 32.4069 106.223 31.9124 106.223 31.3838V31.2402ZM107.487 31.3838C107.487 31.7438 107.524 32.0856 107.597 32.4092C107.674 32.7327 107.795 33.0176 107.959 33.2637C108.118 33.5098 108.324 33.7057 108.574 33.8516C108.825 33.9928 109.126 34.0635 109.477 34.0635C109.695 34.0635 109.891 34.0384 110.064 33.9883C110.242 33.9336 110.402 33.8584 110.543 33.7627C110.68 33.667 110.803 33.5531 110.912 33.4209C111.021 33.2887 111.117 33.1429 111.199 32.9834V29.5928C111.117 29.4378 111.021 29.2965 110.912 29.1689C110.803 29.0413 110.677 28.9297 110.536 28.834C110.395 28.7428 110.238 28.6722 110.064 28.6221C109.891 28.5674 109.7 28.54 109.49 28.54C109.135 28.54 108.829 28.613 108.574 28.7588C108.324 28.9046 108.118 29.1006 107.959 29.3467C107.795 29.5973 107.674 29.8867 107.597 30.2148C107.524 30.5384 107.487 30.8802 107.487 31.2402V31.3838ZM115.062 27.6035H118.842V33.9062H121.255V35H115.062V33.9062H117.577V28.7041H115.062V27.6035ZM117.413 25.6621C117.413 25.5527 117.429 25.4502 117.461 25.3545C117.497 25.2588 117.552 25.1768 117.625 25.1084C117.684 25.0492 117.759 25.0036 117.851 24.9717C117.946 24.9352 118.053 24.917 118.172 24.917C118.29 24.917 118.395 24.9352 118.486 24.9717C118.577 25.0036 118.653 25.0492 118.712 25.1084C118.785 25.1722 118.84 25.252 118.876 25.3477C118.912 25.4434 118.931 25.5482 118.931 25.6621C118.931 25.8672 118.867 26.0381 118.739 26.1748C118.612 26.3115 118.423 26.3799 118.172 26.3799C117.917 26.3799 117.725 26.3115 117.598 26.1748C117.475 26.0381 117.413 25.8672 117.413 25.6621ZM123.271 35V27.6035H124.406L124.495 28.6973C124.604 28.5423 124.723 28.401 124.851 28.2734C124.983 28.1413 125.122 28.0273 125.268 27.9316C125.486 27.7858 125.723 27.6742 125.979 27.5967C126.238 27.5146 126.512 27.4714 126.799 27.4668C127.186 27.4668 127.537 27.5215 127.852 27.6309C128.171 27.7402 128.442 27.9111 128.665 28.1436C128.888 28.376 129.059 28.6722 129.178 29.0322C129.301 29.3877 129.362 29.8115 129.362 30.3037V35H128.098V30.3311C128.098 30.0029 128.061 29.7249 127.988 29.4971C127.915 29.2692 127.808 29.0846 127.667 28.9434C127.521 28.8021 127.343 28.6995 127.134 28.6357C126.929 28.5719 126.692 28.54 126.423 28.54C126.19 28.54 125.974 28.5742 125.773 28.6426C125.573 28.7064 125.388 28.7952 125.22 28.9092C125.083 29.0094 124.955 29.1257 124.837 29.2578C124.723 29.39 124.623 29.5358 124.536 29.6953V35H123.271ZM44.0499 55C43.9999 54.9043 43.9589 54.7858 43.9269 54.6445C43.8989 54.4987 43.8789 54.3483 43.8649 54.1934C43.7379 54.321 43.5939 54.4417 43.4349 54.5557C43.2799 54.6696 43.1089 54.7699 42.9219 54.8564C42.7299 54.943 42.5279 55.0114 42.3129 55.0615C42.0989 55.1117 41.8709 55.1367 41.6299 55.1367C41.2379 55.1367 40.8819 55.0798 40.5629 54.9658C40.2489 54.8519 39.9819 54.6969 39.7639 54.501C39.5399 54.3096 39.3669 54.0817 39.2439 53.8174C39.1259 53.5485 39.0659 53.2591 39.0659 52.9492C39.0659 52.5436 39.1459 52.1882 39.3059 51.8828C39.4699 51.5775 39.6999 51.3223 39.9959 51.1172C40.2919 50.9167 40.6479 50.7663 41.0619 50.666C41.4819 50.5658 41.9489 50.5156 42.4639 50.5156H43.8449V49.9346C43.8449 49.7113 43.8039 49.5107 43.7219 49.333C43.6399 49.1553 43.5229 49.0026 43.3729 48.875C43.2229 48.752 43.0379 48.6562 42.8189 48.5879C42.6049 48.5195 42.3639 48.4854 42.0949 48.4854C41.8439 48.4854 41.6179 48.5173 41.4179 48.5811C41.2219 48.6449 41.0559 48.7292 40.9189 48.834C40.7819 48.9388 40.6749 49.0641 40.5979 49.21C40.5249 49.3512 40.4879 49.4993 40.4879 49.6543H39.2169C39.2209 49.3854 39.2899 49.1211 39.4219 48.8613C39.5589 48.6016 39.7549 48.3669 40.0099 48.1572C40.2599 47.9521 40.5659 47.7858 40.9259 47.6582C41.2899 47.5306 41.7029 47.4668 42.1629 47.4668C42.5819 47.4668 42.9719 47.5192 43.3319 47.624C43.6919 47.7243 44.0039 47.877 44.2689 48.082C44.5279 48.2917 44.7329 48.5514 44.8839 48.8613C45.0339 49.1712 45.1089 49.5335 45.1089 49.9482V53.3867C45.1089 53.6328 45.1319 53.8949 45.1779 54.1729C45.2229 54.4463 45.2869 54.6855 45.3689 54.8906V55H44.0499ZM41.8139 54.0361C42.0609 54.0361 42.2909 54.0042 42.5049 53.9404C42.7189 53.8766 42.9149 53.7923 43.0929 53.6875C43.2659 53.5827 43.4159 53.4642 43.5439 53.332C43.6719 53.1953 43.7719 53.054 43.8449 52.9082V51.4111H42.6689C42.2309 51.4111 41.8489 51.4499 41.5209 51.5273C41.1969 51.6003 40.9389 51.7142 40.7479 51.8691C40.6109 51.9785 40.5069 52.1084 40.4339 52.2588C40.3649 52.4092 40.3309 52.5801 40.3309 52.7715C40.3309 52.9538 40.3609 53.1224 40.4199 53.2773C40.4839 53.4323 40.5769 53.5645 40.6999 53.6738C40.8229 53.7878 40.9779 53.8766 41.1649 53.9404C41.3519 54.0042 41.5679 54.0361 41.8139 54.0361ZM52.4719 55L52.3959 53.9814C52.1499 54.346 51.8429 54.6309 51.4739 54.8359C51.1039 55.0365 50.6779 55.1367 50.1949 55.1367C49.8079 55.1367 49.4569 55.0775 49.1429 54.959C48.8279 54.8359 48.5589 54.6468 48.3359 54.3916C48.1129 54.1364 47.9389 53.8128 47.8159 53.4209C47.6979 53.0244 47.6389 52.5505 47.6389 51.999V47.6035H48.9029V52.0127C48.9029 52.4137 48.9349 52.7464 48.9989 53.0107C49.0629 53.2751 49.1589 53.4847 49.2859 53.6396C49.4139 53.7992 49.5689 53.9108 49.7509 53.9746C49.9379 54.0384 50.1519 54.0703 50.3939 54.0703C50.6759 54.0703 50.9289 54.0384 51.1519 53.9746C51.3759 53.9062 51.5689 53.8128 51.7329 53.6943C51.8699 53.5986 51.9889 53.4847 52.0889 53.3525C52.1939 53.2158 52.2799 53.0677 52.3489 52.9082V47.6035H53.6199V55H52.4719ZM58.9999 45.8125V47.6035H61.8159V48.5811H58.9999V52.6006C58.9999 52.8877 59.0359 53.1247 59.1089 53.3115C59.1819 53.4984 59.2829 53.6465 59.4099 53.7559C59.5379 53.8698 59.6839 53.9495 59.8479 53.9951C60.0159 54.0407 60.1939 54.0635 60.3809 54.0635C60.5179 54.0635 60.6589 54.0566 60.8049 54.043C60.9509 54.0247 61.0939 54.0042 61.2349 53.9814C61.3719 53.9587 61.4999 53.9359 61.6179 53.9131C61.7409 53.8857 61.8409 53.863 61.9189 53.8447L62.0969 54.7402C61.9919 54.804 61.8639 54.861 61.7139 54.9111C61.5629 54.9567 61.3989 54.9954 61.2219 55.0273C61.0439 55.0638 60.8549 55.0911 60.6539 55.1094C60.4579 55.1276 60.2619 55.1367 60.0659 55.1367C59.7379 55.1367 59.4309 55.0911 59.1439 55C58.8609 54.9043 58.6149 54.7539 58.4049 54.5488C58.1959 54.3483 58.0289 54.0885 57.9059 53.7695C57.7879 53.446 57.7289 53.0563 57.7289 52.6006V48.5811H55.7869V47.6035H57.7289V45.8125H58.9999ZM65.6789 48.7041C65.7789 48.5537 65.8909 48.417 66.0139 48.2939C66.1369 48.1663 66.2669 48.0547 66.4029 47.959C66.6219 47.7995 66.8609 47.6787 67.1209 47.5967C67.3849 47.5146 67.6659 47.4714 67.9619 47.4668C68.3489 47.4668 68.6999 47.5238 69.0149 47.6377C69.3339 47.7471 69.6049 47.9202 69.8279 48.1572C70.0509 48.3942 70.2219 48.695 70.3409 49.0596C70.4639 49.4196 70.5249 49.848 70.5249 50.3447V55H69.2609V50.3311C69.2609 50.0394 69.2269 49.7842 69.1579 49.5654C69.0899 49.3421 68.9899 49.1576 68.8569 49.0117C68.7159 48.8522 68.5379 48.7337 68.3239 48.6562C68.1099 48.5742 67.8639 48.5355 67.5859 48.54C67.3579 48.54 67.1419 48.5719 66.9369 48.6357C66.7309 48.6995 66.5419 48.7907 66.3689 48.9092C66.2319 49.0003 66.1049 49.1074 65.9859 49.2305C65.8719 49.349 65.7699 49.4811 65.6789 49.627V55H64.4139V44.5H65.6789V48.7041ZM79.0699 51.1924C79.0699 51.8258 78.9969 52.3887 78.8519 52.8809C78.7059 53.3685 78.4959 53.7786 78.2229 54.1113C77.9489 54.4486 77.6139 54.7038 77.2179 54.877C76.8209 55.0501 76.3679 55.1367 75.8569 55.1367C75.3519 55.1367 74.8979 55.0524 74.4969 54.8838C74.0959 54.7106 73.7569 54.4531 73.4789 54.1113C73.2009 53.7786 72.9889 53.3685 72.8429 52.8809C72.6969 52.3887 72.6239 51.8258 72.6239 51.1924V48.8613C72.6239 48.2279 72.6969 47.6673 72.8429 47.1797C72.9889 46.6875 73.2009 46.2728 73.4789 45.9355C73.7519 45.5983 74.0869 45.3431 74.4829 45.1699C74.8839 44.9922 75.3379 44.9033 75.8439 44.9033C76.3539 44.9033 76.8079 44.9922 77.2039 45.1699C77.6049 45.3431 77.9449 45.5983 78.2229 45.9355C78.4959 46.2728 78.7059 46.6875 78.8519 47.1797C78.9969 47.6673 79.0699 48.2279 79.0699 48.8613V51.1924ZM73.8959 50.9395L77.7709 47.9658C77.7349 47.6377 77.6689 47.3483 77.5729 47.0977C77.4819 46.8424 77.3569 46.6305 77.1969 46.4619C77.0419 46.2887 76.8509 46.1589 76.6229 46.0723C76.3999 45.9857 76.1399 45.9424 75.8439 45.9424C75.5429 45.9424 75.2759 45.9902 75.0439 46.0859C74.8159 46.1771 74.6219 46.3115 74.4629 46.4893C74.2709 46.7126 74.1279 47.002 74.0319 47.3574C73.9409 47.7083 73.8959 48.1162 73.8959 48.5811V50.249C73.8959 50.363 73.8959 50.4769 73.8959 50.5908C73.8959 50.7048 73.8959 50.821 73.8959 50.9395ZM77.7989 51.459V50.0508C77.7989 49.9824 77.7989 49.8525 77.7989 49.6611C77.7989 49.4652 77.7989 49.3034 77.7989 49.1758L73.9299 52.1357C73.9709 52.4684 74.0439 52.7624 74.1479 53.0176C74.2529 53.2682 74.3899 53.4756 74.5589 53.6396C74.7139 53.7946 74.8999 53.9131 75.1189 53.9951C75.3379 54.0726 75.5839 54.1113 75.8569 54.1113C76.1449 54.1113 76.3999 54.068 76.6229 53.9814C76.8459 53.8949 77.0349 53.7695 77.1899 53.6055C77.3999 53.3822 77.5529 53.0905 77.6479 52.7305C77.7489 52.3704 77.7989 51.9466 77.7989 51.459ZM94.4989 55C94.4489 54.9043 94.4079 54.7858 94.3759 54.6445C94.3489 54.4987 94.3279 54.3483 94.3139 54.1934C94.1869 54.321 94.0429 54.4417 93.8839 54.5557C93.7289 54.6696 93.5579 54.7699 93.3709 54.8564C93.1799 54.943 92.9769 55.0114 92.7629 55.0615C92.5489 55.1117 92.3209 55.1367 92.0789 55.1367C91.6869 55.1367 91.3319 55.0798 91.0129 54.9658C90.6979 54.8519 90.4319 54.6969 90.2129 54.501C89.9899 54.3096 89.8159 54.0817 89.6929 53.8174C89.5749 53.5485 89.5159 53.2591 89.5159 52.9492C89.5159 52.5436 89.5949 52.1882 89.7549 51.8828C89.9189 51.5775 90.1489 51.3223 90.4449 51.1172C90.7419 50.9167 91.0969 50.7663 91.5119 50.666C91.9309 50.5658 92.3979 50.5156 92.9129 50.5156H94.2939V49.9346C94.2939 49.7113 94.2529 49.5107 94.1709 49.333C94.0889 49.1553 93.9729 49.0026 93.8219 48.875C93.6719 48.752 93.4869 48.6562 93.2689 48.5879C93.0539 48.5195 92.8129 48.4854 92.5439 48.4854C92.2929 48.4854 92.0679 48.5173 91.8669 48.5811C91.6709 48.6449 91.5049 48.7292 91.3679 48.834C91.2309 48.9388 91.1239 49.0641 91.0469 49.21C90.9739 49.3512 90.9379 49.4993 90.9379 49.6543H89.6659C89.6709 49.3854 89.7389 49.1211 89.8709 48.8613C90.0079 48.6016 90.2039 48.3669 90.4589 48.1572C90.7099 47.9521 91.0149 47.7858 91.3749 47.6582C91.7399 47.5306 92.1519 47.4668 92.6119 47.4668C93.0319 47.4668 93.4209 47.5192 93.7809 47.624C94.1409 47.7243 94.4529 47.877 94.7179 48.082C94.9779 48.2917 95.1829 48.5514 95.3329 48.8613C95.4829 49.1712 95.5589 49.5335 95.5589 49.9482V53.3867C95.5589 53.6328 95.5809 53.8949 95.6269 54.1729C95.6729 54.4463 95.7359 54.6855 95.8179 54.8906V55H94.4989ZM92.2639 54.0361C92.5099 54.0361 92.7399 54.0042 92.9539 53.9404C93.1679 53.8766 93.3639 53.7923 93.5419 53.6875C93.7149 53.5827 93.8659 53.4642 93.9929 53.332C94.1209 53.1953 94.2209 53.054 94.2939 52.9082V51.4111H93.1179C92.6809 51.4111 92.2979 51.4499 91.9699 51.5273C91.6459 51.6003 91.3889 51.7142 91.1969 51.8691C91.0609 51.9785 90.9559 52.1084 90.8829 52.2588C90.8139 52.4092 90.7799 52.5801 90.7799 52.7715C90.7799 52.9538 90.8099 53.1224 90.8689 53.2773C90.9329 53.4323 91.0259 53.5645 91.1489 53.6738C91.2719 53.7878 91.4269 53.8766 91.6139 53.9404C91.8009 54.0042 92.0179 54.0361 92.2639 54.0361ZM98.0399 57.8438V47.6035H99.1949L99.2569 48.4102C99.3569 48.2826 99.4659 48.1686 99.5849 48.0684C99.7029 47.9635 99.8309 47.8747 99.9679 47.8018C100.159 47.6924 100.371 47.6104 100.604 47.5557C100.84 47.4964 101.093 47.4668 101.362 47.4668C101.836 47.4668 102.256 47.5602 102.62 47.7471C102.985 47.9339 103.29 48.1937 103.536 48.5264C103.782 48.859 103.969 49.2578 104.097 49.7227C104.224 50.1829 104.288 50.6888 104.288 51.2402V51.3838C104.288 51.9124 104.224 52.4069 104.097 52.8672C103.969 53.3229 103.782 53.7194 103.536 54.0566C103.29 54.3939 102.985 54.6582 102.62 54.8496C102.26 55.041 101.848 55.1367 101.383 55.1367C101.1 55.1367 100.836 55.1071 100.59 55.0479C100.348 54.9886 100.13 54.9043 99.9339 54.7949C99.8149 54.7266 99.7029 54.6514 99.5989 54.5693C99.4939 54.4827 99.3959 54.3893 99.3049 54.2891V57.8438H98.0399ZM103.023 51.2402C103.023 50.8802 102.982 50.5384 102.9 50.2148C102.823 49.8867 102.702 49.5973 102.538 49.3467C102.369 49.1006 102.158 48.9046 101.902 48.7588C101.647 48.613 101.342 48.54 100.986 48.54C100.79 48.54 100.608 48.5628 100.439 48.6084C100.275 48.654 100.127 48.7201 99.9949 48.8066C99.8489 48.8932 99.7189 49.0003 99.6049 49.1279C99.4919 49.2555 99.3909 49.3968 99.3049 49.5518V53.1133C99.3819 53.25 99.4709 53.3776 99.5709 53.4961C99.6719 53.6146 99.7849 53.7148 99.9129 53.7969C100.059 53.8926 100.221 53.9678 100.398 54.0225C100.581 54.0771 100.781 54.1045 101 54.1045C101.351 54.1045 101.654 54.0316 101.909 53.8857C102.164 53.7354 102.374 53.5348 102.538 53.2842C102.702 53.0335 102.823 52.7441 102.9 52.416C102.982 52.0879 103.023 51.7438 103.023 51.3838V51.2402ZM106.448 57.8438V47.6035H107.604L107.665 48.4102C107.765 48.2826 107.875 48.1686 107.993 48.0684C108.112 47.9635 108.239 47.8747 108.376 47.8018C108.567 47.6924 108.779 47.6104 109.012 47.5557C109.249 47.4964 109.502 47.4668 109.771 47.4668C110.244 47.4668 110.664 47.5602 111.028 47.7471C111.393 47.9339 111.698 48.1937 111.944 48.5264C112.19 48.859 112.377 49.2578 112.505 49.7227C112.632 50.1829 112.696 50.6888 112.696 51.2402V51.3838C112.696 51.9124 112.632 52.4069 112.505 52.8672C112.377 53.3229 112.19 53.7194 111.944 54.0566C111.698 54.3939 111.393 54.6582 111.028 54.8496C110.668 55.041 110.256 55.1367 109.791 55.1367C109.508 55.1367 109.244 55.1071 108.998 55.0479C108.757 54.9886 108.538 54.9043 108.342 54.7949C108.223 54.7266 108.112 54.6514 108.007 54.5693C107.902 54.4827 107.804 54.3893 107.713 54.2891V57.8438H106.448ZM111.432 51.2402C111.432 50.8802 111.391 50.5384 111.309 50.2148C111.231 49.8867 111.11 49.5973 110.946 49.3467C110.778 49.1006 110.566 48.9046 110.311 48.7588C110.055 48.613 109.75 48.54 109.395 48.54C109.199 48.54 109.016 48.5628 108.848 48.6084C108.684 48.654 108.535 48.7201 108.403 48.8066C108.257 48.8932 108.128 49.0003 108.014 49.1279C107.9 49.2555 107.799 49.3968 107.713 49.5518V53.1133C107.79 53.25 107.879 53.3776 107.979 53.4961C108.08 53.6146 108.194 53.7148 108.321 53.7969C108.467 53.8926 108.629 53.9678 108.807 54.0225C108.989 54.0771 109.189 54.1045 109.408 54.1045C109.759 54.1045 110.062 54.0316 110.317 53.8857C110.573 53.7354 110.782 53.5348 110.946 53.2842C111.11 53.0335 111.231 52.7441 111.309 52.416C111.391 52.0879 111.432 51.7438 111.432 51.3838V51.2402ZM119.778 53.0381C119.778 52.8877 119.749 52.7533 119.689 52.6348C119.63 52.5117 119.53 52.4001 119.389 52.2998C119.247 52.1995 119.061 52.1084 118.828 52.0264C118.596 51.9398 118.306 51.8623 117.96 51.7939C117.536 51.7074 117.149 51.6025 116.798 51.4795C116.451 51.3564 116.155 51.2083 115.909 51.0352C115.659 50.8665 115.465 50.6683 115.328 50.4404C115.191 50.208 115.123 49.9391 115.123 49.6338C115.123 49.333 115.194 49.0527 115.335 48.793C115.476 48.5286 115.674 48.2985 115.93 48.1025C116.185 47.9066 116.488 47.7516 116.839 47.6377C117.194 47.5238 117.584 47.4668 118.008 47.4668C118.464 47.4668 118.874 47.526 119.238 47.6445C119.603 47.763 119.913 47.9271 120.168 48.1367C120.423 48.3464 120.619 48.5924 120.756 48.875C120.897 49.153 120.968 49.4538 120.968 49.7773H119.703C119.703 49.6178 119.662 49.4629 119.58 49.3125C119.498 49.1576 119.384 49.0208 119.238 48.9023C119.092 48.7839 118.915 48.6882 118.705 48.6152C118.5 48.5423 118.268 48.5059 118.008 48.5059C117.739 48.5059 117.502 48.5355 117.297 48.5947C117.096 48.654 116.93 48.7337 116.798 48.834C116.661 48.9342 116.559 49.0505 116.49 49.1826C116.422 49.3148 116.388 49.4515 116.388 49.5928C116.388 49.7386 116.415 49.8685 116.47 49.9824C116.524 50.0964 116.62 50.1989 116.757 50.29C116.889 50.3812 117.067 50.4632 117.29 50.5361C117.518 50.609 117.805 50.6797 118.151 50.748C118.607 50.8438 119.015 50.9554 119.375 51.083C119.735 51.2061 120.038 51.3542 120.284 51.5273C120.53 51.7051 120.717 51.9102 120.845 52.1426C120.977 52.375 121.043 52.6439 121.043 52.9492C121.043 53.2773 120.968 53.5758 120.817 53.8447C120.672 54.1136 120.466 54.3438 120.202 54.5352C119.938 54.7266 119.621 54.8747 119.252 54.9795C118.883 55.0843 118.479 55.1367 118.042 55.1367C117.541 55.1367 117.094 55.0706 116.702 54.9385C116.31 54.8018 115.98 54.6217 115.711 54.3984C115.438 54.1797 115.228 53.9245 115.082 53.6328C114.941 53.3411 114.87 53.0381 114.87 52.7236H116.135C116.153 52.9834 116.221 53.2021 116.34 53.3799C116.463 53.5576 116.616 53.7012 116.798 53.8105C116.976 53.9199 117.174 53.9974 117.393 54.043C117.611 54.0885 117.828 54.1113 118.042 54.1113C118.379 54.1113 118.673 54.0726 118.924 53.9951C119.174 53.9131 119.37 53.8014 119.512 53.6602C119.598 53.5736 119.664 53.4779 119.71 53.373C119.756 53.2682 119.778 53.1566 119.778 53.0381ZM134.831 54.1113C135.059 54.1113 135.28 54.0749 135.494 54.002C135.713 53.929 135.907 53.8265 136.075 53.6943C136.244 53.5667 136.378 53.4163 136.479 53.2432C136.583 53.0654 136.638 52.874 136.643 52.6689H137.839C137.834 52.9971 137.748 53.3115 137.579 53.6123C137.415 53.9085 137.194 54.1683 136.916 54.3916C136.638 54.6195 136.319 54.8018 135.959 54.9385C135.599 55.0706 135.223 55.1367 134.831 55.1367C134.271 55.1367 133.781 55.0365 133.361 54.8359C132.942 54.6354 132.593 54.3643 132.315 54.0225C132.033 53.6852 131.821 53.2956 131.68 52.8535C131.538 52.4069 131.468 51.9375 131.468 51.4453V51.1582C131.468 50.6706 131.538 50.2035 131.68 49.7568C131.821 49.3102 132.033 48.916 132.315 48.5742C132.593 48.237 132.942 47.9681 133.361 47.7676C133.781 47.5671 134.271 47.4668 134.831 47.4668C135.269 47.4668 135.67 47.5374 136.034 47.6787C136.403 47.8154 136.722 48.0023 136.991 48.2393C137.256 48.4808 137.463 48.7656 137.613 49.0938C137.764 49.4219 137.839 49.7728 137.839 50.1465H136.643C136.638 49.9232 136.588 49.7135 136.492 49.5176C136.401 49.3171 136.276 49.1416 136.116 48.9912C135.957 48.8408 135.765 48.7223 135.542 48.6357C135.323 48.5492 135.086 48.5059 134.831 48.5059C134.439 48.5059 134.109 48.5856 133.84 48.7451C133.576 48.9001 133.361 49.1029 133.197 49.3535C133.033 49.6087 132.915 49.8936 132.842 50.208C132.773 50.5225 132.739 50.8392 132.739 51.1582V51.4453C132.739 51.7689 132.773 52.0902 132.842 52.4092C132.915 52.7236 133.033 53.0062 133.197 53.2568C133.357 53.512 133.569 53.7194 133.833 53.8789C134.102 54.0339 134.435 54.1113 134.831 54.1113ZM144.935 47.4668C145.167 47.4668 145.409 47.4827 145.659 47.5146C145.914 47.5465 146.106 47.5898 146.233 47.6445L146.062 48.8818C145.816 48.8271 145.582 48.7884 145.358 48.7656C145.14 48.7383 144.91 48.7246 144.668 48.7246C144.358 48.7246 144.078 48.7633 143.827 48.8408C143.576 48.9137 143.358 49.0231 143.171 49.1689C143.002 49.2965 142.854 49.4538 142.727 49.6406C142.604 49.8229 142.501 50.028 142.419 50.2559V55H141.147V47.6035H142.351L142.405 48.5947L142.412 48.7793C142.713 48.3737 143.073 48.0547 143.492 47.8223C143.916 47.5853 144.397 47.4668 144.935 47.4668ZM151.764 55.1367C151.244 55.1367 150.766 55.0479 150.328 54.8701C149.895 54.6924 149.524 54.444 149.214 54.125C148.904 53.806 148.662 53.4277 148.489 52.9902C148.316 52.5527 148.229 52.0765 148.229 51.5615V51.2744C148.229 50.6774 148.325 50.1442 148.517 49.6748C148.708 49.2008 148.963 48.7998 149.282 48.4717C149.597 48.1481 149.954 47.8997 150.355 47.7266C150.761 47.5534 151.176 47.4668 151.6 47.4668C152.133 47.4668 152.598 47.5602 152.994 47.7471C153.395 47.9294 153.728 48.1823 153.992 48.5059C154.257 48.834 154.452 49.2191 154.58 49.6611C154.712 50.1032 154.778 50.5817 154.778 51.0967V51.6641H149.494V51.7119C149.526 52.0719 149.597 52.3887 149.706 52.6621C149.82 52.9355 149.975 53.1771 150.171 53.3867C150.371 53.61 150.613 53.7855 150.896 53.9131C151.178 54.0407 151.49 54.1045 151.832 54.1045C152.283 54.1045 152.684 54.0133 153.035 53.8311C153.386 53.6488 153.678 53.4072 153.91 53.1064L154.683 53.708C154.437 54.0817 154.067 54.4144 153.575 54.7061C153.088 54.9932 152.484 55.1367 151.764 55.1367ZM151.6 48.5059C151.344 48.5059 151.103 48.5537 150.875 48.6494C150.647 48.7406 150.442 48.875 150.26 49.0527C150.077 49.235 149.923 49.4583 149.795 49.7227C149.672 49.9824 149.585 50.2832 149.535 50.625H153.514V50.5635C153.514 50.3356 153.47 50.0918 153.384 49.832C153.297 49.5677 153.176 49.3398 153.021 49.1484C152.867 48.957 152.671 48.8021 152.434 48.6836C152.201 48.5651 151.923 48.5059 151.6 48.5059ZM161.765 55C161.715 54.9043 161.674 54.7858 161.642 54.6445C161.614 54.4987 161.594 54.3483 161.58 54.1934C161.452 54.321 161.309 54.4417 161.149 54.5557C160.994 54.6696 160.824 54.7699 160.637 54.8564C160.445 54.943 160.243 55.0114 160.028 55.0615C159.814 55.1117 159.586 55.1367 159.345 55.1367C158.953 55.1367 158.597 55.0798 158.278 54.9658C157.964 54.8519 157.697 54.6969 157.479 54.501C157.255 54.3096 157.082 54.0817 156.959 53.8174C156.84 53.5485 156.781 53.2591 156.781 52.9492C156.781 52.5436 156.861 52.1882 157.021 51.8828C157.185 51.5775 157.415 51.3223 157.711 51.1172C158.007 50.9167 158.363 50.7663 158.777 50.666C159.197 50.5658 159.664 50.5156 160.179 50.5156H161.56V49.9346C161.56 49.7113 161.519 49.5107 161.437 49.333C161.354 49.1553 161.238 49.0026 161.088 48.875C160.938 48.752 160.753 48.6562 160.534 48.5879C160.32 48.5195 160.078 48.4854 159.81 48.4854C159.559 48.4854 159.333 48.5173 159.133 48.5811C158.937 48.6449 158.771 48.7292 158.634 48.834C158.497 48.9388 158.39 49.0641 158.312 49.21C158.24 49.3512 158.203 49.4993 158.203 49.6543H156.932C156.936 49.3854 157.005 49.1211 157.137 48.8613C157.273 48.6016 157.469 48.3669 157.725 48.1572C157.975 47.9521 158.281 47.7858 158.641 47.6582C159.005 47.5306 159.418 47.4668 159.878 47.4668C160.297 47.4668 160.687 47.5192 161.047 47.624C161.407 47.7243 161.719 47.877 161.983 48.082C162.243 48.2917 162.448 48.5514 162.599 48.8613C162.749 49.1712 162.824 49.5335 162.824 49.9482V53.3867C162.824 53.6328 162.847 53.8949 162.893 54.1729C162.938 54.4463 163.002 54.6855 163.084 54.8906V55H161.765ZM159.529 54.0361C159.775 54.0361 160.006 54.0042 160.22 53.9404C160.434 53.8766 160.63 53.7923 160.808 53.6875C160.981 53.5827 161.131 53.4642 161.259 53.332C161.386 53.1953 161.487 53.054 161.56 52.9082V51.4111H160.384C159.946 51.4111 159.563 51.4499 159.235 51.5273C158.912 51.6003 158.654 51.7142 158.463 51.8691C158.326 51.9785 158.221 52.1084 158.148 52.2588C158.08 52.4092 158.046 52.5801 158.046 52.7715C158.046 52.9538 158.076 53.1224 158.135 53.2773C158.199 53.4323 158.292 53.5645 158.415 53.6738C158.538 53.7878 158.693 53.8766 158.88 53.9404C159.067 54.0042 159.283 54.0361 159.529 54.0361ZM168.307 45.8125V47.6035H171.123V48.5811H168.307V52.6006C168.307 52.8877 168.343 53.1247 168.416 53.3115C168.489 53.4984 168.589 53.6465 168.717 53.7559C168.844 53.8698 168.99 53.9495 169.154 53.9951C169.323 54.0407 169.501 54.0635 169.688 54.0635C169.824 54.0635 169.965 54.0566 170.111 54.043C170.257 54.0247 170.401 54.0042 170.542 53.9814C170.679 53.9587 170.806 53.9359 170.925 53.9131C171.048 53.8857 171.148 53.863 171.226 53.8447L171.403 54.7402C171.299 54.804 171.171 54.861 171.021 54.9111C170.87 54.9567 170.706 54.9954 170.528 55.0273C170.351 55.0638 170.161 55.0911 169.961 55.1094C169.765 55.1276 169.569 55.1367 169.373 55.1367C169.045 55.1367 168.737 55.0911 168.45 55C168.168 54.9043 167.922 54.7539 167.712 54.5488C167.502 54.3483 167.336 54.0885 167.213 53.7695C167.094 53.446 167.035 53.0563 167.035 52.6006V48.5811H165.094V47.6035H167.035V45.8125H168.307ZM176.988 55.1367C176.469 55.1367 175.99 55.0479 175.553 54.8701C175.12 54.6924 174.748 54.444 174.438 54.125C174.129 53.806 173.887 53.4277 173.714 52.9902C173.541 52.5527 173.454 52.0765 173.454 51.5615V51.2744C173.454 50.6774 173.55 50.1442 173.741 49.6748C173.933 49.2008 174.188 48.7998 174.507 48.4717C174.821 48.1481 175.179 47.8997 175.58 47.7266C175.986 47.5534 176.4 47.4668 176.824 47.4668C177.357 47.4668 177.822 47.5602 178.219 47.7471C178.62 47.9294 178.952 48.1823 179.217 48.5059C179.481 48.834 179.677 49.2191 179.805 49.6611C179.937 50.1032 180.003 50.5817 180.003 51.0967V51.6641H174.719V51.7119C174.751 52.0719 174.821 52.3887 174.931 52.6621C175.045 52.9355 175.2 53.1771 175.396 53.3867C175.596 53.61 175.838 53.7855 176.12 53.9131C176.403 54.0407 176.715 54.1045 177.057 54.1045C177.508 54.1045 177.909 54.0133 178.26 53.8311C178.611 53.6488 178.902 53.4072 179.135 53.1064L179.907 53.708C179.661 54.0817 179.292 54.4144 178.8 54.7061C178.312 54.9932 177.708 55.1367 176.988 55.1367ZM176.824 48.5059C176.569 48.5059 176.327 48.5537 176.1 48.6494C175.872 48.7406 175.667 48.875 175.484 49.0527C175.302 49.235 175.147 49.4583 175.02 49.7227C174.896 49.9824 174.81 50.2832 174.76 50.625H178.738V50.5635C178.738 50.3356 178.695 50.0918 178.608 49.832C178.522 49.5677 178.401 49.3398 178.246 49.1484C178.091 48.957 177.895 48.8021 177.658 48.6836C177.426 48.5651 177.148 48.5059 176.824 48.5059Z" fill="white"/>
</svg>
