<svg width="48" height="48" viewBox="0 0 48 48" fill="none" xmlns="http://www.w3.org/2000/svg">
<path d="M8 0.5H40C44.1421 0.5 47.5 3.85786 47.5 8V40C47.5 44.1421 44.1421 47.5 40 47.5H8C3.85786 47.5 0.5 44.1421 0.5 40V8C0.500001 3.85786 3.85787 0.5 8 0.5Z" fill="url(#paint0_radial_2675_9529)" style=""/>
<path d="M8 0.5H40C44.1421 0.5 47.5 3.85786 47.5 8V40C47.5 44.1421 44.1421 47.5 40 47.5H8C3.85786 47.5 0.5 44.1421 0.5 40V8C0.500001 3.85786 3.85787 0.5 8 0.5Z" stroke="#E6E6E6" style="stroke:#E6E6E6;stroke:color(display-p3 0.9020 0.9020 0.9020);stroke-opacity:1;"/>
<path fill-rule="evenodd" clip-rule="evenodd" d="M24 12.375C30.4203 12.375 35.625 17.5797 35.625 24C35.625 30.4203 30.4203 35.625 24 35.625C17.5797 35.625 12.375 30.4203 12.375 24C12.375 17.5797 17.5797 12.375 24 12.375ZM27.1011 28.6919C26.2119 29.2808 25.1464 29.625 24 29.625C22.8532 29.625 21.7869 29.2812 20.8975 28.6919L18.2153 31.374C19.8089 32.6259 21.8163 33.375 24 33.375C26.1833 33.375 28.1897 32.6255 29.7832 31.374L27.1011 28.6919ZM16.6245 18.2153C15.373 19.8088 14.625 21.8166 14.625 24C14.625 26.183 15.3734 28.1899 16.6245 29.7832L19.3066 27.0996C18.7184 26.2107 18.375 25.1457 18.375 24C18.375 22.8535 18.7176 21.7867 19.3066 20.8975L16.6245 18.2153ZM28.6919 20.8975C29.2812 21.7869 29.625 22.8532 29.625 24C29.625 25.1464 29.2808 26.2119 28.6919 27.1011L31.374 29.7832C32.6255 28.1897 33.375 26.1833 33.375 24C33.375 21.8163 32.6259 19.8089 31.374 18.2153L28.6919 20.8975ZM24 20.625C22.136 20.625 20.625 22.136 20.625 24C20.625 25.864 22.136 27.375 24 27.375C25.864 27.375 27.375 25.864 27.375 24C27.375 22.136 25.864 20.625 24 20.625ZM24 14.625C21.8166 14.625 19.8088 15.373 18.2153 16.6245L20.8975 19.3066C21.7867 18.7176 22.8535 18.375 24 18.375C25.1457 18.375 26.2107 18.7184 27.0996 19.3066L29.7832 16.6245C28.1899 15.3734 26.183 14.625 24 14.625Z" fill="#1F1F1F" style="fill:#1F1F1F;fill:color(display-p3 0.1216 0.1216 0.1216);fill-opacity:1;"/>
<defs>
<radialGradient id="paint0_radial_2675_9529" cx="0" cy="0" r="1" gradientTransform="matrix(-61 85.5 -53.6865 -38.874 48 -19)" gradientUnits="userSpaceOnUse">
<stop stop-color="#6742D5" style="stop-color:#6742D5;stop-color:color(display-p3 0.4039 0.2588 0.8353);stop-opacity:1;"/>
<stop offset="0.629808" stop-color="#EFEFEF" style="stop-color:#EFEFEF;stop-color:color(display-p3 0.9373 0.9373 0.9373);stop-opacity:1;"/>
</radialGradient>
</defs>
</svg>
