<svg width="48" height="48" viewBox="0 0 48 48" fill="none" xmlns="http://www.w3.org/2000/svg">
<path d="M8 0.5H40C44.1421 0.5 47.5 3.85786 47.5 8V40C47.5 44.1421 44.1421 47.5 40 47.5H8C3.85786 47.5 0.5 44.1421 0.5 40V8C0.500001 3.85786 3.85787 0.5 8 0.5Z" fill="url(#paint0_radial_21_65381)"/>
<path d="M8 0.5H40C44.1421 0.5 47.5 3.85786 47.5 8V40C47.5 44.1421 44.1421 47.5 40 47.5H8C3.85786 47.5 0.5 44.1421 0.5 40V8C0.500001 3.85786 3.85787 0.5 8 0.5Z" stroke="#E6E6E6"/>
<path fill-rule="evenodd" clip-rule="evenodd" d="M24.5669 23.6411C27.3791 23.7967 29.8853 25.1014 31.623 27.0894L31.8281 27.3516C32.7572 28.6956 32.3238 30.5208 30.9565 31.3784C29.0661 32.5634 26.851 33.2809 24.4775 33.3662L24 33.375C21.6058 33.3748 19.3599 32.7305 17.4272 31.6084L17.0449 31.3784C15.5858 30.4636 15.191 28.4482 16.3784 27.0894L16.7358 26.7012C18.5736 24.8064 21.149 23.6253 24 23.625L24.5669 23.6411ZM23.5605 25.8867C21.3743 26.0072 19.4277 27.0208 18.0732 28.5703C17.8503 28.8254 17.8836 29.2474 18.2402 29.4712L18.5566 29.6631C20.1567 30.5921 22.0148 31.1248 24 31.125L24.3955 31.1177C26.3637 31.0471 28.197 30.4528 29.7627 29.4712C30.0736 29.2755 30.1388 28.9273 30.0014 28.6729L29.9297 28.5703C28.4849 26.9173 26.3643 25.8753 24 25.875L23.5605 25.8867Z" fill="#1F1F1F"/>
<path d="M14.2895 24.627C14.7314 24.2665 15.3835 24.2928 15.7954 24.7046C16.2073 25.1165 16.2335 25.7686 15.873 26.2104L15.7954 26.2954L15.7324 26.3584C14.7227 27.3682 14.2784 28.8059 14.5312 30.1992L14.5913 30.4775L14.6133 30.5903C14.6949 31.1546 14.3375 31.7 13.7724 31.8413C13.2074 31.9822 12.6356 31.6688 12.4424 31.1323L12.4087 31.0225L12.3179 30.6006C11.9338 28.4844 12.608 26.3013 14.1416 24.7676L14.2046 24.7046L14.2895 24.627Z" fill="#1F1F1F"/>
<path d="M32.2046 24.7046C32.6164 24.2927 33.2686 24.2667 33.7104 24.627L33.7954 24.7046L33.8584 24.7676L34.1543 25.0825C35.5726 26.6995 36.1172 28.9182 35.5913 31.0225C35.4406 31.6251 34.8302 31.9918 34.2275 31.8413C33.6251 31.6905 33.2583 31.0801 33.4087 30.4775C33.755 29.0921 33.3961 27.6311 32.4624 26.5664L32.2676 26.3584L32.2046 26.2954L32.1269 26.2104C31.7667 25.7686 31.7929 25.1165 32.2046 24.7046Z" fill="#1F1F1F"/>
<path fill-rule="evenodd" clip-rule="evenodd" d="M16.5 18.375C17.9497 18.375 19.125 19.5503 19.125 21C19.125 22.4497 17.9497 23.625 16.5 23.625C15.0504 23.6248 13.875 22.4496 13.875 21C13.875 19.5504 15.0504 18.3752 16.5 18.375ZM16.5 20.625C16.293 20.6252 16.125 20.793 16.125 21C16.125 21.207 16.293 21.3748 16.5 21.375C16.7071 21.375 16.875 21.2071 16.875 21C16.875 20.7929 16.7071 20.625 16.5 20.625Z" fill="#1F1F1F"/>
<path fill-rule="evenodd" clip-rule="evenodd" d="M31.5 18.375C32.9497 18.375 34.125 19.5503 34.125 21C34.125 22.4497 32.9497 23.625 31.5 23.625C30.0504 23.6248 28.875 22.4496 28.875 21C28.875 19.5504 30.0504 18.3752 31.5 18.375ZM31.5 20.625C31.293 20.6252 31.125 20.793 31.125 21C31.125 21.207 31.293 21.3748 31.5 21.375C31.7071 21.375 31.875 21.2071 31.875 21C31.875 20.7929 31.7071 20.625 31.5 20.625Z" fill="#1F1F1F"/>
<path fill-rule="evenodd" clip-rule="evenodd" d="M24 14.625C26.2779 14.6253 28.125 16.472 28.125 18.75C28.125 21.028 26.2779 22.8747 24 22.875C21.7221 22.8746 19.875 21.0279 19.875 18.75C19.875 16.4721 21.7221 14.6254 24 14.625ZM24 16.875C22.9648 16.8754 22.125 17.7147 22.125 18.75C22.125 19.7853 22.9648 20.6246 24 20.625C25.0353 20.6247 25.875 19.7854 25.875 18.75C25.875 17.7146 25.0353 16.8753 24 16.875Z" fill="#1F1F1F"/>
<defs>
<radialGradient id="paint0_radial_21_65381" cx="0" cy="0" r="1" gradientTransform="matrix(-61 85.5 -53.6865 -38.874 48 -19)" gradientUnits="userSpaceOnUse">
<stop stop-color="#6742D5"/>
<stop offset="0.629808" stop-color="#EFEFEF"/>
</radialGradient>
</defs>
</svg>
