<svg width="48" height="48" viewBox="0 0 48 48" fill="none" xmlns="http://www.w3.org/2000/svg">
<path d="M8 0.5H40C44.1421 0.5 47.5 3.85786 47.5 8V40C47.5 44.1421 44.1421 47.5 40 47.5H8C3.85786 47.5 0.5 44.1421 0.5 40V8C0.500001 3.85786 3.85787 0.5 8 0.5Z" fill="url(#paint0_radial_21_118211)"/>
<path d="M8 0.5H40C44.1421 0.5 47.5 3.85786 47.5 8V40C47.5 44.1421 44.1421 47.5 40 47.5H8C3.85786 47.5 0.5 44.1421 0.5 40V8C0.500001 3.85786 3.85787 0.5 8 0.5Z" stroke="#282828"/>
<path d="M26 33C26.5523 33 27 33.4477 27 34C27 34.5523 26.5523 35 26 35H22C21.4477 35 21 34.5523 21 34C21 33.4477 21.4477 33 22 33H26ZM27 29C27.5523 29 28 29.4477 28 30C28 30.5523 27.5523 31 27 31H21C20.4477 31 20 30.5523 20 30C20 29.4477 20.4477 29 21 29H27ZM29 20C29 18.6739 28.4728 17.4025 27.5352 16.4648C26.6561 15.5858 25.4838 15.0672 24.248 15.0059L24 15C22.6739 15 21.4025 15.5272 20.4648 16.4648C19.5272 17.4025 19 18.6739 19 20L19.0078 20.3066C19.0489 21.0363 19.2719 21.8579 20.207 22.793C20.9632 23.5492 21.7237 24.5202 21.9805 25.8037C22.0888 26.3452 21.7377 26.8721 21.1963 26.9805C20.6885 27.082 20.1939 26.7795 20.0449 26.2949L20.0195 26.1963L19.9521 25.9316C19.7633 25.3224 19.3564 24.7704 18.793 24.207C17.4528 22.8668 17.0856 21.5662 17.0146 20.4609L17 20C17 18.1435 17.7371 16.3626 19.0498 15.0498C20.3626 13.7371 22.1435 13 24 13L24.3467 13.0088C26.077 13.0945 27.7194 13.819 28.9502 15.0498C30.2629 16.3626 31 18.1435 31 20C31 21.5309 30.4159 23.0954 29.2061 24.2061L29.207 24.207C28.4731 24.9409 28.1254 25.4714 27.9805 26.1963C27.8721 26.7377 27.3452 27.0888 26.8037 26.9805C26.2623 26.8721 25.9112 26.3452 26.0195 25.8037C26.2746 24.5287 26.9269 23.659 27.793 22.793L27.8311 22.7568C28.5948 22.0695 29 21.0528 29 20Z" fill="#EEEEEE"/>
<defs>
<radialGradient id="paint0_radial_21_118211" cx="0" cy="0" r="1" gradientTransform="matrix(-89 86.5 -54.1936 -56.5484 73.5 -31.5)" gradientUnits="userSpaceOnUse">
<stop offset="0.0160387" stop-color="#B3A7FF"/>
<stop offset="0.670311" stop-color="#282828"/>
</radialGradient>
</defs>
</svg>
