<svg width="48" height="48" viewBox="0 0 48 48" fill="none" xmlns="http://www.w3.org/2000/svg">
<path d="M8 0.5H40C44.1421 0.5 47.5 3.85786 47.5 8V40C47.5 44.1421 44.1421 47.5 40 47.5H8C3.85786 47.5 0.5 44.1421 0.5 40V8C0.500001 3.85786 3.85787 0.5 8 0.5Z" fill="url(#paint0_radial_21_65372)"/>
<path d="M8 0.5H40C44.1421 0.5 47.5 3.85786 47.5 8V40C47.5 44.1421 44.1421 47.5 40 47.5H8C3.85786 47.5 0.5 44.1421 0.5 40V8C0.500001 3.85786 3.85787 0.5 8 0.5Z" stroke="#E6E6E6"/>
<path d="M28 16C27.2044 16 26.4415 16.3163 25.8789 16.8789C25.3163 17.4415 25 18.2044 25 19V29.5371C25.603 29.1889 26.2916 29 27 29H33V16H28ZM20 23C20.5523 23 21 23.4477 21 24C21 24.5523 20.5523 25 20 25H18C17.4477 25 17 24.5523 17 24C17 23.4477 17.4477 23 18 23H20ZM30 23C30.5523 23 31 23.4477 31 24C31 24.5523 30.5523 25 30 25H28C27.4477 25 27 24.5523 27 24C27 23.4477 27.4477 23 28 23H30ZM20 19C20.5523 19 21 19.4477 21 20C21 20.5523 20.5523 21 20 21H18C17.4477 21 17 20.5523 17 20C17 19.4477 17.4477 19 18 19H20ZM30 19C30.5523 19 31 19.4477 31 20C31 20.5523 30.5523 21 30 21H28C27.4477 21 27 20.5523 27 20C27 19.4477 27.4477 19 28 19H30ZM15 29H21C21.7084 29 22.397 29.1889 23 29.5371V19C23 18.2044 22.6837 17.4415 22.1211 16.8789C21.5585 16.3163 20.7956 16 20 16H15V29ZM35 29C35 29.5304 34.7891 30.039 34.4141 30.4141C34.039 30.7891 33.5304 31 33 31H27C26.4696 31 25.961 31.2109 25.5859 31.5859C25.2109 31.961 25 32.4696 25 33C25 33.5523 24.5523 34 24 34C23.4477 34 23 33.5523 23 33C23 32.4696 22.7891 31.961 22.4141 31.5859C22.0858 31.2577 21.6553 31.0551 21.1973 31.0098L21 31H15C14.4696 31 13.961 30.7891 13.5859 30.4141C13.2109 30.039 13 29.5304 13 29V16C13 15.4696 13.2109 14.961 13.5859 14.5859C13.961 14.2109 14.4696 14 15 14H20C21.3261 14 22.5975 14.5272 23.5352 15.4648C23.7036 15.6333 23.8587 15.8126 24 16.001C24.1413 15.8126 24.2964 15.6333 24.4648 15.4648C25.4025 14.5272 26.6739 14 28 14H33C33.5304 14 34.039 14.2109 34.4141 14.5859C34.7891 14.961 35 15.4696 35 16V29Z" fill="#1F1F1F"/>
<defs>
<radialGradient id="paint0_radial_21_65372" cx="0" cy="0" r="1" gradientTransform="matrix(-61 85.5 -53.6865 -38.874 48 -19)" gradientUnits="userSpaceOnUse">
<stop stop-color="#6742D5"/>
<stop offset="0.629808" stop-color="#EFEFEF"/>
</radialGradient>
</defs>
</svg>
