<svg width="48" height="48" viewBox="0 0 48 48" fill="none" xmlns="http://www.w3.org/2000/svg">
<path d="M8 0.5H40C44.1421 0.5 47.5 3.85786 47.5 8V40C47.5 44.1421 44.1421 47.5 40 47.5H8C3.85786 47.5 0.5 44.1421 0.5 40V8C0.500001 3.85786 3.85787 0.5 8 0.5Z" fill="url(#paint0_radial_21_65389)"/>
<path d="M8 0.5H40C44.1421 0.5 47.5 3.85786 47.5 8V40C47.5 44.1421 44.1421 47.5 40 47.5H8C3.85786 47.5 0.5 44.1421 0.5 40V8C0.500001 3.85786 3.85787 0.5 8 0.5Z" stroke="#E6E6E6"/>
<path d="M21 12.375C21.5022 12.375 21.943 12.7081 22.0811 13.1909L26.9985 30.4058L28.6069 24.7793L28.6758 24.5713C29.0586 23.5578 30.0325 22.8752 31.1309 22.875H34.5C35.1213 22.875 35.625 23.3787 35.625 24C35.625 24.6213 35.1213 25.125 34.5 25.125H31.1309C31.0057 25.1252 30.8918 25.1874 30.8232 25.2861L30.7705 25.3975L28.0811 34.8091C27.943 35.2919 27.5022 35.625 27 35.625C26.4978 35.625 26.057 35.2919 25.9189 34.8091L21 17.5928L19.3931 23.2207C19.0711 24.3474 18.0409 25.1247 16.8691 25.125H13.5C12.8787 25.125 12.375 24.6213 12.375 24C12.375 23.3787 12.8787 22.875 13.5 22.875H16.8691C17.0363 22.8747 17.1835 22.7633 17.2295 22.6025L19.9189 13.1909L19.9834 13.0166C20.1673 12.6295 20.5606 12.375 21 12.375Z" fill="#1F1F1F"/>
<defs>
<radialGradient id="paint0_radial_21_65389" cx="0" cy="0" r="1" gradientTransform="matrix(-61 85.5 -53.6865 -38.874 48 -19)" gradientUnits="userSpaceOnUse">
<stop stop-color="#6742D5"/>
<stop offset="0.629808" stop-color="#EFEFEF"/>
</radialGradient>
</defs>
</svg>
