<svg width="576" height="48" viewBox="0 0 576 48" fill="none" xmlns="http://www.w3.org/2000/svg">
<rect x="0.5" y="0.5" width="575" height="47" rx="13.5" fill="#0B0C0E"/>
<rect x="0.5" y="0.5" width="575" height="47" rx="13.5" stroke="#14151A"/>
<path d="M17.288 29V21.3H18.548V22.77H18.814L18.548 23.064C18.548 22.4573 18.73 21.9907 19.094 21.664C19.458 21.328 19.962 21.16 20.606 21.16C21.3807 21.16 21.9967 21.398 22.454 21.874C22.9113 22.35 23.14 22.9987 23.14 23.82V29H21.88V23.96C21.88 23.4093 21.7307 22.9893 21.432 22.7C21.1427 22.4013 20.746 22.252 20.242 22.252C19.7193 22.252 19.304 22.4107 18.996 22.728C18.6973 23.0453 18.548 23.5027 18.548 24.1V29H17.288ZM25.5825 31.52V21.3H26.8425V22.77H27.0945L26.8425 23.064C26.8425 22.476 27.0339 22.014 27.4165 21.678C27.8085 21.3327 28.3219 21.16 28.9565 21.16C29.7312 21.16 30.3472 21.4167 30.8045 21.93C31.2712 22.434 31.5045 23.1293 31.5045 24.016V26.27C31.5045 26.858 31.3972 27.3667 31.1825 27.796C30.9772 28.2253 30.6832 28.5567 30.3005 28.79C29.9272 29.0233 29.4792 29.14 28.9565 29.14C28.3312 29.14 27.8225 28.9673 27.4305 28.622C27.0385 28.2767 26.8425 27.8147 26.8425 27.236L27.0945 27.53H26.8145L26.8425 29.28V31.52H25.5825ZM28.5365 28.048C29.0685 28.048 29.4839 27.8893 29.7825 27.572C30.0905 27.2547 30.2445 26.7973 30.2445 26.2V24.1C30.2445 23.5027 30.0905 23.0453 29.7825 22.728C29.4839 22.4107 29.0685 22.252 28.5365 22.252C28.0232 22.252 27.6125 22.4153 27.3045 22.742C26.9965 23.0687 26.8425 23.5213 26.8425 24.1V26.2C26.8425 26.7787 26.9965 27.2313 27.3045 27.558C27.6125 27.8847 28.0232 28.048 28.5365 28.048ZM33.5131 29V21.3H34.6191V22.224H34.8711L34.6751 22.56C34.6751 22.1307 34.7871 21.79 35.0111 21.538C35.2444 21.286 35.5571 21.16 35.9491 21.16C36.3784 21.16 36.7097 21.3187 36.9431 21.636C37.1764 21.9533 37.2931 22.4013 37.2931 22.98L36.9151 22.224H37.5031L37.2371 22.56C37.2371 22.1307 37.3537 21.79 37.5871 21.538C37.8297 21.286 38.1471 21.16 38.5391 21.16C39.0244 21.16 39.3977 21.342 39.6591 21.706C39.9297 22.07 40.0651 22.5507 40.0651 23.148V29H38.9031V23.134C38.9031 22.8167 38.8331 22.5693 38.6931 22.392C38.5624 22.2147 38.3664 22.126 38.1051 22.126C37.8531 22.126 37.6524 22.2147 37.5031 22.392C37.3631 22.56 37.2931 22.8027 37.2931 23.12V29H36.2851V23.134C36.2851 22.8073 36.2104 22.56 36.0611 22.392C35.9211 22.2147 35.7204 22.126 35.4591 22.126C35.1977 22.126 35.0017 22.2147 34.8711 22.392C34.7404 22.56 34.6751 22.8027 34.6751 23.12V29H33.5131ZM50.3681 29V27.852H53.0981V22.448H50.7181V21.3H54.3581V27.852H56.9481V29H50.3681ZM53.5881 19.914C53.2801 19.914 53.0375 19.8347 52.8601 19.676C52.6828 19.5173 52.5941 19.3027 52.5941 19.032C52.5941 18.752 52.6828 18.5327 52.8601 18.374C53.0375 18.206 53.2801 18.122 53.5881 18.122C53.8961 18.122 54.1388 18.206 54.3161 18.374C54.4935 18.5327 54.5821 18.752 54.5821 19.032C54.5821 19.3027 54.4935 19.5173 54.3161 19.676C54.1388 19.8347 53.8961 19.914 53.5881 19.914Z" fill="white"/>
<path d="M69.2952 29.14C68.4832 29.14 67.8439 28.9347 67.3772 28.524C66.9105 28.104 66.6772 27.5393 66.6772 26.83C66.6772 26.1113 66.9105 25.5467 67.3772 25.136C67.8439 24.7253 68.4739 24.52 69.2672 24.52H71.6472V23.75C71.6472 23.274 71.5025 22.91 71.2132 22.658C70.9332 22.3967 70.5319 22.266 70.0092 22.266C69.5519 22.266 69.1692 22.364 68.8612 22.56C68.5532 22.7467 68.3759 23.0033 68.3292 23.33H67.0692C67.1532 22.6673 67.4659 22.14 68.0072 21.748C68.5485 21.356 69.2252 21.16 70.0372 21.16C70.9239 21.16 71.6239 21.3887 72.1372 21.846C72.6505 22.3033 72.9072 22.924 72.9072 23.708V29H71.6752V27.53H71.4652L71.6752 27.32C71.6752 27.88 71.4559 28.3233 71.0172 28.65C70.5879 28.9767 70.0139 29.14 69.2952 29.14ZM69.6032 28.146C70.2005 28.146 70.6905 27.9967 71.0732 27.698C71.4559 27.3993 71.6472 27.0167 71.6472 26.55V25.458H69.2952C68.8752 25.458 68.5439 25.5747 68.3012 25.808C68.0585 26.0413 67.9372 26.3587 67.9372 26.76C67.9372 27.1893 68.0819 27.53 68.3712 27.782C68.6699 28.0247 69.0805 28.146 69.6032 28.146ZM78.2477 29.14C77.3611 29.14 76.6517 28.8787 76.1197 28.356C75.5877 27.824 75.3217 27.1053 75.3217 26.2V21.3H76.5817V26.2C76.5817 26.7787 76.7311 27.2313 77.0297 27.558C77.3284 27.8753 77.7344 28.034 78.2477 28.034C78.7704 28.034 79.1811 27.8753 79.4797 27.558C79.7877 27.2313 79.9417 26.7787 79.9417 26.2V21.3H81.2017V26.2C81.2017 27.1053 80.9311 27.824 80.3897 28.356C79.8484 28.8787 79.1344 29.14 78.2477 29.14ZM87.3962 29C86.7336 29 86.2156 28.8227 85.8422 28.468C85.4782 28.1133 85.2962 27.614 85.2962 26.97V22.448H83.1262V21.3H85.2962V19.13H86.5562V21.3H89.6362V22.448H86.5562V26.97C86.5562 27.558 86.8362 27.852 87.3962 27.852H89.4962V29H87.3962ZM91.9388 29V18.78H93.1988V21.3V22.77H93.4648L93.1988 23.064C93.1988 22.4573 93.3808 21.9907 93.7448 21.664C94.1088 21.328 94.6128 21.16 95.2568 21.16C96.0314 21.16 96.6474 21.398 97.1048 21.874C97.5621 22.35 97.7908 22.9987 97.7908 23.82V29H96.5308V23.96C96.5308 23.4093 96.3814 22.9847 96.0828 22.686C95.7934 22.378 95.3968 22.224 94.8928 22.224C94.3701 22.224 93.9548 22.3873 93.6468 22.714C93.3481 23.0407 93.1988 23.5027 93.1988 24.1V29H91.9388ZM103.145 29.14C102.52 29.14 101.974 29.0187 101.507 28.776C101.05 28.524 100.695 28.174 100.443 27.726C100.191 27.2687 100.065 26.7367 100.065 26.13V21.65C100.065 21.034 100.191 20.502 100.443 20.054C100.695 19.606 101.05 19.2607 101.507 19.018C101.974 18.766 102.52 18.64 103.145 18.64C103.78 18.64 104.326 18.766 104.783 19.018C105.241 19.2607 105.595 19.606 105.847 20.054C106.099 20.502 106.225 21.034 106.225 21.65V26.13C106.225 26.7367 106.099 27.2687 105.847 27.726C105.595 28.174 105.236 28.524 104.769 28.776C104.312 29.0187 103.771 29.14 103.145 29.14ZM103.145 28.062C103.705 28.062 104.153 27.8847 104.489 27.53C104.835 27.166 105.007 26.6993 105.007 26.13V21.65C105.007 21.0807 104.835 20.6187 104.489 20.264C104.153 19.9 103.705 19.718 103.145 19.718C102.585 19.718 102.133 19.9 101.787 20.264C101.451 20.6187 101.283 21.0807 101.283 21.65V26.13C101.283 26.6993 101.451 27.166 101.787 27.53C102.133 27.8847 102.585 28.062 103.145 28.062ZM103.145 24.716C102.893 24.716 102.688 24.6367 102.529 24.478C102.38 24.3193 102.305 24.1093 102.305 23.848C102.305 23.596 102.38 23.3953 102.529 23.246C102.688 23.0873 102.893 23.008 103.145 23.008C103.397 23.008 103.598 23.0873 103.747 23.246C103.906 23.3953 103.985 23.596 103.985 23.848C103.985 24.1093 103.906 24.3193 103.747 24.478C103.598 24.6367 103.397 24.716 103.145 24.716Z" fill="#F8B577"/>
<path d="M538 23C538 18.3406 538 16.0109 538.761 14.1732C539.776 11.7229 541.723 9.77614 544.173 8.7612C546.011 8 548.341 8 553 8C557.659 8 559.989 8 561.827 8.7612C564.277 9.77614 566.224 11.7229 567.239 14.1732C568 16.0109 568 18.3406 568 23C568 27.6594 568 29.9891 567.239 31.8268C566.224 34.2771 564.277 36.2239 561.827 37.2388C559.989 38 557.659 38 553 38C548.341 38 546.011 38 544.173 37.2388C541.723 36.2239 539.776 34.2771 538.761 31.8268C538 29.9891 538 27.6594 538 23Z" fill="white" fill-opacity="0.01"/>
<g clip-path="url(#clip0_8094_466)">
<path d="M557.083 20.0835H551.639C550.78 20.0835 550.083 20.7799 550.083 21.6391V27.0835C550.083 27.9426 550.78 28.6391 551.639 28.6391H557.083C557.942 28.6391 558.639 27.9426 558.639 27.0835V21.6391C558.639 20.7799 557.942 20.0835 557.083 20.0835Z" stroke="#999999" stroke-width="1.5" stroke-linecap="round" stroke-linejoin="round"/>
<path d="M548.179 25.3318L547.378 19.9465C547.252 19.0964 547.839 18.3054 548.688 18.1794L554.073 17.379C554.799 17.2709 555.481 17.6824 555.744 18.3341" stroke="#999999" stroke-width="1.5" stroke-linecap="round" stroke-linejoin="round"/>
</g>
<defs>
<clipPath id="clip0_8094_466">
<rect width="14" height="14" fill="white" transform="translate(546 16)"/>
</clipPath>
</defs>
</svg>
