<svg width="41" height="40" viewBox="0 0 41 40" fill="none" xmlns="http://www.w3.org/2000/svg">
<g clip-path="url(#clip0_2097_19471)">
<path d="M30.5 5C30.5 2.23858 26.0228 0 20.5 0C14.9772 0 10.5 2.23858 10.5 5V35C10.5 37.7614 14.9772 40 20.5 40C26.0228 40 30.5 37.7614 30.5 35V5Z" fill="#EEEEEE" style="fill:#EEEEEE;fill:color(display-p3 0.9333 0.9333 0.9333);fill-opacity:1;"/>
<path d="M35.5 10H5.5C2.73858 10 0.5 14.4772 0.5 20C0.5 25.5228 2.73858 30 5.5 30H35.5C38.2614 30 40.5 25.5228 40.5 20C40.5 14.4772 38.2614 10 35.5 10Z" fill="#EEEEEE" style="fill:#EEEEEE;fill:color(display-p3 0.9333 0.9333 0.9333);fill-opacity:1;"/>
<path d="M14.9999 6.85039C16.0216 6.85039 16.8499 6.02212 16.8499 5.00039C16.8499 3.97866 16.0216 3.15039 14.9999 3.15039C13.9782 3.15039 13.1499 3.97866 13.1499 5.00039C13.1499 6.02212 13.9782 6.85039 14.9999 6.85039Z" fill="#191919" style="fill:#191919;fill:color(display-p3 0.0980 0.0980 0.0980);fill-opacity:1;"/>
<path d="M25.9999 36.8504C27.0216 36.8504 27.8499 36.0221 27.8499 35.0004C27.8499 33.9787 27.0216 33.1504 25.9999 33.1504C24.9782 33.1504 24.1499 33.9787 24.1499 35.0004C24.1499 36.0221 24.9782 36.8504 25.9999 36.8504Z" fill="#191919" style="fill:#191919;fill:color(display-p3 0.0980 0.0980 0.0980);fill-opacity:1;"/>
<path d="M10.5 9.49951H20.5" stroke="#191919" style="stroke:#191919;stroke:color(display-p3 0.0980 0.0980 0.0980);stroke-opacity:1;"/>
<path d="M20.5 30.5005H30.5" stroke="#191919" style="stroke:#191919;stroke:color(display-p3 0.0980 0.0980 0.0980);stroke-opacity:1;"/>
<path d="M10 30C10 20 12.5 20 20 20C28.5 20 31 20 31 10" stroke="#191919" style="stroke:#191919;stroke:color(display-p3 0.0980 0.0980 0.0980);stroke-opacity:1;"/>
</g>
<defs>
<clipPath id="clip0_2097_19471">
<rect width="40" height="40" fill="white" style="fill:white;fill-opacity:1;" transform="translate(0.5)"/>
</clipPath>
</defs>
</svg>
