<svg width="54" height="20" viewBox="0 0 54 20" fill="none" xmlns="http://www.w3.org/2000/svg">
<path fill-rule="evenodd" clip-rule="evenodd" d="M33.4662 5.58663C32.5526 5.81864 31.8003 6.01839 31.0345 6.22176C30.4238 6.38393 29.8043 6.54844 29.0873 6.73344L29.0443 6.74499C28.694 6.83909 28.6575 6.84889 28.3315 6.4728C27.9406 6.02971 27.6539 5.74301 27.1065 5.48237C25.4645 4.67439 23.8746 4.90897 22.3889 5.87333C20.6166 7.02014 19.7043 8.7143 19.7305 10.8255C19.7565 12.9106 21.19 14.6309 23.249 14.9176C25.0215 15.1521 26.507 14.5266 27.6799 13.1973C27.8539 12.9847 28.0135 12.7577 28.1908 12.5057C28.2523 12.4182 28.3165 12.3269 28.3836 12.2329H23.3533C22.8059 12.2329 22.6756 11.8941 22.858 11.451C23.1969 10.643 23.8225 9.28771 24.1873 8.61004C24.2656 8.45367 24.448 8.19303 24.8389 8.19303H33.2266C33.6033 6.99954 34.2145 5.87179 35.0299 4.80471C36.9325 2.30257 39.2262 0.99938 42.3278 0.452037C44.9863 -0.0171142 47.4883 0.243526 49.7559 1.7813C51.815 3.18876 53.0922 5.09141 53.431 7.59356C53.874 11.1122 52.8576 13.9792 50.4336 16.4293C48.7135 18.1756 46.6022 19.2701 44.1783 19.7654C43.7159 19.851 43.2535 19.8917 42.7985 19.9316C42.561 19.9524 42.3256 19.9731 42.0932 20C39.7213 19.9479 37.558 19.2701 35.7336 17.7064C34.4505 16.5971 33.5665 15.234 33.1273 13.647C32.8225 14.2625 32.458 14.852 32.0326 15.4127C30.156 17.8889 27.706 19.4266 24.6043 19.8436C22.05 20.1824 19.6783 19.6873 17.5932 18.1234C15.6645 16.6639 14.5698 14.7351 14.283 12.3372C13.9442 9.49623 14.7783 6.94196 16.4985 4.70046C18.349 2.27651 20.799 0.738737 23.7963 0.191395C26.2465 -0.251693 28.5922 0.0350108 30.7033 1.46853C32.0848 2.38077 33.0752 3.63183 33.7268 5.14354C33.8832 5.37811 33.7789 5.50844 33.4662 5.58663ZM4.04004 6.05574C3.93578 6.05574 3.90971 6.00361 3.96184 5.92543L4.50918 5.2217C4.56131 5.1435 4.69164 5.09139 4.79588 5.09139H14.1008C14.205 5.09139 14.231 5.16957 14.1789 5.24776L13.7358 5.92543C13.6837 6.00361 13.5534 6.08181 13.4752 6.08181L4.04004 6.05574ZM0.104256 8.45367C4.47035e-08 8.45367 -0.0260642 8.40154 0.0260643 8.32336L0.573407 7.61963C0.625534 7.54143 0.755854 7.4893 0.86011 7.4893H12.7453C12.8495 7.4893 12.9017 7.5675 12.8756 7.64569L12.6671 8.27123C12.641 8.37549 12.5368 8.4276 12.4325 8.4276L0.104256 8.45367ZM6.3335 10.6952C6.28137 10.7734 6.30743 10.8516 6.41168 10.8516L12.0936 10.8777C12.1718 10.8777 12.2761 10.7995 12.2761 10.6952L12.3282 10.0697C12.3282 9.96543 12.2761 9.88723 12.1718 9.88723H6.95903C6.85477 9.88723 6.75053 9.96543 6.6984 10.0436L6.3335 10.6952ZM48.2783 9.19146C48.2833 9.279 48.2888 9.37124 48.2963 9.47016C48.166 11.7117 47.0453 13.3798 44.9863 14.4484C43.6049 15.1521 42.1713 15.2303 40.7379 14.6047C38.8612 13.7707 37.8708 11.7117 38.3399 9.67867C38.9133 7.22866 40.4772 5.69089 42.9012 5.14354C45.3772 4.57014 47.749 6.02972 48.2182 8.61006C48.255 8.7946 48.2659 8.97916 48.2783 9.19146Z" fill="white"/>
</svg>
