<svg width="54" height="20" viewBox="0 0 54 20" fill="none" xmlns="http://www.w3.org/2000/svg">
<path fill-rule="evenodd" clip-rule="evenodd" d="M33.4661 5.58663C32.5526 5.81864 31.8003 6.01839 31.0344 6.22176C30.4237 6.38393 29.8043 6.54844 29.0873 6.73344L29.0443 6.74499C28.694 6.83909 28.6574 6.84889 28.3314 6.4728C27.9405 6.02971 27.6538 5.74301 27.1064 5.48237C25.4644 4.67439 23.8745 4.90897 22.3888 5.87333C20.6166 7.02014 19.7043 8.7143 19.7304 10.8255C19.7564 12.9106 21.19 14.6309 23.249 14.9176C25.0214 15.1521 26.507 14.5266 27.6798 13.1973C27.8538 12.9847 28.0134 12.7577 28.1907 12.5057C28.2523 12.4182 28.3164 12.3269 28.3836 12.2329H23.3533C22.8058 12.2329 22.6756 11.8941 22.858 11.451C23.1968 10.643 23.8224 9.28771 24.1873 8.61004C24.2656 8.45367 24.448 8.19303 24.8388 8.19303H33.2266C33.6033 6.99954 34.2144 5.87179 35.0298 4.80471C36.9324 2.30257 39.2261 0.99938 42.3277 0.452037C44.9863 -0.0171142 47.4883 0.243526 49.7558 1.7813C51.815 3.18876 53.0921 5.09141 53.431 7.59356C53.874 11.1122 52.8576 13.9792 50.4336 16.4293C48.7134 18.1756 46.6021 19.2701 44.1783 19.7654C43.7158 19.851 43.2534 19.8917 42.7984 19.9316C42.561 19.9524 42.3256 19.9731 42.0931 20C39.7213 19.9479 37.558 19.2701 35.7336 17.7064C34.4504 16.5971 33.5664 15.234 33.1273 13.647C32.8224 14.2625 32.458 14.852 32.0326 15.4127C30.156 17.8889 27.706 19.4266 24.6043 19.8436C22.05 20.1824 19.6783 19.6873 17.5931 18.1234C15.6644 16.6639 14.5697 14.7351 14.283 12.3372C13.9441 9.49623 14.7783 6.94196 16.4984 4.70046C18.349 2.27651 20.799 0.738737 23.7963 0.191395C26.2464 -0.251693 28.5921 0.0350108 30.7033 1.46853C32.0847 2.38077 33.0751 3.63183 33.7267 5.14354C33.8831 5.37811 33.7788 5.50844 33.4661 5.58663ZM4.03998 6.05574C3.93572 6.05574 3.90965 6.00361 3.96178 5.92543L4.50912 5.2217C4.56125 5.1435 4.69158 5.09139 4.79582 5.09139H14.1007C14.205 5.09139 14.231 5.16957 14.1788 5.24776L13.7358 5.92543C13.6836 6.00361 13.5533 6.08181 13.4751 6.08181L4.03998 6.05574ZM0.104195 8.45367C-6.09905e-05 8.45367 -0.0261253 8.40154 0.0260033 8.32336L0.573346 7.61963C0.625473 7.54143 0.755793 7.4893 0.860049 7.4893H12.7452C12.8495 7.4893 12.9016 7.5675 12.8755 7.64569L12.667 8.27123C12.641 8.37549 12.5367 8.4276 12.4324 8.4276L0.104195 8.45367ZM6.33344 10.6952C6.28131 10.7734 6.30737 10.8516 6.41162 10.8516L12.0936 10.8777C12.1718 10.8777 12.276 10.7995 12.276 10.6952L12.3281 10.0697C12.3281 9.96543 12.276 9.88723 12.1718 9.88723H6.95897C6.85471 9.88723 6.75046 9.96543 6.69834 10.0436L6.33344 10.6952ZM48.2783 9.19146C48.2833 9.279 48.2887 9.37124 48.2963 9.47016C48.166 11.7117 47.0453 13.3798 44.9863 14.4484C43.6048 15.1521 42.1713 15.2303 40.7378 14.6047C38.8611 13.7707 37.8707 11.7117 38.3398 9.67867C38.9133 7.22866 40.4771 5.69089 42.9011 5.14354C45.3771 4.57014 47.749 6.02972 48.2181 8.61006C48.255 8.7946 48.2658 8.97916 48.2783 9.19146Z" fill="#14151A"/>
</svg>
