<svg width="33" height="32" viewBox="0 0 33 32" fill="none" xmlns="http://www.w3.org/2000/svg">
<path d="M4.66663 24V8C4.66663 4.68629 7.35292 2 10.6666 2H19.6666L28.6666 11V24C28.6666 27.3137 25.9803 30 22.6666 30H10.6666C7.35292 30 4.66663 27.3137 4.66663 24Z" fill="#FFBF9F"/>
<path d="M19.6666 2H10.6666C7.35292 2 4.66663 4.68629 4.66663 8V24C4.66663 27.3137 7.35292 30 10.6666 30H22.6666C25.9803 30 28.6666 27.3137 28.6666 24V11M19.6666 2L28.6666 11M19.6666 2V11H28.6666" stroke="#C45915" stroke-width="1.77778" stroke-linecap="round" stroke-linejoin="round"/>
<path d="M10.6666 10H14.6666" stroke="#C45915" stroke-width="1.77778" stroke-linecap="round" stroke-linejoin="round"/>
<path d="M10.6666 16H22.6666" stroke="#C45915" stroke-width="1.77778" stroke-linecap="round" stroke-linejoin="round"/>
<path d="M10.6666 22H16.6666" stroke="#C45915" stroke-width="1.77778" stroke-linecap="round" stroke-linejoin="round"/>
</svg>
