<svg width="37" height="36" viewBox="0 0 37 36" fill="none" xmlns="http://www.w3.org/2000/svg">
<rect x="2.58337" y="2.25" width="31.5" height="31.5" rx="6.75" fill="black" fill-opacity="0.0314" stroke="#6742D5" stroke-width="2"/>
<path d="M14.2515 12.7931C14.642 12.4026 15.275 12.4026 15.6655 12.7931C16.056 13.1836 16.056 13.8167 15.6655 14.2072L11.8726 18.0001L15.6655 21.7931C16.056 22.1836 16.056 22.8167 15.6655 23.2072C15.275 23.5977 14.642 23.5976 14.2515 23.2072L9.75146 18.7072C9.36094 18.3166 9.36094 17.6836 9.75146 17.2931L14.2515 12.7931ZM21.0015 12.7931C21.392 12.4026 22.025 12.4026 22.4155 12.7931L26.9155 17.2931C27.306 17.6836 27.306 18.3167 26.9155 18.7072L22.4155 23.2072C22.025 23.5977 21.392 23.5976 21.0015 23.2072C20.6109 22.8166 20.6109 22.1836 21.0015 21.7931L24.7944 18.0001L21.0015 14.2072C20.6109 13.8166 20.6109 13.1836 21.0015 12.7931Z" fill="#6742D5"/>
</svg>
