<svg width="36" height="36" viewBox="0 0 36 36" fill="none" xmlns="http://www.w3.org/2000/svg">
<path d="M4.5 27V9C4.5 5.27208 7.52208 2.25 11.25 2.25H21.375L31.5 12.375V27C31.5 30.7279 28.4779 33.75 24.75 33.75H11.25C7.52208 33.75 4.5 30.7279 4.5 27Z" fill="white" fill-opacity="0.0902"/>
<path d="M21.375 2.25H11.25C7.52208 2.25 4.5 5.27208 4.5 9V27C4.5 30.7279 7.52208 33.75 11.25 33.75H24.75C28.4779 33.75 31.5 30.7279 31.5 27V12.375M21.375 2.25L31.5 12.375M21.375 2.25V12.375H31.5" stroke="#B3A7FF" stroke-width="2" stroke-linecap="round" stroke-linejoin="round"/>
<path d="M11.25 11.25H15.75" stroke="#B3A7FF" stroke-width="2" stroke-linecap="round" stroke-linejoin="round"/>
<path d="M11.25 18H24.75" stroke="#B3A7FF" stroke-width="2" stroke-linecap="round" stroke-linejoin="round"/>
<path d="M11.25 24.75H18" stroke="#B3A7FF" stroke-width="2" stroke-linecap="round" stroke-linejoin="round"/>
</svg>
