<svg width="37" height="36" viewBox="0 0 37 36" fill="none" xmlns="http://www.w3.org/2000/svg">
<rect x="2.58334" y="2.25" width="31.5" height="31.5" rx="6.75" fill="white" fill-opacity="0.0902" stroke="#B3A7FF" stroke-width="2"/>
<path d="M14.2514 12.7931C14.6419 12.4026 15.2749 12.4026 15.6654 12.7931C16.0559 13.1836 16.0559 13.8167 15.6654 14.2072L11.8725 18.0001L15.6654 21.7931C16.0559 22.1836 16.0559 22.8167 15.6654 23.2072C15.2749 23.5977 14.6419 23.5976 14.2514 23.2072L9.75137 18.7072C9.36085 18.3166 9.36085 17.6836 9.75137 17.2931L14.2514 12.7931ZM21.0014 12.7931C21.3919 12.4026 22.0249 12.4026 22.4154 12.7931L26.9154 17.2931C27.3059 17.6836 27.3059 18.3167 26.9154 18.7072L22.4154 23.2072C22.0249 23.5977 21.3919 23.5976 21.0014 23.2072C20.6108 22.8166 20.6108 22.1836 21.0014 21.7931L24.7943 18.0001L21.0014 14.2072C20.6108 13.8166 20.6108 13.1836 21.0014 12.7931Z" fill="#B3A7FF"/>
</svg>
