<svg width="39" height="40" viewBox="0 0 39 40" fill="none" xmlns="http://www.w3.org/2000/svg">
<path fill-rule="evenodd" clip-rule="evenodd" d="M38.2158 8.89529C38.2298 8.94771 38.2369 9.00176 38.237 9.05606V17.4961C38.237 17.6044 38.2088 17.7108 38.1551 17.8045C38.1015 17.8983 38.0244 17.976 37.9315 18.0299L30.9327 22.1084V30.1922C30.9327 30.4122 30.8172 30.6153 30.6287 30.7261L16.0192 39.2384C15.9858 39.2576 15.9493 39.2699 15.9128 39.283C15.8991 39.2876 15.8862 39.2961 15.8718 39.2999C15.7696 39.3271 15.6623 39.3271 15.5602 39.2999C15.5434 39.2953 15.5282 39.2861 15.5123 39.2799C15.4788 39.2676 15.4439 39.2568 15.412 39.2384L0.80552 30.7261C0.71273 30.6721 0.63563 30.5943 0.581992 30.5006C0.528354 30.4069 0.500074 30.3005 0.5 30.1922L0.5 4.87221C0.5 4.81682 0.5076 4.76298 0.52128 4.71067C0.52584 4.69298 0.53648 4.67682 0.54256 4.65913C0.55396 4.62682 0.5646 4.59375 0.58132 4.56375C0.59272 4.54375 0.60944 4.52759 0.62312 4.50913C0.6406 4.48452 0.65656 4.45913 0.67708 4.43759C0.69456 4.4199 0.71736 4.40682 0.73712 4.39144C0.75916 4.37298 0.77892 4.35298 0.804 4.33836L8.10836 0.0822086C8.20084 0.0283475 8.30566 0 8.41236 0C8.51906 0 8.62388 0.0283475 8.71636 0.0822086L16.02 4.33836H16.0215C16.0458 4.35375 16.0663 4.37298 16.0884 4.39067C16.1081 4.40606 16.1302 4.4199 16.1476 4.43682C16.1689 4.45913 16.1841 4.48452 16.2024 4.50913C16.2153 4.52759 16.2328 4.54375 16.2434 4.56375C16.2609 4.59452 16.2708 4.62682 16.2829 4.65913C16.289 4.67682 16.2996 4.69298 16.3042 4.71144C16.3182 4.76386 16.3253 4.81791 16.3255 4.87221V20.6868L22.4116 17.1399V9.05529C22.4116 9.00144 22.4192 8.94683 22.4328 8.89529C22.4382 8.87683 22.448 8.86067 22.4541 8.84298C22.4663 8.81067 22.4769 8.77759 22.4936 8.74759C22.505 8.72759 22.5218 8.71144 22.5347 8.69298C22.5529 8.66836 22.5681 8.64298 22.5894 8.62144C22.6069 8.60375 22.6289 8.59067 22.6487 8.57529C22.6715 8.55682 22.6912 8.53683 22.7156 8.52221L30.0207 4.26606C30.1131 4.21212 30.218 4.18373 30.3247 4.18373C30.4314 4.18373 30.5362 4.21212 30.6287 4.26606L37.9323 8.52221C37.9581 8.53759 37.9779 8.55682 38.0007 8.57452C38.0197 8.5899 38.0417 8.60375 38.0592 8.62067C38.0805 8.64298 38.0957 8.66836 38.1139 8.69298C38.1276 8.71144 38.1443 8.72759 38.155 8.74759C38.1724 8.77759 38.1823 8.81067 38.1945 8.84298C38.2013 8.86067 38.2112 8.87683 38.2158 8.89529ZM37.0195 17.1399V10.1214L34.4636 11.6107L30.9327 13.6684V20.6868L37.0203 17.1399H37.0195ZM29.7159 29.8361V22.813L26.2427 24.8207L16.3247 30.5499V37.6391L29.7159 29.8361ZM1.71752 5.93759V29.8361L15.1072 37.6384V30.5507L8.11216 26.5437L8.10988 26.5422L8.10684 26.5407C8.08328 26.5268 8.06352 26.5068 8.04148 26.4899C8.02248 26.4745 8.00044 26.4622 7.98372 26.4453L7.9822 26.443C7.96244 26.4237 7.94876 26.3999 7.93204 26.3784C7.91684 26.3576 7.8986 26.3399 7.88644 26.3184L7.88568 26.3161C7.872 26.293 7.86364 26.2653 7.85376 26.2391C7.84388 26.2161 7.83096 26.1945 7.82488 26.1699C7.81728 26.1407 7.81576 26.1091 7.81272 26.0791C7.80968 26.0561 7.8036 26.033 7.8036 26.0099V26.0084V9.48452L4.2734 7.42606L1.71752 5.93759ZM8.41312 1.32682L2.3278 4.87221L8.4116 8.41759L14.4962 4.87144L8.4116 1.32682H8.41312ZM11.5778 23.453L15.108 21.3961V5.93759L12.5521 7.42682L9.02112 9.48452V24.943L11.5778 23.453ZM30.3247 5.51067L24.2401 9.05606L30.3247 12.6014L36.4085 9.05529L30.3247 5.51067ZM29.7159 13.6684L26.185 11.6107L23.6291 10.1214V17.1399L27.1593 19.1968L29.7159 20.6868V13.6684ZM15.7152 29.4845L24.6399 24.3276L29.1011 21.7507L23.0211 18.2076L16.0207 22.2868L9.64052 26.0045L15.7152 29.4845Z" fill="white"/>
</svg>
