<svg width="318" height="202" viewBox="0 0 318 202" fill="none" xmlns="http://www.w3.org/2000/svg">
<path d="M0.666504 16C0.666504 7.16344 7.82995 0 16.6665 0H302C310.836 0 318 7.16344 318 16V186C318 194.837 310.836 202 302 202H16.6665C7.82997 202 0.666504 194.837 0.666504 186V16Z" fill="#14151A"/>
<path fill-rule="evenodd" clip-rule="evenodd" d="M155.333 99.0005C155.333 95.6879 158.02 93.0005 161.333 93.0005H174.666C177.979 93.0005 180.666 95.6879 180.666 99.0005V109.667C180.666 112.754 178.332 115.299 175.333 115.631V120.334C175.333 121.126 174.866 121.843 174.142 122.163C173.418 122.483 172.574 122.346 171.988 121.814L165.226 115.667H161.333C158.02 115.667 155.333 112.98 155.333 109.667V99.0005Z" fill="white"/>
<path fill-rule="evenodd" clip-rule="evenodd" d="M154 99.0005C154 95.6879 156.687 93.0005 160 93.0005H174.666C177.979 93.0005 180.666 95.6879 180.666 99.0005V109.667C180.666 112.754 178.332 115.299 175.333 115.631V120.334C175.333 121.126 174.866 121.843 174.142 122.163C173.418 122.483 172.574 122.346 171.988 121.814L165.226 115.667H160C156.687 115.667 154 112.98 154 109.667V99.0005Z" fill="white"/>
<path d="M138 88.3338C138 84.2826 141.282 81.0005 145.333 81.0005H162.666C166.716 81.0005 169.999 84.2837 169.999 88.3338V89.0005H160C154.478 89.0005 150 93.4788 150 99.0005V109.667C150 110.631 150.136 111.562 150.391 112.444L146.807 116.352C146.25 116.96 145.377 117.163 144.608 116.864C143.839 116.565 143.333 115.825 143.333 115V108.725C140.255 107.856 138 105.024 138 101.67V88.3338Z" fill="white" fill-opacity="0.32"/>
</svg>
