<svg width="318" height="202" viewBox="0 0 318 202" fill="none" xmlns="http://www.w3.org/2000/svg">
<path d="M0.666626 16C0.666626 7.16344 7.83007 0 16.6666 0H302C310.837 0 318 7.16344 318 16V186C318 194.837 310.837 202 302 202H16.6666C7.83009 202 0.666626 194.837 0.666626 186V16Z" fill="#F7F7F8"/>
<path fill-rule="evenodd" clip-rule="evenodd" d="M155 99.0005C155 95.6879 157.687 93.0005 161 93.0005H174.333C177.646 93.0005 180.333 95.6879 180.333 99.0005V109.667C180.333 112.754 177.999 115.299 175 115.631V120.334C175 121.126 174.533 121.843 173.809 122.163C173.085 122.483 172.24 122.346 171.655 121.814L164.893 115.667H161C157.687 115.667 155 112.98 155 109.667V99.0005Z" fill="#14151A"/>
<path fill-rule="evenodd" clip-rule="evenodd" d="M153.667 99.0005C153.667 95.6879 156.354 93.0005 159.667 93.0005H174.333C177.646 93.0005 180.333 95.6879 180.333 99.0005V109.667C180.333 112.754 177.999 115.299 175 115.631V120.334C175 121.126 174.533 121.843 173.809 122.163C173.085 122.483 172.241 122.346 171.655 121.814L164.893 115.667H159.667C156.354 115.667 153.667 112.98 153.667 109.667V99.0005Z" fill="#14151A"/>
<path d="M137.667 88.3338C137.667 84.2826 140.949 81.0005 145 81.0005H162.333C166.383 81.0005 169.666 84.2837 169.666 88.3338V89.0005H159.667C154.145 89.0005 149.667 93.4788 149.667 99.0005V109.667C149.667 110.631 149.803 111.562 150.057 112.444L146.474 116.352C145.917 116.96 145.043 117.163 144.275 116.864C143.506 116.565 143 115.825 143 115V108.725C139.922 107.856 137.667 105.024 137.667 101.67V88.3338Z" fill="#0A0F29" fill-opacity="0.25"/>
</svg>
