<svg width="49" height="24" viewBox="0 0 49 24" fill="none" xmlns="http://www.w3.org/2000/svg">
<path fill-rule="evenodd" clip-rule="evenodd" d="M26.4039 18.5128C26.299 18.5128 26.1996 18.4647 26.133 18.3813C26.0662 18.298 26.0391 18.1886 26.0592 18.0825L27.5264 10.3131C27.6659 9.57419 27.6316 9.04385 27.4296 8.81976C27.3059 8.68277 26.9344 8.45302 25.8362 8.45302H23.1782L21.3334 18.2203C21.3014 18.3902 21.1567 18.5128 20.9885 18.5128H17.3003C17.1954 18.5128 17.096 18.4647 17.0292 18.3813C16.9624 18.298 16.9355 18.1884 16.9554 18.0825L20.2723 0.522871C20.3044 0.353116 20.4491 0.230469 20.6172 0.230469H24.3055C24.4104 0.230469 24.5097 0.278661 24.5765 0.36191C24.6433 0.44528 24.6703 0.554791 24.6504 0.660814L23.8499 4.89895H26.7094C28.8879 4.89895 30.365 5.29411 31.2255 6.10709C32.1025 6.93646 32.3761 8.26255 32.0388 10.049L30.4956 18.2203C30.4636 18.3902 30.319 18.5128 30.1507 18.5128H26.4039ZM8.33558 15.0192C9.7666 15.0192 10.8349 14.7511 11.5109 14.2226C12.1796 13.6996 12.6414 12.7935 12.8835 11.5296C13.1092 10.3482 13.0232 9.52331 12.628 9.07814C12.2239 8.62346 11.3503 8.39287 10.0313 8.39287H7.74443L6.47662 15.0192H8.33558ZM0.855729 23.1814C0.749576 23.1814 0.648756 23.1333 0.581269 23.0498C0.513659 22.9665 0.486263 22.857 0.506544 22.7511L3.86651 5.19144C3.89901 5.02169 4.04548 4.89903 4.21581 4.89903H11.4574C13.7332 4.89903 15.4272 5.52673 16.4919 6.76486C17.5624 8.00952 17.8929 9.74932 17.4744 11.9359C17.3041 12.8267 17.0112 13.654 16.6037 14.3947C16.1959 15.1362 15.6567 15.8223 15.0012 16.4343C14.2165 17.1803 13.3283 17.7213 12.3638 18.0396C11.4145 18.3536 10.1955 18.513 8.74051 18.513H5.80825L4.97088 22.8889C4.93838 23.0587 4.792 23.1814 4.62169 23.1814H0.855729ZM42.1252 14.2226C41.4232 14.7511 40.314 15.0192 38.8281 15.0192H36.8978L38.2143 8.39287H40.5889C41.9584 8.39287 42.8656 8.62346 43.2852 9.07814C43.6958 9.52331 43.785 10.3482 43.5506 11.5296C43.2992 12.7936 42.8196 13.6997 42.1252 14.2226ZM30.7764 23.0498C30.8464 23.1333 30.9511 23.1814 31.0613 23.1814H34.9716C35.1487 23.1814 35.3007 23.0587 35.3344 22.8889L36.2037 18.513H39.2486C40.7593 18.513 42.0252 18.3536 43.0108 18.0396C44.0124 17.7213 44.9346 17.1803 45.7495 16.4343C46.4301 15.8223 46.9898 15.1362 47.4134 14.3947C47.8365 13.654 48.1406 12.8267 48.3176 11.9359C48.7521 9.7492 48.4091 8.00939 47.2976 6.76486C46.1918 5.52673 44.433 4.89903 42.0697 4.89903H34.5504C34.3733 4.89903 34.2214 5.02169 34.1875 5.19144L30.6986 22.7511C30.6776 22.857 30.7061 22.9665 30.7764 23.0498Z" fill="#14151A"/>
</svg>
