<svg width="41" height="40" viewBox="0 0 41 40" fill="none" xmlns="http://www.w3.org/2000/svg">
<path d="M20.4999 22.9137C22.1091 22.9137 23.4137 21.6091 23.4137 19.9999C23.4137 18.3907 22.1091 17.0862 20.4999 17.0862C18.8907 17.0862 17.5862 18.3907 17.5862 19.9999C17.5862 21.6091 18.8907 22.9137 20.4999 22.9137Z" fill="#EEEEEE" style="fill:#EEEEEE;fill:color(display-p3 0.9333 0.9333 0.9333);fill-opacity:1;"/>
<path d="M31.5671 15.1948C31.0048 14.9904 30.4169 14.7859 29.8035 14.607C29.9569 13.9936 30.0847 13.3801 30.1869 12.7923C30.7236 9.41847 30.1358 7.04148 28.5 6.12135C28.0144 5.8402 27.4776 5.7124 26.8642 5.7124C25.0751 5.7124 22.8003 7.04148 20.5 9.26512C18.1997 7.04148 15.9249 5.7124 14.1358 5.7124C13.5224 5.7124 12.9856 5.8402 12.5 6.12135C10.8642 7.06703 10.2764 9.44403 10.8131 12.7923C10.9153 13.3801 11.0431 13.9936 11.1965 14.607C10.5831 14.7859 9.99521 14.9648 9.43291 15.1948C6.23802 16.4217 4.5 18.1086 4.5 19.9999C4.5 21.8913 6.26358 23.5782 9.43291 24.8051C9.99521 25.0095 10.5831 25.214 11.1965 25.3929C11.0431 26.0063 10.9153 26.6197 10.8131 27.2076C10.2764 30.5814 10.8642 32.9584 12.5 33.8785C12.9856 34.1597 13.5224 34.2875 14.1358 34.2875C15.9505 34.2875 18.2252 32.9584 20.5 30.7348C22.8003 32.9584 25.0751 34.2875 26.8642 34.2875C27.4776 34.2875 28.0144 34.1597 28.5 33.8785C30.1358 32.9328 30.7236 30.5559 30.1869 27.2076C30.0847 26.6197 29.9569 26.0063 29.8035 25.3929C30.4169 25.214 31.0048 25.0351 31.5671 24.8051C34.762 23.5782 36.5 21.8913 36.5 19.9999C36.5 18.1086 34.762 16.4217 31.5671 15.1948ZM27.7843 7.3993C28.8323 8.01272 29.1901 9.9041 28.7556 12.5878C28.6789 13.1245 28.5511 13.6868 28.3978 14.2747C27.0687 13.968 25.6629 13.7635 24.1805 13.6357C23.3115 12.4089 22.4169 11.3098 21.5224 10.313C23.4137 8.44723 25.3307 7.16927 26.8898 7.16927C27.222 7.16927 27.5288 7.24595 27.7843 7.3993ZM24.9217 22.5559C24.4617 23.3737 23.9249 24.1916 23.3626 25.0095C22.4169 25.0862 21.4712 25.1118 20.5 25.1118C19.5032 25.1118 18.5575 25.0862 17.6374 25.0095C17.0751 24.1916 16.5639 23.3737 16.1038 22.5559C15.6182 21.7124 15.1581 20.8434 14.7492 19.9999C15.1581 19.1565 15.6182 18.2875 16.1038 17.444C16.5639 16.6261 17.1006 15.8082 17.6629 14.9904C18.6086 14.9137 19.5543 14.8881 20.5256 14.8881C21.5224 14.8881 22.4681 14.9137 23.3882 14.9904C23.9505 15.8082 24.4617 16.6261 24.9217 17.444C25.4073 18.2875 25.8674 19.1565 26.2764 19.9999C25.8419 20.8434 25.4073 21.6868 24.9217 22.5559ZM27.0431 21.7124C27.4265 22.607 27.7332 23.476 28.0144 24.345C27.1454 24.5495 26.2252 24.7028 25.254 24.8306C25.5607 24.345 25.893 23.8338 26.1741 23.2971C26.4808 22.7603 26.762 22.2236 27.0431 21.7124ZM20.5 28.6389C19.8866 27.9744 19.2987 27.2587 18.7364 26.5175C19.3243 26.5431 19.9121 26.5686 20.5 26.5686C21.0879 26.5686 21.6757 26.5431 22.2636 26.5175C21.7013 27.2587 21.1134 27.9744 20.5 28.6389ZM15.746 24.8051C14.7748 24.6773 13.8546 24.5239 12.9856 24.3194C13.2668 23.476 13.5735 22.5814 13.9569 21.6868C14.238 22.198 14.5192 22.7348 14.8259 23.2459C15.1326 23.8082 15.4393 24.2939 15.746 24.8051ZM13.9569 18.2875C13.5735 17.3929 13.2668 16.5239 12.9856 15.6549C13.8546 15.4504 14.7748 15.2971 15.746 15.1693C15.4393 15.6549 15.107 16.1661 14.8259 16.7028C14.5192 17.2396 14.238 17.7763 13.9569 18.2875ZM20.5 11.361C21.1134 12.0255 21.7013 12.7412 22.2636 13.4824C21.6757 13.4568 21.0879 13.4313 20.5 13.4313C19.9121 13.4313 19.3243 13.4568 18.7364 13.4824C19.2987 12.7412 19.8866 12.0255 20.5 11.361ZM26.1741 16.7284L25.254 15.1948C26.2252 15.3226 27.1454 15.476 28.0144 15.6805C27.7332 16.5239 27.4265 17.4185 27.0431 18.313C26.762 17.7763 26.4808 17.2396 26.1741 16.7284ZM12.2444 12.5878C11.8099 9.9041 12.1677 8.01272 13.2157 7.3993C13.4712 7.24595 13.778 7.16927 14.1102 7.16927C15.6438 7.16927 17.5607 8.42167 19.4776 10.313C18.5831 11.2843 17.6885 12.4089 16.8195 13.6357C15.3371 13.7635 13.9313 13.9936 12.6022 14.2747C12.4489 13.6868 12.3466 13.1245 12.2444 12.5878ZM5.93131 19.9999C5.93131 18.7987 7.38818 17.5207 9.94409 16.575C10.4553 16.3705 11.0176 16.1916 11.5799 16.0383C11.9888 17.3162 12.5 18.6709 13.1134 20.0255C12.5 21.3801 11.9633 22.7092 11.5799 23.9872C8.05272 22.9648 5.93131 21.4313 5.93131 19.9999ZM13.2157 32.6006C12.1677 31.9872 11.8099 30.0958 12.2444 27.4121C12.3211 26.8753 12.4489 26.313 12.6022 25.7252C13.9313 26.0319 15.3371 26.2364 16.8195 26.3642C17.6885 27.591 18.5831 28.69 19.4776 29.6868C17.5863 31.5527 15.6693 32.8306 14.1102 32.8306C13.778 32.8306 13.4712 32.7539 13.2157 32.6006ZM28.7556 27.4121C29.1901 30.0958 28.8323 31.9872 27.7843 32.6006C27.5288 32.7539 27.222 32.8306 26.8898 32.8306C25.3562 32.8306 23.4393 31.5782 21.5224 29.6868C22.4169 28.7156 23.3115 27.591 24.1805 26.3642C25.6629 26.2364 27.0687 26.0063 28.3978 25.7252C28.5511 26.313 28.6534 26.8753 28.7556 27.4121ZM31.0559 23.4249C30.5447 23.6293 29.9824 23.8082 29.4201 23.9616C29.0112 22.6836 28.5 21.329 27.8866 19.9744C28.5 18.6198 29.0367 17.2907 29.4201 16.0127C32.9473 17.0351 35.0687 18.5686 35.0687 19.9999C35.0687 21.2012 33.5863 22.4792 31.0559 23.4249Z" fill="#EEEEEE" style="fill:#EEEEEE;fill:color(display-p3 0.9333 0.9333 0.9333);fill-opacity:1;"/>
</svg>
