<svg width="32" height="32" viewBox="0 0 32 32" fill="none" xmlns="http://www.w3.org/2000/svg">
<path d="M16.1866 9.7341C15.0228 9.7341 13.2219 8.41073 11.3252 8.45738C8.82088 8.49052 6.52523 9.90965 5.235 12.1574C2.63613 16.6689 4.56472 23.3325 7.09976 26.9994C8.34334 28.7843 9.81034 30.7927 11.7549 30.7301C13.6209 30.6503 14.3206 29.5184 16.5856 29.5184C18.8334 29.5184 19.4705 30.7301 21.447 30.6822C23.4566 30.6503 24.7321 28.8653 25.9597 27.0632C27.3788 24.991 27.9681 22.9814 28 22.8709C27.9521 22.8549 24.0937 21.3719 24.0471 16.9083C24.0151 13.1764 27.0916 11.3914 27.2352 11.3116C25.4809 8.74587 22.7875 8.45861 21.8459 8.39477C19.3907 8.20326 17.3344 9.7341 16.1866 9.7341ZM20.3335 5.97022C21.3684 4.72787 22.0522 2.99078 21.8619 1.26843C20.3802 1.33227 18.594 2.25667 17.5259 3.50025C16.5684 4.60019 15.741 6.37042 15.9632 8.05963C17.6057 8.1873 19.2962 7.21503 20.3323 5.97145" fill="#1F1F1F" style="fill:#1F1F1F;fill:color(display-p3 0.1216 0.1216 0.1216);fill-opacity:1;"/>
</svg>
