<svg width="32" height="32" viewBox="0 0 32 32" fill="none" xmlns="http://www.w3.org/2000/svg">
<path d="M5.97402 14.1547C10.5535 13.3985 14.1436 9.60452 14.8956 5.01423L15.1479 2.80798C15.2103 2.45738 14.973 1.96906 14.5308 2.00412C11.0706 2.27457 7.80529 3.41902 5.98901 4.16278C5.08711 4.53341 4.5 5.4099 4.5 6.38656V13.5838C4.5 14.0095 4.88224 14.3351 5.30196 14.2674L5.97402 14.1573V14.1547Z" fill="#1F1F1F" style="fill:#1F1F1F;fill:color(display-p3 0.1216 0.1216 0.1216);fill-opacity:1;"/>
<path d="M17.1044 5.01439C17.8589 9.60468 21.449 13.3986 26.026 14.1549L26.698 14.2651C27.1178 14.3352 27.5 14.0097 27.5 13.5814V6.38421C27.5 5.40755 26.9129 4.53106 26.011 4.16044C24.1922 3.41417 20.9294 2.27223 17.4692 2.00177C17.0245 1.96671 16.7971 2.46005 16.8496 2.80563L17.1019 5.01188L17.1044 5.01439Z" fill="#1F1F1F" style="fill:#1F1F1F;fill:color(display-p3 0.1216 0.1216 0.1216);fill-opacity:1;"/>
<path d="M26.0225 16.1709C19.7642 17.408 16.8586 21.5776 16.8586 29.471C16.8586 29.8667 17.2509 30.1422 17.5806 29.9218C20.4587 27.976 26.792 22.8974 27.4441 16.5441C27.469 15.7452 26.4722 16.1209 26.0225 16.1709Z" fill="#1F1F1F" style="fill:#1F1F1F;fill:color(display-p3 0.1216 0.1216 0.1216);fill-opacity:1;"/>
<path d="M5.97632 16.1709C12.2346 17.408 15.1402 21.5776 15.1402 29.471C15.1402 29.8667 14.748 30.1422 14.4182 29.9218C11.5401 27.976 5.20684 22.8974 4.55477 16.5441C4.52979 15.7452 5.52662 16.1209 5.97632 16.1709Z" fill="#1F1F1F" style="fill:#1F1F1F;fill:color(display-p3 0.1216 0.1216 0.1216);fill-opacity:1;"/>
</svg>
