<svg width="30" height="30" viewBox="0 0 30 30" fill="none" xmlns="http://www.w3.org/2000/svg">
<rect width="30" height="30" rx="2" fill="#1F1F1F" style="fill:#1F1F1F;fill:color(display-p3 0.1216 0.1216 0.1216);fill-opacity:1;"/>
<path d="M25 12.3083H22.9433V18.6125H21.7558V12.3083H19.7042V11.275H25V12.3083ZM19.29 18.6125H15.2725V11.275H19.1308V12.3083H16.46V14.3867H18.9208V15.415H16.46V17.585H19.29V18.6125ZM13.7 18.6125H12.4017L8.98333 13.2192C8.89783 13.0849 8.82581 12.9426 8.76833 12.7942H8.73833C8.765 12.9517 8.77833 13.2875 8.77833 13.8025V18.6125H7.63083V11.275H9.01333L12.3175 16.5417C12.4567 16.7592 12.5467 16.91 12.5867 16.9917H12.6067C12.5733 16.7975 12.5567 16.4675 12.5567 16.0042V11.2742H13.7V18.6125ZM6.4475 18.035C6.4475 18.1258 6.42876 18.2157 6.39236 18.2996C6.35596 18.3834 6.3026 18.4596 6.23535 18.5238C6.16809 18.5879 6.08825 18.6388 6.0004 18.6735C5.91254 18.7081 5.81839 18.7259 5.72333 18.7258C5.62827 18.7258 5.53414 18.7079 5.44632 18.6732C5.35851 18.6384 5.27873 18.5874 5.21155 18.5232C5.14437 18.459 5.09111 18.3827 5.05481 18.2988C5.01851 18.2149 4.99989 18.125 5 18.0342C5.00023 17.8511 5.07654 17.6756 5.21217 17.5462C5.34779 17.4168 5.53164 17.3442 5.72333 17.3442C5.81839 17.3441 5.91254 17.3619 6.0004 17.3965C6.08825 17.4312 6.16809 17.4821 6.23535 17.5462C6.3026 17.6104 6.35596 17.6866 6.39236 17.7704C6.42876 17.8543 6.4475 17.9442 6.4475 18.035Z" fill="#F4F4F4" style="fill:#F4F4F4;fill:color(display-p3 0.9569 0.9569 0.9569);fill-opacity:1;"/>
</svg>
