<svg width="33" height="32" viewBox="0 0 33 32" fill="none" xmlns="http://www.w3.org/2000/svg">
<path d="M12.5847 24.1536C12.5847 24.1536 11.4455 24.8165 13.3964 25.0402C15.7603 25.3102 16.9683 25.2715 19.5726 24.7792C19.5726 24.7792 20.2587 25.2082 21.2151 25.58C15.3749 28.082 7.9981 25.4349 12.5847 24.1536ZM11.8706 20.8881C11.8706 20.8881 10.5926 21.8341 12.5452 22.0363C15.0704 22.297 17.0642 22.3183 20.5158 21.654C20.5158 21.654 20.9921 22.1379 21.7422 22.4022C14.6826 24.4669 6.8195 22.5647 11.8706 20.8881Z" fill="#1F1F1F" style="fill:#1F1F1F;fill:color(display-p3 0.1216 0.1216 0.1216);fill-opacity:1;"/>
<path d="M17.8863 15.3479C19.3261 17.0052 17.5087 18.4951 17.5087 18.4951C17.5087 18.4951 21.1624 16.6094 19.4848 14.247C17.9174 12.0449 16.7158 10.9511 23.2211 7.17822C23.2211 7.17846 13.0096 9.72804 17.8863 15.3479Z" fill="#1F1F1F" style="fill:#1F1F1F;fill:color(display-p3 0.1216 0.1216 0.1216);fill-opacity:1;"/>
<path d="M25.6102 26.5698C25.6102 26.5698 26.4536 27.2652 24.6811 27.8026C21.3112 28.8235 10.6521 29.1313 7.69176 27.8435C6.6281 27.3804 8.6235 26.7383 9.25128 26.6028C9.90582 26.4611 10.2796 26.4869 10.2796 26.4869C9.09595 25.6536 2.62941 28.1238 6.9954 28.8324C18.9011 30.7623 28.698 27.9632 25.6102 26.5698ZM13.1334 17.5045C13.1334 17.5045 7.71207 18.7923 11.2137 19.2604C12.6925 19.4583 15.639 19.4129 18.3854 19.1825C20.6294 18.994 22.8812 18.5913 22.8812 18.5913C22.8812 18.5913 22.0907 18.9304 21.5181 19.3209C16.0118 20.7693 5.37709 20.0946 8.43902 18.614C11.0275 17.362 13.1334 17.5045 13.1334 17.5045ZM22.8587 22.9403C28.4557 20.0328 25.8676 17.2385 24.0612 17.6149C23.6196 17.7069 23.4215 17.7869 23.4215 17.7869C23.4215 17.7869 23.5859 17.5291 23.8994 17.4182C27.4728 16.1624 30.2204 21.1229 22.7469 23.0878C22.7469 23.0873 22.8327 23.0096 22.8587 22.9403Z" fill="#1F1F1F" style="fill:#1F1F1F;fill:color(display-p3 0.1216 0.1216 0.1216);fill-opacity:1;"/>
<path d="M19.4852 1.08521C19.4852 1.08521 22.5842 4.18608 16.5451 8.95282C11.7022 12.7778 15.4409 14.9581 16.5435 17.4504C13.7162 14.8998 11.6424 12.6542 13.0335 10.5644C15.0762 7.49749 20.7352 6.0099 19.4852 1.08521Z" fill="#1F1F1F" style="fill:#1F1F1F;fill:color(display-p3 0.1216 0.1216 0.1216);fill-opacity:1;"/>
<path d="M13.6834 30.8211C19.0545 31.1645 27.3047 30.6299 27.5 28.0883C27.5 28.0883 27.1245 29.0518 23.0606 29.8163C18.4757 30.6794 12.8198 30.5788 9.46631 30.0251C9.46631 30.0254 10.1533 30.5941 13.6834 30.8211Z" fill="#1F1F1F" style="fill:#1F1F1F;fill:color(display-p3 0.1216 0.1216 0.1216);fill-opacity:1;"/>
</svg>
