<svg width="33" height="32" viewBox="0 0 33 32" fill="none" xmlns="http://www.w3.org/2000/svg">
<g clip-path="url(#clip0_2097_19471)">
<path d="M24.5 4C24.5 1.79086 20.9183 0 16.5 0C12.0817 0 8.5 1.79086 8.5 4V28C8.5 30.2091 12.0817 32 16.5 32C20.9183 32 24.5 30.2091 24.5 28V4Z" fill="#1F1F1F" style="fill:#1F1F1F;fill:color(display-p3 0.1216 0.1216 0.1216);fill-opacity:1;"/>
<path d="M28.5 8H4.5C2.29086 8 0.5 11.5817 0.5 16C0.5 20.4183 2.29086 24 4.5 24H28.5C30.7091 24 32.5 20.4183 32.5 16C32.5 11.5817 30.7091 8 28.5 8Z" fill="#1F1F1F" style="fill:#1F1F1F;fill:color(display-p3 0.1216 0.1216 0.1216);fill-opacity:1;"/>
<path d="M12.0999 5.48032C12.9173 5.48032 13.5799 4.81771 13.5799 4.00032C13.5799 3.18294 12.9173 2.52032 12.0999 2.52032C11.2825 2.52032 10.6199 3.18294 10.6199 4.00032C10.6199 4.81771 11.2825 5.48032 12.0999 5.48032Z" fill="#F4F4F4" style="fill:#F4F4F4;fill:color(display-p3 0.9569 0.9569 0.9569);fill-opacity:1;"/>
<path d="M20.8999 29.4803C21.7173 29.4803 22.3799 28.8177 22.3799 28.0003C22.3799 27.1829 21.7173 26.5203 20.8999 26.5203C20.0825 26.5203 19.4199 27.1829 19.4199 28.0003C19.4199 28.8177 20.0825 29.4803 20.8999 29.4803Z" fill="#F4F4F4" style="fill:#F4F4F4;fill:color(display-p3 0.9569 0.9569 0.9569);fill-opacity:1;"/>
<path d="M8.5 7.59961H16.5" stroke="#F4F4F4" style="stroke:#F4F4F4;stroke:color(display-p3 0.9569 0.9569 0.9569);stroke-opacity:1;"/>
<path d="M16.5 24.4004H24.5" stroke="#F4F4F4" style="stroke:#F4F4F4;stroke:color(display-p3 0.9569 0.9569 0.9569);stroke-opacity:1;"/>
<path d="M8.1001 24C8.1001 16 10.1001 16 16.1001 16C22.9001 16 24.9001 16 24.9001 8" stroke="#F4F4F4" style="stroke:#F4F4F4;stroke:color(display-p3 0.9569 0.9569 0.9569);stroke-opacity:1;"/>
</g>
<defs>
<clipPath id="clip0_2097_19471">
<rect width="32" height="32" fill="white" style="fill:white;fill-opacity:1;" transform="translate(0.5)"/>
</clipPath>
</defs>
</svg>
