<svg width="40" height="25" viewBox="0 0 40 25" fill="none" xmlns="http://www.w3.org/2000/svg">
<g clip-path="url(#clip0_2097_19509)">
<path fill-rule="evenodd" clip-rule="evenodd" d="M28.5185 7.6896L28.5891 6.57848C29.1534 6.61375 29.7354 6.6843 30.3351 6.80776L30.2646 7.90123C29.6826 7.77777 29.1006 7.70723 28.5185 7.6896ZM22.2399 1.07583H22.0635C21.552 1.07583 21.0406 1.09348 20.5291 1.14639L20.194 0.10582C20.776 0.0352729 21.3404 0 21.8872 0L22.2399 1.07583ZM23.3156 8.78307L22.91 7.56614C23.3509 7.37214 23.8625 7.17813 24.4621 7.00176L24.8501 8.16579C24.3386 8.32451 23.8272 8.53615 23.3156 8.78307ZM14.1093 1.71076L14.9029 2.92769C14.4445 3.15696 14.0035 3.42152 13.5449 3.7037L12.7336 2.46914C13.2099 2.18695 13.6685 1.94003 14.1093 1.71076ZM19.3651 12.134L18.5185 10.8642C18.836 10.4585 19.2064 10.0529 19.612 9.68254L20.4056 10.8818C20.0176 11.2875 19.6649 11.6931 19.3651 12.134ZM17.3898 17.6719L15.9612 16.5432C16.1022 15.9083 16.2611 15.2557 16.4904 14.6032L17.7601 15.6085C17.5838 16.2963 17.4604 16.9842 17.3898 17.6719ZM6.98413 7.07231L8.23633 8.16579C7.81305 8.6067 7.40741 9.08289 7.03704 9.55908L5.67901 8.39506C6.08466 7.95414 6.52558 7.51322 6.98413 7.07231ZM0.881834 15.3086L2.91006 16.0493C2.62787 16.7019 2.25749 17.5662 2.02822 18.1658L0 17.425C0.176367 16.9489 0.546738 16.067 0.881834 15.3086ZM15.9082 23.2451C15.8201 22.716 15.7319 21.9577 15.6967 21.0229L17.6014 21.7107C17.7072 22.5397 17.866 23.3157 18.0247 24.0036L15.9082 23.2451ZM15.1675 24.5503H1.23456C1.23456 24.5503 1.74604 19.3298 5.44974 13.157C9.15344 6.98412 15.4674 2.31039 20.6173 1.85183C30.8289 0.828903 40 9.98235 40 9.98235C40 9.98235 39.7002 10.194 39.3827 10.4585C29.7254 3.31759 23.6905 6.30607 21.5465 7.36776C21.4665 7.40739 21.3919 7.44431 21.3227 7.47794C12.5044 12.3985 15.1675 24.5503 15.1675 24.5503ZM30.3351 1.65783L30.2646 2.83949C29.7002 2.61021 29.1358 2.39857 28.5538 2.20457L28.6244 1.04055C29.7354 1.35801 30.1764 1.56964 30.3351 1.65783Z" fill="#1F1F1F" style="fill:#1F1F1F;fill:color(display-p3 0.1216 0.1216 0.1216);fill-opacity:1;"/>
</g>
<defs>
<clipPath id="clip0_2097_19509">
<rect width="40" height="25" fill="white" style="fill:white;fill-opacity:1;"/>
</clipPath>
</defs>
</svg>
