<svg width="33" height="30" viewBox="0 0 33 30" fill="none" xmlns="http://www.w3.org/2000/svg">
<path d="M16.4999 17.9137C18.1091 17.9137 19.4137 16.6091 19.4137 14.9999C19.4137 13.3907 18.1091 12.0862 16.4999 12.0862C14.8907 12.0862 13.5862 13.3907 13.5862 14.9999C13.5862 16.6091 14.8907 17.9137 16.4999 17.9137Z" fill="#1F1F1F" style="fill:#1F1F1F;fill:color(display-p3 0.1216 0.1216 0.1216);fill-opacity:1;"/>
<path d="M27.5671 10.1948C27.0048 9.99036 26.4169 9.78588 25.8035 9.60697C25.9569 8.99355 26.0847 8.38013 26.1869 7.79227C26.7236 4.41847 26.1358 2.04148 24.5 1.12135C24.0144 0.840198 23.4776 0.712402 22.8642 0.712402C21.0751 0.712402 18.8003 2.04148 16.5 4.26512C14.1997 2.04148 11.9249 0.712402 10.1358 0.712402C9.52236 0.712402 8.98562 0.840198 8.5 1.12135C6.86422 2.06703 6.27636 4.44403 6.8131 7.79227C6.91534 8.38013 7.04313 8.99355 7.19649 9.60697C6.58307 9.78588 5.99521 9.9648 5.43291 10.1948C2.23802 11.4217 0.5 13.1086 0.5 14.9999C0.5 16.8913 2.26358 18.5782 5.43291 19.8051C5.99521 20.0095 6.58307 20.214 7.19649 20.3929C7.04313 21.0063 6.91534 21.6197 6.8131 22.2076C6.27636 25.5814 6.86422 27.9584 8.5 28.8785C8.98562 29.1597 9.52236 29.2875 10.1358 29.2875C11.9505 29.2875 14.2252 27.9584 16.5 25.7348C18.8003 27.9584 21.0751 29.2875 22.8642 29.2875C23.4776 29.2875 24.0144 29.1597 24.5 28.8785C26.1358 27.9328 26.7236 25.5559 26.1869 22.2076C26.0847 21.6197 25.9569 21.0063 25.8035 20.3929C26.4169 20.214 27.0048 20.0351 27.5671 19.8051C30.762 18.5782 32.5 16.8913 32.5 14.9999C32.5 13.1086 30.762 11.4217 27.5671 10.1948ZM23.7843 2.3993C24.8323 3.01272 25.1901 4.9041 24.7556 7.5878C24.6789 8.12454 24.5511 8.68684 24.3978 9.2747C23.0687 8.96799 21.6629 8.76352 20.1805 8.63572C19.3115 7.40889 18.4169 6.30985 17.5224 5.31304C19.4137 3.44723 21.3307 2.16927 22.8898 2.16927C23.222 2.16927 23.5288 2.24595 23.7843 2.3993ZM20.9217 17.5559C20.4617 18.3737 19.9249 19.1916 19.3626 20.0095C18.4169 20.0862 17.4712 20.1118 16.5 20.1118C15.5032 20.1118 14.5575 20.0862 13.6374 20.0095C13.0751 19.1916 12.5639 18.3737 12.1038 17.5559C11.6182 16.7124 11.1581 15.8434 10.7492 14.9999C11.1581 14.1565 11.6182 13.2875 12.1038 12.444C12.5639 11.6261 13.1006 10.8082 13.6629 9.99036C14.6086 9.91368 15.5543 9.88812 16.5256 9.88812C17.5224 9.88812 18.4681 9.91368 19.3882 9.99036C19.9505 10.8082 20.4617 11.6261 20.9217 12.444C21.4073 13.2875 21.8674 14.1565 22.2764 14.9999C21.8419 15.8434 21.4073 16.6868 20.9217 17.5559ZM23.0431 16.7124C23.4265 17.607 23.7332 18.476 24.0144 19.345C23.1454 19.5495 22.2252 19.7028 21.254 19.8306C21.5607 19.345 21.893 18.8338 22.1741 18.2971C22.4808 17.7603 22.762 17.2236 23.0431 16.7124ZM16.5 23.6389C15.8866 22.9744 15.2987 22.2587 14.7364 21.5175C15.3243 21.5431 15.9121 21.5686 16.5 21.5686C17.0879 21.5686 17.6757 21.5431 18.2636 21.5175C17.7013 22.2587 17.1134 22.9744 16.5 23.6389ZM11.746 19.8051C10.7748 19.6773 9.85463 19.5239 8.98562 19.3194C9.26677 18.476 9.57348 17.5814 9.95687 16.6868C10.238 17.198 10.5192 17.7348 10.8259 18.2459C11.1326 18.8082 11.4393 19.2939 11.746 19.8051ZM9.95687 13.2875C9.57348 12.3929 9.26677 11.5239 8.98562 10.6549C9.85463 10.4504 10.7748 10.2971 11.746 10.1693C11.4393 10.6549 11.107 11.1661 10.8259 11.7028C10.5192 12.2396 10.238 12.7763 9.95687 13.2875ZM16.5 6.36096C17.1134 7.0255 17.7013 7.74116 18.2636 8.48237C17.6757 8.45681 17.0879 8.43125 16.5 8.43125C15.9121 8.43125 15.3243 8.45681 14.7364 8.48237C15.2987 7.74116 15.8866 7.0255 16.5 6.36096ZM22.1741 11.7284L21.254 10.1948C22.2252 10.3226 23.1454 10.476 24.0144 10.6805C23.7332 11.5239 23.4265 12.4185 23.0431 13.313C22.762 12.7763 22.4808 12.2396 22.1741 11.7284ZM8.24441 7.5878C7.8099 4.9041 8.16773 3.01272 9.21566 2.3993C9.47125 2.24595 9.77796 2.16927 10.1102 2.16927C11.6438 2.16927 13.5607 3.42167 15.4776 5.31304C14.5831 6.28429 13.6885 7.40889 12.8195 8.63572C11.3371 8.76352 9.93131 8.99355 8.60224 9.2747C8.44888 8.68684 8.34665 8.12454 8.24441 7.5878ZM1.93131 14.9999C1.93131 13.7987 3.38818 12.5207 5.94409 11.575C6.45527 11.3705 7.01757 11.1916 7.57987 11.0383C7.98882 12.3162 8.5 13.6709 9.11342 15.0255C8.5 16.3801 7.96326 17.7092 7.57987 18.9872C4.05272 17.9648 1.93131 16.4313 1.93131 14.9999ZM9.21566 27.6006C8.16773 26.9872 7.8099 25.0958 8.24441 22.4121C8.32109 21.8753 8.44888 21.313 8.60224 20.7252C9.93131 21.0319 11.3371 21.2364 12.8195 21.3642C13.6885 22.591 14.5831 23.69 15.4776 24.6868C13.5863 26.5527 11.6693 27.8306 10.1102 27.8306C9.77796 27.8306 9.47125 27.7539 9.21566 27.6006ZM24.7556 22.4121C25.1901 25.0958 24.8323 26.9872 23.7843 27.6006C23.5288 27.7539 23.222 27.8306 22.8898 27.8306C21.3562 27.8306 19.4393 26.5782 17.5224 24.6868C18.4169 23.7156 19.3115 22.591 20.1805 21.3642C21.6629 21.2364 23.0687 21.0063 24.3978 20.7252C24.5511 21.313 24.6534 21.8753 24.7556 22.4121ZM27.0559 18.4249C26.5447 18.6293 25.9824 18.8082 25.4201 18.9616C25.0112 17.6836 24.5 16.329 23.8866 14.9744C24.5 13.6198 25.0367 12.2907 25.4201 11.0127C28.9473 12.0351 31.0687 13.5686 31.0687 14.9999C31.0687 16.2012 29.5863 17.4792 27.0559 18.4249Z" fill="#1F1F1F" style="fill:#1F1F1F;fill:color(display-p3 0.1216 0.1216 0.1216);fill-opacity:1;"/>
</svg>
