<svg width="1202" height="424" viewBox="0 0 1202 424" fill="none" xmlns="http://www.w3.org/2000/svg">
<defs>
  <style>
      .svg-stroke {
        stroke: #B9C3F5; // #908bff;
        stroke-width: 2;
      }
      .svg-fill {
        fill: #99A7F1; //#635DFF;
      }
      .svg-fill-light {
        fill: #22307C; //#D0CEFF;
      }
      .svg-fill-lightest {
        fill: #3449BA; // #A5A0FF;
      }
      .svg-bg-fill {
        fill: #242424;
      }
  </style>
</defs>
<g clip-path="url(#clip0_8_149)">
<path d="M874.474 86.5572L914.583 161.755C916.321 165.014 919.713 167.049 923.406 167.049H1015.27C1018.96 167.049 1022.36 165.014 1024.09 161.755L1064.2 86.5572" class="svg-stroke"/>
<path d="M106.927 86.5572C738.384 86.5572 470.118 86.5572 1101.57 86.5572" class="svg-stroke"/>
<path d="M239.332 140.298V234.041C239.332 237.102 240.733 239.994 243.136 241.89L308.833 293.752C311.235 295.649 312.637 298.541 312.637 301.601V324.279" class="svg-stroke"/>
<path d="M239.163 141.735V235.478C239.163 238.539 237.762 241.431 235.359 243.327L169.662 295.19C167.26 297.086 165.858 299.978 165.858 303.039V325.716" class="svg-stroke"/>
<path d="M791.275 140.298V234.041C791.275 237.102 792.676 239.994 795.078 241.89L860.776 293.752C863.178 295.649 864.58 298.541 864.58 301.601V324.279" class="svg-stroke"/>
<path d="M791.106 141.735V235.478C791.106 238.539 789.705 241.431 787.302 243.327L721.605 295.19C719.203 297.086 717.801 299.978 717.801 303.039V325.716" class="svg-stroke"/>
<path d="M53.7447 139.302C82.8748 139.302 106.489 115.687 106.489 86.5572C106.489 57.4271 82.8748 33.8125 53.7447 33.8125C24.6146 33.8125 1 57.4271 1 86.5572C1 115.687 24.6146 139.302 53.7447 139.302Z" class="svg-bg-fill svg-stroke"/>
<path fill-rule="evenodd" clip-rule="evenodd" d="M54.5337 93.8305H32.1506C29.9147 93.8305 28.7141 91.1993 30.1802 89.509L54.05 61.9874C55.7137 60.07 58.8493 61.4859 58.516 63.9992L54.5337 93.8305Z" class="svg-fill"/>
<path fill-rule="evenodd" clip-rule="evenodd" d="M52.3184 78.4767H74.7044C76.9403 78.4767 78.1409 81.1079 76.6749 82.7982L52.8021 110.323C51.1384 112.24 48.0028 110.824 48.3361 108.311L52.3184 78.4767Z" class="svg-fill"/>
<path d="M239.164 139.302C268.294 139.302 291.909 115.687 291.909 86.5572C291.909 57.4271 268.294 33.8125 239.164 33.8125C210.034 33.8125 186.419 57.4271 186.419 86.5572C186.419 115.687 210.034 139.302 239.164 139.302Z" class="svg-bg-fill svg-stroke"/>
<path d="M256.155 111.164H221.221C218.452 111.164 216.208 108.919 216.208 106.15V88.6345C216.208 85.8652 218.452 83.6208 221.221 83.6208H256.155C258.924 83.6208 261.169 85.8652 261.169 88.6345V106.15C261.169 108.919 258.924 111.164 256.155 111.164Z" class="svg-fill-light"/>
<path d="M238.651 103.59C242.099 103.59 244.895 100.795 244.895 97.3466C244.895 93.8984 242.099 91.103 238.651 91.103C235.203 91.103 232.408 93.8984 232.408 97.3466C232.408 100.795 235.203 103.59 238.651 103.59Z" class="svg-fill"/>
<path d="M231.184 83.6208V76.0884C231.184 71.9506 234.537 68.5973 238.675 68.5973C242.813 68.5973 246.166 71.9506 246.166 76.0884L246.19 76.1091C246.19 78.1824 247.871 79.8634 249.944 79.8634C252.017 79.8634 253.698 78.1824 253.698 76.1091L253.704 76.1267C253.707 67.8276 246.977 61.0974 238.675 61.0974C230.376 61.0974 223.646 67.8276 223.646 76.1297V83.6208" class="svg-fill"/>
<path d="M515.135 139.302C544.265 139.302 567.88 115.687 567.88 86.5572C567.88 57.4271 544.265 33.8125 515.135 33.8125C486.005 33.8125 462.39 57.4271 462.39 86.5572C462.39 115.687 486.005 139.302 515.135 139.302Z" class="svg-bg-fill svg-stroke"/>
<path d="M495.859 74.9366C495.859 69.3686 500.375 64.8524 505.943 64.8524C511.514 64.8524 516.027 69.3686 516.027 74.9366C516.027 80.5046 511.511 85.0209 505.943 85.0209C500.375 85.0209 495.859 80.5076 495.859 74.9366Z" class="svg-fill"/>
<path d="M492.872 91.8304C494.919 89.7829 497.694 88.6339 500.59 88.6339H511.296C514.192 88.6339 516.967 89.7829 519.015 91.8304C521.062 93.8779 522.211 96.653 522.211 99.549V101.723C522.211 104.139 520.252 106.098 517.836 106.098H494.05C491.634 106.098 489.675 104.139 489.675 101.723V99.549C489.675 96.656 490.824 93.8779 492.872 91.8304Z" class="svg-fill-light"/>
<path d="M539.413 81.4431C538.948 80.6417 538.097 80.2028 537.23 80.2263C537.23 80.2234 537.227 80.2204 537.227 80.2175C536.576 80.2234 535.943 79.8934 535.595 79.2895C535.242 78.6797 535.274 77.952 535.616 77.3893C535.613 77.3864 535.61 77.3834 535.607 77.3805C535.625 77.354 535.645 77.3274 535.66 77.298C536.338 76.1343 535.946 74.6407 534.779 73.9601C533.616 73.2825 532.122 73.6744 531.441 74.841C531.424 74.8705 531.409 74.9029 531.394 74.9323C531.391 74.9323 531.388 74.9323 531.383 74.9294C531.223 75.2122 530.994 75.4567 530.693 75.6305C529.803 76.1461 528.663 75.8426 528.148 74.9529C528.142 74.9441 528.139 74.9353 528.133 74.9235C528.127 74.9235 528.121 74.9264 528.118 74.9264C528.101 74.894 528.089 74.8646 528.071 74.8322C527.397 73.6655 525.903 73.2678 524.736 73.9425C523.602 74.5994 523.198 76.0312 523.799 77.1831C523.826 77.2214 523.85 77.2567 523.873 77.295C524.389 78.1847 524.085 79.3249 523.195 79.8404C522.916 80.0024 522.612 80.082 522.312 80.0908V80.0938C522.279 80.0908 522.247 80.0879 522.212 80.0879C520.865 80.0761 519.76 81.1573 519.749 82.5036C519.737 83.85 520.818 84.9547 522.164 84.9665C522.197 84.9665 522.229 84.9636 522.262 84.9636V84.9665C522.916 84.9547 523.558 85.2876 523.911 85.8945C524.268 86.5132 524.232 87.2497 523.879 87.8153L523.882 87.8183C523.864 87.8448 523.847 87.8713 523.829 87.8978C523.151 89.0615 523.543 90.5551 524.71 91.2357C525.873 91.9133 527.367 91.5214 528.048 90.3548C528.062 90.3283 528.074 90.3018 528.089 90.2753H528.092C528.251 89.9836 528.487 89.7273 528.796 89.5476C529.686 89.032 530.826 89.3355 531.341 90.2252C531.353 90.2429 531.362 90.2635 531.371 90.2812C531.374 90.2812 531.377 90.2812 531.377 90.2812C531.783 91.0442 532.582 91.5656 533.507 91.5745C534.853 91.5862 535.958 90.505 535.969 89.1587C535.975 88.6756 535.837 88.2248 535.598 87.8448L535.601 87.8418C535.13 86.961 535.436 85.8592 536.308 85.3554C536.588 85.1934 536.895 85.1138 537.195 85.105C537.195 85.102 537.195 85.102 537.198 85.0991C537.649 85.1197 538.108 85.0166 538.527 84.775C539.69 84.1004 540.088 82.6097 539.413 81.4431ZM531.925 83.8617C531.226 85.0578 529.691 85.4644 528.492 84.7662C527.296 84.068 526.89 82.5331 527.588 81.334C528.286 80.138 529.821 79.7314 531.02 80.4296C532.216 81.1278 532.623 82.6657 531.925 83.8617Z" class="svg-fill-lightest"/>
<path d="M791.106 139.302C820.236 139.302 843.85 115.687 843.85 86.5572C843.85 57.4271 820.236 33.8125 791.106 33.8125C761.975 33.8125 738.361 57.4271 738.361 86.5572C738.361 115.687 761.975 139.302 791.106 139.302Z" class="svg-bg-fill svg-stroke"/>
<path d="M772.309 68.6073H788.176V108.66H772.309C771.216 108.66 770.167 108.225 769.395 107.451C768.622 106.677 768.188 105.626 768.188 104.531V72.7365C768.188 71.6414 768.622 70.5911 769.395 69.8168C770.167 69.0424 771.216 68.6073 772.309 68.6073Z" class="svg-fill-lightest"/>
<path d="M804.073 108.66H788.176V88.6339H808.202V104.531C808.202 105.626 807.767 106.677 806.993 107.451C806.218 108.225 805.168 108.66 804.073 108.66Z" class="svg-fill-light"/>
<path d="M793.182 63.6007H809.228C810.339 63.6007 811.405 64.0422 812.191 64.8282C812.977 65.6141 813.419 66.6801 813.419 67.7916V83.6273H793.182V63.6007Z" class="svg-fill"/>
<path d="M1147.57 139.302C1176.7 139.302 1200.31 115.687 1200.31 86.5572C1200.31 57.4271 1176.7 33.8125 1147.57 33.8125C1118.44 33.8125 1094.82 57.4271 1094.82 86.5572C1094.82 115.687 1118.44 139.302 1147.57 139.302Z" class="svg-bg-fill svg-stroke"/>
<path d="M1127.15 81.0641H1129.56C1132.34 81.0641 1134.6 83.3215 1134.6 86.1069V106.121C1134.6 108.906 1132.34 111.164 1129.56 111.164H1127.15C1124.37 111.164 1122.11 108.906 1122.11 106.121V86.1069C1122.11 83.3215 1124.37 81.0641 1127.15 81.0641Z" class="svg-fill"/>
<path d="M1164.73 71.0169H1167.13C1169.92 71.0169 1172.18 73.2744 1172.18 76.0598V106.121C1172.18 108.906 1169.92 111.164 1167.13 111.164H1164.73C1161.94 111.164 1159.68 108.906 1159.68 106.121V76.0598C1159.68 73.2744 1161.94 71.0169 1164.73 71.0169Z" class="svg-fill-light"/>
<path d="M1144.64 61.0974H1149.65C1152.41 61.0974 1154.65 63.3469 1154.65 66.1227V106.139C1154.65 108.914 1152.41 111.164 1149.65 111.164H1144.64C1141.87 111.164 1139.63 108.914 1139.63 106.139V66.1227C1139.63 63.3469 1141.87 61.0974 1144.64 61.0974Z" class="svg-fill-lightest"/>
<path d="M971.842 213.303C996.004 213.303 1015.59 193.715 1015.59 169.553C1015.59 145.391 996.004 125.803 971.842 125.803C947.68 125.803 928.092 145.391 928.092 169.553C928.092 193.715 947.68 213.303 971.842 213.303Z" class="svg-bg-fill svg-stroke"/>
<path fill-rule="evenodd" clip-rule="evenodd" d="M987.287 153.537L972.818 148.719C972.414 148.582 971.99 148.517 971.569 148.519C971.147 148.517 970.723 148.582 970.316 148.719L955.851 153.537C954.075 154.129 952.876 155.791 952.876 157.664V172.934L952.895 172.99C953.18 177.088 963.824 187.149 971.493 189.882H971.644C979.313 187.149 989.959 177.088 990.242 172.99L990.259 172.934V157.664C990.259 155.791 989.063 154.129 987.287 153.537Z" class="svg-fill-light"/>
<path fill-rule="evenodd" clip-rule="evenodd" d="M981.376 165.501L969.532 177.346L966.404 174.218L978.248 162.373C979.113 161.509 980.514 161.509 981.376 162.373C982.241 163.238 982.241 164.639 981.376 165.501Z" class="svg-fill"/>
<path fill-rule="evenodd" clip-rule="evenodd" d="M962.611 170.408L969.542 177.339L972.604 174.276L965.673 167.346C964.828 166.5 963.456 166.5 962.611 167.346C961.766 168.191 961.766 169.562 962.611 170.408Z" class="svg-fill"/>
<path d="M862.808 397.147C885.587 397.147 904.054 378.68 904.054 355.901C904.054 333.121 885.587 314.655 862.808 314.655C840.029 314.655 821.562 333.121 821.562 355.901C821.562 378.68 840.029 397.147 862.808 397.147Z" class="svg-bg-fill svg-stroke"/>
<path d="M857.059 348.258V338.649C857.059 337.598 856.198 336.736 855.148 336.736H845.554C844.504 336.736 843.644 337.598 843.644 338.649V348.237C843.644 349.289 844.504 350.151 845.554 350.151H855.127C856.198 350.172 857.059 349.31 857.059 348.258Z" class="svg-fill-light"/>
<path d="M855.834 367.384C853.152 367.384 851.006 365.002 851.274 362.174C851.522 359.728 853.709 357.942 856.103 357.942H869.329C873.724 357.942 877.665 354.646 878.098 350.117C878.593 344.949 874.632 340.569 869.7 340.569H861.797C860.766 340.569 859.92 341.441 859.92 342.504C859.92 343.567 860.766 344.439 861.797 344.439H869.432C871.867 344.439 874.095 346.247 874.343 348.735C874.632 351.605 872.445 354.029 869.7 354.029H856.206C851.852 354.029 847.952 357.304 847.519 361.77C847.024 366.894 850.944 371.232 855.834 371.232H863.82C864.851 371.232 865.697 370.361 865.697 369.297C865.697 368.234 864.851 367.362 863.82 367.362H855.834V367.384Z" class="svg-fill"/>
<path d="M882.05 373.179V363.726C882.05 362.69 881.185 361.84 880.129 361.84H870.479C869.423 361.84 868.558 362.69 868.558 363.726V373.179C868.558 374.215 869.423 375.065 870.479 375.065H880.108C881.185 375.065 882.05 374.215 882.05 373.179Z" class="svg-fill-lightest"/>
<path d="M962.143 397.147C984.922 397.147 1003.39 378.68 1003.39 355.901C1003.39 333.121 984.922 314.655 962.143 314.655C939.364 314.655 920.897 333.121 920.897 355.901C920.897 378.68 939.364 397.147 962.143 397.147Z" class="svg-bg-fill svg-stroke"/>
<path d="M965.977 369.301H958.312V369.285V373.161C958.312 374.213 957.459 375.065 956.408 375.065C955.356 375.065 954.504 374.213 954.504 373.161V369.285V369.301H952.534C950.44 369.301 948.741 367.604 948.741 365.508V363.545H948.764H944.883C943.831 363.545 942.979 362.692 942.979 361.641C942.979 360.589 943.831 359.736 944.883 359.736H948.759H948.737V352.07H948.759H944.883C943.831 352.07 942.979 351.217 942.979 350.163C942.979 349.112 943.831 348.259 944.883 348.259H948.759H948.737V346.296C948.737 344.202 950.433 342.503 952.529 342.503H954.499V342.519V338.64C954.499 337.589 955.352 336.736 956.403 336.736C957.455 336.736 958.308 337.589 958.308 338.64V342.517V342.501H965.972V342.517V338.64C965.972 337.589 966.825 336.736 967.876 336.736C968.928 336.736 969.781 337.589 969.781 338.64V342.517V342.501H971.744C973.837 342.501 975.536 344.197 975.536 346.293V348.256H975.523H979.399C980.451 348.256 981.303 349.109 981.303 350.161C981.303 351.212 980.451 352.065 979.399 352.065H975.523H975.536V359.73H975.523H979.399C980.451 359.73 981.303 360.582 981.303 361.634C981.303 362.685 980.451 363.538 979.399 363.538H975.523H975.536V365.501C975.536 367.595 973.84 369.294 971.744 369.294H969.781V369.278V373.154C969.781 374.206 968.928 375.059 967.876 375.059C966.825 375.059 965.972 374.206 965.972 373.154V369.278" class="svg-fill-light"/>
<path d="M957.36 348.245H966.922C968.511 348.245 969.799 349.533 969.799 351.122V360.679C969.799 362.268 968.511 363.556 966.922 363.556H957.36C955.772 363.556 954.483 362.268 954.483 360.679V351.122C954.483 349.533 955.772 348.245 957.36 348.245Z" class="svg-fill"/>
<path d="M312.467 397.147C335.246 397.147 353.713 378.68 353.713 355.901C353.713 333.121 335.246 314.655 312.467 314.655C289.688 314.655 271.221 333.121 271.221 355.901C271.221 378.68 289.688 397.147 312.467 397.147Z" class="svg-bg-fill svg-stroke"/>
<path d="M322.798 336.736H302.135C299.374 336.736 297.135 338.975 297.135 341.736V370.065C297.135 372.827 299.374 375.065 302.135 375.065H322.798C325.56 375.065 327.798 372.827 327.798 370.065V341.736C327.798 338.975 325.56 336.736 322.798 336.736Z" class="svg-fill-light"/>
<path d="M320.55 353.984H304.385C303.557 353.984 302.885 354.656 302.885 355.484V358.233C302.885 359.062 303.557 359.733 304.385 359.733H320.55C321.378 359.733 322.05 359.062 322.05 358.233V355.484C322.05 354.656 321.378 353.984 320.55 353.984Z" class="svg-bg-fill"/>
<path d="M320.55 361.65H304.385C303.557 361.65 302.885 362.322 302.885 363.15V365.899C302.885 366.728 303.557 367.399 304.385 367.399H320.55C321.378 367.399 322.05 366.728 322.05 365.899V363.15C322.05 362.322 321.378 361.65 320.55 361.65Z" class="svg-fill"/>
<path d="M312.467 350.151C314.584 350.151 316.3 348.435 316.3 346.318C316.3 344.201 314.584 342.485 312.467 342.485C310.35 342.485 308.634 344.201 308.634 346.318C308.634 348.435 310.35 350.151 312.467 350.151Z" class="svg-fill"/>
<path d="M717.801 397.147C740.581 397.147 759.047 378.68 759.047 355.901C759.047 333.121 740.581 314.655 717.801 314.655C695.022 314.655 676.556 333.121 676.556 355.901C676.556 378.68 695.022 397.147 717.801 397.147Z" class="svg-bg-fill svg-stroke"/>
<path d="M717.963 360.244C718.581 360.9 719.156 361.605 719.683 362.354C733.995 348.191 737.075 339.774 736.888 338.009C736.856 337.698 736.714 337.414 736.495 337.193C736.491 337.188 736.383 337.082 736.383 337.082L736.376 337.076C736.081 336.787 735.56 336.704 735.152 336.747C733.204 336.949 725.471 341.129 713.303 356.666C716.258 358.271 717.963 360.244 717.963 360.244Z" class="svg-fill"/>
<path d="M714.996 361.134C714.996 361.134 712.225 358.219 708.377 359.479C704.53 360.74 703.48 367.391 702.183 369.808C700.885 372.222 699.343 372.779 698.77 373.255C698.148 373.776 699.733 374.919 702.927 375.049C706.934 375.214 713.21 374.132 716.033 370.91C718.315 368.306 717.629 363.668 714.996 361.134Z" class="svg-fill-light"/>
<path d="M67.1834 397.147C89.9628 397.147 108.429 378.68 108.429 355.901C108.429 333.121 89.9628 314.655 67.1834 314.655C44.4039 314.655 25.9375 333.121 25.9375 355.901C25.9375 378.68 44.4039 397.147 67.1834 397.147Z" class="svg-bg-fill svg-stroke"/>
<path d="M67.1833 375.43C76.7092 375.43 84.4315 373.262 84.4315 370.587C84.4315 367.913 76.7092 365.744 67.1833 365.744C57.6574 365.744 49.9351 367.913 49.9351 370.587C49.9351 373.262 57.6574 375.43 67.1833 375.43Z" class="svg-fill-lightest"/>
<path d="M84.429 358.072H49.9351V370.6H84.429V358.072Z" class="svg-fill-lightest"/>
<path d="M67.1833 362.826C76.7092 362.826 84.4315 360.658 84.4315 357.983C84.4315 355.309 76.7092 353.14 67.1833 353.14C57.6574 353.14 49.9351 355.309 49.9351 357.983C49.9351 360.658 57.6574 362.826 67.1833 362.826Z" class="svg-fill-light"/>
<path d="M67.1833 358.743C76.7092 358.743 84.4315 356.575 84.4315 353.9C84.4315 351.225 76.7092 349.057 67.1833 349.057C57.6574 349.057 49.9351 351.225 49.9351 353.9C49.9351 356.575 57.6574 358.743 67.1833 358.743Z" class="svg-fill-lightest"/>
<path d="M84.429 341.671H49.9351V353.913H84.429V341.671Z" class="svg-fill-lightest"/>
<path d="M67.1833 346.422C76.7092 346.422 84.4315 344.254 84.4315 341.579C84.4315 338.904 76.7092 336.736 67.1833 336.736C57.6574 336.736 49.9351 338.904 49.9351 341.579C49.9351 344.254 57.6574 346.422 67.1833 346.422Z" class="svg-fill-light"/>
<path d="M53.7888 351.411C54.3599 351.342 54.7526 350.701 54.6659 349.977C54.5792 349.254 54.046 348.723 53.4749 348.792C52.9039 348.86 52.5112 349.502 52.5979 350.225C52.6846 350.948 53.2178 351.479 53.7888 351.411Z" class="svg-fill"/>
<path d="M53.7888 368.024C54.3599 367.956 54.7526 367.314 54.6659 366.591C54.5792 365.867 54.046 365.336 53.4749 365.405C52.9039 365.473 52.5112 366.115 52.5979 366.838C52.6846 367.562 53.2178 368.093 53.7888 368.024Z" class="svg-fill"/>
<path d="M165.857 397.147C188.637 397.147 207.103 378.68 207.103 355.901C207.103 333.121 188.637 314.655 165.857 314.655C143.078 314.655 124.611 333.121 124.611 355.901C124.611 378.68 143.078 397.147 165.857 397.147Z" class="svg-bg-fill svg-stroke"/>
<path d="M160.47 343.989H147.976C147.268 343.989 146.692 343.414 146.692 342.705C146.692 341.997 147.268 341.421 147.976 341.421H160.47C161.179 341.421 161.754 341.997 161.754 342.705C161.754 343.414 161.179 343.989 160.47 343.989Z" class="svg-fill-lightest"/>
<path d="M160.47 348.673H147.976C147.268 348.673 146.692 348.098 146.692 347.389C146.692 346.681 147.268 346.105 147.976 346.105H160.47C161.179 346.105 161.754 346.681 161.754 347.389C161.754 348.098 161.179 348.673 160.47 348.673Z" class="svg-fill-lightest"/>
<path d="M151.102 353.36C151.054 353.36 151.008 353.357 150.959 353.352C150.255 353.275 149.748 352.639 149.826 351.935L151.386 337.878C151.464 337.174 152.1 336.662 152.804 336.745C153.507 336.822 154.015 337.458 153.937 338.162L152.374 352.219C152.301 352.874 151.745 353.36 151.102 353.36Z" class="svg-fill-lightest"/>
<path d="M155.786 353.36C155.738 353.36 155.692 353.357 155.643 353.352C154.939 353.275 154.432 352.639 154.51 351.935L156.073 337.878C156.15 337.174 156.794 336.662 157.49 336.745C158.194 336.822 158.701 337.458 158.623 338.162L157.061 352.219C156.988 352.874 156.432 353.36 155.786 353.36Z" class="svg-fill-lightest"/>
<path d="M159.635 374.77L154.184 370.875L148.733 374.77C148.279 375.093 147.65 374.77 147.65 374.214V360.235C147.65 359.203 148.485 358.368 149.517 358.368H158.851C159.882 358.368 160.717 359.203 160.717 360.235V374.214C160.717 374.77 160.089 375.095 159.635 374.77Z" class="svg-fill"/>
<path d="M183.623 338.132C181.759 336.271 178.74 336.271 176.876 338.132L175.956 339.052L175.126 338.222C173.294 336.387 170.302 336.246 168.409 338.018C166.428 339.87 166.389 342.976 168.292 344.879L169.212 345.799L175.6 352.187C175.799 352.386 176.121 352.386 176.32 352.187L182.708 345.799L183.63 344.877C185.487 343.015 185.487 339.996 183.623 338.132Z" class="svg-fill"/>
<path d="M177.774 362.514V358.934C177.774 357.451 176.572 356.247 175.087 356.247L171.507 364.305V374.787H181.844C182.737 374.796 183.501 374.148 183.635 373.265L184.87 364.572C185.018 363.594 184.346 362.681 183.368 362.533C183.273 362.519 183.176 362.511 183.079 362.514H177.774Z" class="svg-fill-light"/>
<path d="M171.508 374.787H168.166C167.178 374.787 166.375 373.986 166.375 372.996V366.093C166.375 365.106 167.175 364.302 168.166 364.302H171.508" class="svg-fill-lightest"/>
<path d="M17.9205 5.12498H20.4205C20.1023 2.82384 18.0739 1.20453 15.4432 1.20453C12.3693 1.20453 10 3.42043 10 7.19316C10 10.875 12.2159 13.1591 15.4943 13.1591C18.4318 13.1591 20.5284 11.3011 20.5284 8.23862V6.77271H15.6591V8.62498H18.1591C18.125 10.0682 17.1421 10.983 15.5057 10.983C13.6591 10.983 12.4943 9.60225 12.4943 7.17043C12.4943 4.74998 13.7046 3.38066 15.483 3.38066C16.75 3.38066 17.608 4.03407 17.9205 5.12498ZM26.3083 13.1705C28.4674 13.1705 29.9219 12.1193 30.2628 10.5L28.0242 10.3523C27.7799 11.017 27.1549 11.3636 26.348 11.3636C25.1378 11.3636 24.3708 10.5625 24.3708 9.26134V9.25566H30.314V8.59089C30.314 5.62498 28.5185 4.15907 26.2117 4.15907C23.6435 4.15907 21.9787 5.98293 21.9787 8.67612C21.9787 11.4432 23.6208 13.1705 26.3083 13.1705ZM24.3708 7.75566C24.4219 6.76134 25.1776 5.96589 26.2515 5.96589C27.3026 5.96589 28.0299 6.71589 28.0355 7.75566H24.3708ZM36.5355 4.27271H34.8935V2.1818H32.473V4.27271H31.2799V6.09089H32.473V10.6364C32.4617 12.3466 33.6265 13.1932 35.3821 13.1193C36.0071 13.0966 36.4503 12.9716 36.6946 12.892L36.314 11.0909C36.1946 11.1136 35.939 11.1705 35.7117 11.1705C35.2287 11.1705 34.8935 10.9886 34.8935 10.3182V6.09089H36.5355V4.27271ZM48.1733 4.71021H50.5313C50.4972 2.63634 48.7926 1.20453 46.2017 1.20453C43.6506 1.20453 41.7813 2.61362 41.7926 4.72725C41.787 6.44316 42.9972 7.42612 44.9631 7.89771L46.2301 8.21589C47.4972 8.52271 48.2017 8.88634 48.2074 9.67043C48.2017 10.5227 47.3949 11.1023 46.1449 11.1023C44.8665 11.1023 43.9461 10.5114 43.8665 9.34657H41.4858C41.5483 11.8636 43.3495 13.1648 46.1733 13.1648C49.0142 13.1648 50.6847 11.8068 50.6904 9.67612C50.6847 7.73862 49.2245 6.71021 47.2017 6.25566L46.1563 6.00566C45.1449 5.77271 44.2983 5.39771 44.3154 4.56248C44.3154 3.81248 44.9801 3.26134 46.1847 3.26134C47.3608 3.26134 48.0824 3.79543 48.1733 4.71021ZM56.9418 4.27271H55.2997V2.1818H52.8793V4.27271H51.6861V6.09089H52.8793V10.6364C52.8679 12.3466 54.0327 13.1932 55.7884 13.1193C56.4134 13.0966 56.8566 12.9716 57.1009 12.892L56.7202 11.0909C56.6009 11.1136 56.3452 11.1705 56.1179 11.1705C55.635 11.1705 55.2997 10.9886 55.2997 10.3182V6.09089H56.9418V4.27271ZM61.0071 13.1648C62.2969 13.1648 63.1321 12.6023 63.5583 11.7898H63.6265V13H65.9219V7.11362C65.9219 5.03407 64.1605 4.15907 62.2174 4.15907C60.1265 4.15907 58.7515 5.15907 58.4162 6.74998L60.6549 6.9318C60.8196 6.35225 61.3367 5.92612 62.206 5.92612C63.0299 5.92612 63.5015 6.34089 63.5015 7.0568V7.09089C63.5015 7.65339 62.9049 7.72725 61.3878 7.87498C59.6605 8.03407 58.1094 8.61362 58.1094 10.5625C58.1094 12.2898 59.3424 13.1648 61.0071 13.1648ZM61.7003 11.4943C60.956 11.4943 60.4219 11.1477 60.4219 10.483C60.4219 9.80112 60.9844 9.46589 61.8367 9.34657C62.3651 9.27271 63.2287 9.14771 63.5185 8.95453V9.88066C63.5185 10.7955 62.7628 11.4943 61.7003 11.4943ZM67.7997 13H70.2202V8.06248C70.2202 6.98862 71.0043 6.24998 72.0725 6.24998C72.4077 6.24998 72.8679 6.3068 73.0952 6.38066V4.23293C72.8793 4.1818 72.5782 4.14771 72.3338 4.14771C71.3566 4.14771 70.5554 4.71589 70.2372 5.79543H70.1463V4.27271H67.7997V13ZM79.4262 4.27271H77.7841V2.1818H75.3637V4.27271H74.1705V6.09089H75.3637V10.6364C75.3523 12.3466 76.5171 13.1932 78.2728 13.1193C78.8978 13.0966 79.3409 12.9716 79.5853 12.892L79.2046 11.0909C79.0853 11.1136 78.8296 11.1705 78.6023 11.1705C78.1193 11.1705 77.7841 10.9886 77.7841 10.3182V6.09089H79.4262V4.27271ZM84.8864 13.1705C87.0455 13.1705 88.5 12.1193 88.8409 10.5L86.6023 10.3523C86.358 11.017 85.733 11.3636 84.9262 11.3636C83.7159 11.3636 82.9489 10.5625 82.9489 9.26134V9.25566H88.8921V8.59089C88.8921 5.62498 87.0966 4.15907 84.7898 4.15907C82.2216 4.15907 80.5568 5.98293 80.5568 8.67612C80.5568 11.4432 82.1989 13.1705 84.8864 13.1705ZM82.9489 7.75566C83 6.76134 83.7557 5.96589 84.8296 5.96589C85.8807 5.96589 86.608 6.71589 86.6137 7.75566H82.9489ZM93.6875 13.142C95.0966 13.142 95.8296 12.3295 96.1648 11.6023H96.2671V13H98.6534V1.36362H96.2387V5.73862H96.1648C95.8409 5.02839 95.1421 4.15907 93.6818 4.15907C91.7671 4.15907 90.1478 5.64771 90.1478 8.64771C90.1478 11.5682 91.6989 13.142 93.6875 13.142ZM94.4546 11.2159C93.2671 11.2159 92.6193 10.1591 92.6193 8.63634C92.6193 7.12498 93.2557 6.08521 94.4546 6.08521C95.6307 6.08521 96.2898 7.07953 96.2898 8.63634C96.2898 10.1932 95.6193 11.2159 94.4546 11.2159Z" fill="#ffffff"/>
<path d="M191.516 13L192.38 10.3466H196.579L197.442 13H200.079L196.067 1.36363H192.897L188.88 13H191.516ZM193.005 8.42613L194.437 4.02272H194.528L195.959 8.42613H193.005ZM207.03 9.28408C207.036 10.4545 206.235 11.0682 205.366 11.0682C204.451 11.0682 203.86 10.4261 203.854 9.39772V4.27272H201.434V9.82954C201.44 11.8693 202.633 13.1136 204.388 13.1136C205.701 13.1136 206.644 12.4375 207.036 11.4148H207.127V13H209.451V4.27272H207.03V9.28408ZM216.029 4.27272H214.387V2.18181H211.967V4.27272H210.773V6.0909H211.967V10.6364C211.955 12.3466 213.12 13.1932 214.876 13.1193C215.501 13.0966 215.944 12.9716 216.188 12.892L215.807 11.0909C215.688 11.1136 215.432 11.1705 215.205 11.1705C214.722 11.1705 214.387 10.9886 214.387 10.3182V6.0909H216.029V4.27272ZM220.214 7.95454C220.219 6.82954 220.907 6.17044 221.896 6.17044C222.878 6.17044 223.458 6.80113 223.452 7.87499V13H225.873V7.44317C225.878 5.39772 224.674 4.15908 222.856 4.15908C221.532 4.15908 220.646 4.78408 220.248 5.81249H220.146V1.36363H217.793V13H220.214V7.95454ZM231.755 13.1705C233.914 13.1705 235.369 12.1193 235.709 10.5L233.471 10.3523C233.227 11.017 232.602 11.3636 231.795 11.3636C230.584 11.3636 229.817 10.5625 229.817 9.26135V9.25567H235.761V8.5909C235.761 5.62499 233.965 4.15908 231.658 4.15908C229.09 4.15908 227.425 5.98294 227.425 8.67613C227.425 11.4432 229.067 13.1705 231.755 13.1705ZM229.817 7.75567C229.869 6.76135 230.624 5.9659 231.698 5.9659C232.749 5.9659 233.477 6.7159 233.482 7.75567H229.817ZM239.761 7.95454C239.766 6.82954 240.437 6.17044 241.414 6.17044C242.386 6.17044 242.971 6.80681 242.965 7.87499V13H245.386V7.44317C245.386 5.40908 244.192 4.15908 242.374 4.15908C241.079 4.15908 240.141 4.79544 239.749 5.81249H239.647V4.27272H237.34V13H239.761V7.95454ZM251.935 4.27272H250.293V2.18181H247.873V4.27272H246.68V6.0909H247.873V10.6364C247.861 12.3466 249.026 13.1932 250.782 13.1193C251.407 13.0966 251.85 12.9716 252.094 12.892L251.714 11.0909C251.594 11.1136 251.339 11.1705 251.111 11.1705C250.628 11.1705 250.293 10.9886 250.293 10.3182V6.0909H251.935V4.27272ZM253.512 13H255.932V4.27272H253.512V13ZM254.728 3.14772C255.45 3.14772 256.04 2.59658 256.04 1.92044C256.04 1.24999 255.45 0.698853 254.728 0.698853C254.012 0.698853 253.421 1.24999 253.421 1.92044C253.421 2.59658 254.012 3.14772 254.728 3.14772ZM261.815 13.1705C264.138 13.1705 265.599 11.8068 265.712 9.80113H263.428C263.286 10.733 262.673 11.2557 261.843 11.2557C260.712 11.2557 259.979 10.3068 259.979 8.63635C259.979 6.98863 260.718 6.04544 261.843 6.04544C262.729 6.04544 263.298 6.63067 263.428 7.49999H265.712C265.61 5.48294 264.082 4.15908 261.803 4.15908C259.155 4.15908 257.519 5.99431 257.519 8.67044C257.519 11.3239 259.127 13.1705 261.815 13.1705ZM269.751 13.1648C271.04 13.1648 271.876 12.6023 272.302 11.7898H272.37V13H274.665V7.11363C274.665 5.03408 272.904 4.15908 270.961 4.15908C268.87 4.15908 267.495 5.15908 267.16 6.74999L269.398 6.93181C269.563 6.35226 270.08 5.92613 270.95 5.92613C271.773 5.92613 272.245 6.3409 272.245 7.05681V7.0909C272.245 7.6534 271.648 7.72726 270.131 7.87499C268.404 8.03408 266.853 8.61363 266.853 10.5625C266.853 12.2898 268.086 13.1648 269.751 13.1648ZM270.444 11.4943C269.7 11.4943 269.165 11.1477 269.165 10.483C269.165 9.80113 269.728 9.4659 270.58 9.34658C271.109 9.27272 271.972 9.14772 272.262 8.95454V9.88067C272.262 10.7955 271.506 11.4943 270.444 11.4943ZM281.185 4.27272H279.543V2.18181H277.123V4.27272H275.93V6.0909H277.123V10.6364C277.111 12.3466 278.276 13.1932 280.032 13.1193C280.657 13.0966 281.1 12.9716 281.344 12.892L280.964 11.0909C280.844 11.1136 280.589 11.1705 280.361 11.1705C279.878 11.1705 279.543 10.9886 279.543 10.3182V6.0909H281.185V4.27272ZM286.646 13.1705C288.805 13.1705 290.259 12.1193 290.6 10.5L288.361 10.3523C288.117 11.017 287.492 11.3636 286.685 11.3636C285.475 11.3636 284.708 10.5625 284.708 9.26135V9.25567H290.651V8.5909C290.651 5.62499 288.856 4.15908 286.549 4.15908C283.981 4.15908 282.316 5.98294 282.316 8.67613C282.316 11.4432 283.958 13.1705 286.646 13.1705ZM284.708 7.75567C284.759 6.76135 285.515 5.9659 286.589 5.9659C287.64 5.9659 288.367 6.7159 288.373 7.75567H284.708Z" fill="#ffffff"/>
<path d="M460.716 1.36365V13H463.103V5.39774H463.199L466.211 12.9432H467.836L470.847 5.42615H470.944V13H473.33V1.36365H470.296L467.091 9.18183H466.955L463.751 1.36365H460.716ZM477.8 13.1648C479.09 13.1648 479.925 12.6023 480.351 11.7898H480.42V13H482.715V7.11365C482.715 5.0341 480.954 4.1591 479.01 4.1591C476.92 4.1591 475.545 5.1591 475.209 6.75001L477.448 6.93183C477.613 6.35228 478.13 5.92615 478.999 5.92615C479.823 5.92615 480.295 6.34092 480.295 7.05683V7.09092C480.295 7.65342 479.698 7.72728 478.181 7.87501C476.454 8.0341 474.902 8.61365 474.902 10.5625C474.902 12.2898 476.135 13.1648 477.8 13.1648ZM478.493 11.4943C477.749 11.4943 477.215 11.1477 477.215 10.483C477.215 9.80115 477.777 9.46592 478.63 9.3466C479.158 9.27274 480.022 9.14774 480.312 8.95456V9.88069C480.312 10.7955 479.556 11.4943 478.493 11.4943ZM487.013 7.95456C487.019 6.82956 487.689 6.17046 488.667 6.17046C489.638 6.17046 490.224 6.80683 490.218 7.87501V13H492.638V7.44319C492.638 5.4091 491.445 4.1591 489.627 4.1591C488.331 4.1591 487.394 4.79546 487.002 5.81251H486.9V4.27274H484.593V13H487.013V7.95456ZM497.035 13.1648C498.324 13.1648 499.16 12.6023 499.586 11.7898H499.654V13H501.949V7.11365C501.949 5.0341 500.188 4.1591 498.245 4.1591C496.154 4.1591 494.779 5.1591 494.444 6.75001L496.682 6.93183C496.847 6.35228 497.364 5.92615 498.233 5.92615C499.057 5.92615 499.529 6.34092 499.529 7.05683V7.09092C499.529 7.65342 498.932 7.72728 497.415 7.87501C495.688 8.0341 494.137 8.61365 494.137 10.5625C494.137 12.2898 495.37 13.1648 497.035 13.1648ZM497.728 11.4943C496.983 11.4943 496.449 11.1477 496.449 10.483C496.449 9.80115 497.012 9.46592 497.864 9.3466C498.393 9.27274 499.256 9.14774 499.546 8.95456V9.88069C499.546 10.7955 498.79 11.4943 497.728 11.4943ZM507.759 16.3977C510.253 16.3977 512.026 15.2614 512.026 13.0852V4.27274H509.623V5.73865H509.532C509.208 5.02842 508.498 4.1591 507.037 4.1591C505.123 4.1591 503.503 5.64774 503.503 8.61933C503.503 11.5227 505.077 12.875 507.043 12.875C508.435 12.875 509.214 12.1761 509.532 11.4545H509.634V13.0511C509.634 14.1932 508.867 14.6591 507.816 14.6591C506.748 14.6591 506.208 14.1932 506.009 13.7216L503.77 14.0227C504.06 15.3409 505.407 16.3977 507.759 16.3977ZM507.81 11.0568C506.623 11.0568 505.975 10.1136 505.975 8.60796C505.975 7.12501 506.611 6.08524 507.81 6.08524C508.986 6.08524 509.645 7.07956 509.645 8.60796C509.645 10.1477 508.975 11.0568 507.81 11.0568ZM517.929 13.1705C520.089 13.1705 521.543 12.1193 521.884 10.5L519.645 10.3523C519.401 11.017 518.776 11.3636 517.969 11.3636C516.759 11.3636 515.992 10.5625 515.992 9.26137V9.25569H521.935V8.59092C521.935 5.62501 520.14 4.1591 517.833 4.1591C515.265 4.1591 513.6 5.98296 513.6 8.67615C513.6 11.4432 515.242 13.1705 517.929 13.1705ZM515.992 7.75569C516.043 6.76137 516.799 5.96592 517.873 5.96592C518.924 5.96592 519.651 6.71592 519.657 7.75569H515.992ZM534.451 1.36365V8.71024C534.451 10.0398 533.519 11 532.087 11C530.661 11 529.724 10.0398 529.724 8.71024V1.36365H527.263V8.92046C527.263 11.4659 529.184 13.1648 532.087 13.1648C534.979 13.1648 536.911 11.4659 536.911 8.92046V1.36365H534.451ZM546.151 6.76137C545.935 5.15342 544.64 4.1591 542.435 4.1591C540.202 4.1591 538.731 5.19319 538.736 6.87501C538.731 8.18183 539.554 9.02842 541.259 9.36933L542.77 9.67046C543.532 9.82387 543.878 10.1023 543.89 10.5398C543.878 11.0568 543.316 11.4261 542.469 11.4261C541.606 11.4261 541.032 11.0568 540.884 10.3466L538.503 10.4716C538.731 12.142 540.151 13.1705 542.464 13.1705C544.725 13.1705 546.344 12.017 546.35 10.2955C546.344 9.0341 545.52 8.27842 543.827 7.93183L542.248 7.61365C541.435 7.43751 541.134 7.1591 541.14 6.73865C541.134 6.21592 541.725 5.87501 542.475 5.87501C543.316 5.87501 543.816 6.33524 543.935 6.89774L546.151 6.76137ZM551.851 13.1705C554.01 13.1705 555.465 12.1193 555.806 10.5L553.567 10.3523C553.323 11.017 552.698 11.3636 551.891 11.3636C550.681 11.3636 549.914 10.5625 549.914 9.26137V9.25569H555.857V8.59092C555.857 5.62501 554.062 4.1591 551.755 4.1591C549.187 4.1591 547.522 5.98296 547.522 8.67615C547.522 11.4432 549.164 13.1705 551.851 13.1705ZM549.914 7.75569C549.965 6.76137 550.721 5.96592 551.795 5.96592C552.846 5.96592 553.573 6.71592 553.579 7.75569H549.914ZM557.437 13H559.857V8.06251C559.857 6.98865 560.641 6.25001 561.709 6.25001C562.045 6.25001 562.505 6.30683 562.732 6.38069V4.23296C562.516 4.18183 562.215 4.14774 561.971 4.14774C560.993 4.14774 560.192 4.71592 559.874 5.79546H559.783V4.27274H557.437V13ZM571.245 6.76137C571.029 5.15342 569.733 4.1591 567.529 4.1591C565.296 4.1591 563.824 5.19319 563.83 6.87501C563.824 8.18183 564.648 9.02842 566.353 9.36933L567.864 9.67046C568.626 9.82387 568.972 10.1023 568.983 10.5398C568.972 11.0568 568.41 11.4261 567.563 11.4261C566.699 11.4261 566.126 11.0568 565.978 10.3466L563.597 10.4716C563.824 12.142 565.245 13.1705 567.557 13.1705C569.819 13.1705 571.438 12.017 571.444 10.2955C571.438 9.0341 570.614 8.27842 568.921 7.93183L567.341 7.61365C566.529 7.43751 566.228 7.1591 566.233 6.73865C566.228 6.21592 566.819 5.87501 567.569 5.87501C568.41 5.87501 568.91 6.33524 569.029 6.89774L571.245 6.76137Z" fill="#ffffff"/>
<path d="M760.472 5.43749C760.148 2.74999 758.114 1.20454 755.42 1.20454C752.347 1.20454 750 3.37499 750 7.18181C750 10.9773 752.307 13.1591 755.42 13.1591C758.403 13.1591 760.205 11.1761 760.472 9.03408L757.983 9.02272C757.75 10.267 756.773 10.983 755.46 10.983C753.693 10.983 752.494 9.67044 752.494 7.18181C752.494 4.76135 753.676 3.38067 755.477 3.38067C756.824 3.38067 757.795 4.15908 757.983 5.43749H760.472ZM767.787 9.28408C767.793 10.4545 766.992 11.0682 766.122 11.0682C765.207 11.0682 764.617 10.4261 764.611 9.39772V4.27272H762.19V9.82954C762.196 11.8693 763.389 13.1136 765.145 13.1136C766.457 13.1136 767.401 12.4375 767.793 11.4148H767.884V13H770.207V4.27272H767.787V9.28408ZM779.405 6.76135C779.189 5.1534 777.893 4.15908 775.689 4.15908C773.456 4.15908 771.984 5.19317 771.99 6.87499C771.984 8.18181 772.808 9.0284 774.513 9.36931L776.024 9.67044C776.786 9.82385 777.132 10.1023 777.143 10.5398C777.132 11.0568 776.57 11.4261 775.723 11.4261C774.859 11.4261 774.286 11.0568 774.138 10.3466L771.757 10.4716C771.984 12.142 773.405 13.1705 775.717 13.1705C777.979 13.1705 779.598 12.017 779.604 10.2955C779.598 9.03408 778.774 8.2784 777.081 7.93181L775.501 7.61363C774.689 7.43749 774.388 7.15908 774.393 6.73863C774.388 6.2159 774.979 5.87499 775.729 5.87499C776.57 5.87499 777.07 6.33522 777.189 6.89772L779.405 6.76135ZM785.77 4.27272H784.128V2.18181H781.707V4.27272H780.514V6.0909H781.707V10.6364C781.696 12.3466 782.861 13.1932 784.617 13.1193C785.242 13.0966 785.685 12.9716 785.929 12.892L785.548 11.0909C785.429 11.1136 785.173 11.1705 784.946 11.1705C784.463 11.1705 784.128 10.9886 784.128 10.3182V6.0909H785.77V4.27272ZM791.196 13.1705C793.844 13.1705 795.492 11.358 795.492 8.67044C795.492 5.9659 793.844 4.15908 791.196 4.15908C788.548 4.15908 786.901 5.9659 786.901 8.67044C786.901 11.358 788.548 13.1705 791.196 13.1705ZM791.207 11.2955C789.986 11.2955 789.361 10.1761 789.361 8.6534C789.361 7.13067 789.986 6.00567 791.207 6.00567C792.406 6.00567 793.031 7.13067 793.031 8.6534C793.031 10.1761 792.406 11.2955 791.207 11.2955ZM797.065 13H799.486V7.76135C799.486 6.79544 800.099 6.1534 800.906 6.1534C801.702 6.1534 802.236 6.69885 802.236 7.55681V13H804.582V7.67044C804.582 6.76704 805.099 6.1534 805.98 6.1534C806.753 6.1534 807.332 6.63635 807.332 7.60794V13H809.747V7.13067C809.747 5.23863 808.622 4.15908 806.997 4.15908C805.719 4.15908 804.724 4.81249 804.367 5.81249H804.276C803.997 4.80113 803.105 4.15908 801.906 4.15908C800.73 4.15908 799.838 4.78408 799.474 5.81249H799.372V4.27272H797.065V13ZM811.659 13H814.08V4.27272H811.659V13ZM812.875 3.14772C813.597 3.14772 814.188 2.59658 814.188 1.92044C814.188 1.24999 813.597 0.698853 812.875 0.698853C812.159 0.698853 811.568 1.24999 811.568 1.92044C811.568 2.59658 812.159 3.14772 812.875 3.14772ZM815.973 13H823.308V11.0682H819.149V11.0057L823.161 5.84658V4.27272H816.121V6.20454H820.246V6.26704L815.973 11.5568V13ZM828.886 13.1705C831.045 13.1705 832.5 12.1193 832.841 10.5L830.602 10.3523C830.358 11.017 829.733 11.3636 828.926 11.3636C827.716 11.3636 826.949 10.5625 826.949 9.26135V9.25567H832.892V8.5909C832.892 5.62499 831.097 4.15908 828.79 4.15908C826.222 4.15908 824.557 5.98294 824.557 8.67613C824.557 11.4432 826.199 13.1705 828.886 13.1705ZM826.949 7.75567C827 6.76135 827.756 5.9659 828.83 5.9659C829.881 5.9659 830.608 6.7159 830.614 7.75567H826.949Z" fill="#ffffff"/>
<path d="M1125.12 13C1128.67 13 1130.82 10.8068 1130.82 7.17046C1130.82 3.54546 1128.67 1.36365 1125.16 1.36365H1121V13H1125.12ZM1123.46 10.892V3.4716H1125.03C1127.21 3.4716 1128.36 4.58524 1128.36 7.17046C1128.36 9.76706 1127.21 10.892 1125.02 10.892H1123.46ZM1136.57 13.1705C1138.73 13.1705 1140.19 12.1193 1140.53 10.5L1138.29 10.3523C1138.04 11.017 1137.42 11.3636 1136.61 11.3636C1135.4 11.3636 1134.63 10.5625 1134.63 9.26137V9.25569H1140.58V8.59092C1140.58 5.62501 1138.78 4.1591 1136.48 4.1591C1133.91 4.1591 1132.24 5.98296 1132.24 8.67615C1132.24 11.4432 1133.88 13.1705 1136.57 13.1705ZM1134.63 7.75569C1134.69 6.76137 1135.44 5.96592 1136.52 5.96592C1137.57 5.96592 1138.29 6.71592 1138.3 7.75569H1134.63ZM1142.16 16.2727H1144.58V11.6023H1144.65C1144.99 12.3295 1145.72 13.142 1147.13 13.142C1149.12 13.142 1150.67 11.5682 1150.67 8.64774C1150.67 5.64774 1149.05 4.1591 1147.13 4.1591C1145.67 4.1591 1144.98 5.02842 1144.65 5.73865H1144.54V4.27274H1142.16V16.2727ZM1144.53 8.63637C1144.53 7.07956 1145.19 6.08524 1146.36 6.08524C1147.56 6.08524 1148.2 7.12501 1148.2 8.63637C1148.2 10.1591 1147.55 11.2159 1146.36 11.2159C1145.2 11.2159 1144.53 10.1932 1144.53 8.63637ZM1154.7 1.36365H1152.28V13H1154.7V1.36365ZM1160.58 13.1705C1163.23 13.1705 1164.88 11.358 1164.88 8.67046C1164.88 5.96592 1163.23 4.1591 1160.58 4.1591C1157.94 4.1591 1156.29 5.96592 1156.29 8.67046C1156.29 11.358 1157.94 13.1705 1160.58 13.1705ZM1160.6 11.2955C1159.37 11.2955 1158.75 10.1761 1158.75 8.65342C1158.75 7.13069 1159.37 6.00569 1160.6 6.00569C1161.79 6.00569 1162.42 7.13069 1162.42 8.65342C1162.42 10.1761 1161.79 11.2955 1160.6 11.2955ZM1167.65 16.2557C1169.45 16.2557 1170.41 15.3409 1170.9 13.9432L1174.29 4.2841L1171.73 4.27274L1169.91 10.6818H1169.82L1168.01 4.27274H1165.46L1168.59 13.25L1168.45 13.6193C1168.11 14.4091 1167.53 14.4659 1166.67 14.1989L1166.13 16.0114C1166.48 16.1534 1167.04 16.2557 1167.65 16.2557Z" fill="#ffffff"/>
<path d="M885.14 420.313H893.003V418.284H887.6V415.506H892.577V413.477H887.6V410.705H892.981V408.676H885.14V420.313ZM896.914 411.585H894.414L896.914 415.949L894.323 420.313H896.823L898.516 417.295L900.238 420.313H902.709L900.113 415.949L902.641 411.585H900.158L898.516 414.636L896.914 411.585ZM908.721 411.585H907.079V409.494H904.658V411.585H903.465V413.403H904.658V417.949C904.647 419.659 905.812 420.506 907.567 420.432C908.192 420.409 908.635 420.284 908.88 420.205L908.499 418.403C908.38 418.426 908.124 418.483 907.897 418.483C907.414 418.483 907.079 418.301 907.079 417.631V413.403H908.721V411.585ZM914.181 420.483C916.34 420.483 917.795 419.432 918.135 417.813L915.897 417.665C915.652 418.33 915.027 418.676 914.221 418.676C913.01 418.676 912.243 417.875 912.243 416.574V416.568H918.187V415.903C918.187 412.938 916.391 411.472 914.084 411.472C911.516 411.472 909.851 413.295 909.851 415.989C909.851 418.756 911.493 420.483 914.181 420.483ZM912.243 415.068C912.295 414.074 913.05 413.278 914.124 413.278C915.175 413.278 915.902 414.028 915.908 415.068H912.243ZM922.187 415.267C922.192 414.142 922.863 413.483 923.84 413.483C924.812 413.483 925.397 414.119 925.391 415.188V420.313H927.812V414.756C927.812 412.722 926.618 411.472 924.8 411.472C923.505 411.472 922.567 412.108 922.175 413.125H922.073V411.585H919.766V420.313H922.187V415.267ZM932.935 420.455C934.344 420.455 935.077 419.642 935.412 418.915H935.515V420.313H937.901V408.676H935.486V413.051H935.412C935.089 412.341 934.39 411.472 932.929 411.472C931.015 411.472 929.395 412.96 929.395 415.96C929.395 418.881 930.947 420.455 932.935 420.455ZM933.702 418.528C932.515 418.528 931.867 417.472 931.867 415.949C931.867 414.438 932.503 413.398 933.702 413.398C934.878 413.398 935.537 414.392 935.537 415.949C935.537 417.506 934.867 418.528 933.702 418.528Z" fill="#ffffff"/>
<path d="M694 420.313H698.972C701.585 420.313 702.977 418.949 702.977 417.097C702.977 415.375 701.744 414.335 700.42 414.273V414.159C701.631 413.886 702.523 413.028 702.523 411.659C702.523 409.915 701.227 408.676 698.659 408.676H694V420.313ZM696.46 418.301V415.21H698.523C699.705 415.21 700.438 415.892 700.438 416.852C700.438 417.727 699.841 418.301 698.466 418.301H696.46ZM696.46 413.545V410.665H698.33C699.42 410.665 700.04 411.227 700.04 412.068C700.04 412.989 699.29 413.545 698.284 413.545H696.46ZM704.533 420.313H706.953V415.375C706.953 414.301 707.737 413.563 708.805 413.563C709.141 413.563 709.601 413.619 709.828 413.693V411.545C709.612 411.494 709.311 411.46 709.067 411.46C708.089 411.46 707.288 412.028 706.97 413.108H706.879V411.585H704.533V420.313ZM713.318 420.477C714.608 420.477 715.443 419.915 715.869 419.102H715.938V420.313H718.233V414.426C718.233 412.347 716.472 411.472 714.528 411.472C712.438 411.472 711.063 412.472 710.727 414.063L712.966 414.244C713.131 413.665 713.648 413.239 714.517 413.239C715.341 413.239 715.813 413.653 715.813 414.369V414.403C715.813 414.966 715.216 415.04 713.699 415.188C711.972 415.347 710.42 415.926 710.42 417.875C710.42 419.602 711.653 420.477 713.318 420.477ZM714.011 418.807C713.267 418.807 712.733 418.46 712.733 417.795C712.733 417.114 713.295 416.778 714.148 416.659C714.676 416.585 715.54 416.46 715.83 416.267V417.193C715.83 418.108 715.074 418.807 714.011 418.807ZM722.531 415.267C722.537 414.142 723.207 413.483 724.185 413.483C725.156 413.483 725.741 414.119 725.736 415.188V420.313H728.156V414.756C728.156 412.722 726.963 411.472 725.145 411.472C723.849 411.472 722.912 412.108 722.52 413.125H722.418V411.585H720.111V420.313H722.531V415.267ZM733.28 420.455C734.689 420.455 735.422 419.642 735.757 418.915H735.859V420.313H738.246V408.676H735.831V413.051H735.757C735.433 412.341 734.734 411.472 733.274 411.472C731.359 411.472 729.74 412.96 729.74 415.96C729.74 418.881 731.291 420.455 733.28 420.455ZM734.047 418.528C732.859 418.528 732.212 417.472 732.212 415.949C732.212 414.438 732.848 413.398 734.047 413.398C735.223 413.398 735.882 414.392 735.882 415.949C735.882 417.506 735.212 418.528 734.047 418.528Z" fill="#ffffff"/>
<path d="M276.637 420.313L277.5 417.659H281.699L282.563 420.313H285.199L281.188 408.676H278.017L274 420.313H276.637ZM278.125 415.739L279.557 411.335H279.648L281.08 415.739H278.125ZM289.364 420.455C290.773 420.455 291.506 419.642 291.841 418.915H291.944V420.313H294.33V408.676H291.915V413.051H291.841C291.517 412.341 290.819 411.472 289.358 411.472C287.444 411.472 285.824 412.96 285.824 415.96C285.824 418.881 287.375 420.455 289.364 420.455ZM290.131 418.528C288.944 418.528 288.296 417.472 288.296 415.949C288.296 414.438 288.932 413.398 290.131 413.398C291.307 413.398 291.966 414.392 291.966 415.949C291.966 417.506 291.296 418.528 290.131 418.528ZM299.536 420.455C300.945 420.455 301.678 419.642 302.013 418.915H302.115V420.313H304.502V408.676H302.087V413.051H302.013C301.689 412.341 300.99 411.472 299.53 411.472C297.615 411.472 295.996 412.96 295.996 415.96C295.996 418.881 297.547 420.455 299.536 420.455ZM300.303 418.528C299.115 418.528 298.468 417.472 298.468 415.949C298.468 414.438 299.104 413.398 300.303 413.398C301.479 413.398 302.138 414.392 302.138 415.949C302.138 417.506 301.468 418.528 300.303 418.528ZM310.24 420.313H317.689V418.284H312.701V408.676H310.24V420.313ZM323.216 420.483C325.864 420.483 327.512 418.67 327.512 415.983C327.512 413.278 325.864 411.472 323.216 411.472C320.569 411.472 318.921 413.278 318.921 415.983C318.921 418.67 320.569 420.483 323.216 420.483ZM323.228 418.608C322.006 418.608 321.381 417.489 321.381 415.966C321.381 414.443 322.006 413.318 323.228 413.318C324.427 413.318 325.052 414.443 325.052 415.966C325.052 417.489 324.427 418.608 323.228 418.608ZM333.017 423.71C335.512 423.71 337.285 422.574 337.285 420.398V411.585H334.881V413.051H334.79C334.466 412.341 333.756 411.472 332.296 411.472C330.381 411.472 328.762 412.96 328.762 415.932C328.762 418.835 330.336 420.188 332.302 420.188C333.694 420.188 334.472 419.489 334.79 418.767H334.892V420.364C334.892 421.506 334.125 421.972 333.074 421.972C332.006 421.972 331.466 421.506 331.267 421.034L329.029 421.335C329.319 422.653 330.665 423.71 333.017 423.71ZM333.069 418.369C331.881 418.369 331.233 417.426 331.233 415.92C331.233 414.438 331.87 413.398 333.069 413.398C334.245 413.398 334.904 414.392 334.904 415.92C334.904 417.46 334.233 418.369 333.069 418.369ZM339.211 420.313H341.631V411.585H339.211V420.313ZM340.427 410.46C341.148 410.46 341.739 409.909 341.739 409.233C341.739 408.563 341.148 408.011 340.427 408.011C339.711 408.011 339.12 408.563 339.12 409.233C339.12 409.909 339.711 410.46 340.427 410.46ZM345.99 415.267C345.996 414.142 346.667 413.483 347.644 413.483C348.615 413.483 349.201 414.119 349.195 415.188V420.313H351.615V414.756C351.615 412.722 350.422 411.472 348.604 411.472C347.309 411.472 346.371 412.108 345.979 413.125H345.877V411.585H343.57V420.313H345.99V415.267Z" fill="#ffffff"/>
<path d="M55.8551 420.313H58.3153V416.54H60.3835C63.0597 416.54 64.6165 414.943 64.6165 412.619C64.6165 410.307 63.0881 408.676 60.446 408.676H55.8551V420.313ZM58.3153 414.568V410.688H59.9744C61.3949 410.688 62.0824 411.46 62.0824 412.619C62.0824 413.773 61.3949 414.568 59.9858 414.568H58.3153ZM66.169 420.313H68.5895V415.375C68.5895 414.301 69.3736 413.563 70.4418 413.563C70.777 413.563 71.2372 413.619 71.4645 413.693V411.545C71.2486 411.494 70.9474 411.46 70.7031 411.46C69.7259 411.46 68.9247 412.028 68.6065 413.108H68.5156V411.585H66.169V420.313ZM76.2528 420.483C78.9006 420.483 80.5483 418.67 80.5483 415.983C80.5483 413.278 78.9006 411.472 76.2528 411.472C73.6051 411.472 71.9574 413.278 71.9574 415.983C71.9574 418.67 73.6051 420.483 76.2528 420.483ZM76.2642 418.608C75.0426 418.608 74.4176 417.489 74.4176 415.966C74.4176 414.443 75.0426 413.318 76.2642 413.318C77.4631 413.318 78.0881 414.443 78.0881 415.966C78.0881 417.489 77.4631 418.608 76.2642 418.608ZM89.9616 411.585H87.3991L85.5923 417.83H85.5014L83.6889 411.585H81.1321L84.1832 420.313H86.9105L89.9616 411.585ZM91.2003 420.313H93.6207V411.585H91.2003V420.313ZM92.4162 410.46C93.1378 410.46 93.7287 409.909 93.7287 409.233C93.7287 408.563 93.1378 408.011 92.4162 408.011C91.7003 408.011 91.1094 408.563 91.1094 409.233C91.1094 409.909 91.7003 410.46 92.4162 410.46ZM102.821 414.074C102.605 412.466 101.31 411.472 99.1051 411.472C96.8722 411.472 95.4006 412.506 95.4062 414.188C95.4006 415.494 96.2244 416.341 97.929 416.682L99.4403 416.983C100.202 417.136 100.548 417.415 100.56 417.852C100.548 418.369 99.9858 418.739 99.1392 418.739C98.2756 418.739 97.7017 418.369 97.554 417.659L95.1733 417.784C95.4006 419.455 96.821 420.483 99.1335 420.483C101.395 420.483 103.014 419.33 103.02 417.608C103.014 416.347 102.19 415.591 100.497 415.244L98.9176 414.926C98.1051 414.75 97.804 414.472 97.8097 414.051C97.804 413.528 98.3949 413.188 99.1449 413.188C99.9858 413.188 100.486 413.648 100.605 414.21L102.821 414.074ZM104.544 420.313H106.964V411.585H104.544V420.313ZM105.76 410.46C106.482 410.46 107.072 409.909 107.072 409.233C107.072 408.563 106.482 408.011 105.76 408.011C105.044 408.011 104.453 408.563 104.453 409.233C104.453 409.909 105.044 410.46 105.76 410.46ZM112.847 420.483C115.494 420.483 117.142 418.67 117.142 415.983C117.142 413.278 115.494 411.472 112.847 411.472C110.199 411.472 108.551 413.278 108.551 415.983C108.551 418.67 110.199 420.483 112.847 420.483ZM112.858 418.608C111.636 418.608 111.011 417.489 111.011 415.966C111.011 414.443 111.636 413.318 112.858 413.318C114.057 413.318 114.682 414.443 114.682 415.966C114.682 417.489 114.057 418.608 112.858 418.608ZM121.136 415.267C121.142 414.142 121.812 413.483 122.79 413.483C123.761 413.483 124.347 414.119 124.341 415.188V420.313H126.761V414.756C126.761 412.722 125.568 411.472 123.75 411.472C122.455 411.472 121.517 412.108 121.125 413.125H121.023V411.585H118.716V420.313H121.136V415.267ZM139.605 408.676V416.023C139.605 417.352 138.673 418.313 137.241 418.313C135.815 418.313 134.878 417.352 134.878 416.023V408.676H132.418V416.233C132.418 418.778 134.338 420.477 137.241 420.477C140.134 420.477 142.065 418.778 142.065 416.233V408.676H139.605ZM151.305 414.074C151.089 412.466 149.794 411.472 147.589 411.472C145.357 411.472 143.885 412.506 143.891 414.188C143.885 415.494 144.709 416.341 146.413 416.682L147.925 416.983C148.686 417.136 149.033 417.415 149.044 417.852C149.033 418.369 148.47 418.739 147.624 418.739C146.76 418.739 146.186 418.369 146.038 417.659L143.658 417.784C143.885 419.455 145.305 420.483 147.618 420.483C149.879 420.483 151.499 419.33 151.504 417.608C151.499 416.347 150.675 415.591 148.982 415.244L147.402 414.926C146.589 414.75 146.288 414.472 146.294 414.051C146.288 413.528 146.879 413.188 147.629 413.188C148.47 413.188 148.97 413.648 149.089 414.21L151.305 414.074ZM157.006 420.483C159.165 420.483 160.619 419.432 160.96 417.813L158.722 417.665C158.477 418.33 157.852 418.676 157.045 418.676C155.835 418.676 155.068 417.875 155.068 416.574V416.568H161.011V415.903C161.011 412.938 159.216 411.472 156.909 411.472C154.341 411.472 152.676 413.295 152.676 415.989C152.676 418.756 154.318 420.483 157.006 420.483ZM155.068 415.068C155.119 414.074 155.875 413.278 156.949 413.278C158 413.278 158.727 414.028 158.733 415.068H155.068ZM162.591 420.313H165.011V415.375C165.011 414.301 165.795 413.563 166.864 413.563C167.199 413.563 167.659 413.619 167.886 413.693V411.545C167.67 411.494 167.369 411.46 167.125 411.46C166.148 411.46 165.347 412.028 165.028 413.108H164.938V411.585H162.591V420.313ZM176.399 414.074C176.183 412.466 174.888 411.472 172.683 411.472C170.45 411.472 168.979 412.506 168.984 414.188C168.979 415.494 169.803 416.341 171.507 416.682L173.018 416.983C173.78 417.136 174.126 417.415 174.138 417.852C174.126 418.369 173.564 418.739 172.717 418.739C171.854 418.739 171.28 418.369 171.132 417.659L168.751 417.784C168.979 419.455 170.399 420.483 172.712 420.483C174.973 420.483 176.592 419.33 176.598 417.608C176.592 416.347 175.768 415.591 174.075 415.244L172.496 414.926C171.683 414.75 171.382 414.472 171.388 414.051C171.382 413.528 171.973 413.188 172.723 413.188C173.564 413.188 174.064 413.648 174.183 414.21L176.399 414.074Z" fill="#ffffff"/>
<path d="M951.688 223.21H954.046C954.012 221.136 952.307 219.705 949.716 219.705C947.165 219.705 945.296 221.114 945.307 223.227C945.301 224.943 946.512 225.926 948.478 226.398L949.745 226.716C951.012 227.023 951.716 227.386 951.722 228.17C951.716 229.023 950.909 229.602 949.659 229.602C948.381 229.602 947.461 229.011 947.381 227.847H945C945.063 230.364 946.864 231.665 949.688 231.665C952.529 231.665 954.199 230.307 954.205 228.176C954.199 226.239 952.739 225.21 950.716 224.756L949.671 224.506C948.659 224.273 947.813 223.898 947.83 223.062C947.83 222.312 948.495 221.761 949.699 221.761C950.875 221.761 951.597 222.295 951.688 223.21ZM959.792 231.67C961.951 231.67 963.405 230.619 963.746 229L961.507 228.852C961.263 229.517 960.638 229.864 959.831 229.864C958.621 229.864 957.854 229.062 957.854 227.761V227.756H963.797V227.091C963.797 224.125 962.002 222.659 959.695 222.659C957.127 222.659 955.462 224.483 955.462 227.176C955.462 229.943 957.104 231.67 959.792 231.67ZM957.854 226.256C957.905 225.261 958.661 224.466 959.735 224.466C960.786 224.466 961.513 225.216 961.519 226.256H957.854ZM969.32 231.67C971.644 231.67 973.104 230.307 973.218 228.301H970.934C970.792 229.233 970.178 229.756 969.348 229.756C968.218 229.756 967.485 228.807 967.485 227.136C967.485 225.489 968.223 224.545 969.348 224.545C970.235 224.545 970.803 225.131 970.934 226H973.218C973.115 223.983 971.587 222.659 969.309 222.659C966.661 222.659 965.024 224.494 965.024 227.17C965.024 229.824 966.632 231.67 969.32 231.67ZM980.364 227.784C980.37 228.955 979.569 229.568 978.699 229.568C977.784 229.568 977.194 228.926 977.188 227.898V222.773H974.767V228.33C974.773 230.369 975.966 231.614 977.722 231.614C979.034 231.614 979.978 230.938 980.37 229.915H980.461V231.5H982.784V222.773H980.364V227.784ZM984.721 231.5H987.141V226.562C987.141 225.489 987.925 224.75 988.993 224.75C989.328 224.75 989.789 224.807 990.016 224.881V222.733C989.8 222.682 989.499 222.648 989.255 222.648C988.277 222.648 987.476 223.216 987.158 224.295H987.067V222.773H984.721V231.5ZM994.838 231.67C996.997 231.67 998.452 230.619 998.793 229L996.554 228.852C996.31 229.517 995.685 229.864 994.878 229.864C993.668 229.864 992.901 229.062 992.901 227.761V227.756H998.844V227.091C998.844 224.125 997.049 222.659 994.742 222.659C992.174 222.659 990.509 224.483 990.509 227.176C990.509 229.943 992.151 231.67 994.838 231.67ZM992.901 226.256C992.952 225.261 993.708 224.466 994.782 224.466C995.833 224.466 996.56 225.216 996.566 226.256H992.901Z" fill="#ffffff"/>
</g>
<defs>
<clipPath id="clip0_8_149">
<rect width="1202" height="424" fill="#1E212A"/>
</clipPath>
</defs>
</svg>
