<svg width="16" height="16" viewBox="0 0 16 16" fill="none" xmlns="http://www.w3.org/2000/svg">
<path fill-rule="evenodd" clip-rule="evenodd" d="M5.70289 4.00023C4.95885 4.00023 4.29041 4.64353 4.29041 5.51948V9.04023H2.62374V5.51948C2.62374 3.79685 3.96627 2.33357 5.70289 2.33357C7.43951 2.33357 8.78204 3.79685 8.78204 5.51948V10.5047C8.78204 11.3645 9.43792 11.9946 10.1665 11.9946C10.895 11.9946 11.5509 11.3645 11.5509 10.5047V6.95554H13.2175V10.5047C13.2175 12.2111 11.8876 13.6612 10.1665 13.6612C8.44534 13.6612 7.11538 12.2111 7.11538 10.5047V5.51948C7.11538 4.64353 6.44694 4.00023 5.70289 4.00023Z" fill="#FBFBFB"/>
<path fill-rule="evenodd" clip-rule="evenodd" d="M10.1016 1.99967C10.1016 1.63148 10.4 1.33301 10.7682 1.33301H14C14.3682 1.33301 14.6667 1.63148 14.6667 1.99967V5.38513C14.6667 5.75332 14.3682 6.05179 14 6.05179H10.7682C10.4 6.05179 10.1016 5.75332 10.1016 5.38513V1.99967Z" fill="#FBFBFB"/>
<path fill-rule="evenodd" clip-rule="evenodd" d="M1.33337 10.6142C1.33337 10.246 1.63185 9.94756 2.00004 9.94756H5.23185C5.60004 9.94756 5.89852 10.246 5.89852 10.6142V13.9997C5.89852 14.3679 5.60004 14.6663 5.23185 14.6663H2.00004C1.63185 14.6663 1.33337 14.3679 1.33337 13.9997V10.6142Z" fill="#FBFBFB"/>
</svg>
