<svg width="16" height="16" viewBox="0 0 16 16" fill="none" xmlns="http://www.w3.org/2000/svg">
<path fill-rule="evenodd" clip-rule="evenodd" d="M4.33325 1.33301C2.6764 1.33301 1.33325 2.67615 1.33325 4.33301C1.33325 5.98986 2.6764 7.33301 4.33325 7.33301C5.99011 7.33301 7.33325 5.98986 7.33325 4.33301C7.33325 2.67615 5.99011 1.33301 4.33325 1.33301Z" fill="#FBFBFB"/>
<path fill-rule="evenodd" clip-rule="evenodd" d="M4.33325 8.66634C2.6764 8.66634 1.33325 10.0095 1.33325 11.6663C1.33325 13.3232 2.6764 14.6663 4.33325 14.6663C5.99011 14.6663 7.33325 13.3232 7.33325 11.6663C7.33325 10.0095 5.99011 8.66634 4.33325 8.66634Z" fill="#FBFBFB"/>
<path fill-rule="evenodd" clip-rule="evenodd" d="M8.66659 4.33301C8.66659 2.67615 10.0097 1.33301 11.6666 1.33301C13.3234 1.33301 14.6666 2.67615 14.6666 4.33301C14.6666 5.98986 13.3234 7.33301 11.6666 7.33301C10.0097 7.33301 8.66659 5.98986 8.66659 4.33301Z" fill="#FBFBFB"/>
<path fill-rule="evenodd" clip-rule="evenodd" d="M11.6666 8.66634C10.0097 8.66634 8.66659 10.0095 8.66659 11.6663C8.66659 13.3232 10.0097 14.6663 11.6666 14.6663C13.3234 14.6663 14.6666 13.3232 14.6666 11.6663C14.6666 10.0095 13.3234 8.66634 11.6666 8.66634Z" fill="#FBFBFB"/>
</svg>
