<svg width="14" height="18" viewBox="0 0 14 18" fill="none" xmlns="http://www.w3.org/2000/svg">
<path d="M0.897227 7.87967C3.68471 7.4205 5.86999 5.11703 6.32773 2.33007L6.48132 0.990559C6.51934 0.777698 6.37487 0.481212 6.1057 0.502498C3.9995 0.666706 2.01192 1.36155 0.906351 1.81312C0.35737 2.03814 0 2.5703 0 3.16327V7.53301C0 7.79148 0.232671 7.98914 0.488152 7.94809L0.897227 7.88119V7.87967Z" fill="white"/>
<path d="M7.67227 2.33016C8.13153 5.11713 10.3168 7.42059 13.1028 7.87976L13.5118 7.94666C13.7673 7.98924 14 7.79158 14 7.53158V3.16184C14 2.56887 13.6426 2.03672 13.0936 1.81169C11.9866 1.3586 10.0005 0.665282 7.89429 0.501075C7.62361 0.479789 7.48522 0.779315 7.51716 0.989135L7.67075 2.32864L7.67227 2.33016Z" fill="white"/>
<path d="M13.1007 9.10378C9.29124 9.85488 7.52264 12.3864 7.52264 17.1788C7.52264 17.4191 7.76139 17.5863 7.96213 17.4525C9.714 16.2711 13.569 13.1877 13.9659 9.33033C13.9812 8.84531 13.3744 9.07337 13.1007 9.10378Z" fill="white"/>
<path d="M0.898632 9.10378C4.70805 9.85488 6.47665 12.3864 6.47665 17.1788C6.47665 17.4191 6.23789 17.5863 6.03716 17.4525C4.28528 16.2711 0.430248 13.1877 0.0333395 9.33033C0.0181323 8.84531 0.624901 9.07337 0.898632 9.10378Z" fill="white"/>
</svg>
