<svg width="72" height="91" viewBox="0 0 72 91" fill="none" xmlns="http://www.w3.org/2000/svg">
<g filter="url(#filter0_d_4073_29717)">
<rect x="20" y="20" width="32" height="32" rx="4" fill="url(#paint0_radial_4073_29717)" fill-opacity="0.5" shape-rendering="crispEdges"/>
<rect x="20.5" y="20.5" width="31" height="31" rx="3.5" stroke="url(#paint1_linear_4073_29717)" shape-rendering="crispEdges"/>
</g>
<path d="M29.8972 35.3797C32.6847 34.9205 34.87 32.617 35.3277 29.8301L35.4813 28.4906C35.5193 28.2777 35.3749 27.9812 35.1057 28.0025C32.9995 28.1667 31.0119 28.8615 29.9064 29.3131C29.3574 29.5381 29 30.0703 29 30.6633V35.033C29 35.2915 29.2327 35.4891 29.4882 35.4481L29.8972 35.3812V35.3797Z" fill="white"/>
<path d="M36.6723 29.8302C37.1315 32.6171 39.3168 34.9206 42.1028 35.3798L42.5118 35.4467C42.7673 35.4892 43 35.2916 43 35.0316V30.6618C43 30.0689 42.6426 29.5367 42.0936 29.3117C40.9866 28.8586 39.0005 28.1653 36.8943 28.0011C36.6236 27.9798 36.4852 28.2793 36.5172 28.4891L36.6707 29.8286L36.6723 29.8302Z" fill="white"/>
<path d="M42.1007 36.6038C38.2912 37.3549 36.5226 39.8864 36.5226 44.6788C36.5226 44.9191 36.7614 45.0863 36.9621 44.9525C38.714 43.7711 42.569 40.6877 42.9659 36.8303C42.9812 36.3453 42.3744 36.5734 42.1007 36.6038Z" fill="white"/>
<path d="M29.8986 36.6038C33.708 37.3549 35.4766 39.8864 35.4766 44.6788C35.4766 44.9191 35.2379 45.0863 35.0372 44.9525C33.2853 43.7711 29.4302 40.6877 29.0333 36.8303C29.0181 36.3453 29.6249 36.5734 29.8986 36.6038Z" fill="white"/>
<defs>
<filter id="filter0_d_4073_29717" x="-9.19306" y="0.537958" width="90.3861" height="90.3861" filterUnits="userSpaceOnUse" color-interpolation-filters="sRGB">
<feFlood flood-opacity="0" result="BackgroundImageFix"/>
<feColorMatrix in="SourceAlpha" type="matrix" values="0 0 0 0 0 0 0 0 0 0 0 0 0 0 0 0 0 0 127 0" result="hardAlpha"/>
<feOffset dy="9.73102"/>
<feGaussianBlur stdDeviation="14.5965"/>
<feComposite in2="hardAlpha" operator="out"/>
<feColorMatrix type="matrix" values="0 0 0 0 0 0 0 0 0 0 0 0 0 0 0 0 0 0 0.25 0"/>
<feBlend mode="normal" in2="BackgroundImageFix" result="effect1_dropShadow_4073_29717"/>
<feBlend mode="normal" in="SourceGraphic" in2="effect1_dropShadow_4073_29717" result="shape"/>
</filter>
<radialGradient id="paint0_radial_4073_29717" cx="0" cy="0" r="1" gradientUnits="userSpaceOnUse" gradientTransform="translate(49.4249 12.7702) rotate(122.784) scale(52.6726 69.2582)">
<stop stop-color="#384FCB"/>
<stop offset="0.5" stop-color="#996192"/>
<stop offset="1" stop-color="#4016A0"/>
</radialGradient>
<linearGradient id="paint1_linear_4073_29717" x1="50.8571" y1="21.1429" x2="21.1429" y2="50.8571" gradientUnits="userSpaceOnUse">
<stop stop-color="#383838"/>
<stop offset="0.5" stop-color="#ABABAB"/>
<stop offset="1" stop-color="#383838"/>
</linearGradient>
</defs>
</svg>
