<svg width="14" height="17" viewBox="0 0 14 17" fill="none" xmlns="http://www.w3.org/2000/svg">
<path d="M0.897227 7.37967C3.68471 6.9205 5.86999 4.61703 6.32773 1.83007L6.48132 0.490559C6.51934 0.277698 6.37487 -0.0187877 6.1057 0.00249846C3.9995 0.166706 2.01192 0.861546 0.906351 1.31312C0.35737 1.53814 0 2.0703 0 2.66327V7.03301C0 7.29148 0.232671 7.48914 0.488152 7.44809L0.897227 7.38119V7.37967Z" fill="white"/>
<path d="M7.67227 1.83016C8.13153 4.61713 10.3168 6.92059 13.1028 7.37976L13.5118 7.44666C13.7673 7.48924 14 7.29158 14 7.03158V2.66184C14 2.06887 13.6426 1.53672 13.0936 1.31169C11.9866 0.858602 10.0005 0.165282 7.89429 0.00107475C7.62361 -0.0202114 7.48522 0.279315 7.51716 0.489135L7.67075 1.82864L7.67227 1.83016Z" fill="white"/>
<path d="M13.1007 8.60378C9.29124 9.35488 7.52264 11.8864 7.52264 16.6788C7.52264 16.9191 7.76139 17.0863 7.96213 16.9525C9.714 15.7711 13.569 12.6877 13.9659 8.83033C13.9812 8.34531 13.3744 8.57337 13.1007 8.60378Z" fill="white"/>
<path d="M0.898632 8.60378C4.70805 9.35488 6.47665 11.8864 6.47665 16.6788C6.47665 16.9191 6.23789 17.0863 6.03716 16.9525C4.28528 15.7711 0.430248 12.6877 0.0333395 8.83033C0.0181323 8.34531 0.624901 8.57337 0.898632 8.60378Z" fill="white"/>
</svg>
