<svg xmlns="http://www.w3.org/2000/svg" width="16" height="22" fill="none"><path fill="#FBFBFB" fill-rule="evenodd" d="m13.911 4.911-12 12 .943.943 1.751-1.752A6.7 6.7 0 0 0 8 17c2.72 0 4.56-1.492 5.69-2.92a10.763 10.763 0 0 0 1.51-2.604 6.744 6.744 0 0 0 .091-.242l.005-.015.002-.005v-.002c.001 0 .001-.001-.631-.212l.632.211.07-.21-.07-.212-.632.211.632-.21v-.004l-.003-.005-.005-.015a9.836 9.836 0 0 0-.379-.89A10.765 10.765 0 0 0 13.69 7.92a9.351 9.351 0 0 0-.413-.488l1.578-1.578-.943-.943Zm-1.58 3.465-1.28 1.28a3.333 3.333 0 0 1-4.395 4.395l-1.065 1.066c.69.338 1.488.55 2.409.55 2.17 0 3.662-1.174 4.644-2.414A9.439 9.439 0 0 0 13.954 11a9.437 9.437 0 0 0-1.31-2.253 8.152 8.152 0 0 0-.312-.371Zm-4.605 4.606a2 2 0 0 0 2.255-2.255l-2.255 2.255Z" clip-rule="evenodd"/><path fill="#FBFBFB" d="M4.88 12.177 6 11.057V11a2 2 0 0 1 2.056-2l1.12-1.12a3.333 3.333 0 0 0-4.296 4.296Z"/><path fill="#FBFBFB" d="M8 6.333c.85 0 1.597.18 2.25.475l.994-.995A6.701 6.701 0 0 0 8 5C5.28 5 3.44 6.493 2.31 7.92A10.767 10.767 0 0 0 .8 10.524a6.646 6.646 0 0 0-.091.242l-.005.015-.002.005v.002C.7 10.79.7 10.79 1.332 11l-.632-.211-.07.211.07.21.632-.21-.632.21v.004l.003.005.005.016.019.053a9.801 9.801 0 0 0 .36.837c.258.53.657 1.242 1.223 1.956.095.12.196.242.302.363l.945-.945A9.435 9.435 0 0 1 2.045 11a9.433 9.433 0 0 1 1.31-2.253c.982-1.24 2.476-2.414 4.645-2.414Z"/></svg>