<svg width="16" height="22" viewBox="0 0 16 22" fill="none" xmlns="http://www.w3.org/2000/svg">
<path fill-rule="evenodd" clip-rule="evenodd" d="M8.00001 7.66667C6.15906 7.66667 4.66668 9.15905 4.66668 11C4.66668 12.8409 6.15906 14.3333 8.00001 14.3333C9.84096 14.3333 11.3333 12.8409 11.3333 11C11.3333 9.15905 9.84096 7.66667 8.00001 7.66667ZM6.00001 11C6.00001 9.89543 6.89544 9 8.00001 9C9.10458 9 10 9.89543 10 11C10 12.1046 9.10458 13 8.00001 13C6.89544 13 6.00001 12.1046 6.00001 11Z" fill="#FBFBFB"/>
<path fill-rule="evenodd" clip-rule="evenodd" d="M15.2989 10.7886C15.299 10.7889 15.2991 10.7892 14.6667 11C15.2991 11.2108 15.299 11.2111 15.2989 11.2114L15.2987 11.2121L15.2981 11.2138L15.2964 11.2188L15.291 11.2345C15.2865 11.2474 15.2802 11.2653 15.272 11.2879C15.2556 11.3329 15.2317 11.3966 15.2 11.4761C15.1366 11.6351 15.0415 11.8585 14.9121 12.1248C14.654 12.6558 14.2547 13.3664 13.6894 14.0805C12.5597 15.5074 10.7197 17 8.00001 17C5.28028 17 3.44032 15.5074 2.31065 14.0805C1.74536 13.3664 1.34605 12.6558 1.08793 12.1248C0.958473 11.8585 0.863457 11.6351 0.800043 11.4761C0.768311 11.3966 0.744421 11.3329 0.728024 11.2879C0.719824 11.2653 0.713492 11.2474 0.708985 11.2345L0.703586 11.2188L0.701902 11.2138L0.701311 11.2121L0.701079 11.2114C0.70098 11.2111 0.700888 11.2108 1.33334 11C0.700888 10.7892 0.70098 10.7889 0.701079 10.7886L0.701311 10.7879L0.701902 10.7862L0.703586 10.7812L0.708985 10.7655C0.713492 10.7526 0.719824 10.7347 0.728024 10.7121C0.744421 10.6671 0.768311 10.6034 0.800043 10.5239C0.863457 10.3649 0.958473 10.1415 1.08793 9.8752C1.34605 9.34423 1.74536 8.63358 2.31065 7.91953C3.44032 6.49258 5.28028 5 8.00001 5C10.7197 5 12.5597 6.49258 13.6894 7.91953C14.2547 8.63358 14.654 9.34423 14.9121 9.8752C15.0415 10.1415 15.1366 10.3649 15.2 10.5239C15.2317 10.6034 15.2556 10.6671 15.272 10.7121C15.2802 10.7347 15.2865 10.7526 15.291 10.7655L15.2964 10.7812L15.2981 10.7862L15.2987 10.7879L15.2989 10.7886ZM2.28709 11.5419C2.17847 11.3184 2.09868 11.1319 2.04564 11C2.09868 10.8681 2.17847 10.6816 2.28709 10.4581C2.51508 9.98911 2.86577 9.36642 3.35604 8.74714C4.33748 7.50743 5.83085 6.33333 8.00001 6.33333C10.1692 6.33333 11.6625 7.50743 12.644 8.74714C13.1342 9.36642 13.4849 9.98911 13.7129 10.4581C13.8216 10.6816 13.9013 10.8681 13.9544 11C13.9013 11.1319 13.8216 11.3184 13.7129 11.5419C13.4849 12.0109 13.1342 12.6336 12.644 13.2529C11.6625 14.4926 10.1692 15.6667 8.00001 15.6667C5.83085 15.6667 4.33748 14.4926 3.35604 13.2529C2.86577 12.6336 2.51508 12.0109 2.28709 11.5419Z" fill="#FBFBFB"/>
<path d="M1.33334 11L0.701079 11.2114L0.630615 11L0.701079 10.7886L1.33334 11Z" fill="#FBFBFB"/>
<path d="M14.6667 11L15.2989 10.7886L15.3694 11L15.2989 11.2114L14.6667 11Z" fill="#FBFBFB"/>
</svg>
