<svg width="32" height="32" viewBox="0 0 32 32" fill="none" xmlns="http://www.w3.org/2000/svg">
<rect x="0.5" y="0.5" width="31" height="31" rx="3.5" fill="#171717"/>
<rect x="0.5" y="0.5" width="31" height="31" rx="3.5" stroke="url(#paint0_linear_4691_19379)"/>
<path d="M25.5788 11.2773L26.2201 9.61603L26.1925 9.51331L19.8483 11.1852C20.5246 10.2064 20.2921 9.42163 20.2921 9.42163C20.2921 9.42163 18.2662 10.7155 16.7338 10.6814C15.2014 10.6473 14.708 10.24 12.3584 10.9879C10.0088 11.7357 9.34494 14.0359 8.66406 14.5291C7.98318 15.0223 5.84766 16.6317 5.84766 16.6317L5.85222 16.6605L7.77726 16.048C7.77726 16.048 7.24926 16.546 6.12678 18.0585C6.12678 18.0585 6.1071 18.0405 6.07446 18.0105L6.07614 18.0208C6.07614 18.0208 6.97854 19.3982 7.86366 19.144C7.96685 19.112 8.06687 19.0706 8.16246 19.0202C8.51886 19.2187 8.98422 19.4138 9.49806 19.4675C9.26688 19.1937 9.05379 18.9051 8.86014 18.6035L9.10014 18.4473L9.06366 18.472L9.79734 18.7413L9.71622 18.0518L9.72342 18.0472L10.4434 18.3112L10.3537 17.6841C10.4449 17.6361 10.5363 17.5912 10.6273 17.549L11.3787 14.7064L14.4877 12.5882L14.2409 13.2096C13.6109 14.759 12.4277 15.125 12.4277 15.125L11.9341 15.3122C11.5666 15.7464 11.4123 15.8532 11.2861 17.3102C11.582 17.2356 11.8649 17.2183 12.1213 17.2862C13.4492 17.6438 13.909 19.2441 13.5514 19.6862C13.4619 19.7971 13.2488 19.9867 12.9797 20.2087H12.4397L12.4328 20.6452L12.3773 20.6884H11.8292L11.8222 21.1144C11.7742 21.1514 11.7262 21.1876 11.6782 21.2229C11.1629 21.2337 10.5106 20.7844 10.5106 20.7844C10.5106 21.1924 10.8512 21.8229 10.8512 21.8229L10.9114 21.7936L10.8603 21.832C10.8603 21.832 12.2393 22.7515 13.1074 22.4109C13.8797 22.1083 15.8782 20.5322 17.6036 19.7865L22.8245 18.4108L23.5131 16.6274L19.5344 17.6764V16.0742L24.2017 14.8444L24.8902 13.0608L19.5344 14.472V12.87L25.5788 11.2773ZM16.1031 14.6726L17.342 14.3462L17.3585 14.4084L16.9721 15.4096L15.6877 15.748L16.1031 14.6726ZM16.5308 16.816L15.2468 17.1544L15.6617 16.079L16.9006 15.7526L16.9172 15.8148L16.5308 16.816ZM18.2038 16.456L16.9196 16.7944L17.3348 15.7192L18.5737 15.3926L18.5902 15.4548L18.2038 16.456Z" fill="white"/>
<defs>
<linearGradient id="paint0_linear_4691_19379" x1="30.8571" y1="1.14286" x2="1.14286" y2="30.8571" gradientUnits="userSpaceOnUse">
<stop stop-color="#383838"/>
<stop offset="0.5" stop-color="#ABABAB"/>
<stop offset="1" stop-color="#383838"/>
</linearGradient>
</defs>
</svg>
