<svg width="11" height="12" viewBox="0 0 11 12" fill="none" xmlns="http://www.w3.org/2000/svg">
<path d="M7.00294 9.11667C5.83528 9.11667 4.8887 8.1701 4.8887 7.00243C4.8887 5.83476 5.83528 4.88818 7.00294 4.88818C8.17061 4.88818 9.11719 5.83476 9.11719 7.00243C9.11719 8.17009 8.17061 9.11667 7.00294 9.11667Z" fill="#2D2D37"/>
<path d="M2.11121 7.66838e-07L8.77386 1.84371e-07C9.9386 8.25456e-08 10.8828 0.946402 10.8828 2.11385L10.8828 2.11464C10.8828 3.28209 9.9386 4.22849 8.77386 4.22849L2.11122 4.22849C0.946472 4.22849 0.0022605 3.28209 0.00226039 2.11464L0.00226039 2.11385C0.00226029 0.946403 0.946471 8.68663e-07 2.11121 7.66838e-07Z" fill="url(#paint0_linear_4073_29636)"/>
<path d="M4.22852 2.10916L4.22852 9.8869C4.22852 11.0516 3.28211 11.9958 2.11467 11.9958L2.11387 11.9958C0.946427 11.9958 2.48068e-05 11.0516 2.48207e-05 9.8869L2.49134e-05 2.10916C2.49273e-05 0.944418 0.946427 0.000206908 2.11387 0.000206922L2.11467 0.000206922C3.28211 0.000206936 4.22852 0.944418 4.22852 2.10916Z" fill="url(#paint1_linear_4073_29636)"/>
<path d="M2.11427 12C0.946605 12 2.50824e-05 11.0534 2.49804e-05 9.88573C2.48783e-05 8.71806 0.946605 7.77148 2.11427 7.77148C3.28194 7.77148 4.22852 8.71806 4.22852 9.88573C4.22852 11.0534 3.28194 12 2.11427 12Z" fill="white"/>
<path d="M7.00487 9.12155C8.17253 9.12155 9.11911 8.17497 9.11911 7.00731C9.11911 5.83965 8.17253 4.89307 7.00487 4.89307C5.8372 4.89307 4.89062 5.83965 4.89062 7.00731C4.89062 8.17497 5.8372 9.12155 7.00487 9.12155Z" fill="black"/>
<defs>
<linearGradient id="paint0_linear_4073_29636" x1="10.8813" y1="2.11416" x2="0.000853963" y2="2.11417" gradientUnits="userSpaceOnUse">
<stop stop-color="#635DFF"/>
<stop offset="1" stop-color="#3885FF"/>
</linearGradient>
<linearGradient id="paint1_linear_4073_29636" x1="2.11435" y1="11.9964" x2="2.11435" y2="0.000917072" gradientUnits="userSpaceOnUse">
<stop stop-color="#FF4F40"/>
<stop offset="1" stop-color="#FF44DD"/>
</linearGradient>
</defs>
</svg>
