<svg width="72" height="91" viewBox="0 0 72 91" fill="none" xmlns="http://www.w3.org/2000/svg">
<g filter="url(#filter0_d_4073_29709)">
<rect x="20" y="20" width="32" height="32" rx="4" fill="url(#paint0_radial_4073_29709)" fill-opacity="0.5" shape-rendering="crispEdges"/>
<rect x="20.5" y="20.5" width="31" height="31" rx="3.5" stroke="url(#paint1_linear_4073_29709)" shape-rendering="crispEdges"/>
</g>
<path fill-rule="evenodd" clip-rule="evenodd" d="M35.9982 28.2666C31.7284 28.2666 28.2656 31.7289 28.2656 36.0002C28.2656 39.4165 30.4813 42.3152 33.5543 43.3383C33.9412 43.409 34.0822 43.1703 34.0822 42.9652C34.0822 42.7814 34.0755 42.2953 34.0717 41.6501C31.9207 42.1173 31.4668 40.6133 31.4668 40.6133C31.115 39.7198 30.608 39.482 30.608 39.482C29.9059 39.0025 30.6612 39.012 30.6612 39.012C31.4374 39.0666 31.8457 39.8091 31.8457 39.8091C32.5355 40.9907 33.6559 40.6493 34.0964 40.4513C34.1667 39.9519 34.3666 39.611 34.5873 39.4179C32.8702 39.2222 31.0647 38.5591 31.0647 35.5957C31.0647 34.7511 31.3662 34.0613 31.8609 33.5206C31.7811 33.325 31.5157 32.5388 31.9368 31.474C31.9368 31.474 32.5858 31.266 34.0632 32.2663C34.6799 32.0949 35.3417 32.0095 35.9992 32.0062C36.6562 32.0095 37.3176 32.0949 37.9352 32.2663C39.4117 31.266 40.0597 31.474 40.0597 31.474C40.4817 32.5388 40.2163 33.325 40.1371 33.5206C40.6327 34.0613 40.9318 34.7511 40.9318 35.5957C40.9318 38.5667 39.1234 39.2204 37.4011 39.4117C37.6784 39.6505 37.9257 40.1224 37.9257 40.844C37.9257 41.8775 37.9162 42.7116 37.9162 42.9652C37.9162 43.1721 38.0558 43.4128 38.4479 43.3373C41.5185 42.3124 43.7323 39.4159 43.7323 36.0002C43.7323 31.7289 40.2695 28.2666 35.9982 28.2666Z" fill="#FBFBFB"/>
<defs>
<filter id="filter0_d_4073_29709" x="-9.19306" y="0.537958" width="90.3861" height="90.3861" filterUnits="userSpaceOnUse" color-interpolation-filters="sRGB">
<feFlood flood-opacity="0" result="BackgroundImageFix"/>
<feColorMatrix in="SourceAlpha" type="matrix" values="0 0 0 0 0 0 0 0 0 0 0 0 0 0 0 0 0 0 127 0" result="hardAlpha"/>
<feOffset dy="9.73102"/>
<feGaussianBlur stdDeviation="14.5965"/>
<feComposite in2="hardAlpha" operator="out"/>
<feColorMatrix type="matrix" values="0 0 0 0 0 0 0 0 0 0 0 0 0 0 0 0 0 0 0.25 0"/>
<feBlend mode="normal" in2="BackgroundImageFix" result="effect1_dropShadow_4073_29709"/>
<feBlend mode="normal" in="SourceGraphic" in2="effect1_dropShadow_4073_29709" result="shape"/>
</filter>
<radialGradient id="paint0_radial_4073_29709" cx="0" cy="0" r="1" gradientUnits="userSpaceOnUse" gradientTransform="translate(49.4249 12.7702) rotate(122.784) scale(52.6726 69.2582)">
<stop stop-color="#384FCB"/>
<stop offset="0.5" stop-color="#996192"/>
<stop offset="1" stop-color="#4016A0"/>
</radialGradient>
<linearGradient id="paint1_linear_4073_29709" x1="50.8571" y1="21.1429" x2="21.1429" y2="50.8571" gradientUnits="userSpaceOnUse">
<stop stop-color="#383838"/>
<stop offset="0.5" stop-color="#ABABAB"/>
<stop offset="1" stop-color="#383838"/>
</linearGradient>
</defs>
</svg>
