<svg width="72" height="72" viewBox="0 0 72 72" fill="none" xmlns="http://www.w3.org/2000/svg">
<g filter="url(#filter0_d_4073_29726)">
<rect x="20" y="20" width="32" height="32" rx="4" fill="url(#paint0_radial_4073_29726)" fill-opacity="0.5" shape-rendering="crispEdges"/>
<rect x="20.5" y="20.5" width="31" height="31" rx="3.5" stroke="url(#paint1_linear_4073_29726)" shape-rendering="crispEdges"/>
</g>
<path fill-rule="evenodd" clip-rule="evenodd" d="M28.666 32C28.666 30.8985 29.5645 30 30.666 30H41.3327C42.4342 30 43.3327 30.8985 43.3327 32V40C43.3327 41.1015 42.4342 42 41.3327 42H30.666C29.5645 42 28.666 41.1015 28.666 40V32ZM30.0704 31.7026L35.9993 35.8529L41.9283 31.7026C41.818 31.4846 41.5913 31.3333 41.3327 31.3333H30.666C30.4074 31.3333 30.1807 31.4846 30.0704 31.7026ZM41.9994 33.2804L36.3817 37.2128C36.1521 37.3735 35.8466 37.3735 35.617 37.2128L29.9993 33.2804V40C29.9993 40.3651 30.3009 40.6667 30.666 40.6667H41.3327C41.6978 40.6667 41.9994 40.3651 41.9994 40V33.2804Z" fill="#FBFBFB"/>
<defs>
<filter id="filter0_d_4073_29726" x="-9.19306" y="0.537958" width="90.3861" height="90.3861" filterUnits="userSpaceOnUse" color-interpolation-filters="sRGB">
<feFlood flood-opacity="0" result="BackgroundImageFix"/>
<feColorMatrix in="SourceAlpha" type="matrix" values="0 0 0 0 0 0 0 0 0 0 0 0 0 0 0 0 0 0 127 0" result="hardAlpha"/>
<feOffset dy="9.73102"/>
<feGaussianBlur stdDeviation="14.5965"/>
<feComposite in2="hardAlpha" operator="out"/>
<feColorMatrix type="matrix" values="0 0 0 0 0 0 0 0 0 0 0 0 0 0 0 0 0 0 0.25 0"/>
<feBlend mode="normal" in2="BackgroundImageFix" result="effect1_dropShadow_4073_29726"/>
<feBlend mode="normal" in="SourceGraphic" in2="effect1_dropShadow_4073_29726" result="shape"/>
</filter>
<radialGradient id="paint0_radial_4073_29726" cx="0" cy="0" r="1" gradientUnits="userSpaceOnUse" gradientTransform="translate(49.4249 12.7702) rotate(122.784) scale(52.6726 69.2582)">
<stop stop-color="#384FCB"/>
<stop offset="0.5" stop-color="#996192"/>
<stop offset="1" stop-color="#4016A0"/>
</radialGradient>
<linearGradient id="paint1_linear_4073_29726" x1="50.8571" y1="21.1429" x2="21.1429" y2="50.8571" gradientUnits="userSpaceOnUse">
<stop stop-color="#383838"/>
<stop offset="0.5" stop-color="#ABABAB"/>
<stop offset="1" stop-color="#383838"/>
</linearGradient>
</defs>
</svg>
