<svg width="16" height="16" viewBox="0 0 16 16" fill="none" xmlns="http://www.w3.org/2000/svg">
<path fill-rule="evenodd" clip-rule="evenodd" d="M0.666016 4C0.666016 2.89848 1.56449 2 2.66602 2H13.3327C14.4342 2 15.3327 2.89848 15.3327 4V12C15.3327 13.1015 14.4342 14 13.3327 14H2.66602C1.56449 14 0.666016 13.1015 0.666016 12V4ZM2.0704 3.70263L7.99935 7.8529L13.9283 3.70263C13.818 3.48462 13.5913 3.33333 13.3327 3.33333H2.66602C2.40737 3.33333 2.18065 3.48462 2.0704 3.70263ZM13.9994 5.28044L8.38166 9.21282C8.15211 9.3735 7.84659 9.3735 7.61704 9.21282L1.99935 5.28044V12C1.99935 12.3651 2.30087 12.6667 2.66602 12.6667H13.3327C13.6978 12.6667 13.9994 12.3651 13.9994 12V5.28044Z" fill="#FBFBFB"/>
</svg>
