<svg width="24" height="18" viewBox="0 0 24 18" fill="none" xmlns="http://www.w3.org/2000/svg">
<rect width="24" height="18" rx="3" fill="#D52B1E"/>
<path d="M6 0H18V18H6L6 0ZM12.225 14.075L12.1125 11.9175C12.1109 11.882 12.1172 11.8466 12.1311 11.8139C12.1449 11.7812 12.1659 11.752 12.1926 11.7285C12.2192 11.705 12.2507 11.6878 12.2849 11.6781C12.3191 11.6684 12.355 11.6665 12.39 11.6725L14.5375 12.05L14.2475 11.25C14.2357 11.2182 14.2342 11.1835 14.2432 11.1507C14.2522 11.118 14.2712 11.0889 14.2975 11.0675L16.65 9.1625L16.12 8.915C16.0842 8.89808 16.0558 8.86868 16.0402 8.83232C16.0245 8.79595 16.0227 8.75512 16.035 8.7175L16.5 7.2875L15.145 7.575C15.1083 7.58265 15.0701 7.57738 15.0368 7.56006C15.0035 7.54275 14.9773 7.51446 14.9625 7.48L14.7 6.8625L13.6425 7.9975C13.6183 8.023 13.5865 8.03998 13.5519 8.04589C13.5172 8.05179 13.4816 8.04631 13.4503 8.03025C13.4191 8.0142 13.3939 7.98844 13.3785 7.95684C13.3631 7.92525 13.3584 7.88951 13.365 7.855L13.875 5.225L13.0575 5.6975C13.0383 5.70875 13.017 5.71594 12.9949 5.71862C12.9728 5.7213 12.9504 5.71942 12.9291 5.71309C12.9078 5.70676 12.888 5.69612 12.8709 5.68183C12.8539 5.66754 12.84 5.6499 12.83 5.63L12 4L11.17 5.63C11.16 5.6499 11.1461 5.66754 11.1291 5.68183C11.112 5.69612 11.0922 5.70676 11.0709 5.71309C11.0496 5.71942 11.0272 5.7213 11.0051 5.71862C10.983 5.71594 10.9617 5.70875 10.9425 5.6975L10.125 5.225L10.635 7.855C10.6416 7.88951 10.6369 7.92525 10.6215 7.95684C10.6061 7.98844 10.5809 8.0142 10.5497 8.03025C10.5184 8.04631 10.4828 8.05179 10.4481 8.04589C10.4135 8.03998 10.3817 8.023 10.3575 7.9975L9.3 6.8625L9.0375 7.48C9.02271 7.51446 8.99646 7.54275 8.9632 7.56006C8.92994 7.57738 8.89171 7.58265 8.855 7.575L7.5 7.2875L7.965 8.7175C7.97732 8.75512 7.97549 8.79595 7.95984 8.83232C7.94418 8.86868 7.9158 8.89808 7.88 8.915L7.35 9.1625L9.7025 11.0675C9.72885 11.0889 9.74784 11.118 9.7568 11.1507C9.76577 11.1835 9.76427 11.2182 9.7525 11.25L9.4625 12.05L11.61 11.6725C11.645 11.6665 11.6809 11.6684 11.7151 11.6781C11.7493 11.6878 11.7808 11.705 11.8074 11.7285C11.8341 11.752 11.8551 11.7812 11.8689 11.8139C11.8828 11.8466 11.8891 11.882 11.8875 11.9175L11.775 14.075H12.225Z" fill="#F6F8FB"/>
</svg>
