<svg width="24" height="18" viewBox="0 0 24 18" fill="none" xmlns="http://www.w3.org/2000/svg">
<g clip-path="url(#clip0_572_609)">
<path d="M0 0H24V6H0V0Z" fill="#FF9933"/>
<path d="M0 6H24V12H0V6Z" fill="#F6F8FB"/>
<path d="M0 12H24V18H0V12Z" fill="#128807"/>
<path d="M12 11.4C13.3255 11.4 14.4 10.3255 14.4 8.99999C14.4 7.67451 13.3255 6.59999 12 6.59999C10.6745 6.59999 9.60001 7.67451 9.60001 8.99999C9.60001 10.3255 10.6745 11.4 12 11.4Z" fill="#000088"/>
<path d="M12 11.1C13.1598 11.1 14.1 10.1598 14.1 8.99999C14.1 7.84019 13.1598 6.89999 12 6.89999C10.8402 6.89999 9.90001 7.84019 9.90001 8.99999C9.90001 10.1598 10.8402 11.1 12 11.1Z" fill="white"/>
<path d="M12 9.41999C12.232 9.41999 12.42 9.23195 12.42 8.99999C12.42 8.76803 12.232 8.57999 12 8.57999C11.7681 8.57999 11.58 8.76803 11.58 8.99999C11.58 9.23195 11.7681 9.41999 12 9.41999Z" fill="#000088"/>
<path d="M14.0679 9.38197C14.127 9.38975 14.1813 9.34812 14.1891 9.28899C14.1969 9.22985 14.1552 9.1756 14.0961 9.16782C14.037 9.16003 13.9827 9.20166 13.9749 9.2608C13.9671 9.31993 14.0088 9.37418 14.0679 9.38197Z" fill="#000088"/>
<path d="M12 11.1L12.072 9.84001L12 9.24001L11.928 9.84001L12 11.1Z" fill="#000088"/>
<path d="M13.8986 9.90418C13.9537 9.927 14.0169 9.90083 14.0397 9.84573C14.0625 9.79062 14.0363 9.72744 13.9812 9.70462C13.9261 9.68179 13.8629 9.70796 13.8401 9.76307C13.8173 9.81817 13.8435 9.88135 13.8986 9.90418Z" fill="#000088"/>
<path d="M11.4565 11.0285L11.8521 9.83002L11.9379 9.23183L11.7131 9.79275L11.4565 11.0285Z" fill="#000088"/>
<path d="M13.5999 10.3648C13.6472 10.4011 13.715 10.3921 13.7513 10.3448C13.7876 10.2975 13.7787 10.2297 13.7314 10.1934C13.684 10.1571 13.6163 10.166 13.5799 10.2133C13.5436 10.2606 13.5526 10.3284 13.5999 10.3648Z" fill="#000088"/>
<path d="M10.95 10.8187L11.6423 9.76347L11.88 9.20785L11.5176 9.69147L10.95 10.8187Z" fill="#000088"/>
<path d="M13.1921 10.7323C13.2284 10.7796 13.2962 10.7886 13.3435 10.7523C13.3909 10.7159 13.3998 10.6481 13.3635 10.6008C13.3272 10.5535 13.2594 10.5446 13.2121 10.5809C13.1647 10.6172 13.1558 10.685 13.1921 10.7323Z" fill="#000088"/>
<path d="M10.5151 10.4849L11.4569 9.64489L11.8303 9.16971L11.3551 9.54306L10.5151 10.4849Z" fill="#000088"/>
<path d="M12.7031 10.9818C12.726 11.0369 12.7891 11.0631 12.8443 11.0403C12.8994 11.0175 12.9255 10.9543 12.9027 10.8992C12.8799 10.8441 12.8167 10.8179 12.7616 10.8407C12.7065 10.8636 12.6803 10.9267 12.7031 10.9818Z" fill="#000088"/>
<path d="M10.1813 10.05L11.3085 9.48236L11.7922 9.12001L11.2365 9.35765L10.1813 10.05Z" fill="#000088"/>
<path d="M12.1662 11.0963C12.174 11.1554 12.2283 11.1971 12.2874 11.1893C12.3466 11.1815 12.3882 11.1273 12.3804 11.0681C12.3726 11.009 12.3184 10.9674 12.2592 10.9751C12.2001 10.9829 12.1585 11.0372 12.1662 11.0963Z" fill="#000088"/>
<path d="M9.97155 9.54354L11.2072 9.28697L11.7682 9.06214L11.17 9.14788L9.97155 9.54354Z" fill="#000088"/>
<path d="M11.618 11.0679C11.6102 11.127 11.6519 11.1813 11.711 11.1891C11.7701 11.1969 11.8244 11.1552 11.8322 11.0961C11.84 11.037 11.7983 10.9827 11.7392 10.9749C11.6801 10.9671 11.6258 11.0088 11.618 11.0679Z" fill="#000088"/>
<path d="M9.90001 8.99999L11.16 9.07201L11.76 9.00001L11.16 8.92801L9.90001 8.99999Z" fill="#000088"/>
<path d="M11.0958 10.8986C11.073 10.9537 11.0992 11.0169 11.1543 11.0397C11.2094 11.0625 11.2726 11.0364 11.2954 10.9812C11.3182 10.9261 11.292 10.863 11.2369 10.8401C11.1818 10.8173 11.1187 10.8435 11.0958 10.8986Z" fill="#000088"/>
<path d="M9.97156 8.45649L11.17 8.85215L11.7682 8.93789L11.2073 8.71305L9.97156 8.45649Z" fill="#000088"/>
<path d="M10.6352 10.5999C10.5989 10.6472 10.6078 10.715 10.6552 10.7513C10.7025 10.7876 10.7703 10.7787 10.8066 10.7313C10.8429 10.684 10.834 10.6162 10.7867 10.5799C10.7393 10.5436 10.6715 10.5525 10.6352 10.5999Z" fill="#000088"/>
<path d="M10.1813 7.94999L11.2365 8.64234L11.7921 8.87999L11.3085 8.51763L10.1813 7.94999Z" fill="#000088"/>
<path d="M10.2677 10.1921C10.2204 10.2284 10.2114 10.2962 10.2477 10.3436C10.284 10.3909 10.3518 10.3998 10.3992 10.3635C10.4465 10.3272 10.4554 10.2594 10.4191 10.2121C10.3828 10.1647 10.315 10.1558 10.2677 10.1921Z" fill="#000088"/>
<path d="M10.5151 7.51506L11.3551 8.45693L11.8303 8.83028L11.4569 8.35511L10.5151 7.51506Z" fill="#000088"/>
<path d="M10.0182 9.70315C9.96306 9.72597 9.93689 9.78915 9.95972 9.84426C9.98254 9.89936 10.0457 9.92553 10.1008 9.9027C10.1559 9.87988 10.1821 9.8167 10.1593 9.7616C10.1364 9.70649 10.0733 9.68032 10.0182 9.70315Z" fill="#000088"/>
<path d="M10.95 7.18133L11.5176 8.30852L11.88 8.79214L11.6424 8.23652L10.95 7.18133Z" fill="#000088"/>
<path d="M9.90373 9.16624C9.84459 9.17403 9.80296 9.22828 9.81075 9.28742C9.81853 9.34655 9.87278 9.38818 9.93192 9.38039C9.99106 9.37261 10.0327 9.31836 10.0249 9.25922C10.0171 9.20009 9.96286 9.15846 9.90373 9.16624Z" fill="#000088"/>
<path d="M11.4565 6.97153L11.7131 8.20723L11.9379 8.76815L11.8522 8.16996L11.4565 6.97153Z" fill="#000088"/>
<path d="M9.93212 8.61804C9.87298 8.61025 9.81873 8.65188 9.81095 8.71102C9.80316 8.77015 9.84479 8.8244 9.90393 8.83219C9.96306 8.83998 10.0173 8.79835 10.0251 8.73921C10.0329 8.68007 9.99126 8.62582 9.93212 8.61804Z" fill="#000088"/>
<path d="M12 6.89999L11.928 8.16L12 8.76L12.072 8.16L12 6.89999Z" fill="#000088"/>
<path d="M10.1014 8.09584C10.0463 8.07301 9.98314 8.09918 9.96031 8.15429C9.93749 8.20939 9.96366 8.27257 10.0188 8.2954C10.0739 8.31822 10.137 8.29205 10.1599 8.23695C10.1827 8.18184 10.1565 8.11866 10.1014 8.09584Z" fill="#000088"/>
<path d="M12.5435 6.97156L12.1478 8.16999L12.0621 8.76818L12.2869 8.20726L12.5435 6.97156Z" fill="#000088"/>
<path d="M10.4001 7.63524C10.3528 7.59893 10.285 7.60786 10.2487 7.65518C10.2124 7.7025 10.2213 7.77029 10.2686 7.80661C10.316 7.84292 10.3838 7.83399 10.4201 7.78667C10.4564 7.73935 10.4475 7.67155 10.4001 7.63524Z" fill="#000088"/>
<path d="M13.05 7.18132L12.3576 8.23652L12.12 8.79213L12.4824 8.30852L13.05 7.18132Z" fill="#000088"/>
<path d="M10.8079 7.26767C10.7716 7.22035 10.7038 7.21142 10.6565 7.24774C10.6091 7.28405 10.6002 7.35184 10.6365 7.39916C10.6728 7.44648 10.7406 7.45541 10.7879 7.4191C10.8353 7.38279 10.8442 7.31499 10.8079 7.26767Z" fill="#000088"/>
<path d="M13.4849 7.51506L12.5431 8.3551L12.1697 8.83028L12.6449 8.45693L13.4849 7.51506Z" fill="#000088"/>
<path d="M11.2969 7.01817C11.274 6.96306 11.2109 6.93689 11.1557 6.95972C11.1006 6.98254 11.0745 7.04572 11.0973 7.10083C11.1201 7.15593 11.1833 7.1821 11.2384 7.15928C11.2935 7.13645 11.3197 7.07327 11.2969 7.01817Z" fill="#000088"/>
<path d="M13.8187 7.95L12.6915 8.51765L12.2079 8.88L12.7635 8.64236L13.8187 7.95Z" fill="#000088"/>
<path d="M11.8338 6.9037C11.826 6.84456 11.7717 6.80293 11.7126 6.81072C11.6534 6.8185 11.6118 6.87276 11.6196 6.93189C11.6274 6.99103 11.6816 7.03266 11.7408 7.02487C11.7999 7.01709 11.8415 6.96283 11.8338 6.9037Z" fill="#000088"/>
<path d="M14.0285 8.45647L12.7928 8.71303L12.2318 8.93787L12.83 8.85213L14.0285 8.45647Z" fill="#000088"/>
<path d="M12.382 6.9321C12.3898 6.87297 12.3481 6.81871 12.289 6.81093C12.2299 6.80314 12.1756 6.84477 12.1678 6.90391C12.1601 6.96304 12.2017 7.0173 12.2608 7.02508C12.32 7.03287 12.3742 6.99124 12.382 6.9321Z" fill="#000088"/>
<path d="M14.1 8.99999L12.84 8.928L12.24 9L12.84 9.072L14.1 8.99999Z" fill="#000088"/>
<path d="M12.9042 7.10143C12.927 7.04632 12.9008 6.98314 12.8457 6.96032C12.7906 6.93749 12.7274 6.96366 12.7046 7.01877C12.6818 7.07387 12.708 7.13705 12.7631 7.15987C12.8182 7.1827 12.8813 7.15653 12.9042 7.10143Z" fill="#000088"/>
<path d="M14.0284 9.54352L12.83 9.14786L12.2318 9.06212L12.7927 9.28695L14.0284 9.54352Z" fill="#000088"/>
<path d="M13.3648 7.40014C13.4011 7.35281 13.3921 7.28502 13.3448 7.24871C13.2975 7.2124 13.2297 7.22132 13.1934 7.26864C13.1571 7.31596 13.166 7.38376 13.2133 7.42007C13.2606 7.45638 13.3284 7.44746 13.3648 7.40014Z" fill="#000088"/>
<path d="M13.8187 10.05L12.7635 9.35765L12.2079 9.12L12.6915 9.48235L13.8187 10.05Z" fill="#000088"/>
<path d="M13.7323 7.80786C13.7796 7.77155 13.7885 7.70375 13.7522 7.65643C13.7159 7.60911 13.6481 7.60018 13.6008 7.63649C13.5535 7.6728 13.5446 7.7406 13.5809 7.78792C13.6172 7.83524 13.685 7.84417 13.7323 7.80786Z" fill="#000088"/>
<path d="M13.4849 10.4849L12.6449 9.54305L12.1697 9.1697L12.5431 9.64487L13.4849 10.4849Z" fill="#000088"/>
<path d="M13.9819 8.29682C14.037 8.274 14.0631 8.21082 14.0403 8.15572C14.0175 8.10061 13.9543 8.07444 13.8992 8.09727C13.8441 8.12009 13.8179 8.18327 13.8407 8.23838C13.8636 8.29348 13.9267 8.31965 13.9819 8.29682Z" fill="#000088"/>
<path d="M13.05 10.8186L12.4824 9.69145L12.12 9.20783L12.3576 9.76345L13.05 10.8186Z" fill="#000088"/>
<path d="M14.0963 8.83373C14.1554 8.82594 14.1971 8.77169 14.1893 8.71256C14.1815 8.65342 14.1273 8.61179 14.0681 8.61958C14.009 8.62736 13.9674 8.68161 13.9751 8.74075C13.9829 8.79989 14.0372 8.84151 14.0963 8.83373Z" fill="#000088"/>
<path d="M12.5435 11.0284L12.287 9.79273L12.0621 9.23181L12.1479 9.83L12.5435 11.0284Z" fill="#000088"/>
</g>
<defs>
<clipPath id="clip0_572_609">
<rect width="24" height="18" rx="3" fill="white"/>
</clipPath>
</defs>
</svg>
