<svg width="24" height="18" viewBox="0 0 24 18" fill="none" xmlns="http://www.w3.org/2000/svg">
<g clip-path="url(#clip0_463_538)">
<path d="M12.4615 1.38434H24V-0.000274658H12.4615V1.38434Z" fill="#B22334"/>
<path d="M0 15.2308H24V13.8462H0V15.2308Z" fill="#B22334"/>
<path d="M12.4615 9.69229H24V8.30768H12.4615V9.69229Z" fill="#B22334"/>
<path d="M12.4615 6.92307H24V5.53845H12.4615V6.92307Z" fill="#B22334"/>
<path d="M0 12.4616H24V11.0769H0V12.4616Z" fill="#B22334"/>
<path d="M0 17.9994H24V16.6148H0V17.9994Z" fill="#B22334"/>
<path d="M12.4615 4.15384H24V2.76923H12.4615V4.15384Z" fill="#B22334"/>
<path d="M0 16.6154H24V15.2308H0V16.6154Z" fill="#EEEEEE"/>
<path d="M0 13.8462H24V12.4615H0V13.8462Z" fill="#EEEEEE"/>
<path d="M0 9.69232V11.0769H24V9.69232H0Z" fill="#EEEEEE"/>
<path d="M12.4615 8.30768H24V6.92307H12.4615V8.30768Z" fill="#EEEEEE"/>
<path d="M12.4615 5.53845H24V4.15384H12.4615V5.53845Z" fill="#EEEEEE"/>
<path d="M12.4615 2.76895H24V1.38434H12.4615V2.76895Z" fill="#EEEEEE"/>
<rect x="0.0015564" y="0.00231934" width="12.46" height="9.69" fill="#3C3B6E"/>
<path d="M1.38562 1.88695L1.81347 2.19779L1.65008 2.70041L2.07724 2.38956L2.50508 2.70041L2.341 2.19779L2.76954 1.88695H2.24062L2.07724 1.38433L1.91454 1.88695H1.38562Z" fill="white"/>
<path d="M2.77023 3.27156L3.19808 3.58241L3.034 4.08502L3.46185 3.77418L3.88969 4.08502L3.72562 3.58241L4.15416 3.27156H3.62523L3.46185 2.76895L3.29916 3.27156H2.77023Z" fill="white"/>
<path d="M5.53946 3.27156L5.96731 3.58241L5.80323 4.08502L6.23107 3.77418L6.65892 4.08502L6.49484 3.58241L6.92338 3.27156H6.39446L6.23107 2.76895L6.06838 3.27156H5.53946Z" fill="white"/>
<path d="M8.30869 3.27156L8.73653 3.58241L8.57245 4.08502L9.0003 3.77418L9.42815 4.08502L9.26407 3.58241L9.69261 3.27156H9.16369L9.0003 2.76895L8.83761 3.27156H8.30869Z" fill="white"/>
<path d="M2.77023 6.04079L3.19808 6.35163L3.034 6.85425L3.46185 6.5434L3.88969 6.85425L3.72562 6.35163L4.15416 6.04079H3.62523L3.46185 5.53817L3.29916 6.04079H2.77023Z" fill="white"/>
<path d="M5.53946 6.04079L5.96731 6.35163L5.80323 6.85425L6.23107 6.5434L6.65892 6.85425L6.49484 6.35163L6.92338 6.04079H6.39446L6.23107 5.53817L6.06838 6.04079H5.53946Z" fill="white"/>
<path d="M8.30869 6.04079L8.73653 6.35163L8.57245 6.85425L9.0003 6.5434L9.42815 6.85425L9.26407 6.35163L9.69261 6.04079H9.16369L9.0003 5.53817L8.83761 6.04079H8.30869Z" fill="white"/>
<path d="M4.15485 1.88695L4.58269 2.19779L4.41862 2.70041L4.84646 2.38956L5.27431 2.70041L5.11023 2.19779L5.53877 1.88695H5.00985L4.84646 1.38433L4.68377 1.88695H4.15485Z" fill="white"/>
<path d="M6.92407 1.88695L7.35192 2.19779L7.18784 2.70041L7.61569 2.38956L8.04353 2.70041L7.87946 2.19779L8.308 1.88695H7.77907L7.61569 1.38433L7.453 1.88695H6.92407Z" fill="white"/>
<path d="M9.6933 1.88695L10.1211 2.19779L9.95707 2.70041L10.3849 2.38956L10.8128 2.70041L10.6487 2.19779L11.0772 1.88695H10.5483L10.3849 1.38433L10.2222 1.88695H9.6933Z" fill="white"/>
<path d="M1.38562 4.65617L1.81347 4.96702L1.65008 5.46964L2.07724 5.15879L2.50508 5.46964L2.341 4.96702L2.76954 4.65617H2.24062L2.07724 4.15356L1.91454 4.65617H1.38562Z" fill="white"/>
<path d="M4.41889 5.46951L4.84674 5.15867L5.27389 5.46951L5.11051 4.9669L5.53835 4.65605H5.01012L4.84674 4.15413L4.68335 4.65605H4.15512L4.58227 4.9669L4.41889 5.46951Z" fill="white"/>
<path d="M6.92407 4.65617L7.35192 4.96702L7.18784 5.46964L7.61569 5.15879L8.04353 5.46964L7.87946 4.96702L8.308 4.65617H7.77907L7.61569 4.15356L7.453 4.65617H6.92407Z" fill="white"/>
<path d="M9.6933 4.65617L10.1211 4.96702L9.95707 5.46964L10.3849 5.15879L10.8128 5.46964L10.6487 4.96702L11.0772 4.65617H10.5483L10.3849 4.15356L10.2222 4.65617H9.6933Z" fill="white"/>
<path d="M1.38562 7.4254L1.81347 7.73625L1.65008 8.23886L2.07724 7.92801L2.50508 8.23886L2.341 7.73625L2.76954 7.4254H2.24062L2.07724 6.92278L1.91454 7.4254H1.38562Z" fill="white"/>
<path d="M4.41889 8.23874L4.84674 7.92789L5.27389 8.23874L5.11051 7.73612L5.53835 7.42528H5.01012L4.84674 6.92335L4.68335 7.42528H4.15512L4.58227 7.73612L4.41889 8.23874Z" fill="white"/>
<path d="M6.92407 7.4254L7.35192 7.73625L7.18784 8.23886L7.61569 7.92801L8.04353 8.23886L7.87946 7.73625L8.308 7.4254H7.77907L7.61569 6.92278L7.453 7.4254H6.92407Z" fill="white"/>
<path d="M9.6933 7.4254L10.1211 7.73625L9.95707 8.23886L10.3849 7.92801L10.8128 8.23886L10.6487 7.73625L11.0772 7.4254H10.5483L10.3849 6.92278L10.2222 7.4254H9.6933Z" fill="white"/>
</g>
<defs>
<clipPath id="clip0_463_538">
<rect width="24" height="18" rx="3" fill="white"/>
</clipPath>
</defs>
</svg>
