<svg width="24" height="18" viewBox="0 0 24 18" fill="none" xmlns="http://www.w3.org/2000/svg">
<rect width="24" height="18" rx="3" fill="#1E212A"/>
<path fill-rule="evenodd" clip-rule="evenodd" d="M6 9.00002C6 5.68631 8.68629 3.00002 12 3.00002C15.3137 3.00002 18 5.68631 18 9.00002C18 12.3137 15.3137 15 12 15C8.68629 15 6 12.3137 6 9.00002ZM7.02469 8.50002H9.32378C9.44308 6.92889 9.97645 5.42167 10.8633 4.12979C8.80711 4.6078 7.23772 6.3544 7.02469 8.50002ZM12 4.27183C11.0411 5.48676 10.4591 6.95707 10.327 8.50002H13.673C13.5409 6.95707 12.9589 5.48676 12 4.27183ZM13.673 9.50002C13.5409 11.043 12.9589 12.5133 12 13.7282C11.0411 12.5133 10.4591 11.043 10.327 9.50002H13.673ZM9.32378 9.50002H7.02469C7.23772 11.6456 8.80711 13.3922 10.8633 13.8702C9.97645 12.5784 9.44308 11.0711 9.32378 9.50002ZM13.1367 13.8702C14.0236 12.5784 14.5569 11.0711 14.6762 9.50002H16.9753C16.7623 11.6456 15.1929 13.3922 13.1367 13.8702ZM16.9753 8.50002H14.6762C14.5569 6.92889 14.0236 5.42167 13.1367 4.12979C15.1929 4.6078 16.7623 6.3544 16.9753 8.50002Z" fill="white"/>
</svg>
