<svg width="24" height="18" viewBox="0 0 24 18" fill="none" xmlns="http://www.w3.org/2000/svg">
<rect width="24" height="18" rx="3" fill="#003399"/>
<path d="M12.3595 3.4279L12.9255 3.01657H12.2261L12.0095 2.35123L11.7935 3.01657H11.0941L11.6601 3.4279L11.4435 4.09323L12.0095 3.6819L12.5755 4.09323L12.3595 3.4279Z" fill="#FFCC00"/>
<path d="M12.3595 14.9834L12.9255 14.5721H12.2261L12.0095 13.9068L11.7935 14.5721H11.0941L11.6601 14.9834L11.4435 15.6488L12.0095 15.2374L12.5755 15.6488L12.3595 14.9834Z" fill="#FFCC00"/>
<path d="M6.58168 9.2057L7.14768 8.79437H6.44835L6.23168 8.12904L6.01568 8.79437H5.31635L5.88235 9.2057L5.66568 9.87104L6.23168 9.4597L6.79768 9.87104L6.58168 9.2057Z" fill="#FFCC00"/>
<path d="M7.31994 6.3489L7.88594 5.93757H7.18661L6.96994 5.27223L6.75394 5.93757H6.05461L6.62061 6.3489L6.40394 7.01424L6.96994 6.6029L7.53594 7.01424L7.31994 6.3489Z" fill="#FFCC00"/>
<path d="M7.31994 12.0946L7.88594 11.6832H7.18661L6.96994 11.0179L6.75394 11.6832H6.05461L6.62061 12.0946L6.40394 12.7599L6.96994 12.3486L7.53594 12.7599L7.31994 12.0946Z" fill="#FFCC00"/>
<path d="M9.47054 4.20197L10.0365 3.79063H9.33721L9.12054 3.1253L8.90454 3.79063H8.20521L8.77121 4.20197L8.55454 4.8673L9.12054 4.45597L9.68654 4.8673L9.47054 4.20197Z" fill="#FFCC00"/>
<path d="M9.47054 14.2471L10.0365 13.8358H9.33721L9.12054 13.1704L8.90454 13.8358H8.20521L8.77121 14.2471L8.55454 14.9124L9.12054 14.5011L9.68654 14.9124L9.47054 14.2471Z" fill="#FFCC00"/>
<path d="M17.4183 9.2057L16.8523 8.79437H17.5517L17.7683 8.12904L17.9843 8.79437H18.6837L18.1177 9.2057L18.3343 9.87104L17.7683 9.4597L17.2023 9.87104L17.4183 9.2057Z" fill="#FFCC00"/>
<path d="M16.6801 6.3489L16.1141 5.93757H16.8134L17.0301 5.27223L17.2461 5.93757H17.9454L17.3794 6.3489L17.5961 7.01424L17.0301 6.6029L16.4641 7.01424L16.6801 6.3489Z" fill="#FFCC00"/>
<path d="M16.6801 12.0946L16.1141 11.6832H16.8134L17.0301 11.0179L17.2461 11.6832H17.9454L17.3794 12.0946L17.5961 12.7599L17.0301 12.3486L16.4641 12.7599L16.6801 12.0946Z" fill="#FFCC00"/>
<path d="M14.5295 4.20197L13.9635 3.79063H14.6628L14.8795 3.1253L15.0955 3.79063H15.7948L15.2288 4.20197L15.4455 4.8673L14.8795 4.45597L14.3135 4.8673L14.5295 4.20197Z" fill="#FFCC00"/>
<path d="M14.5295 14.2471L13.9635 13.8358H14.6628L14.8795 13.1704L15.0955 13.8358H15.7948L15.2288 14.2471L15.4455 14.9124L14.8795 14.5011L14.3135 14.9124L14.5295 14.2471Z" fill="#FFCC00"/>
</svg>
