<svg width="24" height="18" viewBox="0 0 24 18" fill="none" xmlns="http://www.w3.org/2000/svg">
<g clip-path="url(#clip0_463_540)">
<rect width="24" height="18" rx="3" fill="#00247D"/>
<path d="M6.00053 14.0154L5.18588 14.7681L5.26654 13.6614L4.16922 13.4941L5.08454 12.8668L4.53255 11.9055L5.5932 12.2301L6.00053 11.1975L6.40786 12.2301L7.46918 11.9055L6.91586 12.8668L7.83185 13.4941L6.73452 13.6614L6.81586 14.7681L6.00053 14.0154Z" fill="#F6F8FB"/>
<path d="M18.6335 3.0413L18.1009 3.53329L18.1535 2.8093L17.4355 2.69997L18.0349 2.28998L17.6735 1.66065L18.3669 1.87331L18.6335 1.19799L18.9002 1.87331L19.5942 1.66065L19.2322 2.28998L19.8315 2.69997L19.1142 2.8093L19.1669 3.53329L18.6335 3.0413Z" fill="#F6F8FB"/>
<path d="M15.9669 7.04159L15.4342 7.53358L15.4869 6.80959L14.7689 6.70026L15.3682 6.29026L15.0069 5.66094L15.7002 5.8736L15.9669 5.19761L16.2336 5.8736L16.9275 5.66094L16.5656 6.29026L17.1649 6.70026L16.4476 6.80959L16.5002 7.53358L15.9669 7.04159Z" fill="#F6F8FB"/>
<path d="M21.9668 5.70827L21.4342 6.20026L21.4868 5.47627L20.7688 5.36694L21.3682 4.95694L21.0068 4.32762L21.7002 4.54028L21.9668 3.86429L22.2335 4.54028L22.9275 4.32762L22.5655 4.95694L23.1648 5.36694L22.4475 5.47627L22.5001 6.20026L21.9668 5.70827Z" fill="#F6F8FB"/>
<path d="M18.6335 15.0415L18.1009 15.5335L18.1535 14.8095L17.4355 14.7002L18.0349 14.2902L17.6735 13.6608L18.3669 13.8735L18.6335 13.1975L18.9002 13.8735L19.5942 13.6608L19.2322 14.2902L19.8315 14.7002L19.1142 14.8095L19.1669 15.5335L18.6335 15.0415Z" fill="#F6F8FB"/>
<path d="M20.6667 7.33326L20.8627 7.73059L21.3007 7.79392L20.984 8.10258L21.0587 8.53925L20.6667 8.33325L20.2747 8.53925L20.3494 8.10258L20.0327 7.79392L20.4707 7.73059L20.6667 7.33326Z" fill="#F6F8FB"/>
<path d="M12.6668 -5.72205e-06H2.6669C1.19425 -5.72205e-06 0.000267029 1.19398 0.000267029 2.66663V8.66656H12.6668V-5.72205e-06Z" fill="#00247D"/>
<path d="M12.6668 8.66656V7.31391L7.93351 3.99995H4.44755L11.1121 8.66656H12.6668Z" fill="#EEEEEE"/>
<path d="M12.6668 7.72125L7.35285 3.99996H6.19086L12.6668 8.53458V7.72125Z" fill="#CF1B2B"/>
<path d="M5.39994 3.99995L0 7.84391V8.66656H2.22131L8.88657 3.99995H5.39994Z" fill="#EEEEEE"/>
<path d="M7.14278 3.99995L0.489525 8.66656H0.666856H1.64084L8.30544 3.99995H7.14278Z" fill="#CF1B2B"/>
<path d="M11.1127 -4.29153e-06L4.44815 4.66661H7.93411L12.6667 1.35265V-4.29153e-06H11.1127Z" fill="#EEEEEE"/>
<path d="M11.6929 -4.29153e-06L5.02895 4.66661H6.19093L12.6669 0.131994V-4.29153e-06H11.6929Z" fill="#CF1B2B"/>
<path d="M6.66686 4.66662H8.8855L2.22158 9.53674e-07H0.666929L0.250267 1.06266L6.66686 5.55394V4.66662Z" fill="#EEEEEE"/>
<path d="M6.66686 4.66661H7.14285L0.666925 0.131997L0.333595 0.708657L6.66686 5.14794V4.66661Z" fill="#CF1B2B"/>
<path d="M12.6668 2.66663H8.00018V-5.72205e-06H4.66688V2.66663H0.000267029V5.99993H4.66688V8.66656H8.00018V5.99993H12.6668V2.66663Z" fill="#EEEEEE"/>
<path d="M7.33352 8.66656H5.33354V-5.72205e-06H7.33352V8.66656Z" fill="#CF1B2B"/>
<path d="M12.6668 5.33327H0.000267029V3.3333H12.6668V5.33327Z" fill="#CF1B2B"/>
</g>
<defs>
<clipPath id="clip0_463_540">
<rect width="24" height="18" rx="3" fill="white"/>
</clipPath>
</defs>
</svg>
