<svg width="24" height="18" viewBox="0 0 24 18" fill="none" xmlns="http://www.w3.org/2000/svg">
<g clip-path="url(#clip0_463_535)">
<path d="M24 0L0 0V18H24L24 0Z" fill="#F6F8FB"/>
<path d="M16.0506 6.49566L24 0.782655L24 0L23.4235 0L14.4121 6.49566H16.0506Z" fill="#BD0034"/>
<path d="M15.6865 11.8174L24 17.8435V16.6696L17.3552 11.8174H15.6865Z" fill="#BD0034"/>
<path d="M0 1.33048L7.09986 6.49566H8.76864L0 0.156555V1.33048Z" fill="#BD0034"/>
<path d="M8.37419 11.8174L0 17.9217V18L1.51707 18L10.043 11.8174H8.37419Z" fill="#BD0034"/>
<path d="M22.3312 0H13.957V6.02611L22.3312 0Z" fill="#1A237B"/>
<path d="M10.2554 0H1.88115L10.2554 6.02611V0Z" fill="#1A237B"/>
<path d="M24 6.49565V2.34785L18.2958 6.49565H24Z" fill="#1A237B"/>
<path d="M24 15.887V11.8174H18.2958L24 15.887Z" fill="#1A237B"/>
<path d="M2.36662 18H10.2554V12.3652L2.36662 18Z" fill="#1A237B"/>
<path d="M13.957 18H21.8761L13.957 12.3652V18Z" fill="#1A237B"/>
<path d="M0 11.8174V16.1218L5.91655 11.8174H0Z" fill="#1A237B"/>
<path d="M0 6.49566H5.91655L0 2.19136V6.49566Z" fill="#1A237B"/>
<path d="M10.9835 0V7.5913H0V10.8H10.9835V18H13.1985V10.8H24V7.5913H13.1985V0H10.9835Z" fill="#BD0034"/>
</g>
<defs>
<clipPath id="clip0_463_535">
<rect width="24" height="18" rx="3" fill="white"/>
</clipPath>
</defs>
</svg>
